<svg width="194" height="258" viewBox="0 0 194 258" fill="none" xmlns="http://www.w3.org/2000/svg">
<g clip-path="url(#clip0_311_121)">
<path d="M86.8069 252.795C13.5904 146.652 0 135.759 0 96.75C0 43.3163 43.3163 0 96.75 0C150.184 0 193.5 43.3163 193.5 96.75C193.5 135.759 179.91 146.652 106.693 252.795C101.888 259.735 91.6112 259.735 86.8069 252.795ZM96.75 137.062C119.014 137.062 137.062 119.014 137.062 96.75C137.062 74.4859 119.014 56.4375 96.75 56.4375C74.4859 56.4375 56.4375 74.4859 56.4375 96.75C56.4375 119.014 74.4859 137.062 96.75 137.062Z" fill="#3C3C3B"/>
</g>
<defs>
<clipPath id="clip0_311_121">
<rect width="193.5" height="258" fill="white"/>
</clipPath>
</defs>
</svg>
