<?xml version="1.0" encoding="utf-8"?>
<!-- Generator: Adobe Illustrator 23.0.1, SVG Export Plug-In . SVG Version: 6.00 Build 0)  -->
<svg version="1.1" id="Capa_1" xmlns="http://www.w3.org/2000/svg" xmlns:xlink="http://www.w3.org/1999/xlink" x="0px" y="0px"
	 viewBox="0 0 450.4 450.4" style="enable-background:new 0 0 450.4 450.4;" xml:space="preserve">
<style type="text/css">
	.st0{display:none;}
	.st1{display:inline;}
	.st2{fill:#29275B;}
</style>
<g class="st0">
	<g class="st1">
		<path d="M143.7,350.3c-26,0-47,21.1-47,47c0,26,21.1,47,47,47c26,0,47-21.1,47-47S169.6,350.3,143.7,350.3z M143.7,423.5
			c-14.4,0-26.1-11.7-26.1-26.1s11.7-26.1,26.1-26.1s26.1,11.7,26.1,26.1S158.1,423.5,143.7,423.5z"/>
		<path d="M342.2,350.3c-26,0-47,21.1-47,47c0,26,21.1,47,47,47s47-21.1,47-47S368.2,350.3,342.2,350.3z M342.2,423.5
			c-14.4,0-26.1-11.7-26.1-26.1s11.7-26.1,26.1-26.1s26.1,11.7,26.1,26.1C368.3,411.8,356.6,423.5,342.2,423.5z"/>
		<path d="M448.3,76c-2.2-2.4-5.2-3.9-8.4-4.2L99.8,67.2l-9.4-28.7C83.8,19.2,65.8,6.2,45.5,6h-35C4.7,6,0,10.7,0,16.5
			s4.7,10.4,10.4,10.4h35c11.4,0.3,21.4,7.5,25.1,18.3l66.4,200.1l-5.2,12c-5.8,15-4.1,31.9,4.7,45.5c8.7,13.3,23.3,21.5,39.2,21.9
			h203.2c5.8,0,10.4-4.7,10.4-10.4s-4.7-10.4-10.4-10.4H175.5c-9-0.2-17.2-4.9-21.9-12.5c-4.7-7.5-5.7-16.8-2.6-25.1l4.2-9.4l220-23
			c24.2-2.7,44-20.2,49.6-43.9l25.1-105C451,81.9,450.4,78.5,448.3,76z M404.4,185.2c-3.4,15.2-16.3,26.5-31.9,27.7l-217.3,22.5
			L106.6,88.1l320.3,4.7L404.4,185.2z"/>
	</g>
</g>
<g transform="translate(0.000000,41.000000) scale(0.100000,-0.100000)">
	<path class="st2" d="M887.2,206.1C64.5-216.1-227.7-1276.9,259.4-2034.6C649-2629.9,1634-2900.5,2305.1-2597.4
		c216.5,97.4,313.9,97.4,443.8-10.8c97.4-75.8,151.5-205.7,119.1-270.6c-21.6-75.8,194.8-368,487.1-660.3l530.4-519.6l292.3,292.3
		l292.3,292.3l-519.6,530.4c-292.3,303.1-573.7,519.6-627.8,487.1c-54.1-32.5-194.8,21.6-303.1,119.1
		c-184,173.2-194.8,216.5-54.1,411.3c86.6,129.9,162.4,454.6,162.4,725.2C3127.8,22,1958.8,747.3,887.2,206.1z M2272.7-151.1
		c1017.5-681.9,519.6-2240.6-703.6-2240.6C454.2-2391.8-87-1071.2,724.8-313.5C1244.4,173.6,1720.6,216.9,2272.7-151.1z"/>
</g>
</svg>
