<svg width="258" height="258" viewBox="0 0 258 258" fill="none" xmlns="http://www.w3.org/2000/svg">
<path d="M129 0C57.7379 0 0 57.7379 0 129C0 200.262 57.7379 258 129 258C200.262 258 258 200.262 258 129C258 57.7379 200.262 0 129 0ZM129 49.9355C154.28 49.9355 174.774 70.4298 174.774 95.7097C174.774 120.99 154.28 141.484 129 141.484C103.72 141.484 83.2258 120.99 83.2258 95.7097C83.2258 70.4298 103.72 49.9355 129 49.9355ZM129 228.871C98.4665 228.871 71.106 215.035 52.7964 193.396C62.5754 174.982 81.7173 162.29 104.032 162.29C105.281 162.29 106.529 162.498 107.725 162.862C114.487 165.047 121.562 166.452 129 166.452C136.438 166.452 143.565 165.047 150.275 162.862C151.471 162.498 152.719 162.29 153.968 162.29C176.283 162.29 195.425 174.982 205.204 193.396C186.894 215.035 159.533 228.871 129 228.871Z" fill="#3C3C3B"/>
</svg>
