<?xml version="1.0" encoding="utf-8"?>
<!-- Generator: Adobe Illustrator 23.0.1, SVG Export Plug-In . SVG Version: 6.00 Build 0)  -->
<svg version="1.1" id="Layer_1" xmlns="http://www.w3.org/2000/svg" xmlns:xlink="http://www.w3.org/1999/xlink" x="0px" y="0px"
	 viewBox="0 0 512 512" style="enable-background:new 0 0 512 512;" xml:space="preserve">
<style type="text/css">
	.st0{fill:#434343;}
</style>
<g transform="translate(0.000000,512.000000) scale(0.100000,-0.100000)">
	<path class="st0" d="M3423,4305c-29-8-72-24-95-36c-51-26-140-115-157-158l-13-31H1739H320v-160v-160h1419h1419l13-31
		c20-50,112-137,173-165c120-55,232-55,352,0c61,28,153,115,173,165l13,31h459h459v160v160h-459h-459l-13,31c-17,43-106,132-157,158
		C3617,4318,3517,4330,3423,4305z"/>
	<path class="st0" d="M1503,2945c-29-8-72-24-95-36c-51-26-140-115-157-158l-13-31H779H320v-160v-160h459h459l13-31
		c20-50,112-137,173-165c30-14,82-30,116-36c73-14,154-1,236,36c61,28,153,115,173,165l13,31h1419h1419v160v160H3381H1962l-13,31
		c-17,43-106,132-157,158C1697,2958,1597,2970,1503,2945z"/>
	<path class="st0" d="M3423,1585c-29-8-72-24-95-36c-51-26-140-115-157-158l-13-31H1739H320v-160v-160h1419h1419l13-31
		c20-50,112-137,173-165c120-55,232-55,352,0c61,28,153,115,173,165l13,31h459h459v160v160h-459h-459l-13,31c-17,43-106,132-157,158
		C3617,1598,3517,1610,3423,1585z"/>
</g>
</svg>
