<svg id="Layer_1" data-name="Layer 1" xmlns="http://www.w3.org/2000/svg" viewBox="0 0 202.21 88.47"><defs><style>.cls-1,.cls-2{font-size:34px;}.cls-1,.cls-2,.cls-3,.cls-4{fill:#f4f4f4;}.cls-1,.cls-2,.cls-4{font-family:Helvetica-Bold, Helvetica;font-weight:700;}.cls-2{isolation:isolate;}.cls-4{font-size:16px;}</style></defs><text class="cls-1" transform="translate(12.11 36.01)">bed</text><text class="cls-2" transform="translate(79.28 36.01)">factory</text><path class="cls-3" d="M18.74,61.92A4.78,4.78,0,0,1,15,60.37a6.24,6.24,0,0,1-1.37-4.28q0-.73.09-1.47c.06-.55.15-1.1.26-1.63a10.75,10.75,0,0,1,3-5.61A7.2,7.2,0,0,1,22,45.15a4.43,4.43,0,0,1,4.28,2.3l.07.13L28,40h4.2L27.7,61.51H23.49l.38-1.8A7.23,7.23,0,0,1,18.74,61.92Zm4-13.16a3.87,3.87,0,0,0-2.86,1.33,7.2,7.2,0,0,0-1.73,3.53,8.31,8.31,0,0,0-.15,1c0,.31-.05.59-.05.83a3.32,3.32,0,0,0,.72,2.17,2.65,2.65,0,0,0,2,.8,4,4,0,0,0,2.89-1.28,6.57,6.57,0,0,0,1.68-3.38A5.79,5.79,0,0,0,25.08,50a2.42,2.42,0,0,0-2.35-1.28Z"/><path class="cls-3" d="M34.8,45.56H39l-3.3,15.93h-4.2Zm2.65-5.68h.37A2.16,2.16,0,0,1,40,42a2.1,2.1,0,0,1,0,.43h0a2.12,2.12,0,0,1-2.1,1.71h-.37A2.15,2.15,0,0,1,35.3,42a2.85,2.85,0,0,1,0-.41h0A2.16,2.16,0,0,1,37.45,39.88Z"/><path class="cls-3" d="M43,45.56h4l-.68,3.23c.26-.4.53-.79.83-1.17q2-2.49,4.24-2.49h1l-.75,3.57q-.63-.06-1.26-.06a4.34,4.34,0,0,0-3.1,1.15,6.2,6.2,0,0,0-1.68,3.35l-1.72,8.33H39.66Z"/><path class="cls-3" d="M58,61.92a7,7,0,0,1-4.78-1.47,5.39,5.39,0,0,1-1.67-4.25A6.08,6.08,0,0,1,51.63,55c.09-.44.12-.91.21-1.37a11.14,11.14,0,0,1,3.29-6.21,8.63,8.63,0,0,1,6-2.24,6.34,6.34,0,0,1,4.57,1.49,5.66,5.66,0,0,1,1.53,4.3,12.62,12.62,0,0,1-.09,1.51,13.53,13.53,0,0,1-.28,1.67l-.11.51H55.84v.21a5.79,5.79,0,0,0-.06.83,2.57,2.57,0,0,0,2.95,2.9,4.08,4.08,0,0,0,1.94-.46,2.71,2.71,0,0,0,1.25-1.21h4.26a8.61,8.61,0,0,1-3.32,3.7A9.07,9.07,0,0,1,58,61.92Zm5-10.07V51.3a2.83,2.83,0,0,0-.65-2,2.7,2.7,0,0,0-2-.66,3.54,3.54,0,0,0-2.8,1.3,7,7,0,0,0-1.09,2Z"/><path class="cls-3" d="M83.08,55.68a9.14,9.14,0,0,1-3.33,4.55,8.68,8.68,0,0,1-5.3,1.69,6.2,6.2,0,0,1-4.4-1.44,5.39,5.39,0,0,1-1.54-4.14A11.87,11.87,0,0,1,68.59,55a12.56,12.56,0,0,1,.23-1.43,11.15,11.15,0,0,1,3.3-6.21,8.76,8.76,0,0,1,6.09-2.24,6.13,6.13,0,0,1,4.6,1.61,4.78,4.78,0,0,1,1.26,3.52l-.06,1H79.75a3.07,3.07,0,0,0-.6-2,2.12,2.12,0,0,0-1.67-.61,3.41,3.41,0,0,0-2.71,1.28,8.93,8.93,0,0,0-1.61,3.85c-.06.32-.11.65-.15,1a6.8,6.8,0,0,0-.06.9,3.31,3.31,0,0,0,.58,2.07,2,2,0,0,0,1.65.73,3.56,3.56,0,0,0,2.22-.77,4.19,4.19,0,0,0,1.44-2Z"/><path class="cls-3" d="M92.06,61.62c-.68.05-1.55.07-2.59.07a4.42,4.42,0,0,1-3.07-.77,2.81,2.81,0,0,1-.4-2.64l2-9.71H85.82l.63-3h2.18l.88-4.3h4.21l-.88,4.3h2.53l-.63,3H92.21l-1.86,9a.66.66,0,0,0,.22.73,2,2,0,0,0,1.13.22h1Z"/><text class="cls-4" transform="translate(94.53 61.77)">.co.uk</text><path class="cls-3" d="M176.63,59.69a1.77,1.77,0,0,1-.31,2.86c-33.68,18.78-76.13,21.27-114.54,4l.51-.76c38.77,16.13,79.91,12,111-6.82a2.75,2.75,0,0,1,3.31.75Z"/><circle class="cls-3" cx="180.71" cy="55.95" r="3.08"/></svg>