<svg id="Layer_1" data-name="Layer 1" xmlns="http://www.w3.org/2000/svg" xmlns:xlink="http://www.w3.org/1999/xlink" viewBox="0 0 562.27 230.67">
  <defs>
    <style>
      .cls-1 {
        fill: none;
      }

      .cls-2 {
        clip-path: url(#clip-path);
      }

      .cls-3 {
        fill: #eb008b;
      }

      .cls-4 {
        fill: #8d85ca;
      }

      .cls-5 {
        fill: #ff4338;
      }

      .cls-6 {
        fill: #00b09a;
      }

      .cls-7 {
        fill: #8c189b;
      }

      .cls-8 {
        fill: #00adee;
      }

      .cls-9 {
        fill: #004987;
      }

      .cls-10 {
        fill: #b00060;
      }

      .cls-11 {
        fill: #fff;
      }
    </style>
    <clipPath id="clip-path" transform="translate(-3.37)">
      <rect class="cls-1" x="-125.75" y="-86" width="1104.89" height="841.6"/>
    </clipPath>
  </defs>
  <title>flooring Mountain-white</title>
  <g class="cls-2">
    <g>
      <polygon class="cls-3" points="295.86 0 207.61 87.83 261.99 141.96 304.03 100.12 347.68 143.55 393.89 97.58 295.86 0"/>
      <polygon class="cls-4" points="422.92 73.35 398.59 97.58 456.29 155 462.54 155 483.77 133.89 422.92 73.35"/>
      <polygon class="cls-5" points="550.72 155 508.98 113.47 488.47 133.89 509.67 155 550.72 155"/>
      <polygon class="cls-5" points="486.12 136.23 467.24 155 504.98 155 486.12 136.23"/>
      <polygon class="cls-6" points="60.73 113.47 19 155 45.72 155 74.08 126.75 60.73 113.47"/>
      <polygon class="cls-7" points="396.25 99.92 340.89 155 451.6 155 396.25 99.92"/>
      <polygon class="cls-8" points="160.4 45.54 78.79 126.75 107.18 155 135.42 155 202.9 87.83 160.4 45.54"/>
      <polygon class="cls-6" points="76.45 129.1 50.42 155 102.46 155 76.45 129.1"/>
      <polygon class="cls-9" points="205.26 90.17 140.12 155 270.39 155 205.26 90.17"/>
      <polygon class="cls-10" points="304.03 105.33 264.5 144.68 274.92 155 336.03 155 344.97 146.08 304.03 105.33"/>
    </g>
  </g>
  <g>
    <path class="cls-11" d="M19.13,167.63H42.67l-1.14,8.18H20.07a2.64,2.64,0,0,0-2.48,2.08L16.45,186H33.82l-1.14,8.12H15.31l-2.89,20.45h-9l5.37-37.89A10.82,10.82,0,0,1,19.13,167.63Z" transform="translate(-3.37)"/>
    <path class="cls-11" d="M50.52,203.64c-.47,3,1.47,4.16,4,4.16a11.82,11.82,0,0,0,5.3-1.55h1.07l-1,7.52a22.48,22.48,0,0,1-7.45,1.54c-8.31,0-11.47-4.83-10.26-13.15l5.16-36.68h8.52Z" transform="translate(-3.37)"/>
    <path class="cls-11" d="M82.24,178.69c9.92,0,15.69,7.85,14.15,19s-9.32,17.64-19.32,17.64-15.82-7.78-14.21-18.91S72.25,178.69,82.24,178.69Zm-4.16,29c4.83,0,8.58-4.16,9.52-10.73s-1.74-10.73-6.5-10.73-8.59,4.16-9.46,10.73S73.32,207.73,78.08,207.73Z" transform="translate(-3.37)"/>
    <path class="cls-11" d="M120.67,178.69c9.92,0,15.69,7.85,14.15,19s-9.33,17.64-19.32,17.64-15.82-7.78-14.22-18.91S110.67,178.69,120.67,178.69Zm-4.16,29c4.83,0,8.58-4.16,9.52-10.73s-1.74-10.73-6.5-10.73-8.59,4.16-9.46,10.73S111.75,207.73,116.51,207.73Z" transform="translate(-3.37)"/>
    <path class="cls-11" d="M162.38,186.74h-1.14c-2.75-1.21-7.38.07-10.26,1.74l-3.69,26.09h-8.52l5-35.14H152l-.34,2.28a27.8,27.8,0,0,1,11.87-3Z" transform="translate(-3.37)"/>
    <path class="cls-11" d="M171.37,214.57h-8.52l5-35.14h8.52Zm5.5-38.56h-8.59l1.21-8.38h8.58Z" transform="translate(-3.37)"/>
    <path class="cls-11" d="M214.69,191.77l-3.22,22.8H203L206,192.64c.53-3.35-.67-6.1-4.43-6.1a19.19,19.19,0,0,0-9.12,2.88l-3.55,25.15h-8.52l5-35.14h8.25l-.33,2.28c3.42-1.61,7.17-3,10.66-3C211.34,178.69,215.76,183.92,214.69,191.77Z" transform="translate(-3.37)"/>
    <path class="cls-11" d="M250.1,212.83c-1.88,13.41-9.12,17.77-20.52,17.84a26,26,0,0,1-10-2.22l1-7.37h1.08a23.25,23.25,0,0,0,9.05,2.07c5.16,0,9.86-3,10.53-7.51l.27-2a14.79,14.79,0,0,1-7.05,1.68,14.61,14.61,0,0,1-11.73-5.84c-2.35-3.55-2.68-7.78-2.08-12.27A25.33,25.33,0,0,1,225,185.8c3.89-5.3,9.73-7,15.89-7.11h5.44a7.38,7.38,0,0,1,7.44,8.59Zm-6.77-26.56h-3a10.54,10.54,0,0,0-7,2.28c-2.55,2.21-3.29,6-3.83,9-.33,2.35-.33,5.23.74,7.18,1.14,2.35,3.36,3.15,6,3.15a25.62,25.62,0,0,0,6.24-.8l2.68-18.78A1.76,1.76,0,0,0,243.33,186.27Z" transform="translate(-3.37)"/>
    <path class="cls-11" d="M298,214.57l-10.12-31-1.68,31h-8.11l2.14-41.44a6.13,6.13,0,0,1,5.9-6,6.94,6.94,0,0,1,6.64,4.83l9.93,30,9.59-30a6.2,6.2,0,0,1,6.3-4.76,6.12,6.12,0,0,1,6.37,6l2.15,41.38h-8.85L316.9,183l-10.06,31.59Z" transform="translate(-3.37)"/>
    <path class="cls-11" d="M351.3,178.69c9.93,0,16.7,7.18,16.7,18.31s-6.71,18.31-16.7,18.31-16.83-7.18-16.83-18.31S341.31,178.69,351.3,178.69Zm-.07,29c4.83,0,8-4.16,8-10.73s-3.21-10.73-8-10.73-8,4.16-8,10.73S346.47,207.73,351.23,207.73Z" transform="translate(-3.37)"/>
    <path class="cls-11" d="M373.84,202.3V179.43h8.51v22c-.06,3.35,1.54,6.1,5.3,6.1a17.18,17.18,0,0,0,8.72-2.88V179.43h8.52v35.14h-8.25v-2.21c-3.22,1.61-6.78,3-10.26,3C379,215.38,373.84,209.67,373.84,202.3Z" transform="translate(-3.37)"/>
    <path class="cls-11" d="M445.06,191.77v22.8h-8.52V192.64c.07-3.35-1.54-6.1-5.3-6.1a17.12,17.12,0,0,0-8.72,2.88v25.15H414V179.43h8.25v2.28c3.22-1.61,6.77-3,10.26-3C439.89,178.69,445.06,183.92,445.06,191.77Z" transform="translate(-3.37)"/>
    <path class="cls-11" d="M462.09,203.37c0,3,2.08,4.36,4.63,4.36a12.32,12.32,0,0,0,5.1-1.41h1.34v7.45a21.78,21.78,0,0,1-7.45,1.54c-8.31,0-12.13-4.7-12.13-13V186.81h-3.83v-7.38h3.83v-8.25h8.51v8.25h9v7.38h-9Z" transform="translate(-3.37)"/>
    <path class="cls-11" d="M498.37,211.35a13.18,13.18,0,0,1-9.45,4c-7,0-12.14-4.7-12.34-11.54-.14-6.44,4.69-10.66,10.13-11.4l11.53-1.68c-.27-3.42-5.63-4.62-8-4.62a23.11,23.11,0,0,0-9.32,2.07H480v-7.77a37.87,37.87,0,0,1,10.39-1.75c8.05,0,15.9,3,16.17,11.87v24h-8.19Zm-7.91-3.49a15.12,15.12,0,0,0,7.58-2.41v-7.91c-2.88.53-5.84.8-8.79,1.4-2.34.47-4.09,1.75-4.09,4.43C485.16,206.66,487.64,207.86,490.46,207.86Z" transform="translate(-3.37)"/>
    <path class="cls-11" d="M524.53,176H516v-8.38h8.58Zm-.07,38.56H516V179.43h8.51Z" transform="translate(-3.37)"/>
    <path class="cls-11" d="M565.64,191.77v22.8h-8.52V192.64c.07-3.35-1.54-6.1-5.29-6.1a17.08,17.08,0,0,0-8.72,2.88v25.15h-8.52V179.43h8.25v2.28c3.22-1.61,6.77-3,10.26-3C560.48,178.69,565.64,183.92,565.64,191.77Z" transform="translate(-3.37)"/>
  </g>
</svg>
