<svg id="Layer_1" data-name="Layer 1" xmlns="http://www.w3.org/2000/svg" viewBox="0 0 181.43 90.19"><defs><style>.cls-1{font-size:34px;font-family:Helvetica-Bold, Helvetica;}.cls-1,.cls-2,.cls-3{fill:#f6f6f6;}.cls-1,.cls-3{font-weight:700;}.cls-3{font-size:16px;font-family:Helvetica-BoldOblique, Helvetica;font-style:oblique;}</style></defs><text class="cls-1" transform="translate(0 36.99)">bed </text><text class="cls-1" transform="translate(67.16 36.99)">factory </text><path class="cls-2" d="M6.62,62.9a4.82,4.82,0,0,1-3.79-1.55,6.25,6.25,0,0,1-1.37-4.28,11.87,11.87,0,0,1,.1-1.49c.06-.55.15-1.09.25-1.63a10.67,10.67,0,0,1,3-5.61A7.2,7.2,0,0,1,9.9,46.11a4.43,4.43,0,0,1,4.27,2.3l.07.13,1.59-7.6H20L15.58,62.47h-4.2l.37-1.8A7.22,7.22,0,0,1,6.62,62.9Zm4-13.16a3.87,3.87,0,0,0-2.87,1.33A7,7,0,0,0,6,54.56c-.07.33-.12.64-.16,1s0,.59,0,.83a3.28,3.28,0,0,0,.73,2.29,2.61,2.61,0,0,0,2,.8,4,4,0,0,0,2.88-1.28,6.49,6.49,0,0,0,1.68-3.38A5.81,5.81,0,0,0,13,51.06,2.42,2.42,0,0,0,10.62,49.74Z"/><path class="cls-2" d="M22.69,46.54h4.2L23.6,62.47H19.39Zm2.64-5.68h.37a2.15,2.15,0,0,1,2.11,2.59h0a2.15,2.15,0,0,1-2.11,1.71h-.37a2.14,2.14,0,0,1-2.1-2.58h0A2.14,2.14,0,0,1,25.33,40.86Z"/><path class="cls-2" d="M30.88,46.54h4l-.69,3.23A11.46,11.46,0,0,1,35,48.6c1.31-1.66,2.73-2.49,4.24-2.49l1,0-.74,3.57a11.31,11.31,0,0,0-1.26-.06,4.39,4.39,0,0,0-3.11,1.15,6.18,6.18,0,0,0-1.67,3.35l-1.73,8.33h-4.2Z"/><path class="cls-2" d="M45.88,62.9a7,7,0,0,1-4.79-1.47,5.38,5.38,0,0,1-1.66-4.24q0-.6.09-1.26c0-.45.12-.91.2-1.37A11.25,11.25,0,0,1,43,48.35a8.68,8.68,0,0,1,6-2.24,6.33,6.33,0,0,1,4.54,1.47,5.64,5.64,0,0,1,1.54,4.3A13.68,13.68,0,0,1,55,53.39a15,15,0,0,1-.29,1.67l-.11.51H43.72l0,.21a6.12,6.12,0,0,0-.06.83,3,3,0,0,0,.75,2.18,3,3,0,0,0,2.21.72,4.06,4.06,0,0,0,1.94-.46,2.7,2.7,0,0,0,1.24-1.21H54a8.59,8.59,0,0,1-3.31,3.7A9.12,9.12,0,0,1,45.88,62.9Zm5-10.07v-.55a2.78,2.78,0,0,0-.65-2,2.62,2.62,0,0,0-2-.67,3.51,3.51,0,0,0-2.79,1.3,6.62,6.62,0,0,0-1.1,2Z"/><path class="cls-2" d="M71,56.66a9.35,9.35,0,0,1-3.33,4.55,8.77,8.77,0,0,1-5.3,1.69,6.23,6.23,0,0,1-4.41-1.44,5.4,5.4,0,0,1-1.54-4.14A12.93,12.93,0,0,1,56.47,56c.06-.47.13-1,.23-1.43A11.2,11.2,0,0,1,60,48.35a8.77,8.77,0,0,1,6.08-2.24,6.1,6.1,0,0,1,4.6,1.61,4.83,4.83,0,0,1,1.25,3.52l-.05,1H67.61a3.16,3.16,0,0,0-.59-2,2.12,2.12,0,0,0-1.68-.61,3.37,3.37,0,0,0-2.7,1.28A8.8,8.8,0,0,0,61,54.77c-.06.32-.11.65-.14,1a7.54,7.54,0,0,0-.06.9,3.25,3.25,0,0,0,.58,2.07,2,2,0,0,0,1.64.73,3.59,3.59,0,0,0,2.22-.77,4.29,4.29,0,0,0,1.45-2Z"/><path class="cls-2" d="M80,62.59c-.69,0-1.55.07-2.6.07a4.47,4.47,0,0,1-3.06-.76,2.81,2.81,0,0,1-.41-2.65l2-9.71H73.71l.63-3h2.18l.88-4.3h4.2l-.88,4.3h2.54l-.63,3H80.09l-1.86,9a.67.67,0,0,0,.22.73,2.07,2.07,0,0,0,1.13.23l1-.06Z"/><text class="cls-3" transform="translate(82.42 61.76)">.co.uk</text><path class="cls-2" d="M164.52,60.67a1.79,1.79,0,0,1-.31,2.86c-33.69,18.78-76.14,21.27-114.55,4,.17-.26.35-.51.52-.76,38.76,16.13,79.91,12,111-6.82a2.76,2.76,0,0,1,3.32.75Z"/><circle class="cls-2" cx="168.6" cy="56.93" r="3.08"/></svg>