<?xml version="1.0" encoding="utf-8"?>
<!-- Generator: Adobe Illustrator 23.0.1, SVG Export Plug-In . SVG Version: 6.00 Build 0)  -->
<svg version="1.1" id="Layer_1" xmlns="http://www.w3.org/2000/svg" xmlns:xlink="http://www.w3.org/1999/xlink" x="0px" y="0px"
	 viewBox="0 0 285 52" style="enable-background:new 0 0 285 52;" xml:space="preserve">
<style type="text/css">
	.st0{fill:#FFFFFF;stroke:#6E7BF2;stroke-width:1.5;}
	.st1{fill:#6E7BF2;stroke:#6E7BF2;stroke-width:1.5;}
	.st2{fill:#FFFFFF;}
	.st3{fill:#4285F4;}
	.st4{fill:#34A853;}
	.st5{fill:#FBBC05;}
	.st6{fill:#EB4335;}
</style>
<rect x="1" y="1" class="st0" width="284" height="50.2"/>
<polygon class="st1" points="137,1 119.4,50.2 284.3,51.2 284.3,1 "/>
<path class="st2" d="M141.1,26.7v9.6h-3.1V12.7h8.1c2,0,3.8,0.7,5.3,2c2.8,2.5,2.9,6.9,0.4,9.6c-0.1,0.1-0.3,0.3-0.4,0.4
	c-1.4,1.3-3.3,2.1-5.3,2L141.1,26.7L141.1,26.7z M141.1,15.6v8.3h5.1c1.1,0,2.2-0.4,3-1.2c1.6-1.5,1.6-4.1,0.1-5.7c0,0,0,0,0,0
	c0,0-0.1-0.1-0.1-0.1c-0.8-0.8-1.9-1.3-3-1.3H141.1z M160.7,19.6c2.3,0,4,0.6,5.4,1.8c1.3,1.2,2,2.8,2,4.9v10h-2.9v-2.2h-0.1
	c-1.3,1.8-2.9,2.8-5.1,2.8c-1.6,0.1-3.3-0.5-4.5-1.6c-1.2-1-1.8-2.4-1.8-4c-0.1-1.6,0.7-3.1,1.9-4c1.3-1,3-1.5,5.1-1.5
	c1.6-0.1,3.1,0.3,4.5,1v-0.7c0-1-0.5-2-1.3-2.7c-0.8-0.7-1.9-1.1-2.9-1.1c-1.6,0-3.2,0.8-4.1,2.1l-2.7-1.7
	C155.6,20.7,157.8,19.6,160.7,19.6L160.7,19.6z M156.7,31.4c0,0.8,0.4,1.5,1,2c0.7,0.5,1.5,0.8,2.4,0.8c1.3,0,2.5-0.5,3.4-1.4
	c1-0.8,1.5-2.1,1.5-3.3c-1-0.8-2.3-1.1-4-1.1c-1.1,0-2.2,0.3-3.1,0.9C157.2,29.6,156.7,30.4,156.7,31.4L156.7,31.4z M184.8,20.1
	l-10.2,23.3h-3.2l3.8-8.2l-6.7-15.1h3.3l4.9,11.6h0.1l4.7-11.6L184.8,20.1z"/>
<g>
	<path class="st3" d="M117.8,25.8c0-1-0.1-2-0.3-2.9H104v5.3h7.9c-0.3,1.9-1.4,3.6-2.9,4.7l0,0.2l4.3,3.3l0.3,0
		C116.2,33.9,117.8,30.2,117.8,25.8"/>
	<path class="st4" d="M104,39.9c3.9,0,7.2-1.3,9.5-3.5l-4.5-3.5c-1.5,1-3.2,1.5-5,1.4c-3.7,0-7-2.4-8.2-6l-0.2,0l-4.4,3.4L91.1,32
		C93.6,36.9,98.5,39.9,104,39.9"/>
	<path class="st5" d="M95.8,28.4c-0.3-0.9-0.5-1.9-0.5-2.9c0-1,0.2-1.9,0.5-2.9l0-0.2L91.3,19L91.1,19c-2.1,4.1-2.1,8.9,0,12.9
		L95.8,28.4"/>
	<path class="st6" d="M104,16.7c2.1,0,4.1,0.7,5.6,2.1l4.1-4c-2.6-2.4-6.1-3.8-9.6-3.7c-5.4,0-10.4,3.1-12.9,7.9l4.7,3.6
		C96.9,19.1,100.2,16.7,104,16.7"/>
</g>
</svg>
