<svg width="51" height="32" viewBox="0 0 51 32" fill="none" xmlns="http://www.w3.org/2000/svg">
<g clip-path="url(#clip0_392_3993)">
<path d="M50.7143 0H0.428558V32H50.7143V0Z" fill="white"/>
<path d="M50.7143 0H0.428558V32H50.7143V0Z" fill="white"/>
<path d="M50.4857 0.228577H0.657135V31.7714H50.4857V0.228577Z" stroke="#DFDFDF" stroke-width="0.5"/>
<path d="M18.973 22.821L18.6649 23.4418L18.6218 23.4667L18.3092 22.8187L18.0192 22.2183L17.6906 21.5363L17.4006 20.9359L17.0721 20.254L16.7821 19.6536L16.4536 18.9716L16.1636 18.3712L15.835 17.6892L15.545 17.0888L15.2165 16.4068L14.9265 15.8064L14.598 15.1244L11.0952 7.89917H11.392H11.7749L14.9333 14.4447L15.2618 15.1267L15.5518 15.7271L15.8804 16.4091L16.1681 17.0095L16.4989 17.6915L16.7889 18.2919L17.1174 18.9738L17.4052 19.5743L17.736 20.2562L18.026 20.8566L18.3522 21.5386L18.6422 22.139L18.973 22.821Z" fill="#262262"/>
<path d="M19.6006 21.5454L19.2653 22.2251L18.9367 21.5409L18.649 20.9405L18.3182 20.2585L18.0282 19.6581L17.6997 18.9761L17.4119 18.3757L17.0811 17.6937L16.7934 17.0933L16.4649 16.4114L16.1749 15.8109L15.8441 15.129L15.5563 14.5286L15.2278 13.8466L12.3595 7.89917H13.021L15.5609 13.1669L15.8917 13.8489V13.8511L16.1794 14.4493L16.5079 15.1312L16.7979 15.7316L17.1265 16.4136V16.4159L17.4165 17.0163L17.745 17.6983L18.035 18.2987L18.3635 18.9784L18.6535 19.5788L18.9821 20.263L19.2721 20.8634L19.6006 21.5454Z" fill="#262262"/>
<path d="M20.2305 20.2676L19.8952 20.9473L19.5667 20.2653L19.2766 19.6649L18.9481 18.9829L18.6581 18.3825L18.3296 17.7005L18.0396 17.1001L17.7111 16.4182L17.421 15.8177L17.0925 15.1358L16.8025 14.5354L16.474 13.8534L16.184 13.253L15.8555 12.571L13.6034 7.89917H14.2649L16.1908 11.8913L16.5193 12.5733L16.8093 13.1737L17.1378 13.8557L17.4278 14.4561L17.7564 15.138L18.0464 15.7384L18.3749 16.4204L18.6649 17.0208L18.9934 17.7028L19.2834 18.3032L19.612 18.9852L19.902 19.5856L20.2305 20.2676Z" fill="#262262"/>
<path d="M20.8603 18.992L20.525 19.6694L20.1965 18.9874L19.9065 18.387L19.5779 17.7073L19.2879 17.1047L18.9594 16.4227L18.6694 15.8245V15.8223L18.3409 15.1403L18.0509 14.5399L17.7223 13.8579L17.4323 13.2575L17.1038 12.5755L16.8138 11.9751L16.4853 11.2932L14.8472 7.89917H15.511L16.8206 10.6135L17.1491 11.2954L17.4391 11.8981L17.7677 12.5778L18.0577 13.1782V13.1805L18.3862 13.8625L18.6739 14.4606V14.4629L19.0047 15.1426L19.2925 15.7452L19.6233 16.4249L19.911 17.0276L20.2418 17.7096L20.5295 18.31L20.8603 18.992Z" fill="#262262"/>
<path d="M21.4879 17.7141L21.1526 18.3938L20.8241 17.7119L20.5341 17.1115L20.2056 16.4295L19.9156 15.8291L19.587 15.1471L19.2993 14.5467L18.9685 13.8647L18.6808 13.2643L18.35 12.5823L18.0622 11.9819L17.7337 11.3L17.4437 10.6996L17.1152 10.0176L16.0933 7.89917H16.7549L17.4482 9.33788L17.7767 10.0199L18.0668 10.6203L18.3953 11.3022L18.6853 11.9026L19.0138 12.5846L19.3038 13.185L19.6323 13.867L19.9223 14.4674L20.2509 15.1494L20.5409 15.7498L20.8694 16.4317L21.1594 17.0322L21.4879 17.7141Z" fill="#262262"/>
<path d="M22.1177 16.4385L21.7824 17.1182L21.4539 16.434L21.1639 15.8336L20.8354 15.1539L20.5454 14.5512L20.2168 13.8715V13.8693L19.9268 13.2711L19.5983 12.5869L19.3083 11.9865L18.9798 11.3045L18.6898 10.7041L18.3612 10.0221L18.0712 9.42171L17.7427 8.73974L17.3371 7.89917H17.9987L18.078 8.06003L18.4065 8.74201L18.6966 9.34468L19.0251 10.0266L19.3151 10.6248L19.6436 11.309L19.9336 11.9072L20.2621 12.5914L20.5522 13.1895L20.8807 13.8738L21.1707 14.4719L21.4992 15.1562L21.7892 15.7566L22.1177 16.4385Z" fill="#262262"/>
<path d="M22.7454 15.1607L22.4124 15.8404L22.0838 15.1584L21.7938 14.558L21.4653 13.876L21.1753 13.2756L20.8468 12.5937L20.5568 11.9933L20.2282 11.3113L19.9382 10.7109L19.6097 10.0289L19.3197 9.42851L18.9912 8.74654L18.7012 8.14613L18.5833 7.89917H19.2449L19.3265 8.06683L19.6527 8.7488L19.945 9.34921L20.2735 10.0312L20.5613 10.6316L20.8921 11.3136L21.1798 11.914L21.5106 12.5959L21.7984 13.1963L22.1269 13.8783L22.4169 14.4787L22.7454 15.1607Z" fill="#262262"/>
<path d="M14.9333 14.4447L15.2618 15.1267L14.9265 15.8064L14.598 15.1244L14.9333 14.4447Z" fill="#262262"/>
<path d="M15.5609 13.1669L15.8917 13.8488V13.8511L15.5564 14.5285L15.2279 13.8466L15.5609 13.1669Z" fill="#262262"/>
<path d="M16.1908 11.8912L16.5193 12.5732L16.184 13.2529L15.8555 12.5709L16.1908 11.8912Z" fill="#262262"/>
<path d="M16.8206 10.6134L17.1492 11.2954L16.8138 11.9751L16.4853 11.2931L16.8206 10.6134Z" fill="#262262"/>
<path d="M17.4482 9.33783L17.7768 10.0198L17.4437 10.6995L17.1152 10.0175L17.4482 9.33783Z" fill="#262262"/>
<path d="M18.4065 8.74197L18.0712 9.42167L17.7427 8.7397L18.078 8.06L18.4065 8.74197Z" fill="#262262"/>
<path d="M18.8235 7.89917L18.7012 8.14613L18.5833 7.89917H18.8235Z" fill="#262262"/>
<path d="M15.5519 15.7271L15.8804 16.409L15.5451 17.0887L15.2166 16.4068L15.5519 15.7271Z" fill="#262262"/>
<path d="M16.1795 14.4492L16.508 15.1312L16.175 15.8109L15.8442 15.1289L16.1795 14.4492Z" fill="#262262"/>
<path d="M16.8093 13.1736L17.1378 13.8556L16.8025 14.5353L16.474 13.8534L16.8093 13.1736Z" fill="#262262"/>
<path d="M17.4392 11.8981L17.7677 12.5778L17.4324 13.2575L17.1039 12.5755L17.4392 11.8981Z" fill="#262262"/>
<path d="M18.3952 11.3022L18.0622 11.9819L17.7336 11.2999L18.0667 10.6202L18.3952 11.3022Z" fill="#262262"/>
<path d="M19.0251 10.0266L18.6898 10.704L18.3613 10.022L18.6966 9.3446L19.0251 10.0266Z" fill="#262262"/>
<path d="M20.1081 7.89917L19.9609 8.19824L19.8159 7.89917H20.1081Z" fill="#262262"/>
<path d="M16.798 15.7316L17.1265 16.4136V16.4159L16.7934 17.0933L16.4649 16.4113L16.798 15.7316Z" fill="#262262"/>
<path d="M17.4279 14.4561L17.7564 15.138L17.4211 15.8177L17.0926 15.1358L17.4279 14.4561Z" fill="#262262"/>
<path d="M18.0578 13.1804L18.3863 13.8624L18.051 14.5398L17.7225 13.8579L18.0578 13.1804Z" fill="#262262"/>
<path d="M18.6854 11.9026L19.0139 12.5846L18.6808 13.2643L18.3501 12.5823L18.6854 11.9026Z" fill="#262262"/>
<path d="M19.6436 11.309L19.3082 11.9864L18.9797 11.3045L19.315 10.6248L19.6436 11.309Z" fill="#262262"/>
<path d="M21.3587 7.89917L20.9147 8.80318L20.5793 9.48062L20.2508 8.79865L20.5839 8.11894L20.6926 7.89917H21.3587Z" fill="#262262"/>
<path d="M18.0463 15.7384L18.3749 16.4204L18.0395 17.1001L17.711 16.4181L18.0463 15.7384Z" fill="#262262"/>
<path d="M18.674 14.4628L19.0047 15.1425L18.6694 15.8222L18.3409 15.1403L18.674 14.4628Z" fill="#262262"/>
<path d="M19.6324 13.867L19.2993 14.5467L18.9686 13.8647L19.3039 13.185L19.6324 13.867Z" fill="#262262"/>
<path d="M20.2623 12.5913L19.927 13.271L19.5984 12.5868L19.9338 11.9071L20.2623 12.5913Z" fill="#262262"/>
<path d="M22.6095 7.89917L21.531 10.0856L21.1979 10.763L20.8671 10.081L21.2025 9.40132L21.9433 7.89917H22.6095Z" fill="#262262"/>
<path d="M19.2925 15.7452L19.6233 16.4249L19.288 17.1047L18.9594 16.4227L19.2925 15.7452Z" fill="#262262"/>
<path d="M19.9223 14.4673L20.2508 15.1493L19.9155 15.829L19.587 15.1471L19.9223 14.4673Z" fill="#262262"/>
<path d="M20.8807 13.8738L20.5454 14.5512L20.2169 13.8715V13.8692L20.5522 13.1895L20.8807 13.8738Z" fill="#262262"/>
<path d="M23.8578 7.89917L22.1494 11.3657L21.8141 12.0454L21.4856 11.3634L21.8209 10.6837L23.1939 7.89917H23.8578Z" fill="#262262"/>
<path d="M20.8694 16.4317L20.5341 17.1114L20.2056 16.4295L20.5409 15.7498L20.8694 16.4317Z" fill="#262262"/>
<path d="M21.4993 15.1561L21.164 15.8335L20.8355 15.1538L21.1708 14.4719L21.4993 15.1561Z" fill="#262262"/>
<path d="M25.1086 7.89917L22.7681 12.648L22.4351 13.3278L22.1043 12.6458L22.4396 11.9683L24.4447 7.89917H25.1086Z" fill="#262262"/>
<path d="M22.1178 16.4385L21.7825 17.1182L21.4539 16.434L21.7893 15.7565L22.1178 16.4385Z" fill="#262262"/>
<path d="M26.3592 7.89917L23.3866 13.9304V13.9327L23.0535 14.6101L22.7227 13.9282L23.0581 13.2485L25.6953 7.89917H26.3592Z" fill="#262262"/>
<path d="M30.6504 23.4667V7.89465H27.0185V8.86437H29.5901V23.4667H30.6504Z" fill="#262262"/>
<path d="M33.0497 12.4033C32.9925 11.4112 33.2977 10.4321 33.9084 9.64825C34.2144 9.25633 34.6081 8.94182 35.058 8.73008C35.5078 8.51834 36.0011 8.41531 36.4981 8.42931C36.9556 8.42319 37.4093 8.51413 37.8291 8.69612C38.2489 8.87811 38.6254 9.14702 38.9337 9.48512C39.5951 10.182 39.9543 11.112 39.9329 12.0725C39.9069 13.0505 39.5607 13.9929 38.9473 14.7551C38.3175 15.5934 36.7179 17.2995 34.1894 19.8257L31.8013 22.2069V23.3126H41.0227V22.3429H32.9954L34.8079 20.5303C37.5879 17.7481 39.3393 15.8653 40.019 14.9318C40.6475 14.1134 40.9941 13.1134 41.0068 12.0816C41.0187 11.4768 40.9093 10.8757 40.6852 10.3138C40.4611 9.75188 40.1267 9.24055 39.7018 8.80995C39.2886 8.37638 38.7899 8.03331 38.2373 7.80243C37.6847 7.57155 37.0901 7.4579 36.4913 7.46866C35.8732 7.44964 35.2586 7.56754 34.6914 7.81392C34.1242 8.06029 33.6186 8.42905 33.2106 8.89378C32.4199 9.80005 32.0098 10.9737 31.9917 12.3988L33.0497 12.4033Z" fill="#262262"/>
</g>
<defs>
<clipPath id="clip0_392_3993">
<rect width="50.2857" height="32" fill="white" transform="translate(0.428558)"/>
</clipPath>
</defs>
</svg>
