<svg width="312" height="32" viewBox="0 0 312 32" fill="none" xmlns="http://www.w3.org/2000/svg">
<g clip-path="url(#clip0_368_3936)">
<path d="M50.2857 0H0V32H50.2857V0Z" fill="white"/>
<path d="M50.2857 0H0V32H50.2857V0Z" fill="white"/>
<path d="M50.0571 0.228577H0.228577V31.7714H50.0571V0.228577Z" stroke="#DFDFDF" stroke-width="0.5"/>
<path d="M29.578 10.9769C27.0729 10.9769 25.3239 12.3136 25.3239 14.229C25.2818 15.6489 26.5765 16.4005 27.5319 16.9015C28.4873 17.4025 28.8686 17.6951 28.8686 18.1074C28.8686 18.7758 28.075 19.0674 27.3024 19.0674C26.479 19.0932 25.6621 18.9138 24.9253 18.5454L24.5915 18.4201L24.2789 20.6144C25.1845 20.9576 26.1447 21.1345 27.1131 21.1365C29.7234 21.1365 31.4926 19.7998 31.5346 17.7591C31.5767 16.6318 30.8663 15.7961 29.4098 15.0866C28.533 14.6295 27.9899 14.3351 27.9899 13.8807C27.9899 13.4263 28.4471 13.046 29.4528 13.046C30.1137 13.0148 30.7724 13.1437 31.3728 13.4217L31.6233 13.5049L31.957 11.349C31.1871 11.1089 30.3863 10.9823 29.5799 10.9733L29.578 10.9769ZM21.7481 11.1442L20.1838 20.9463H22.7154L24.2798 11.1433L21.7481 11.1442ZM18.037 11.1442L15.5209 17.8194L15.2283 16.4828C14.606 14.7239 13.3596 13.2547 11.7257 12.3538L14.0224 20.9481H16.7314L20.7323 11.1854L18.0133 11.1433L18.037 11.1442ZM36.4261 11.1442C36.1468 11.1094 35.8638 11.1685 35.6218 11.3122C35.3798 11.4559 35.1925 11.676 35.0894 11.9378L31.3262 20.9463H33.9365C33.9365 20.9463 34.3936 19.7358 34.4585 19.4432H37.7106C37.7938 19.7769 38.0443 20.9061 38.0443 20.9061H40.4608L38.4201 11.1022L36.416 11.1442H36.4261ZM36.5934 13.8167L36.7607 14.688C36.7607 14.688 37.2827 17.0268 37.3449 17.5278H35.2046C35.413 16.9436 36.2103 14.7721 36.2103 14.7721C36.3644 14.4658 36.4902 14.146 36.5861 13.8167H36.5934Z" fill="#2A2B6D"/>
<path d="M13.2297 11.1433H9.14285V11.3106C10.51 11.6166 11.7837 12.2461 12.8573 13.1462C13.9308 14.0463 14.7727 15.1908 15.3125 16.4837L14.3982 11.979C14.2318 11.3518 13.8149 11.1854 13.2297 11.1433Z" fill="#F4B41A"/>
</g>
<g clip-path="url(#clip1_368_3936)">
<path d="M102.571 0H52.2857V32H102.571V0Z" fill="white"/>
<path d="M102.571 0H52.2857V32H102.571V0Z" fill="white"/>
<path d="M102.343 0.228577H52.5143V31.7714H102.343V0.228577Z" stroke="#DFDFDF" stroke-width="0.5"/>
<path d="M89.3892 20.2752L89.1543 20.0402L89.3892 20.2752Z" fill="#F5931E"/>
<path d="M80.923 21.3514H74.5605V9.86792H80.923V21.3514Z" fill="#F06022"/>
<path d="M74.9783 15.8126C74.9988 14.6844 75.2599 13.5737 75.7441 12.5545C76.2283 11.5353 76.9245 10.6312 77.786 9.90265C76.8711 9.18948 75.799 8.70536 74.659 8.49063C73.519 8.27591 72.3442 8.3368 71.2325 8.66824C70.1208 8.99968 69.1045 9.59205 68.2682 10.396C67.4319 11.1999 66.7999 12.1921 66.4249 13.2899C66.0499 14.3876 65.9428 15.5591 66.1124 16.7067C66.282 17.8542 66.7234 18.9446 67.4 19.887C68.0765 20.8293 68.9685 21.5962 70.0016 22.1239C71.0347 22.6515 72.1789 22.9246 73.339 22.9202C74.1529 22.9527 74.9651 22.8232 75.7286 22.5391C76.492 22.255 77.1914 21.8221 77.786 21.2654C76.8936 20.6696 76.1675 19.8564 75.6763 18.9024C75.1851 17.9485 74.9449 16.8851 74.9783 15.8126Z" fill="#E91D25"/>
<path d="M89.5776 15.7239C89.564 17.6431 88.7959 19.4799 87.4393 20.8375C86.0827 22.1951 84.2465 22.9646 82.3273 22.9797C81.5154 23.0139 80.7047 22.8877 79.9416 22.6083C79.1785 22.3289 78.478 21.9018 77.8802 21.3513C78.7554 20.7005 79.4654 19.8531 79.9531 18.8775C80.4408 17.902 80.6925 16.8255 80.688 15.7349C80.6677 14.6128 80.4066 13.5083 79.9221 12.496C79.4377 11.4838 78.7413 10.5875 77.8802 9.86789C79.1628 8.8845 80.7133 8.31294 82.3273 8.22858C84.2598 8.32996 86.0821 9.15971 87.4274 10.5508C88.7726 11.9418 89.5409 13.7909 89.5776 15.7257V15.7239Z" fill="#F59D1E"/>
</g>
<g clip-path="url(#clip2_368_3936)">
<path d="M154.857 0H104.571V32H154.857V0Z" fill="white"/>
<path d="M154.857 0H104.571V32H154.857V0Z" fill="white"/>
<path d="M154.629 0.228577H104.8V31.7714H154.629V0.228577Z" stroke="#DFDFDF" stroke-width="0.5"/>
<path d="M141.675 20.2752L141.44 20.0402L141.675 20.2752Z" fill="#F5931E"/>
<path d="M133.209 21.3514H126.846V9.86792H133.209V21.3514Z" fill="#6A69AF"/>
<path d="M127.264 15.8126C127.285 14.6844 127.546 13.5737 128.03 12.5545C128.514 11.5353 129.21 10.6312 130.072 9.90265C129.157 9.18948 128.085 8.70536 126.945 8.49063C125.805 8.27591 124.63 8.3368 123.518 8.66824C122.407 8.99968 121.39 9.59205 120.554 10.396C119.718 11.1999 119.086 12.1921 118.711 13.2899C118.336 14.3876 118.228 15.5591 118.398 16.7067C118.568 17.8542 119.009 18.9446 119.686 19.887C120.362 20.8293 121.254 21.5962 122.287 22.1239C123.32 22.6515 124.465 22.9246 125.625 22.9202C126.439 22.9527 127.251 22.8232 128.014 22.5391C128.778 22.255 129.477 21.8221 130.072 21.2654C129.179 20.6696 128.453 19.8564 127.962 18.9024C127.471 17.9485 127.231 16.8851 127.264 15.8126Z" fill="#E31E26"/>
<path d="M141.863 15.7239C141.85 17.6431 141.082 19.4799 139.725 20.8375C138.368 22.1951 136.532 22.9646 134.613 22.9797C133.801 23.0139 132.99 22.8877 132.227 22.6083C131.464 22.3289 130.764 21.9018 130.166 21.3513C131.041 20.7005 131.751 19.8531 132.239 18.8775C132.727 17.902 132.978 16.8255 132.974 15.7349C132.953 14.6128 132.692 13.5083 132.208 12.496C131.723 11.4838 131.027 10.5875 130.166 9.86789C131.449 8.8845 132.999 8.31294 134.613 8.22858C136.545 8.32996 138.368 9.15971 139.713 10.5508C141.058 11.9418 141.827 13.7909 141.863 15.7257V15.7239Z" fill="#1694D2"/>
</g>
<g clip-path="url(#clip3_368_3936)">
<path d="M207.143 0H156.857V32H207.143V0Z" fill="white"/>
<path d="M207.143 0H156.857V32H207.143V0Z" fill="white"/>
<path d="M206.914 0.228577H157.086V31.7714H206.914V0.228577Z" stroke="#DFDFDF" stroke-width="0.5"/>
<path d="M176.425 13.2681H174.076C174.036 13.2645 173.996 13.2687 173.958 13.2805C173.92 13.2923 173.885 13.3115 173.854 13.337C173.824 13.3624 173.799 13.3937 173.78 13.429C173.762 13.4642 173.75 13.5027 173.747 13.5424L172.761 19.5529C172.709 19.6626 172.819 19.7723 172.981 19.7723H174.133C174.172 19.776 174.212 19.7718 174.25 19.76C174.288 19.7481 174.323 19.7289 174.354 19.7035C174.385 19.678 174.41 19.6467 174.428 19.6115C174.447 19.5762 174.458 19.5377 174.462 19.498L174.681 17.8523C174.697 17.7762 174.738 17.7076 174.798 17.6578C174.858 17.608 174.933 17.5799 175.01 17.578H175.773C176.097 17.6128 176.424 17.5819 176.736 17.4872C177.048 17.3926 177.337 17.2361 177.587 17.0271C177.837 16.8181 178.042 16.5609 178.191 16.2709C178.339 15.9809 178.428 15.6639 178.451 15.339C178.518 15.0762 178.523 14.8017 178.467 14.5365C178.411 14.2712 178.295 14.0225 178.127 13.8094C177.897 13.6064 177.628 13.453 177.336 13.3586C177.044 13.2643 176.736 13.2309 176.431 13.2608L176.425 13.2681ZM176.699 15.5072C176.537 16.384 175.936 16.384 175.279 16.384H174.95L175.169 14.8178C175.169 14.7081 175.279 14.656 175.389 14.656H175.577C175.94 14.5969 176.311 14.673 176.621 14.8699C176.754 14.9595 176.754 15.2356 176.693 15.5072H176.699Z" fill="#253C7F"/>
<path d="M183.477 15.4551H182.328C182.219 15.4551 182.161 15.5072 182.109 15.6169L182.057 15.946L181.999 15.8363C181.82 15.6601 181.604 15.5249 181.367 15.4401C181.131 15.3554 180.878 15.323 180.628 15.3454C180.002 15.3569 179.402 15.5959 178.94 16.0176C178.478 16.4392 178.186 17.0148 178.117 17.6366C178.058 17.9428 178.066 18.2583 178.141 18.5611C178.215 18.8639 178.355 19.1468 178.55 19.3902C178.722 19.5981 178.941 19.7614 179.189 19.8661C179.437 19.9707 179.707 20.0135 179.976 19.9908C180.263 19.9906 180.547 19.9311 180.81 19.8162C181.073 19.7012 181.31 19.5331 181.505 19.3225L181.448 19.6516C181.396 19.7614 181.505 19.8711 181.667 19.8711H182.654C182.733 19.877 182.812 19.8517 182.874 19.8005C182.935 19.7493 182.974 19.6763 182.983 19.5968L183.584 15.7184C183.696 15.5648 183.586 15.4551 183.477 15.4551ZM181.91 17.6366C181.874 17.943 181.726 18.2251 181.493 18.4278C181.261 18.6306 180.961 18.7397 180.652 18.7337C180.508 18.7435 180.364 18.7187 180.231 18.6614C180.099 18.6042 179.982 18.5161 179.89 18.4046C179.807 18.2864 179.749 18.1523 179.72 18.0107C179.691 17.869 179.692 17.723 179.723 17.5817C179.76 17.2764 179.909 16.9959 180.142 16.7944C180.374 16.5929 180.673 16.4848 180.981 16.491C181.125 16.4819 181.269 16.5065 181.402 16.5626C181.535 16.6188 181.654 16.705 181.748 16.8146C181.834 16.9311 181.892 17.0663 181.916 17.2092C181.941 17.3522 181.931 17.4989 181.888 17.6375L181.91 17.6366Z" fill="#253C7F"/>
<path d="M189.49 15.456H188.341C188.285 15.4554 188.23 15.4702 188.182 15.4987C188.133 15.5273 188.094 15.5684 188.067 15.6178L186.538 17.9145L185.885 15.7276C185.864 15.6582 185.82 15.5982 185.76 15.558C185.7 15.5179 185.628 15.5003 185.556 15.5081H184.449C184.417 15.5075 184.385 15.5155 184.357 15.5313C184.328 15.5471 184.305 15.5701 184.288 15.598C184.272 15.6259 184.263 15.6577 184.263 15.6901C184.263 15.7225 184.271 15.7544 184.288 15.7824L185.546 19.4396L184.397 21.0789C184.371 21.1083 184.355 21.1449 184.349 21.1838C184.344 21.2227 184.351 21.2623 184.368 21.2976C184.385 21.3328 184.413 21.3621 184.447 21.3818C184.481 21.4015 184.52 21.4106 184.559 21.408H185.707C185.764 21.4104 185.82 21.3964 185.869 21.3677C185.917 21.339 185.957 21.2968 185.982 21.2462L189.756 15.776C189.761 15.67 189.667 15.456 189.49 15.456Z" fill="#253C7F"/>
<path d="M193.259 13.2727H190.91C190.87 13.269 190.83 13.2732 190.792 13.2851C190.754 13.2969 190.719 13.3161 190.688 13.3415C190.658 13.367 190.632 13.3983 190.614 13.4335C190.595 13.4688 190.584 13.5073 190.581 13.547L189.6 19.5602C189.542 19.6699 189.652 19.7796 189.813 19.7796H191.019C191.049 19.782 191.078 19.7779 191.106 19.7677C191.134 19.7575 191.159 19.7414 191.18 19.7206C191.201 19.6997 191.217 19.6746 191.227 19.6469C191.237 19.6192 191.241 19.5896 191.239 19.5602L191.513 17.8112C191.529 17.735 191.57 17.6665 191.63 17.6167C191.69 17.5669 191.765 17.5388 191.842 17.5369H192.605C192.929 17.5711 193.257 17.5397 193.569 17.4445C193.882 17.3494 194.171 17.1925 194.422 16.9831C194.672 16.7737 194.878 16.5161 195.026 16.2256C195.175 15.9352 195.264 15.6178 195.287 15.2923C195.354 15.0293 195.359 14.7543 195.302 14.4889C195.245 14.2236 195.127 13.975 194.958 13.7627C194.466 13.4065 193.865 13.2332 193.259 13.2727ZM193.533 15.5118C193.365 16.3886 192.766 16.3886 192.107 16.3886H191.778L191.998 14.8224C191.998 14.7127 192.107 14.6606 192.217 14.6606H192.384C192.747 14.6029 193.118 14.6789 193.429 14.8745C193.489 14.9684 193.529 15.0736 193.547 15.1837C193.565 15.2938 193.56 15.4064 193.533 15.5145V15.5118Z" fill="#159AD6"/>
<path d="M200.31 15.4551H199.16C199.051 15.4551 198.998 15.5072 198.941 15.6169L198.889 15.946L198.831 15.8363C198.652 15.6601 198.436 15.5249 198.199 15.4401C197.963 15.3554 197.71 15.323 197.46 15.3454C196.835 15.3592 196.237 15.5992 195.776 16.0208C195.316 16.4424 195.024 17.0168 194.955 17.6375C194.897 17.9454 194.909 18.2621 194.988 18.5652C195.067 18.8682 195.211 19.1502 195.412 19.3911C195.582 19.5989 195.8 19.7622 196.047 19.8669C196.295 19.9715 196.564 20.0144 196.832 19.9918C197.116 19.9895 197.397 19.929 197.658 19.8141C197.918 19.6991 198.152 19.5321 198.346 19.3234L198.288 19.6526C198.236 19.7623 198.346 19.872 198.507 19.872H199.494C199.574 19.8779 199.653 19.8526 199.714 19.8014C199.775 19.7502 199.815 19.6772 199.823 19.5977L200.424 15.7193C200.532 15.5648 200.419 15.4551 200.31 15.4551ZM198.744 17.6366C198.708 17.943 198.559 18.2251 198.327 18.4279C198.094 18.6306 197.795 18.7397 197.486 18.7337C197.342 18.7429 197.198 18.7179 197.065 18.6607C196.933 18.6035 196.816 18.5157 196.724 18.4046C196.64 18.2864 196.582 18.1523 196.554 18.0107C196.525 17.869 196.526 17.723 196.556 17.5817C196.594 17.2764 196.743 16.9959 196.976 16.7944C197.208 16.5929 197.507 16.4848 197.814 16.491C197.952 16.4882 198.088 16.5158 198.213 16.5717C198.339 16.6277 198.451 16.7106 198.54 16.8146C198.706 17.0547 198.771 17.3498 198.723 17.6375L198.744 17.6366Z" fill="#159AD6"/>
<path d="M201.621 13.4272L200.629 19.6023C200.571 19.712 200.681 19.8217 200.848 19.8217H201.829C201.869 19.8254 201.909 19.8212 201.947 19.8093C201.985 19.7975 202.02 19.7783 202.051 19.7529C202.081 19.7274 202.106 19.6961 202.125 19.6609C202.143 19.6256 202.155 19.5871 202.158 19.5474L203.139 13.5342C203.197 13.4245 203.087 13.3148 202.925 13.3148H201.829C201.73 13.2681 201.673 13.3202 201.621 13.4272Z" fill="#159AD6"/>
<path d="M162.979 21.0304L163.147 19.882H160.792L162.164 11.4103C162.164 11.395 162.17 11.3803 162.181 11.3695C162.191 11.3587 162.206 11.3527 162.221 11.3527C162.235 11.3527 162.248 11.3472 162.258 11.3374C162.268 11.3276 162.273 11.3144 162.273 11.3006H165.499C165.889 11.2526 166.284 11.2858 166.661 11.3981C167.037 11.5105 167.386 11.6995 167.686 11.9534C167.857 12.1353 167.97 12.3642 168.01 12.6107C168.068 12.9001 168.068 13.1981 168.01 13.4875V13.7618L168.177 13.8715C168.325 13.93 168.456 14.0242 168.558 14.1458C168.701 14.3469 168.812 14.5686 168.887 14.8032C168.946 15.1298 168.928 15.4656 168.835 15.7842C168.791 16.1829 168.639 16.5621 168.396 16.8814C168.223 17.1395 168.022 17.3774 167.796 17.5908C167.542 17.792 167.239 17.9234 166.919 17.9721C166.562 18.0637 166.196 18.1198 165.828 18.1394H165.609C165.441 18.1429 165.278 18.1936 165.139 18.2857C165.07 18.3359 165.015 18.4021 164.977 18.4786C164.94 18.5551 164.922 18.6395 164.925 18.7246L164.867 18.8343L164.512 20.896V20.9536C164.512 21.0057 164.512 21.0057 164.46 21.0057H164.403C163.929 21.0463 163.454 21.0545 162.979 21.0304Z" fill="#253C7F"/>
<path d="M168.444 13.5817C168.444 13.6338 168.392 13.7436 168.392 13.8012C167.953 15.9954 166.472 16.7662 164.613 16.7662H163.637C163.529 16.7615 163.423 16.7984 163.341 16.8693C163.259 16.9402 163.208 17.0398 163.198 17.1474L162.707 20.2112L162.529 21.0789C162.522 21.1118 162.522 21.146 162.529 21.1789C162.537 21.2119 162.552 21.2427 162.573 21.2691C162.594 21.2955 162.621 21.3167 162.651 21.3313C162.682 21.3459 162.715 21.3533 162.749 21.3532H164.461C164.559 21.3489 164.653 21.3152 164.732 21.2565C164.81 21.1978 164.869 21.1167 164.9 21.024V20.9664L165.272 18.8846L165.324 18.7749C165.346 18.6767 165.402 18.5897 165.483 18.5301C165.563 18.4706 165.663 18.4425 165.763 18.4512H165.983C166.758 18.5406 167.537 18.3204 168.151 17.8385C168.765 17.3565 169.163 16.6518 169.26 15.8775C169.359 15.5555 169.381 15.2147 169.324 14.8828C169.267 14.5508 169.132 14.237 168.931 13.9666C168.795 13.8083 168.63 13.6776 168.444 13.5817Z" fill="#159AD6"/>
<path d="M168.006 13.4308C167.943 13.3894 167.867 13.371 167.792 13.3787C167.734 13.3787 167.625 13.3211 167.573 13.3211C167.301 13.2759 167.025 13.2584 166.75 13.269H164.18C164.128 13.269 164.018 13.269 164.018 13.3211C163.954 13.3501 163.9 13.3963 163.861 13.4545C163.823 13.5126 163.801 13.5804 163.798 13.6503L163.25 17.0377V17.1474C163.269 17.0434 163.322 16.9489 163.402 16.8796C163.482 16.8103 163.583 16.7703 163.689 16.7661H164.675C166.533 16.7661 168.005 15.999 168.444 13.8166C168.444 13.759 168.501 13.6493 168.501 13.5972L168.172 13.4299L168.006 13.4308Z" fill="#252E64"/>
<path d="M163.798 13.6494C163.84 13.5216 163.916 13.4077 164.018 13.3202C164.04 13.3007 164.065 13.286 164.093 13.277C164.121 13.268 164.151 13.265 164.18 13.2681H166.753C167.077 13.2681 167.354 13.3202 167.576 13.3202C167.628 13.3202 167.738 13.3778 167.796 13.3778C167.853 13.3778 167.957 13.4299 168.01 13.4299C168.062 13.4299 168.067 13.4875 168.119 13.4875C168.234 13.5298 168.345 13.5841 168.448 13.6494C168.541 13.3281 168.55 12.9883 168.473 12.6628C168.396 12.3373 168.237 12.0372 168.01 11.7915C167.678 11.4926 167.289 11.2652 166.866 11.1236C166.443 10.982 165.995 10.9293 165.551 10.9687H162.322C162.214 10.9643 162.109 11.0014 162.029 11.0724C161.948 11.1434 161.898 11.2428 161.888 11.3499L160.517 19.9314C160.509 19.9717 160.51 20.0134 160.52 20.0533C160.53 20.0932 160.549 20.1303 160.575 20.1619C160.601 20.1935 160.635 20.2188 160.672 20.2359C160.709 20.253 160.75 20.2614 160.791 20.2606H162.816L163.305 17.098L163.798 13.6494Z" fill="#253C7F"/>
</g>
<g clip-path="url(#clip4_368_3936)">
<path d="M259.429 0H209.143V32H259.429V0Z" fill="white"/>
<path d="M259.429 0H209.143V32H259.429V0Z" fill="white"/>
<path d="M259.2 0.228577H209.371V31.7714H259.2V0.228577Z" stroke="#DFDFDF" stroke-width="0.5"/>
<path d="M231.891 15.2621H229.81V12.6558H231.891V13.1987H230.433V13.6683H231.856V14.2025H230.433V14.7231H231.891V15.2621ZM227.255 15.2621L226.35 13.2196V15.2626H225.082L224.843 14.6813H223.546L223.304 15.2626H222.628L223.743 12.6562H224.668L225.728 15.1242V12.6562H226.745L227.561 14.4244L228.309 12.6562H229.347V15.2626H228.709L228.706 13.2215L227.803 15.2626L227.255 15.2621ZM224.618 14.1379L224.192 13.0991L223.768 14.1379H224.618ZM234.694 18.0006C234.694 18.7247 234.154 18.8743 233.61 18.8743H232.833V19.7484H231.622L230.855 18.8855L230.057 19.7484H227.59V17.142H230.095L230.862 17.9958L231.654 17.142H233.645C234.139 17.1415 234.694 17.279 234.694 18.0006ZM230.454 18.4401L229.773 17.6811H228.211V18.1551H229.578V18.6873H228.211V19.206H229.742L230.454 18.4401ZM232.212 17.4213L231.255 18.4489L232.212 19.5114V17.4213ZM234.025 18.0006C234.025 17.7724 233.87 17.6806 233.645 17.6806H232.833V18.3445H233.637C233.877 18.3449 234.025 18.226 234.025 18.0006ZM232.947 15.2621H232.323V12.6558H233.756C234.074 12.6558 234.308 12.664 234.51 12.7806C234.707 12.8971 234.825 13.0671 234.825 13.358C234.825 13.7732 234.548 13.9883 234.386 14.0524C234.523 14.1044 234.639 14.1962 234.694 14.2719C234.783 14.4016 234.798 14.5172 234.798 14.7498V15.2621H234.169L234.167 14.9334C234.167 14.7765 234.182 14.5512 234.068 14.4259C233.978 14.3346 233.839 14.3147 233.614 14.3147H232.947V15.2621ZM232.946 13.7776H233.703C233.824 13.7776 233.925 13.7761 234.011 13.7241C234.091 13.6819 234.139 13.5901 234.139 13.4765C234.139 13.3648 234.089 13.2842 234.009 13.2463C233.935 13.2045 233.821 13.1992 233.713 13.1992H232.946L232.946 13.7776ZM235.822 12.6562H235.186V15.2626H235.822V12.6562ZM236.461 14.9742C236.241 14.7527 236.127 14.4526 236.127 13.9791C236.127 13.5925 236.195 13.239 236.462 12.9598C236.663 12.7519 236.979 12.6562 237.408 12.6562H238.011V13.2147H237.421C237.192 13.2147 237.064 13.2487 236.941 13.3691C236.835 13.4789 236.762 13.6858 236.762 13.9597C236.762 14.2384 236.817 14.44 236.934 14.5711C237.029 14.6745 237.205 14.7056 237.368 14.7056H237.647L238.527 12.6562H239.46L240.515 15.1213V12.6562H241.463L242.559 14.4715V12.6562H243.196V15.2626H242.314L241.132 13.3065V15.2626H239.864L239.621 14.6813H238.327L238.093 15.2626H237.364C237.06 15.2621 236.677 15.1951 236.461 14.9742ZM238.55 14.1379H239.41L238.978 13.0991L238.55 14.1379ZM237.243 13.677C237.237 13.6853 237.193 13.779 237.193 13.9597C237.193 14.1384 237.222 14.2243 237.243 14.2632C237.264 14.269 237.305 14.2758 237.365 14.2758L237.635 13.645H237.422C237.276 13.6445 237.261 13.66 237.243 13.677ZM247.543 8.02038V24.3838C247.543 24.7738 247.227 25.0899 246.837 25.0899H220.82C220.43 25.0899 220.114 24.7733 220.114 24.3833V8.02038C220.114 7.63042 220.43 7.31427 220.82 7.31427H246.837C247.227 7.31427 247.543 7.63042 247.543 8.02038ZM227.255 15.6929H227.802C227.973 15.6929 228.126 15.5924 228.195 15.4365L228.278 15.2519V15.2626C228.278 15.5001 228.47 15.6924 228.708 15.6924H229.347C229.434 15.6924 229.51 15.6594 229.579 15.6152C229.647 15.6594 229.723 15.6924 229.811 15.6924H231.891C231.972 15.6924 232.043 15.6643 232.107 15.6259C232.172 15.6643 232.242 15.6924 232.323 15.6924H232.947C233.184 15.6924 233.377 15.4996 233.377 15.2621V14.7445H233.614C233.668 14.7445 233.707 14.7459 233.735 14.7479C233.738 14.7921 233.737 14.8445 233.737 14.8795L233.736 14.9368L233.739 15.2655C233.741 15.5016 233.933 15.6924 234.169 15.6924H234.798C234.869 15.6924 234.932 15.671 234.991 15.6405C235.051 15.671 235.116 15.6924 235.186 15.6924H235.822C236.03 15.6924 236.196 15.5419 236.236 15.3457C236.59 15.6424 237.086 15.6924 237.364 15.6924H238.093C238.267 15.6924 238.426 15.5856 238.49 15.4229L238.617 15.1106H239.335L239.467 15.4273C239.535 15.5875 239.691 15.6919 239.864 15.6919H241.132C241.369 15.6919 241.562 15.4991 241.562 15.2617V14.8503L241.944 15.4841C242.023 15.6133 242.162 15.6919 242.314 15.6919H243.196C243.433 15.6919 243.626 15.4991 243.626 15.2617V12.6553C243.626 12.4178 243.434 12.225 243.196 12.225H242.559C242.321 12.225 242.128 12.4178 242.128 12.6553V12.9243L241.831 12.4333C241.754 12.3042 241.614 12.2255 241.463 12.2255H240.515C240.277 12.2255 240.084 12.4183 240.084 12.6558V13.0214L239.855 12.4863C239.787 12.3284 239.632 12.2255 239.46 12.2255H238.527C238.432 12.2255 238.342 12.2566 238.27 12.311C238.198 12.257 238.108 12.2255 238.013 12.2255H237.41C236.899 12.2255 236.519 12.3498 236.241 12.5912C236.209 12.3857 236.038 12.2255 235.823 12.2255H235.187C235.018 12.2255 234.874 12.326 234.804 12.4678C234.778 12.4484 234.756 12.4256 234.727 12.4076C234.434 12.2386 234.127 12.2255 233.757 12.2255H232.324C232.243 12.2255 232.173 12.2536 232.108 12.292C232.044 12.2536 231.973 12.2255 231.892 12.2255H229.812C229.724 12.2255 229.648 12.258 229.58 12.3027C229.511 12.258 229.435 12.2255 229.348 12.2255H228.309C228.137 12.2255 227.981 12.3289 227.914 12.4882L227.544 13.3604L227.137 12.4756C227.066 12.3236 226.913 12.2255 226.746 12.2255H225.728C225.49 12.2255 225.298 12.4183 225.298 12.6558V13.0302L225.064 12.4853C224.996 12.3275 224.841 12.225 224.669 12.225H223.744C223.572 12.225 223.416 12.3279 223.348 12.4858L222.233 15.0922C222.176 15.2248 222.19 15.3772 222.269 15.4986C222.349 15.6191 222.484 15.6919 222.628 15.6919H223.305C223.478 15.6919 223.636 15.587 223.702 15.4268L223.833 15.1101H224.555L224.685 15.4248C224.751 15.5861 224.908 15.6914 225.083 15.6914H226.35C226.587 15.6914 226.78 15.4986 226.78 15.2612V15.251L226.862 15.436C226.93 15.5924 227.085 15.6929 227.255 15.6929ZM245.459 18.9258C245.459 18.5615 245.362 18.2906 245.149 18.071C245.144 18.0667 245.139 18.0623 245.136 18.0584C245.255 17.9817 245.333 17.8481 245.333 17.6961V17.1415C245.333 16.9036 245.14 16.7108 244.903 16.7108H243.654C243.265 16.7108 242.973 16.8249 242.759 16.9983C242.7 16.8317 242.545 16.7108 242.357 16.7108H241.109C240.766 16.7108 240.494 16.7963 240.289 16.9352C240.216 16.8035 240.08 16.7108 239.918 16.7108H237.84C237.672 16.7108 237.532 16.8089 237.461 16.9483C237.431 16.9279 237.41 16.9031 237.377 16.8842C237.076 16.7234 236.756 16.7108 236.425 16.7108H234.986C234.818 16.7108 234.676 16.8094 234.606 16.9502C234.388 16.8074 234.081 16.7108 233.645 16.7108H231.654C231.534 16.7108 231.42 16.7603 231.339 16.8482L230.867 17.3572L230.415 16.8536C230.333 16.7623 230.217 16.7108 230.095 16.7108H227.59C227.352 16.7108 227.159 16.9031 227.159 17.1415V19.7479C227.159 19.9854 227.352 20.1787 227.59 20.1787H230.057C230.177 20.1787 230.291 20.1282 230.373 20.0403L230.848 19.5255L231.299 20.0335C231.381 20.1253 231.499 20.1777 231.621 20.1777H232.832C233.07 20.1777 233.263 19.9854 233.263 19.7475V19.3031H233.609C234.03 19.3031 234.335 19.2167 234.556 19.0851V19.7475C234.556 19.9849 234.748 20.1777 234.986 20.1777H235.612C235.85 20.1777 236.043 19.9854 236.043 19.7475V19.2254H236.278C236.335 19.2254 236.375 19.2273 236.404 19.2293C236.407 19.2754 236.407 19.3318 236.406 19.3687V19.7475C236.406 19.9849 236.598 20.1777 236.837 20.1777H237.462C237.531 20.1777 237.593 20.1578 237.651 20.1292C237.708 20.1588 237.772 20.1777 237.841 20.1777H239.92C239.988 20.1777 240.05 20.1588 240.106 20.1311C240.164 20.1588 240.225 20.1777 240.293 20.1777H241.506C241.893 20.1777 242.206 20.0835 242.443 19.916C242.509 20.0694 242.661 20.1777 242.839 20.1777H244.052C244.934 20.1787 245.459 19.7101 245.459 18.9258ZM241.587 18.1643L241.252 18.1546C241.146 18.1546 241.076 18.1478 241.009 18.125C240.931 18.0953 240.873 18.0293 240.873 17.9307C240.873 17.8481 240.898 17.7855 240.967 17.7428C241.03 17.7005 241.103 17.6957 241.217 17.6957H242.359V17.1411H241.111C240.457 17.1411 240.22 17.5383 240.22 17.9171C240.22 18.7412 240.95 18.7043 241.532 18.7233C241.641 18.7233 241.707 18.7412 241.754 18.781C241.798 18.818 241.83 18.8772 241.83 18.9534C241.83 19.0243 241.8 19.0836 241.757 19.1234C241.705 19.173 241.621 19.188 241.503 19.188H240.295V19.747H241.508C242.136 19.747 242.487 19.4852 242.487 18.9243C242.487 18.6567 242.421 18.4974 242.3 18.3721C242.157 18.2303 241.925 18.1725 241.587 18.1643ZM237.054 18.5368C237.192 18.5873 237.306 18.68 237.358 18.7558C237.447 18.883 237.46 19.0015 237.462 19.2312V19.7479H236.837V19.4221C236.837 19.2652 236.852 19.0331 236.736 18.9117C236.645 18.8184 236.506 18.7961 236.279 18.7961H235.614V19.7479H234.988V17.1415H236.426C236.741 17.1415 236.971 17.1547 237.177 17.2639C237.372 17.3824 237.496 17.5456 237.496 17.8428C237.495 18.26 237.217 18.4722 237.054 18.5368ZM236.806 17.9628C236.806 17.8515 236.758 17.7704 236.677 17.7282C236.602 17.6835 236.49 17.6811 236.38 17.6811H235.613V18.2668H236.37C236.491 18.2668 236.595 18.2624 236.678 18.2129C236.758 18.1643 236.806 18.074 236.806 17.9628ZM237.841 19.7479H239.919V19.2074L238.461 19.2045V18.6863H239.883V18.1546H238.461V17.6801H239.919V17.1415H237.841V19.7479ZM244.132 18.1643L243.797 18.1546C243.691 18.1546 243.621 18.1478 243.554 18.125C243.477 18.0953 243.418 18.0293 243.418 17.9307C243.418 17.8481 243.444 17.7855 243.512 17.7428C243.575 17.7005 243.649 17.6957 243.762 17.6957H244.905V17.1411H243.656C243.003 17.1411 242.765 17.5383 242.765 17.9171C242.765 18.7412 243.496 18.7043 244.078 18.7233C244.187 18.7233 244.251 18.7412 244.3 18.781C244.343 18.818 244.375 18.8772 244.375 18.9534C244.375 19.0243 244.344 19.0836 244.303 19.1234C244.25 19.173 244.166 19.188 244.048 19.188H242.84V19.747H244.054C244.682 19.747 245.032 19.4852 245.032 18.9243C245.032 18.6567 244.967 18.4974 244.845 18.3721C244.702 18.2303 244.47 18.1725 244.132 18.1643Z" fill="#006FCF"/>
</g>
<g clip-path="url(#clip5_368_3936)">
<path d="M311.714 0H261.429V32H311.714V0Z" fill="white"/>
<path d="M311.714 0H261.429V32H311.714V0Z" fill="white"/>
<path d="M311.486 0.228577H261.657V31.7714H311.486V0.228577Z" stroke="#DFDFDF" stroke-width="0.5"/>
<path d="M279.973 22.821L279.665 23.4418L279.622 23.4667L279.309 22.8187L279.019 22.2183L278.691 21.5363L278.401 20.9359L278.072 20.254L277.782 19.6536L277.454 18.9716L277.164 18.3712L276.835 17.6892L276.545 17.0888L276.217 16.4068L275.927 15.8064L275.598 15.1244L272.095 7.89917H272.392H272.775L275.933 14.4447L276.262 15.1267L276.552 15.7271L276.88 16.4091L277.168 17.0095L277.499 17.6915L277.789 18.2919L278.117 18.9738L278.405 19.5743L278.736 20.2562L279.026 20.8566L279.352 21.5386L279.642 22.139L279.973 22.821Z" fill="#262262"/>
<path d="M280.601 21.5454L280.265 22.2251L279.937 21.5409L279.649 20.9405L279.318 20.2585L279.028 19.6581L278.7 18.9761L278.412 18.3757L278.081 17.6937L277.793 17.0933L277.465 16.4114L277.175 15.8109L276.844 15.129L276.556 14.5286L276.228 13.8466L273.359 7.89917H274.021L276.561 13.1669L276.892 13.8489V13.8511L277.179 14.4493L277.508 15.1312L277.798 15.7316L278.126 16.4136V16.4159L278.416 17.0163L278.745 17.6983L279.035 18.2987L279.364 18.9784L279.654 19.5788L279.982 20.263L280.272 20.8634L280.601 21.5454Z" fill="#262262"/>
<path d="M281.23 20.2676L280.895 20.9473L280.567 20.2653L280.277 19.6649L279.948 18.9829L279.658 18.3825L279.33 17.7005L279.04 17.1001L278.711 16.4182L278.421 15.8177L278.093 15.1358L277.803 14.5354L277.474 13.8534L277.184 13.253L276.855 12.571L274.603 7.89917H275.265L277.191 11.8913L277.519 12.5733L277.809 13.1737L278.138 13.8557L278.428 14.4561L278.756 15.138L279.046 15.7384L279.375 16.4204L279.665 17.0208L279.993 17.7028L280.283 18.3032L280.612 18.9852L280.902 19.5856L281.23 20.2676Z" fill="#262262"/>
<path d="M281.86 18.992L281.525 19.6694L281.196 18.9874L280.906 18.387L280.578 17.7073L280.288 17.1047L279.959 16.4227L279.669 15.8245V15.8223L279.341 15.1403L279.051 14.5399L278.722 13.8579L278.432 13.2575L278.104 12.5755L277.814 11.9751L277.485 11.2932L275.847 7.89917H276.511L277.821 10.6135L278.149 11.2954L278.439 11.8981L278.768 12.5778L279.058 13.1782V13.1805L279.386 13.8625L279.674 14.4606V14.4629L280.005 15.1426L280.292 15.7452L280.623 16.4249L280.911 17.0276L281.242 17.7096L281.53 18.31L281.86 18.992Z" fill="#262262"/>
<path d="M282.488 17.7141L282.153 18.3938L281.824 17.7119L281.534 17.1115L281.206 16.4295L280.916 15.8291L280.587 15.1471L280.299 14.5467L279.968 13.8647L279.681 13.2643L279.35 12.5823L279.062 11.9819L278.734 11.3L278.444 10.6996L278.115 10.0176L277.093 7.89917H277.755L278.448 9.33788L278.777 10.0199L279.067 10.6203L279.395 11.3022L279.685 11.9026L280.014 12.5846L280.304 13.185L280.632 13.867L280.922 14.4674L281.251 15.1494L281.541 15.7498L281.869 16.4317L282.159 17.0322L282.488 17.7141Z" fill="#262262"/>
<path d="M283.118 16.4385L282.782 17.1182L282.454 16.434L282.164 15.8336L281.835 15.1539L281.545 14.5512L281.217 13.8715V13.8693L280.927 13.2711L280.598 12.5869L280.308 11.9865L279.98 11.3045L279.69 10.7041L279.361 10.0221L279.071 9.42171L278.743 8.73974L278.337 7.89917H278.999L279.078 8.06003L279.407 8.74201L279.697 9.34468L280.025 10.0266L280.315 10.6248L280.644 11.309L280.934 11.9072L281.262 12.5914L281.552 13.1895L281.881 13.8738L282.171 14.4719L282.499 15.1562L282.789 15.7566L283.118 16.4385Z" fill="#262262"/>
<path d="M283.745 15.1607L283.412 15.8404L283.084 15.1584L282.794 14.558L282.465 13.876L282.175 13.2756L281.847 12.5937L281.557 11.9933L281.228 11.3113L280.938 10.7109L280.61 10.0289L280.32 9.42851L279.991 8.74654L279.701 8.14613L279.583 7.89917H280.245L280.326 8.06683L280.653 8.7488L280.945 9.34921L281.274 10.0312L281.561 10.6316L281.892 11.3136L282.18 11.914L282.511 12.5959L282.798 13.1963L283.127 13.8783L283.417 14.4787L283.745 15.1607Z" fill="#262262"/>
<path d="M275.933 14.4447L276.262 15.1267L275.927 15.8064L275.598 15.1244L275.933 14.4447Z" fill="#262262"/>
<path d="M276.561 13.1669L276.892 13.8488V13.8511L276.556 14.5285L276.228 13.8466L276.561 13.1669Z" fill="#262262"/>
<path d="M277.191 11.8912L277.519 12.5732L277.184 13.2529L276.855 12.5709L277.191 11.8912Z" fill="#262262"/>
<path d="M277.821 10.6134L278.149 11.2954L277.814 11.9751L277.485 11.2931L277.821 10.6134Z" fill="#262262"/>
<path d="M278.448 9.33783L278.777 10.0198L278.444 10.6995L278.115 10.0175L278.448 9.33783Z" fill="#262262"/>
<path d="M279.407 8.74197L279.071 9.42167L278.743 8.7397L279.078 8.06L279.407 8.74197Z" fill="#262262"/>
<path d="M279.824 7.89917L279.701 8.14613L279.583 7.89917H279.824Z" fill="#262262"/>
<path d="M276.552 15.7271L276.88 16.409L276.545 17.0887L276.217 16.4068L276.552 15.7271Z" fill="#262262"/>
<path d="M277.18 14.4492L277.508 15.1312L277.175 15.8109L276.844 15.1289L277.18 14.4492Z" fill="#262262"/>
<path d="M277.809 13.1736L278.138 13.8556L277.802 14.5353L277.474 13.8534L277.809 13.1736Z" fill="#262262"/>
<path d="M278.439 11.8981L278.768 12.5778L278.432 13.2575L278.104 12.5755L278.439 11.8981Z" fill="#262262"/>
<path d="M279.395 11.3022L279.062 11.9819L278.734 11.2999L279.067 10.6202L279.395 11.3022Z" fill="#262262"/>
<path d="M280.025 10.0266L279.69 10.704L279.361 10.022L279.697 9.3446L280.025 10.0266Z" fill="#262262"/>
<path d="M281.108 7.89917L280.961 8.19824L280.816 7.89917H281.108Z" fill="#262262"/>
<path d="M277.798 15.7316L278.126 16.4136V16.4159L277.793 17.0933L277.465 16.4113L277.798 15.7316Z" fill="#262262"/>
<path d="M278.428 14.4561L278.756 15.138L278.421 15.8177L278.093 15.1358L278.428 14.4561Z" fill="#262262"/>
<path d="M279.058 13.1804L279.386 13.8624L279.051 14.5398L278.722 13.8579L279.058 13.1804Z" fill="#262262"/>
<path d="M279.685 11.9026L280.014 12.5846L279.681 13.2643L279.35 12.5823L279.685 11.9026Z" fill="#262262"/>
<path d="M280.644 11.309L280.308 11.9864L279.98 11.3045L280.315 10.6248L280.644 11.309Z" fill="#262262"/>
<path d="M282.359 7.89917L281.915 8.80318L281.579 9.48062L281.251 8.79865L281.584 8.11894L281.693 7.89917H282.359Z" fill="#262262"/>
<path d="M279.046 15.7384L279.375 16.4204L279.04 17.1001L278.711 16.4181L279.046 15.7384Z" fill="#262262"/>
<path d="M279.674 14.4628L280.005 15.1425L279.669 15.8222L279.341 15.1403L279.674 14.4628Z" fill="#262262"/>
<path d="M280.632 13.867L280.299 14.5467L279.969 13.8647L280.304 13.185L280.632 13.867Z" fill="#262262"/>
<path d="M281.262 12.5913L280.927 13.271L280.598 12.5868L280.934 11.9071L281.262 12.5913Z" fill="#262262"/>
<path d="M283.609 7.89917L282.531 10.0856L282.198 10.763L281.867 10.081L282.202 9.40132L282.943 7.89917H283.609Z" fill="#262262"/>
<path d="M280.292 15.7452L280.623 16.4249L280.288 17.1047L279.959 16.4227L280.292 15.7452Z" fill="#262262"/>
<path d="M280.922 14.4673L281.251 15.1493L280.916 15.829L280.587 15.1471L280.922 14.4673Z" fill="#262262"/>
<path d="M281.881 13.8738L281.545 14.5512L281.217 13.8715V13.8692L281.552 13.1895L281.881 13.8738Z" fill="#262262"/>
<path d="M284.858 7.89917L283.149 11.3657L282.814 12.0454L282.486 11.3634L282.821 10.6837L284.194 7.89917H284.858Z" fill="#262262"/>
<path d="M281.869 16.4317L281.534 17.1114L281.206 16.4295L281.541 15.7498L281.869 16.4317Z" fill="#262262"/>
<path d="M282.499 15.1561L282.164 15.8335L281.835 15.1538L282.171 14.4719L282.499 15.1561Z" fill="#262262"/>
<path d="M286.109 7.89917L283.768 12.648L283.435 13.3278L283.104 12.6458L283.44 11.9683L285.445 7.89917H286.109Z" fill="#262262"/>
<path d="M283.118 16.4385L282.782 17.1182L282.454 16.434L282.789 15.7565L283.118 16.4385Z" fill="#262262"/>
<path d="M287.359 7.89917L284.387 13.9304V13.9327L284.054 14.6101L283.723 13.9282L284.058 13.2485L286.695 7.89917H287.359Z" fill="#262262"/>
<path d="M291.65 23.4667V7.89465H288.019V8.86437H290.59V23.4667H291.65Z" fill="#262262"/>
<path d="M294.05 12.4033C293.993 11.4112 294.298 10.4321 294.908 9.64825C295.214 9.25633 295.608 8.94182 296.058 8.73008C296.508 8.51834 297.001 8.41531 297.498 8.42931C297.956 8.42319 298.409 8.51413 298.829 8.69612C299.249 8.87811 299.625 9.14702 299.934 9.48512C300.595 10.182 300.954 11.112 300.933 12.0725C300.907 13.0505 300.561 13.9929 299.947 14.7551C299.317 15.5934 297.718 17.2995 295.189 19.8257L292.801 22.2069V23.3126H302.023V22.3429H293.995L295.808 20.5303C298.588 17.7481 300.339 15.8653 301.019 14.9318C301.648 14.1134 301.994 13.1134 302.007 12.0816C302.019 11.4768 301.909 10.8757 301.685 10.3138C301.461 9.75188 301.127 9.24055 300.702 8.80995C300.289 8.37638 299.79 8.03331 299.237 7.80243C298.685 7.57155 298.09 7.4579 297.491 7.46866C296.873 7.44964 296.259 7.56754 295.691 7.81392C295.124 8.06029 294.619 8.42905 294.211 8.89378C293.42 9.80005 293.01 10.9737 292.992 12.3988L294.05 12.4033Z" fill="#262262"/>
</g>
<defs>
<clipPath id="clip0_368_3936">
<rect width="50.2857" height="32" fill="white"/>
</clipPath>
<clipPath id="clip1_368_3936">
<rect width="50.2857" height="32" fill="white" transform="translate(52.2857)"/>
</clipPath>
<clipPath id="clip2_368_3936">
<rect width="50.2857" height="32" fill="white" transform="translate(104.571)"/>
</clipPath>
<clipPath id="clip3_368_3936">
<rect width="50.2857" height="32" fill="white" transform="translate(156.857)"/>
</clipPath>
<clipPath id="clip4_368_3936">
<rect width="50.2857" height="32" fill="white" transform="translate(209.143)"/>
</clipPath>
<clipPath id="clip5_368_3936">
<rect width="50.2857" height="32" fill="white" transform="translate(261.429)"/>
</clipPath>
</defs>
</svg>
