<svg width="624" height="240" xmlns="http://www.w3.org/2000/svg">

 <g>
  <title>background</title>
  <rect fill="none" id="canvas_background" height="242" width="626" y="-1" x="-1"/>
 </g>
 <g>
  <title>Layer 1</title>
  <g stroke="null" id="svg_176">
   <path stroke="null" id="svg_1" d="m252.842782,12.563007c2.890574,-1.296243 6.148923,-1.283839 9.258871,-1.02335c-3.08414,0.365925 -6.168279,0.750457 -9.258871,1.02335z" fill="#e5e5e5"/>
   <path stroke="null" id="svg_2" d="m14.809149,12.407954c4.490714,-0.403138 9.000784,-0.024808 13.49795,-0.248085c0.309704,6.7293 0.083878,13.471005 0.122591,20.206508c0.103235,2.28238 -0.574244,4.837654 0.864591,6.859545c-0.477461,0.353521 -0.961374,0.694637 -1.451739,1.029552c-0.490365,-9.18534 0.012904,-18.395488 -0.212922,-27.587031c-4.27134,-0.173659 -8.542679,-0.217074 -12.820471,-0.260489z" fill="#e5e5e5"/>
   <path stroke="null" id="svg_3" d="m407.862733,17.413065c5.523062,-0.508574 11.15581,-0.489967 16.685324,-0.012404c0.116139,5.011313 -0.161304,10.028828 0,15.040141c3.193827,0.20467 6.40701,0.285298 9.61374,0.179861c0.20647,3.59723 0.167757,7.206864 -0.006452,10.810295c-3.213183,0.062021 -6.426366,0.055819 -9.633097,0.062021c0.019357,11.449114 0.174209,22.910632 -0.141948,34.359746c-0.819426,-3.119666 -0.451652,-6.344769 -0.406487,-9.514052c0.077426,-8.441086 -0.077426,-16.875969 0.019357,-25.310852c3.206731,-0.080628 6.419914,-0.136447 9.633097,-0.186064c0.167757,-3.318134 0.161304,-6.642471 -0.012904,-9.960605c-3.206731,-0.018606 -6.413462,0.018606 -9.61374,0.074425c-0.167757,-5.129153 0.20647,-10.270711 -0.200017,-15.393662c-4.935914,-0.465159 -9.897636,-0.266691 -14.846454,-0.20467c-0.600052,5.135356 -0.045165,10.314126 -0.522626,15.461886c-2.774435,-0.012404 -5.542418,0.031011 -8.303949,0.130245c-0.070974,3.318134 -0.045165,6.630066 0.05807,9.948201c2.451826,-0.018606 4.910105,-0.043415 7.374836,0.012404l0.664574,0.049617c-2.793792,0.874499 -5.742436,0.545787 -8.613653,0.403138c-0.135496,-3.59723 -0.251635,-7.200662 -0.032261,-10.797891c2.761531,0.099234 5.523062,0.130245 8.284592,0.012404c0.161304,-5.048526 0.116139,-10.109456 0,-15.164184z" fill="#e5e5e5"/>
   <path stroke="null" id="svg_4" d="m258.165826,33.476556c-0.135496,-2.108721 -0.070974,-4.236048 0.438748,-6.295152c0.064522,2.114923 0.083878,4.229846 0.174209,6.350971l-0.612957,-0.055819z" fill="#e5e5e5"/>
   <path stroke="null" id="svg_5" d="m46.269954,31.249995c1.858226,-0.111638 3.800331,-0.266691 5.54887,0.508574c-1.851774,-0.167457 -3.703548,-0.316308 -5.54887,-0.508574z" fill="#e5e5e5"/>
   <path stroke="null" id="svg_6" d="m110.494901,31.429857c0.554887,-0.948924 2.884122,-0.874499 2.890574,0.365925c-0.980731,0.037213 -1.948557,-0.11784 -2.890574,-0.365925z" fill="#e5e5e5"/>
   <path stroke="null" id="svg_7" d="m294.052822,31.770973c1.7808,-0.694637 3.716453,-0.61401 5.600488,-0.471361c-1.864679,0.20467 -3.735809,0.347319 -5.600488,0.471361z" fill="#e5e5e5"/>
   <path stroke="null" id="svg_8" d="m304.344041,31.274804c1.858226,-0.049617 3.903566,-0.570595 5.60694,0.421744c-1.871131,-0.11784 -3.742261,-0.241883 -5.60694,-0.421744z" fill="#e5e5e5"/>
   <path stroke="null" id="svg_9" d="m361.136083,31.715154c1.735635,-0.899307 3.735809,-0.52718 5.613392,-0.434148c-1.864679,0.20467 -3.742261,0.32251 -5.613392,0.434148z" fill="#e5e5e5"/>
   <path stroke="null" id="svg_10" d="m464.390236,31.739963c1.774348,-0.713244 3.710001,-0.61401 5.594036,-0.471361c-1.864679,0.198468 -3.729357,0.341117 -5.594036,0.471361z" fill="#e5e5e5"/>
   <path stroke="null" id="svg_11" d="m474.720168,31.330623c2.296974,-0.031011 4.748801,-0.11784 6.800592,1.060563c-2.290522,-0.229478 -4.561688,-0.582999 -6.800592,-1.060563z" fill="#e5e5e5"/>
   <path stroke="null" id="svg_12" d="m539.893585,32.31676c1.567878,-1.246626 3.61967,-1.203211 5.542418,-1.097775c-1.858226,0.328712 -3.703548,0.70084 -5.542418,1.097775z" fill="#e5e5e5"/>
   <path stroke="null" id="svg_13" d="m546.978073,31.20658c0.896852,-0.031011 1.793705,-0.055819 2.703461,-0.068223c0.129043,5.191175 0.141948,10.382349 -0.019357,15.573524c-2.826053,0.148851 -5.658557,0.142649 -8.478158,-0.031011c2.58087,-0.558191 5.232714,-0.638818 7.871653,-0.744254c0.122591,-4.707409 0.103235,-9.414818 0.012904,-14.122228c-0.703287,-0.217074 -1.39367,-0.415542 -2.090505,-0.607808z" fill="#e5e5e5"/>
   <path stroke="null" id="svg_14" d="m94.835473,33.116833c1.703374,-1.215616 3.819687,-1.451296 5.884383,-1.4637c-1.935652,0.589201 -3.910018,1.048158 -5.884383,1.4637z" fill="#e5e5e5"/>
   <path stroke="null" id="svg_15" d="m289.245952,33.129237c0.232278,-1.079169 0.806522,-1.277637 1.716278,-0.589201c-0.483913,0.446553 -1.051704,0.64502 -1.716278,0.589201z" fill="#e5e5e5"/>
   <path stroke="null" id="svg_16" d="m513.807443,32.595855c5.264975,0.11784 10.536401,0.105436 15.807828,-0.031011c0.09033,2.815763 0.09033,5.631525 0.05807,8.447288c0.367774,-0.142649 1.103322,-0.421744 1.471096,-0.564393c-0.406487,0.769063 -0.806522,1.538126 -1.193652,2.313391c-1.238818,-3.138273 -0.825878,-6.52463 -0.851687,-9.793148c-4.877844,-0.260489 -9.768593,-0.341117 -14.646437,0.037213c0.070974,16.11931 0.019357,32.238621 0.038713,48.357931c-0.045165,3.435975 0.200017,6.884353 -0.270991,10.307924l-0.09033,0.589201c-0.471009,-2.158338 -0.38713,-4.366293 -0.374226,-6.555641c0.051617,-17.700851 -0.045165,-35.401702 0.051617,-53.108755z" fill="#e5e5e5"/>
   <path stroke="null" id="svg_17" d="m552.849552,32.862546c5.781149,-0.545787 11.607462,0.074425 17.401515,-0.328712l-0.019357,0.483765c-5.781149,-0.427946 -11.588106,-0.155053 -17.382159,-0.155053z" fill="#e5e5e5"/>
   <path stroke="null" id="svg_18" d="m596.182358,32.868748c5.600488,-0.40934 11.265497,-0.254287 16.878889,-0.024808c-5.626296,-0.111638 -11.252593,-0.037213 -16.878889,0.024808z" fill="#e5e5e5"/>
   <path stroke="null" id="svg_19" d="m233.163648,44.057373c0.077426,-3.535209 -0.412939,-7.126236 0.348417,-10.61803c0.316157,3.560017 0.245183,7.132438 0.225826,10.698657l-0.574244,-0.080628z" fill="#e5e5e5"/>
   <path stroke="null" id="svg_20" d="m318.661416,34.475098c0.671026,-0.911712 2.445374,0.173659 1.832418,1.14119c-0.716191,-0.217074 -1.342052,-0.61401 -1.832418,-1.14119z" fill="#e5e5e5"/>
   <path stroke="null" id="svg_21" d="m381.970155,34.431683c0.683931,-0.880701 2.400209,0.235681 1.787252,1.172201c-0.729096,-0.179861 -1.3356,-0.61401 -1.787252,-1.172201z" fill="#e5e5e5"/>
   <path stroke="null" id="svg_22" d="m282.277603,36.96835c-0.722644,-0.886903 0.8904,-2.170742 1.671113,-1.333456c-0.419391,0.589201 -0.987183,1.060563 -1.671113,1.333456z" fill="#e5e5e5"/>
   <path stroke="null" id="svg_23" d="m85.518533,39.325156c-0.716191,-1.079169 1.167844,-2.728933 2.213096,-1.935061c-0.587148,0.787669 -1.354957,1.420286 -2.213096,1.935061z" fill="#e5e5e5"/>
   <path stroke="null" id="svg_24" d="m447.072599,41.70677c0.94847,-1.997083 2.561513,-3.59723 4.652018,-4.502739c-1.54207,1.507115 -3.090592,3.01423 -4.652018,4.502739z" fill="#e5e5e5"/>
   <path stroke="null" id="svg_25" d="m531.912245,39.232124c-0.967826,-0.676031 0.232278,-2.363008 1.232365,-1.717987c-0.258087,0.669829 -0.696835,1.240424 -1.232365,1.717987z" fill="#e5e5e5"/>
   <path stroke="null" id="svg_26" d="m37.92084,44.584553c2.213096,-0.638818 4.555235,-0.570595 6.781236,0.006202c-2.258261,-0.124042 -4.529427,-0.11784 -6.781236,-0.006202z" fill="#e5e5e5"/>
   <path stroke="null" id="svg_27" d="m103.139422,44.553543c2.400209,-0.663627 4.993983,-0.744254 7.374836,0.062021c-2.458279,-0.155053 -4.916557,-0.179861 -7.374836,-0.062021z" fill="#e5e5e5"/>
   <path stroke="null" id="svg_28" d="m170.248492,44.590756c2.200192,-0.657425 4.516522,-0.539584 6.729618,-0.012404c-2.238905,-0.155053 -4.490714,-0.142649 -6.729618,0.012404z" fill="#e5e5e5"/>
   <path stroke="null" id="svg_29" d="m299.369414,44.262043c2.897026,-0.40934 5.968262,-0.334914 8.613653,1.004743c-2.832505,-0.595404 -5.723079,-0.837286 -8.613653,-1.004743z" fill="#e5e5e5"/>
   <path stroke="null" id="svg_30" d="m364.381527,44.547341c2.051792,-0.347319 4.161653,-0.341117 6.213444,0.037213c-2.0776,-0.08683 -4.148748,-0.093032 -6.213444,-0.037213z" fill="#e5e5e5"/>
   <path stroke="null" id="svg_31" d="m467.687297,44.627968c2.58087,-0.824882 5.387566,-0.719446 8.000697,-0.055819c-2.664748,-0.179861 -5.342401,-0.148851 -8.000697,0.055819z" fill="#e5e5e5"/>
   <path stroke="null" id="svg_32" d="m112.366032,45.53968c0.761357,-1.048158 2.922835,0.130245 2.213096,1.277637c-0.767809,-0.384531 -1.509809,-0.806276 -2.213096,-1.277637z" fill="#e5e5e5"/>
   <path stroke="null" id="svg_33" d="m327.165383,45.161351c0.438748,1.488509 0.580696,3.026635 0.561339,4.570963c0.051617,11.858454 0.232278,23.72311 -0.064522,35.581564c-1.032348,-4.76943 -0.612957,-9.662903 -0.696835,-14.494355c0.09033,-8.552724 -0.187113,-17.11165 0.200017,-25.658171z" fill="#e5e5e5"/>
   <path stroke="null" id="svg_34" d="m373.208102,45.328808c1.006539,0.210872 1.858226,0.880701 2.264713,1.804817c-0.974278,0.582999 -2.748626,-0.781467 -2.264713,-1.804817z" fill="#e5e5e5"/>
   <path stroke="null" id="svg_35" d="m180.552615,46.004839c1.716278,0.434148 2.955096,1.581541 3.355131,3.268517c-1.051704,-1.159796 -2.167931,-2.25137 -3.355131,-3.268517z" fill="#e5e5e5"/>
   <path stroke="null" id="svg_36" d="m292.239761,47.61739c0.083878,-0.880701 0.787165,-1.575339 1.677565,-1.767604c0.587148,0.837286 -0.761357,2.28238 -1.677565,1.767604z" fill="#e5e5e5"/>
   <path stroke="null" id="svg_37" d="m311.383363,48.671751c0.793617,0.942722 0.709739,2.406423 -0.038713,3.355347c-0.638765,-0.93652 -0.606504,-2.431231 0.038713,-3.355347z" fill="#e5e5e5"/>
   <path stroke="null" id="svg_38" d="m69.594566,49.347782c1.129131,-0.241883 1.606592,1.674572 0.625861,2.121125c-0.406487,-0.64502 -0.632313,-1.370669 -0.625861,-2.121125z" fill="#e5e5e5"/>
   <path stroke="null" id="svg_39" d="m275.722193,48.739974l0.180661,0.52718c0.135496,0.396936 0.406487,1.178403 0.541983,1.575339c4.774609,0.396936 9.568575,0.031011 14.343185,0.272893l0.625861,0.055819c-5.226262,0.874499 -10.575114,0.285298 -15.846541,0.359723c0.038713,-0.93652 0.09033,-1.866838 0.154852,-2.790954z" fill="#e5e5e5"/>
   <path stroke="null" id="svg_40" d="m377.943998,51.574343c0.335513,0.595404 0.677478,1.190807 1.025896,1.786211c5.071409,0.396936 10.17508,-0.260489 15.233585,0.341117l0.496817,0.055819c-5.484349,0.589201 -11.026767,0.328712 -16.530472,0.179861c-0.083878,-0.793871 -0.154852,-1.575339 -0.225826,-2.363008z" fill="#e5e5e5"/>
   <path stroke="null" id="svg_41" d="m78.001749,67.240898c-0.896852,-5.005111 -0.748452,-10.301722 0.825878,-15.164184c-0.483913,5.042324 -0.806522,10.097052 -0.825878,15.164184z" fill="#e5e5e5"/>
   <path stroke="null" id="svg_42" d="m28.571638,55.202583c-1.077513,-0.415542 -0.522626,-2.394018 0.645217,-2.108721c-0.09033,0.73185 -0.309704,1.445094 -0.645217,2.108721z" fill="#e5e5e5"/>
   <path stroke="null" id="svg_43" d="m589.95601,55.190179c-0.993635,-0.446553 -0.516174,-2.350604 0.625861,-2.114923c0,0.750457 -0.225826,1.476105 -0.625861,2.114923z" fill="#e5e5e5"/>
   <path stroke="null" id="svg_44" d="m95.158082,56.387188c-1.425931,0.353521 -1.645305,-2.69172 -0.187113,-2.66071c0.077426,0.880701 0.174209,1.767604 0.187113,2.66071z" fill="#e5e5e5"/>
   <path stroke="null" id="svg_45" d="m143.936523,70.298544c-1.225913,-5.581908 -1.167844,-11.46772 -0.103235,-17.074437c0.135496,5.693546 0.006452,11.387093 0.103235,17.074437z" fill="#e5e5e5"/>
   <path stroke="null" id="svg_46" d="m501.883824,53.67066c1.264626,-0.049617 1.464644,2.145934 0.509722,2.710327c-0.341965,-0.868297 -0.548435,-1.780008 -0.509722,-2.710327z" fill="#e5e5e5"/>
   <path stroke="null" id="svg_47" d="m53.631885,53.974563c1.955009,3.404964 1.793705,7.423938 1.658209,11.188625c-0.025809,1.370669 -0.412939,2.704124 -1.103322,3.907336c0.832331,-5.011313 0.742,-10.165275 -0.554887,-15.095961z" fill="#e5e5e5"/>
   <path stroke="null" id="svg_48" d="m440.704303,64.226668c-0.251635,-3.435975 -0.451652,-6.995992 0.625861,-10.332732c0,3.454581 -0.070974,6.915364 -0.625861,10.332732z" fill="#e5e5e5"/>
   <path stroke="null" id="svg_49" d="m71.097922,55.115754c0.819426,4.589569 0.864591,9.433425 -0.1484,13.998185c-0.019357,-4.663994 0.122591,-9.334191 0.1484,-13.998185z" fill="#e5e5e5"/>
   <path stroke="null" id="svg_50" d="m301.246997,56.579454c1.916296,-0.775265 3.980992,-1.091573 6.05214,-1.197009c-1.9292,0.750457 -4.006801,0.973733 -6.05214,1.197009z" fill="#e5e5e5"/>
   <path stroke="null" id="svg_51" d="m95.790395,56.349975c7.736158,-0.427946 15.485219,-0.049617 23.227829,-0.192266c-1.787252,0.310106 -3.613218,0.40934 -5.426279,0.353521c-5.929549,-0.130245 -11.872002,0.11784 -17.80155,-0.161255z" fill="#e5e5e5"/>
   <path stroke="null" id="svg_52" d="m160.6283,69.082928c-2.090505,-4.093399 -1.503357,-9.073702 0,-13.260133c-0.671026,4.384899 -0.619409,8.869032 0,13.260133z" fill="#e5e5e5"/>
   <path stroke="null" id="svg_53" d="m135.587409,56.349975c0.819426,3.020433 0.787165,6.208322 0.406487,9.296978c-0.561339,0.70084 -1.593687,0.545787 -2.393757,0.638818c-13.104367,0.099234 -26.22809,-0.229478 -39.326005,0.142649c0.245183,1.897849 0.496817,3.789495 0.690383,5.693546c-0.80007,-1.972274 -1.206557,-4.049984 -1.490452,-6.140099c13.981863,-0.254287 27.97663,0.241883 41.945588,-0.235681c0.187113,-3.132071 0.2968,-6.264141 0.167757,-9.396212z" fill="#e5e5e5"/>
   <path stroke="null" id="svg_54" d="m288.968508,58.359462c3.374487,-1.283839 7.078036,-1.500913 10.671897,-1.525722c-3.497079,0.868297 -7.071584,1.370669 -10.671897,1.525722z" fill="#e5e5e5"/>
   <path stroke="null" id="svg_55" d="m187.011242,57.063219c1.148487,1.699381 0.787165,3.789495 0.774261,5.712153c-0.200017,2.958411 -0.187113,6.140099 -1.955009,8.713979c1.219461,-4.707409 1.54207,-9.59468 1.180748,-14.426132z" fill="#e5e5e5"/>
   <path stroke="null" id="svg_56" d="m355.354934,69.17596c-1.083965,-4.012772 -0.993635,-8.24882 -0.032261,-12.273996c0.05807,4.093399 0,8.180597 0.032261,12.273996z" fill="#e5e5e5"/>
   <path stroke="null" id="svg_57" d="m485.895335,56.914368c1.077513,2.207955 0.916209,4.682601 0.8904,7.058013c-0.083878,2.36921 0.025809,4.949292 -1.522713,6.952577c0.80007,-4.62058 1.103322,-9.340393 0.632313,-14.010589z" fill="#e5e5e5"/>
   <path stroke="null" id="svg_58" d="m502.535493,56.883358c1.24527,3.349145 0.916209,7.039406 0.200017,10.469179c-0.116139,-3.491794 -0.135496,-6.983587 -0.200017,-10.469179z" fill="#e5e5e5"/>
   <path stroke="null" id="svg_59" d="m457.544479,66.781942c-1.322696,-2.629699 -1.380765,-5.898216 -0.122591,-8.565128c-0.103235,2.852975 -0.083878,5.718355 0.122591,8.565128z" fill="#e5e5e5"/>
   <path stroke="null" id="svg_60" d="m27.700595,66.676506c-1.129131,-2.462242 -0.961374,-5.364834 0.006452,-7.845682c-0.096783,2.611093 -0.103235,5.228387 -0.006452,7.845682z" fill="#e5e5e5"/>
   <path stroke="null" id="svg_61" d="m529.744315,72.680158c0.038713,-4.632984 -0.290348,-9.296978 0.483913,-13.892749c0.322609,11.008763 0.232278,22.036133 0.045165,33.051098l-0.567791,-0.037213c0.09033,-6.37578 0.006452,-12.745357 0.038713,-19.121137z" fill="#e5e5e5"/>
   <path stroke="null" id="svg_62" d="m579.264756,62.304011c1.116226,0.260489 1.303339,0.81868 0.561339,1.674572c-0.4452,-0.483765 -0.632313,-1.041956 -0.561339,-1.674572z" fill="#e5e5e5"/>
   <path stroke="null" id="svg_63" d="m298.479014,67.352537c0.077426,-1.34586 2.626035,-1.519519 3.445461,-0.601606c-1.129131,0.303904 -2.28407,0.477563 -3.445461,0.601606z" fill="#e5e5e5"/>
   <path stroke="null" id="svg_64" d="m457.679974,67.278111c0.2968,0.855893 0.50327,1.742796 0.580696,2.654507c-1.309791,0.130245 -1.645305,-2.121125 -0.580696,-2.654507z" fill="#e5e5e5"/>
   <path stroke="null" id="svg_65" d="m440.891416,68.102993c0.477461,1.935061 0.8904,3.888729 1.251722,5.854801c-1.116226,-1.767604 -1.303339,-3.839112 -1.251722,-5.854801z" fill="#e5e5e5"/>
   <path stroke="null" id="svg_66" d="m78.272741,68.741812c0.761357,2.338199 1.419478,4.713611 1.806609,7.13864c-1.387218,-2.139731 -1.754992,-4.663994 -1.806609,-7.13864z" fill="#e5e5e5"/>
   <path stroke="null" id="svg_67" d="m501.922537,71.25367c-0.05807,-0.762861 0.129043,-1.507115 0.464557,-2.195551c0.987183,0.384531 0.690383,2.344401 -0.464557,2.195551z" fill="#e5e5e5"/>
   <path stroke="null" id="svg_68" d="m378.131111,70.366767c4.077774,-0.223276 8.168453,-0.068223 12.25268,-0.167457c1.354957,-0.049617 2.735722,0.018606 4.032609,0.458957c-5.523062,0.458957 -11.342923,-1.116382 -16.607898,1.029552c0.077426,-0.334914 0.23873,-0.992339 0.322609,-1.321052z" fill="#e5e5e5"/>
   <path stroke="null" id="svg_69" d="m273.909132,73.784135c-0.980731,-0.570595 -0.780713,-2.766146 0.496817,-2.753741c0,0.93652 -0.187113,1.860636 -0.496817,2.753741z" fill="#e5e5e5"/>
   <path stroke="null" id="svg_70" d="m309.634824,77.01544c0.793617,-1.860636 1.438835,-3.777091 1.922748,-5.736961c-0.077426,2.034295 0.070974,4.459324 -1.922748,5.736961z" fill="#e5e5e5"/>
   <path stroke="null" id="svg_71" d="m583.19413,74.125252c0.193565,-0.837286 0.690383,-1.203211 1.496905,-1.097775c0.258087,0.992339 -1.051704,2.914996 -1.496905,1.097775z" fill="#e5e5e5"/>
   <path stroke="null" id="svg_72" d="m116.224433,78.758236c-0.612957,-0.942722 0.864591,-2.60489 1.916296,-2.152136c-0.174209,1.010946 -0.993635,1.730392 -1.916296,2.152136z" fill="#e5e5e5"/>
   <path stroke="null" id="svg_73" d="m443.42712,77.052653c0.477461,0.434148 0.709739,0.973733 0.696835,1.612551c-1.148487,-0.173659 -1.380765,-0.713244 -0.696835,-1.612551z" fill="#e5e5e5"/>
   <path stroke="null" id="svg_74" d="m45.30858,80.004862c0.722644,-0.465159 1.490452,-0.862095 2.303426,-1.178403c0.632313,1.165999 -1.580783,2.189348 -2.303426,1.178403z" fill="#e5e5e5"/>
   <path stroke="null" id="svg_75" d="m426.309501,79.626532c2.051792,-0.024808 4.116488,0.062021 6.136018,0.446553c-2.058244,-0.006202 -4.12294,-0.049617 -6.136018,-0.446553z" fill="#e5e5e5"/>
   <path stroke="null" id="svg_76" d="m37.327239,80.333574c2.496992,0.136447 5.01334,0.111638 7.510331,-0.074425c-2.406661,0.893105 -5.110122,1.048158 -7.510331,0.074425z" fill="#e5e5e5"/>
   <path stroke="null" id="svg_77" d="m170.254944,80.370787c2.238905,0.099234 4.484261,0.055819 6.729618,-0.08683c-2.167931,0.843488 -4.529427,0.694637 -6.729618,0.08683z" fill="#e5e5e5"/>
   <path stroke="null" id="svg_78" d="m366.775284,80.891765c0.38713,-1.060563 2.574418,-1.060563 3.451914,-0.415542c-1.0388,0.582999 -2.303426,0.73185 -3.451914,0.415542z" fill="#e5e5e5"/>
   <path stroke="null" id="svg_79" d="m433.613362,80.079287l0.612957,-0.006202c0.116139,4.087197 0.116139,8.180597 -0.096783,12.261592c-5.135931,-0.223276 -10.336384,0.49617 -15.414246,-0.415542c4.961722,0.198468 9.936349,0.148851 14.904524,0c0.167757,-3.950751 0.103235,-7.895299 -0.006452,-11.839847z" fill="#e5e5e5"/>
   <path stroke="null" id="svg_80" d="m467.667941,80.265351c2.451826,0.161255 4.923009,0.217074 7.38774,0.11784c-2.419566,0.564393 -5.052053,0.911712 -7.38774,-0.11784z" fill="#e5e5e5"/>
   <path stroke="null" id="svg_81" d="m104.984744,81.493371c2.529253,-0.062021 5.058505,-0.217074 7.568401,-0.576797c-2.258261,1.482307 -5.071409,1.234222 -7.568401,0.576797z" fill="#e5e5e5"/>
   <path stroke="null" id="svg_82" d="m294.156057,82.082572c2.245357,0.049617 4.503618,0.049617 6.755427,-0.024808c-2.161479,0.800074 -4.606853,0.886903 -6.755427,0.024808z" fill="#e5e5e5"/>
   <path stroke="null" id="svg_83" d="m571.954442,83.850176c0.4452,0.465159 0.645217,1.017148 0.612957,1.655966c-1.142035,-0.229478 -1.348505,-0.781467 -0.612957,-1.655966z" fill="#e5e5e5"/>
   <path stroke="null" id="svg_84" d="m186.217625,86.095344c0.167757,-0.210872 0.509722,-0.632616 0.677478,-0.843488c0.193565,2.201753 0.341965,4.409707 0.4452,6.617662c5.135931,0.297702 10.278314,0.012404 15.414246,0.167457c-5.297235,0.638818 -10.658993,0.155053 -15.988489,0.272893c-0.045165,-2.083912 -0.348417,-4.149218 -0.548435,-6.214524z" fill="#e5e5e5"/>
   <path stroke="null" id="svg_85" d="m309.557398,87.466012c0.883948,-0.862095 1.819513,-1.680775 2.767983,-2.48705c0.251635,1.525722 0.477461,3.063847 0.690383,4.608175c-0.400035,-1.079169 -0.748452,-2.16454 -1.083965,-3.249911c-0.80007,0.365925 -1.593687,0.744254 -2.3744,1.128786z" fill="#e5e5e5"/>
   <path stroke="null" id="svg_86" d="m592.240079,89.853829c0.05807,-0.880701 0.464557,-1.680775 0.987183,-2.394018c0.903304,0.64502 0.212922,2.753741 -0.987183,2.394018z" fill="#e5e5e5"/>
   <path stroke="null" id="svg_87" d="m314.080372,92.067986c5.826314,-0.192266 11.671984,0.248085 17.478941,-0.489967c-2.148574,1.122584 -4.652018,0.713244 -6.981253,0.762861c-3.503531,-0.099234 -7.026418,0.248085 -10.497688,-0.272893z" fill="#e5e5e5"/>
   <path stroke="null" id="svg_88" d="m575.109555,92.161017c0.729096,0.973733 0.722644,2.257572 0.09033,3.280922c-0.793617,-0.824882 -0.845235,-2.437433 -0.09033,-3.280922z" fill="#e5e5e5"/>
   <path stroke="null" id="svg_89" d="m37.998266,92.533145c5.187549,0.911712 10.517045,0.979935 15.711046,0.043415c-2.800244,1.488509 -6.097305,1.091573 -9.16854,1.165999c-2.245357,0.049617 -4.529427,-0.179861 -6.542505,-1.209413z" fill="#e5e5e5"/>
   <path stroke="null" id="svg_90" d="m96.6937,92.421506c2.271166,0.303904 4.529427,0.651223 6.768331,1.116382c-2.303426,0.080628 -4.729444,0.062021 -6.768331,-1.116382z" fill="#e5e5e5"/>
   <path stroke="null" id="svg_91" d="m110.185197,93.54409c2.238905,-0.446553 4.497166,-0.781467 6.768331,-1.035754c-2.0776,1.072967 -4.458453,1.234222 -6.768331,1.035754z" fill="#e5e5e5"/>
   <path stroke="null" id="svg_92" d="m161.228352,92.446315c1.464644,0.303904 2.922835,0.64502 4.381027,1.010946c-1.567878,0.155053 -3.109948,-0.08683 -4.381027,-1.010946z" fill="#e5e5e5"/>
   <path stroke="null" id="svg_93" d="m357.987422,92.557953c2.916383,0.20467 5.826314,0.558191 8.710436,1.048158c-2.922835,0.080628 -6.058592,0.384531 -8.710436,-1.048158z" fill="#e5e5e5"/>
   <path stroke="null" id="svg_94" d="m461.267384,92.433911c2.471183,0.285298 4.935914,0.620212 7.381288,1.11018c-2.516348,0.20467 -5.129479,0.099234 -7.381288,-1.11018z" fill="#e5e5e5"/>
   <path stroke="null" id="svg_95" d="m475.346029,93.51308c2.238905,-0.539584 4.522975,-0.880701 6.819949,-1.116382c-2.032435,1.246626 -4.516522,1.122584 -6.819949,1.116382z" fill="#e5e5e5"/>
   <path stroke="null" id="svg_96" d="m569.167102,102.568175c1.174296,-0.831084 2.451826,-1.525722 3.780974,-2.121125c-0.806522,1.321052 -2.258261,1.953668 -3.780974,2.121125z" fill="#e5e5e5"/>
   <path stroke="null" id="svg_97" d="m561.443849,102.555771c2.406661,-0.062021 4.813322,-0.068223 7.219984,0.093032c-2.187287,0.303904 -4.393931,0.396936 -6.594123,0.508574c-0.103235,3.845315 -0.103235,7.690629 0.051617,11.529741c3.690644,-0.068223 7.381288,-0.037213 11.06548,0.179861c-3.793879,0.998541 -7.800679,0.186064 -11.678436,0.427946c-0.348417,-4.24225 -0.322609,-8.496905 -0.064522,-12.739155z" fill="#e5e5e5"/>
   <path stroke="null" id="svg_98" d="m58.696842,105.42115c0.819426,-0.874499 2.148574,-0.651223 3.238992,-0.750457c3.5616,-0.024808 7.116749,0.012404 10.678349,0.124042c-0.264539,3.83291 -1.290435,7.554182 -2.084052,11.306465c-1.213009,5.798982 -2.58087,11.566954 -3.793879,17.372139c-1.283983,7.281289 -3.335774,14.413727 -4.652018,21.695016c-0.987183,5.395845 -2.471183,10.698657 -3.368035,16.113108c-0.277444,1.103977 -0.348417,2.425029 -1.329148,3.212698c-4.322957,0.353521 -8.684627,0.080628 -13.020489,0.08683c0.038713,-1.556732 0.109687,-3.107262 0.154852,-4.65159c-3.710001,2.207955 -7.303862,4.868664 -11.717149,5.594312c-5.174644,0.824882 -11.06548,0.90551 -15.433602,-2.300987c-3.91647,-2.542869 -5.852123,-6.983587 -6.652192,-11.312667c-1.09687,-7.504565 0.535531,-15.133173 3.032522,-22.234601c3.858401,-7.696831 10.278314,-14.953312 19.111342,-17.353532c4.587496,-1.048158 9.646001,-1.05436 14.001219,0.837286c2.742174,1.147392 4.555235,3.516602 6.568314,5.532291c2.677653,-7.541778 3.155113,-15.598332 5.264975,-23.270355m-21.014733,28.312679c-7.716801,2.394018 -11.426802,10.487785 -12.472054,17.657436c-0.393583,4.012772 -0.548435,9.18534 3.2648,11.802635c2.43247,1.897849 5.781149,2.052902 8.742697,1.544328c3.968087,-0.973733 7.23934,-3.733676 9.413723,-7.008396c2.690557,-3.851517 3.5616,-8.546522 3.955183,-13.086474c0.116139,-3.076252 -0.277444,-6.52463 -2.709913,-8.776c-2.445374,-2.834369 -6.748975,-3.020433 -10.194436,-2.133529z" fill="#e5e5e5"/>
   <path stroke="null" id="svg_99" d="m87.46709,105.235087c2.697009,-1.103977 6.006975,-0.831084 8.620106,0.396936c3.271253,1.693179 3.632574,5.960237 2.471183,8.986872c-2.890574,5.278004 -12.949515,4.986505 -14.53675,-1.178403c-1.238818,-3.163081 0.625861,-6.52463 3.445461,-8.205405z" fill="#e5e5e5"/>
   <path stroke="null" id="svg_100" d="m267.218227,108.832316c4.477809,0.173659 8.968523,0.111638 13.452784,0.031011c0.019357,4.744622 -2.638939,9.110915 -2.096957,13.905153c2.516348,-0.037213 5.039149,-0.049617 7.568401,0.006202c-0.1484,3.342943 -0.780713,6.642471 -1.709826,9.867573c-2.890574,-0.024808 -5.787601,-0.031011 -8.645914,0.384531c-2.0776,9.445829 -4.045514,18.910264 -6.213444,28.325083c-0.251635,1.190807 -0.025809,2.784752 1.354957,3.231305c2.103409,0.558191 4.316505,0.403138 6.477983,0.564393c-0.535531,3.287124 -1.24527,6.543237 -2.064696,9.780744c-4.432644,0.477563 -8.916906,0.440351 -13.362454,0.179861c-3.02607,-0.347319 -6.697357,-1.817221 -7.213531,-5.079536c-0.619409,-3.727474 0.703287,-7.380523 1.374313,-11.008763c2.013079,-8.707777 3.890661,-17.452766 5.426279,-26.247373c-2.419566,-0.099234 -4.839131,-0.130245 -7.258697,-0.179861c0.858139,-3.057645 1.142035,-6.295152 2.419566,-9.222553c2.155026,-1.066765 4.729444,-0.49617 7.065131,-0.676031c1.290435,-4.589569 1.806609,-9.358999 3.426105,-13.861739z" fill="#e5e5e5"/>
   <path stroke="null" id="svg_101" d="m133.561426,122.334332c2.464731,-0.880701 5.142383,-0.663627 7.716801,-0.551989c-0.632313,3.702666 -1.619496,7.34331 -2.161479,11.064582c-4.181009,0.285298 -8.72334,-0.229478 -12.446245,2.015689c-5.110122,2.77855 -7.265149,8.490703 -8.452349,13.712888c-1.684018,7.982129 -3.458366,15.951853 -5.090766,23.952588c-0.251635,0.762861 -0.316157,2.139731 -1.503357,2.028093c-4.181009,0.235681 -8.374923,0.068223 -12.555932,-0.012404c0.787165,-7.157247 2.542157,-14.190451 4.187461,-21.205049c2.000174,-10.072243 4.445548,-20.057657 6.277966,-30.16091c4.297148,-0.688435 8.742697,-0.620212 13.059202,-0.148851c0.374226,2.797156 -1.251722,5.606717 -1.213009,8.4845c0.367774,-0.068223 1.103322,-0.210872 1.464644,-0.279095c2.271166,-4.112006 6.174731,-7.324704 10.717062,-8.900042z" fill="#e5e5e5"/>
   <path stroke="null" id="svg_102" d="m152.801812,127.128571c7.303862,-5.290409 17.143428,-6.630066 25.937743,-4.719813c4.80687,0.961329 8.955619,4.298069 10.949341,8.589936c2.451826,5.451664 1.722731,11.616571 1.148487,17.365937c-0.374226,1.457498 -0.122591,4.056187 -2.387305,3.857719c-11.820384,0.167457 -23.653673,0 -35.480509,0.055819c-0.412939,3.454581 -0.806522,7.554182 1.98727,10.2397c3.761618,3.733676 10.071845,3.39256 14.53675,1.072967c1.800157,-0.93652 2.903479,-2.834369 4.787514,-3.591028c4.374575,-0.372127 8.794314,-0.173659 13.181793,0.006202c-2.58087,6.264141 -8.394279,10.779285 -14.569011,13.644664c-5.600488,2.580082 -11.962332,2.555274 -18.014472,2.114923c-5.787601,-0.595404 -11.60101,-3.62824 -14.207689,-8.800809c-2.851861,-5.563302 -2.206644,-12.038315 -1.090418,-17.942734c1.832418,-8.354256 5.948905,-16.689905 13.220506,-21.893484m2.955096,16.305374c7.200627,0.142649 14.420611,0.316308 21.608333,-0.124042c-0.064522,-2.586284 0.225826,-5.482674 -1.522713,-7.665821c-2.251809,-2.797156 -6.419914,-3.5104 -9.852471,-2.710327c-5.258522,0.986137 -9.22661,5.575706 -10.233149,10.500189z" fill="#e5e5e5"/>
   <path stroke="null" id="svg_103" d="m215.942794,123.922075c5.806957,-2.480848 12.40108,-2.790954 18.608072,-1.835828c5.342401,0.800074 10.11701,4.273261 12.452697,8.949659c1.496905,3.132071 1.154939,6.685886 0.961374,10.028828c-4.56814,0.179861 -9.142732,0.198468 -13.704419,-0.018606c-0.742,-2.666912 -1.264626,-6.022259 -4.103583,-7.405332c-3.729357,-1.209413 -8.303949,-0.924116 -11.30421,1.748998c-4.148748,3.342943 -6.013427,8.428681 -7.290958,13.322154c-0.742,3.125869 -1.025896,6.37578 -0.671026,9.569871c0.380678,2.80956 2.213096,5.829993 5.323044,6.381982c4.652018,0.862095 9.897636,-1.035754 12.34301,-5.042324c1.064609,-1.159796 1.451739,-3.293326 3.226087,-3.584825c4.335861,-0.272893 8.684627,0 13.026941,-0.136447c-2.000174,7.213066 -7.581305,13.229122 -14.349637,16.73332c-5.987618,3.435975 -13.259219,3.733676 -20.021098,3.063847c-6.813497,-0.793871 -12.943063,-5.99745 -14.104454,-12.5779c-1.129131,-6.530833 0.154852,-13.198112 2.096957,-19.468455c2.761531,-8.434883 8.916906,-16.193736 17.511202,-19.728944z" fill="#e5e5e5"/>
   <path stroke="null" id="svg_104" d="m82.273089,123.202629c4.381027,-1.035754 9.039497,-0.241883 13.530211,-0.353521c-1.071061,9.253563 -4.116488,18.190819 -5.452088,27.413371c-1.787252,7.448746 -3.103496,14.990524 -4.935914,22.426867c-0.232278,0.750457 -0.367774,1.984678 -1.509809,1.860636c-4.174557,0.241883 -8.368471,0.074425 -12.54948,-0.037213c0.554887,-5.519887 1.877583,-10.934338 3.23254,-16.317778c1.09687,-5.079536 1.98727,-10.196286 3.142209,-15.263418c1.684018,-6.537035 2.438922,-13.291144 4.542331,-19.728944z" fill="#e5e5e5"/>
   <path stroke="null" id="svg_105" d="m420.399308,140.965501c-0.929113,-0.669829 -0.806522,-2.890188 0.529078,-2.921199c-0.083878,0.986137 -0.277444,1.95987 -0.529078,2.921199z" fill="#e5e5e5"/>
   <path stroke="null" id="svg_106" d="m419.625047,144.494508c-0.883948,-0.73185 -0.574244,-2.784752 0.671026,-2.921199c-0.083878,0.998541 -0.283896,1.984678 -0.671026,2.921199z" fill="#e5e5e5"/>
   <path stroke="null" id="svg_107" d="m426.386927,145.691517c-0.116139,-0.762861 0.032261,-1.525722 0.432296,-2.189348c0.967826,0.384531 0.683931,2.28238 -0.432296,2.189348z" fill="#e5e5e5"/>
   <path stroke="null" id="svg_108" d="m314.861086,145.26357c2.858313,-1.321052 6.161827,-1.618753 9.213706,-0.750457c-3.08414,0.068223 -6.168279,0.303904 -9.213706,0.750457z" fill="#e5e5e5"/>
   <path stroke="null" id="svg_109" d="m386.499582,145.294581c2.3744,-0.738052 4.903653,-0.471361 7.316766,-0.049617c-2.438922,0.130245 -4.884296,0.148851 -7.316766,0.049617z" fill="#e5e5e5"/>
   <path stroke="null" id="svg_110" d="m404.410819,145.189145c2.464731,-0.415542 5.000435,-0.514776 7.465166,0c-2.490539,0.105436 -4.981079,0.111638 -7.465166,0z" fill="#e5e5e5"/>
   <path stroke="null" id="svg_111" d="m436.742667,145.257368c2.858313,-0.657425 5.839218,-0.403138 8.729792,-0.031011c-2.909931,0.167457 -5.826314,0.11784 -8.729792,0.031011z" fill="#e5e5e5"/>
   <path stroke="null" id="svg_112" d="m571.315677,147.341281c6.426366,-2.400221 14.47868,2.970816 13.814106,9.700116c0.23873,5.693546 -5.703723,10.537402 -11.51068,9.576074c-4.342314,-0.434148 -8.258784,-3.603432 -8.910453,-7.83948c-1.058157,-4.639186 1.942105,-9.848967 6.607027,-11.43671z" fill="#e5e5e5"/>
   <path stroke="null" id="svg_113" d="m410.85009,149.97098c-0.051617,-0.756659 0.141948,-1.494711 0.541983,-2.139731c0.980731,0.40934 0.5936,2.331997 -0.541983,2.139731z" fill="#e5e5e5"/>
   <path stroke="null" id="svg_114" d="m403.507515,151.285829c-0.922661,-0.61401 -0.65167,-2.759943 0.606504,-2.704124c0.019357,0.930318 -0.219374,1.848232 -0.606504,2.704124z" fill="#e5e5e5"/>
   <path stroke="null" id="svg_115" d="m424.580318,155.55909c0.09033,-2.083912 0.400035,-4.161623 1.129131,-6.133897c-0.212922,1.792413 -0.200017,3.591028 -0.20647,5.395845c-0.232278,0.186064 -0.696835,0.551989 -0.922661,0.738052z" fill="#e5e5e5"/>
   <path stroke="null" id="svg_116" d="m427.948353,153.196082c-0.683931,-1.134988 1.219461,-2.939805 2.393757,-2.25137c-0.638765,0.893105 -1.406574,1.717987 -2.393757,2.25137z" fill="#e5e5e5"/>
   <path stroke="null" id="svg_117" d="m362.768483,151.267223c0.903304,2.710327 0.748452,5.662536 -0.103235,8.372862c0.09033,-2.790954 0.109687,-5.58811 0.103235,-8.372862z" fill="#e5e5e5"/>
   <path stroke="null" id="svg_118" d="m304.853762,156.340557c-0.993635,-0.762861 -0.180661,-3.107262 1.148487,-2.772348c-0.219374,0.979935 -0.606504,1.916455 -1.148487,2.772348z" fill="#e5e5e5"/>
   <path stroke="null" id="svg_119" d="m355.071039,153.165072c0.845235,1.87304 1.122678,4.049984 -0.038713,5.867206c0.109687,-1.953668 0.109687,-3.913538 0.038713,-5.867206z" fill="#e5e5e5"/>
   <path stroke="null" id="svg_120" d="m383.460608,158.498895c0.019357,-1.829625 0.361322,-3.640645 1.174296,-5.296611c-0.225826,1.792413 -0.619409,3.566219 -1.174296,5.296611z" fill="#e5e5e5"/>
   <path stroke="null" id="svg_121" d="m312.151172,156.142089c0.1484,-0.855893 0.4452,-1.730392 1.213009,-2.25137c0.825878,0.707042 -0.103235,2.598688 -1.213009,2.25137z" fill="#e5e5e5"/>
   <path stroke="null" id="svg_122" d="m416.379604,159.962595c-0.903304,-0.61401 -0.683931,-2.766146 0.574244,-2.722731c0.038713,0.93652 -0.180661,1.860636 -0.574244,2.722731z" fill="#e5e5e5"/>
   <path stroke="null" id="svg_123" d="m312.112459,166.530641c-2.064696,-2.36921 -1.290435,-5.687344 -0.496817,-8.385266c0.006452,2.375412 -0.632313,4.949292 0.425844,7.194459c1.122678,1.897849 3.639027,1.55053 5.561775,1.748998c-1.793705,0.384531 -4.084227,0.942722 -5.490801,-0.558191z" fill="#e5e5e5"/>
   <path stroke="null" id="svg_124" d="m389.970852,166.61747c-0.690383,-2.871582 -0.161304,-5.79278 0.851687,-8.521713c-0.225826,2.846773 -0.535531,5.681142 -0.851687,8.521713z" fill="#e5e5e5"/>
   <path stroke="null" id="svg_125" d="m333.501418,166.536843c-0.825878,-2.542869 -0.845235,-5.315217 0.051617,-7.83948c-0.045165,2.611093 -0.05807,5.222185 -0.051617,7.83948z" fill="#e5e5e5"/>
   <path stroke="null" id="svg_126" d="m303.763345,167.150853c-0.825878,-2.331997 -0.806522,-4.881069 0,-7.206864c0.012904,2.400221 0,4.800441 0,7.206864z" fill="#e5e5e5"/>
   <path stroke="null" id="svg_127" d="m321.881052,163.169091c2.180835,-0.64502 4.516522,-0.378329 6.742523,-0.111638c-3.219635,-0.427946 -6.426366,0.328712 -8.800766,2.524263c0.638765,-0.837286 1.193652,-1.767604 2.058244,-2.412625z" fill="#e5e5e5"/>
   <path stroke="null" id="svg_128" d="m382.647634,169.582084c-0.877496,-2.083912 -1.045252,-4.484133 -0.122591,-6.58045c0.064522,2.189348 0.096783,4.384899 0.122591,6.58045z" fill="#e5e5e5"/>
   <path stroke="null" id="svg_129" d="m413.179325,172.602516c0.690383,-3.175486 1.174296,-6.412992 2.316331,-9.47684c-0.490365,3.10106 -0.929113,6.208322 -1.277531,9.334191c1.98727,0.105436 3.980992,0.198468 5.981166,0.272893c-2.335687,0.279095 -4.703635,0.241883 -7.019966,-0.130245z" fill="#e5e5e5"/>
   <path stroke="null" id="svg_130" d="m288.800752,165.426663c2.858313,-0.303904 5.742436,-0.217074 8.581392,0.192266c-0.374226,0.880701 -0.748452,1.761402 -1.122678,2.648305c-0.025809,-0.868297 -0.05807,-1.724189 -0.096783,-2.580082c-2.296974,-0.012404 -4.587496,-0.055819 -6.865114,-0.229478l-0.496817,-0.031011z" fill="#e5e5e5"/>
   <path stroke="null" id="svg_131" d="m548.307221,167.429948c1.948557,-1.165999 4.200366,-2.313391 6.574766,-1.711785c4.245531,0.669829 8.729792,4.149218 7.961984,8.68917c-0.096783,2.257572 -2.342139,3.373953 -4.097131,4.391101c-9.742784,5.2656 -19.627516,10.32653 -29.957448,14.45094c-13.414071,5.985046 -27.273343,11.008763 -41.26811,15.567322c-4.697183,1.091573 -9.149184,2.958411 -13.833463,4.068591c-4.12294,0.973733 -8.091027,2.499454 -12.284941,3.194092c-3.980992,0.694637 -7.774871,2.096317 -11.742958,2.815763c-6.568314,1.221818 -13.065654,2.766146 -19.685585,3.708868c-6.452175,1.420286 -13.065654,1.84203 -19.556542,3.039039c-9.200801,1.048158 -18.420959,2.07771 -27.67983,2.493252c-7.516784,0.93652 -15.117446,0.589201 -22.672942,0.651223c-8.974975,-0.068223 -17.956402,0.161255 -26.924925,-0.130245c-10.846106,-0.917914 -21.77609,-1.240424 -32.525413,-3.001826c-9.833114,-1.091573 -19.621064,-2.48705 -29.325134,-4.32908c-11.207428,-2.394018 -22.485829,-4.546154 -33.512596,-7.63481c-21.18249,-5.749365 -41.971397,-12.844591 -62.089278,-21.440729c-0.871044,-0.427946 -1.658209,-0.986137 -2.445374,-1.525722c0.561339,-0.638818 1.135583,-1.265233 1.709826,-1.891647c18.595168,7.355715 37.64844,13.650867 57.063034,18.69319c35.848283,9.055095 72.890219,14.060206 109.983771,13.700483c10.549306,0.068223 21.098612,-0.173659 31.615656,-1.029552c6.94254,-0.173659 13.781845,-1.4637 20.705029,-1.910253c54.172459,-6.741705 107.119006,-23.760322 153.987603,-50.857386z" fill="#e5e5e5"/>
   <path stroke="null" id="svg_132" d="m344.224933,166.983395c1.522713,-0.093032 3.051879,-0.093032 4.587496,0.006202l0.625861,0.130245c-1.916296,0.471361 -3.929374,0.471361 -5.839218,0l0.625861,-0.136447z" fill="#e5e5e5"/>
   <path stroke="null" id="svg_133" d="m372.588693,172.41025c0.451652,-1.897849 0.961374,-3.783293 1.580783,-5.637727c-0.05807,2.065306 -0.412939,4.112006 -0.871044,6.127695c-2.767983,0.068223 -5.54887,0.068223 -8.303949,-0.217074c2.529253,-0.024808 5.064957,-0.08683 7.59421,-0.272893z" fill="#e5e5e5"/>
   <path stroke="null" id="svg_134" d="m294.685135,172.540495c0.483913,-1.072967 0.993635,-2.133529 1.438835,-3.2189c-0.219374,1.209413 -0.451652,2.418827 -0.696835,3.634442c-2.767983,-0.043415 -5.535966,-0.031011 -8.297497,-0.062021c0.20647,-0.800074 0.419391,-1.593945 0.65167,-2.381614c0.025809,0.502372 0.083878,1.513317 0.116139,2.021891c2.258261,0.11784 4.522975,0.111638 6.787688,0.006202z" fill="#e5e5e5"/>
   <path stroke="null" id="svg_135" d="m398.100592,170.394561c0.548435,-0.465159 1.109774,-0.924116 1.671113,-1.376871c-0.019357,1.159796 -0.038713,2.325795 -0.051617,3.497996c2.064696,0.037213 4.135844,0.080628 6.206992,0.124042c-2.232452,0.378329 -4.503618,0.359723 -6.755427,0.279095c-0.361322,-0.84969 -0.709739,-1.693179 -1.071061,-2.524263z" fill="#e5e5e5"/>
   <path stroke="null" id="svg_136" d="m310.789763,173.334366c3.109948,-0.136447 6.219896,-0.347319 9.304036,-0.769063c-2.909931,1.209413 -6.232801,1.662168 -9.304036,0.769063z" fill="#e5e5e5"/>
   <path stroke="null" id="svg_137" d="m430.922806,172.683144c2.871218,-0.124042 5.748888,-0.124042 8.626558,-0.068223c-2.851861,0.477563 -5.774696,0.551989 -8.626558,0.068223z" fill="#e5e5e5"/>
   <path stroke="null" id="svg_138" d="m341.747298,173.241335c2.303426,0.012404 4.613305,0.012404 6.923184,-0.031011c-2.238905,0.762861 -4.690731,0.880701 -6.923184,0.031011z" fill="#e5e5e5"/>
   <path stroke="null" id="svg_139" d="m386.989947,173.241335c1.845322,0.031011 3.690644,0.031011 5.54887,0.006202c-1.767896,0.812478 -3.787427,0.762861 -5.54887,-0.006202z" fill="#e5e5e5"/>
   <path stroke="null" id="svg_140" d="m262.101652,11.539657l0.451652,0.006202c2.045339,0.142649 4.097131,0.279095 6.155375,0.241883l-0.045165,0.589201c-0.348417,3.932144 -0.116139,7.882895 -0.20647,11.827443c-2.458279,0.068223 -4.935914,0.111638 -7.349027,0.620212c-1.019444,0.576797 -1.864679,1.414083 -2.503444,2.356806c-0.509722,2.059104 -0.574244,4.186431 -0.438748,6.295152l0.612957,0.055819c3.213183,0.173659 6.432818,0.018606 9.652453,0.08683l0,0.620212c0,3.361549 -0.096783,6.735503 0.161304,10.103254c-3.251896,-0.210872 -6.516697,-0.310106 -9.768593,-0.148851l-0.580696,0.055819c-0.329061,15.889832 -0.019357,31.792068 -0.103235,47.688102c-5.181096,0.08683 -10.355741,0.08683 -15.530385,-0.006202c-0.09033,-15.889832 0.251635,-31.79827 -0.103235,-47.6819l-0.580696,-0.049617c-2.72927,-0.142649 -5.45854,-0.012404 -8.18781,-0.062021c0.019357,-3.566219 0.09033,-7.13864 -0.225826,-10.698657c2.793792,0.111638 5.600488,0.241883 8.400732,0.093032l0.580696,-0.049617c0.219374,-3.113464 0.045165,-6.239333 0.025809,-9.358999c0.748452,-5.321419 4.710088,-10.376147 10.32348,-11.560752c3.090592,-0.272893 6.174731,-0.657425 9.258871,-1.02335z" fill="#e5e5e5"/>
   <path stroke="null" id="svg_141" d="m186.514425,12.445167c5.323044,-0.502372 10.684801,-0.031011 16.027202,-0.297702c0.400035,10.245903 0.05807,20.510411 0.167757,30.762516c0.032261,16.373597 -0.05807,32.753397 0.045165,49.126994c-5.135931,-0.155053 -10.278314,0.130245 -15.414246,-0.167457c-0.103235,-2.207955 -0.251635,-4.41591 -0.4452,-6.617662c-0.167757,0.210872 -0.509722,0.632616 -0.677478,0.843488c-4.768157,5.904418 -12.955967,9.036489 -20.608246,7.361917c-1.458192,-0.365925 -2.916383,-0.707042 -4.381027,-1.010946c-4.916557,-1.05436 -8.736245,-4.657792 -11.684889,-8.391469c-2.987357,-4.056187 -4.80687,-8.86283 -5.60694,-13.756303c-0.096783,-5.687344 0.032261,-11.380891 -0.103235,-17.074437l0.258087,-0.471361c0.438748,-0.489967 0.612957,-1.05436 0.516174,-1.686977c0.664574,-4.9741 3.606766,-9.464435 7.032871,-13.142293c6.452175,-6.723098 17.427324,-8.782202 26.111951,-5.184972c3.497079,1.352062 5.800505,4.335282 8.587845,6.623864c0.412939,-8.968266 0.161304,-17.948936 0.174209,-26.917202m-16.265933,32.145589c-5.271427,1.445094 -8.568488,6.282748 -9.620193,11.23204c-1.503357,4.186431 -2.090505,9.166734 0,13.260133c0.916209,4.986505 4.245531,10.010222 9.626645,11.287859c2.200192,0.607808 4.561688,0.756659 6.729618,-0.08683c4.342314,-1.165999 7.290958,-4.912079 8.845932,-8.794606c1.767896,-2.57388 1.754992,-5.755568 1.955009,-8.713979c0.012904,-1.922657 0.374226,-4.012772 -0.774261,-5.712153c-0.638765,-2.716529 -1.529165,-5.439259 -3.103496,-7.789863c-0.400035,-1.686977 -1.638852,-2.834369 -3.355131,-3.268517c-1.103322,-0.657425 -2.322783,-1.122584 -3.574505,-1.426488c-2.213096,-0.52718 -4.529427,-0.64502 -6.729618,0.012404z" fill="#e5e5e5"/>
   <path stroke="null" id="svg_142" d="m12.70574,12.401752c0.529078,0 1.580783,0.006202 2.103409,0.006202c4.277792,0.043415 8.549132,0.08683 12.820471,0.260489c0.225826,9.191542 -0.277444,18.401691 0.212922,27.587031c0.490365,-0.334914 0.974278,-0.676031 1.451739,-1.029552c3.722905,-5.197377 10.271862,-8.881436 16.975672,-7.975927c1.845322,0.192266 3.697096,0.341117 5.54887,0.508574c6.090853,0.998541 11.291306,5.098143 14.498037,10.059839c1.464644,2.325795 2.980905,4.76943 3.277705,7.529374c-0.006452,0.750457 0.219374,1.476105 0.625861,2.121125c0.574244,1.128786 0.838783,2.387816 0.877496,3.646847c-0.025809,4.663994 -0.167757,9.334191 -0.1484,13.998185c-0.825878,7.578991 -4.452001,15.052546 -10.56221,20.014242c-1.935652,1.581541 -4.187461,2.883986 -6.678001,3.448379c-5.194001,0.93652 -10.523497,0.868297 -15.711046,-0.043415c-4.181009,-0.967531 -6.936088,-4.32908 -10.007323,-6.940172c-0.161304,2.16454 -0.161304,4.341484 -0.012904,6.506024c-5.187549,-0.2915 -10.388001,0.055819 -15.57555,-0.223276c0.019357,-0.427946 0.05807,-1.271435 0.077426,-1.699381c0.277444,-25.924862 -0.154852,-51.855927 0.225826,-77.774587m25.215099,32.182802c-4.303601,0.917914 -7.400644,4.639186 -8.703984,8.509309c-1.167844,-0.285298 -1.722731,1.693179 -0.645217,2.108721c-0.458104,1.165999 -0.729096,2.394018 -0.864591,3.62824c-0.967826,2.480848 -1.135583,5.38344 -0.006452,7.845682c0.606504,5.668738 3.516435,11.858454 9.626645,13.657069c2.400209,0.973733 5.10367,0.81868 7.510331,-0.074425l0.471009,-0.254287c0.722644,1.010946 2.93574,-0.012404 2.303426,-1.178403c3.813235,-1.84203 5.581131,-5.991248 6.574766,-9.755935c0.690383,-1.203211 1.077513,-2.536667 1.103322,-3.907336c0.135496,-3.764687 0.2968,-7.783661 -1.658209,-11.188625c-1.316244,-4.198835 -4.477809,-8.025544 -8.92981,-9.383808c-2.226,-0.576797 -4.56814,-0.64502 -6.781236,-0.006202z" fill="#e5e5e5"/>
   <path stroke="null" id="svg_143" d="m408.95315,17.357246c4.948818,-0.062021 9.91054,-0.260489 14.846454,0.20467c0.406487,5.122951 0.032261,10.264509 0.200017,15.393662c3.200279,-0.055819 6.40701,-0.093032 9.61374,-0.074425c0.174209,3.318134 0.180661,6.642471 0.012904,9.960605c-3.213183,0.049617 -6.426366,0.105436 -9.633097,0.186064c-0.096783,8.434883 0.05807,16.869767 -0.019357,25.310852c-0.045165,3.169283 -0.412939,6.394386 0.406487,9.514052c0.516174,0.694637 1.167844,1.308647 1.9292,1.773806c2.013079,0.396936 4.077774,0.440351 6.136018,0.446553c0.2968,0 0.877496,0.006202 1.167844,0.006202c0.109687,3.944548 0.174209,7.889097 0.006452,11.839847c-4.968175,0.148851 -9.942801,0.198468 -14.904524,0c-5.01334,-0.403138 -10.104106,-3.913538 -10.26541,-9.073702c0.045165,-0.862095 0.103235,-1.724189 0.180661,-2.580082c0.2968,-12.49107 -0.129043,-25.013151 0.245183,-37.510423c-0.329061,0.037213 -0.987183,0.11784 -1.316244,0.155053c-2.464731,-0.055819 -4.923009,-0.031011 -7.374836,-0.012404c-0.103235,-3.318134 -0.129043,-6.630066 -0.05807,-9.948201c2.761531,-0.099234 5.529514,-0.142649 8.303949,-0.130245c0.477461,-5.14776 -0.077426,-10.32653 0.522626,-15.461886z" fill="#e5e5e5"/>
   <path stroke="null" id="svg_144" d="m100.719857,31.653133c3.161566,-0.874499 6.561862,-0.744254 9.775045,-0.223276c0.942018,0.248085 1.909844,0.403138 2.890574,0.365925c4.452001,0.062021 8.620106,2.090115 12.065567,4.670196c6.232801,4.781835 9.43308,12.398038 10.136367,19.883997c0.129043,3.132071 0.019357,6.264141 -0.167757,9.396212c-13.968958,0.477563 -27.963726,-0.018606 -41.945588,0.235681c0.283896,2.090115 0.690383,4.167825 1.490452,6.140099c0.922661,2.214157 1.742087,4.626782 3.651931,6.264141c1.813061,1.525722 4.084227,2.437433 6.368297,3.107262c2.496992,0.657425 5.31014,0.90551 7.568401,-0.576797c1.232365,-0.70084 2.419566,-1.482307 3.671287,-2.158338c0.922661,-0.421744 1.742087,-1.14119 1.916296,-2.152136c0.219374,-0.70084 0.438748,-1.395477 0.658122,-2.096317c5.406922,-0.031011 10.820297,-0.148851 16.22722,0.08683l0.541983,0.018606c-2.361496,8.515511 -9.342749,16.274363 -18.614524,17.893117c-2.271166,0.254287 -4.529427,0.589201 -6.768331,1.035754c-2.213096,0.396936 -4.51007,0.40934 -6.723166,-0.006202c-2.238905,-0.465159 -4.497166,-0.812478 -6.768331,-1.116382c-8.058766,-2.021891 -14.917428,-8.65816 -16.61435,-16.541055c-0.38713,-2.425029 -1.045252,-4.800441 -1.806609,-7.13864c-0.070974,-0.372127 -0.20647,-1.128786 -0.270991,-1.500913c0.019357,-5.067132 0.341965,-10.12186 0.825878,-15.164184c0.903304,-4.676399 2.87767,-9.582276 6.690905,-12.751559c0.858139,-0.514776 1.625948,-1.147392 2.213096,-1.935061c1.729183,-2.195551 4.381027,-3.560017 7.103844,-4.273261c1.974365,-0.415542 3.948731,-0.874499 5.884383,-1.4637m2.419566,12.90041c-4.21327,1.34586 -7.271601,5.067132 -8.168453,9.172936c-1.458192,-0.031011 -1.238818,3.01423 0.187113,2.66071l0.632313,-0.037213c5.929549,0.279095 11.872002,0.031011 17.80155,0.161255c1.813061,0.055819 3.639027,-0.043415 5.426279,-0.353521c-0.645217,-3.355347 -1.354957,-7.213066 -4.439096,-9.340393c0.709739,-1.147392 -1.451739,-2.325795 -2.213096,-1.277637c-0.5936,-0.365925 -1.206557,-0.676031 -1.851774,-0.924116c-2.380852,-0.806276 -4.974627,-0.725648 -7.374836,-0.062021z" fill="#e5e5e5"/>
   <path stroke="null" id="svg_145" d="m299.65331,31.299612c1.554974,-0.173659 3.129305,-0.173659 4.690731,-0.024808c1.864679,0.179861 3.735809,0.303904 5.60694,0.421744c3.019618,0.390734 6.277966,0.868297 8.710436,2.77855c0.490365,0.52718 1.116226,0.924116 1.832418,1.14119c3.684192,1.792413 6.226349,5.637727 6.671549,9.545063c-0.38713,8.546522 -0.109687,17.105447 -0.200017,25.658171c0.083878,4.831452 -0.335513,9.724924 0.696835,14.494355c0.748452,2.363008 2.677653,4.130612 3.897114,6.264141c-5.806957,0.738052 -11.652628,0.297702 -17.478941,0.489967l-0.677478,0.018606c-0.141948,-0.837286 -0.277444,-1.66837 -0.38713,-2.499454c-0.212922,-1.544328 -0.438748,-3.082454 -0.690383,-4.608175c-0.94847,0.806276 -1.884035,1.624955 -2.767983,2.48705c-4.774609,5.085739 -12.323654,6.828534 -19.221029,6.313758c-4.426192,0.049617 -8.684627,-1.792413 -11.826836,-4.73842c-4.348766,-3.727474 -5.942453,-9.904786 -4.600401,-15.257216c0.309704,-0.893105 0.496817,-1.817221 0.496817,-2.753741c0.871044,-6.791322 7.755514,-11.858454 14.562558,-12.670932c3.600314,-0.155053 7.174818,-0.657425 10.671897,-1.525722c0.400035,-0.062021 1.206557,-0.192266 1.606592,-0.254287c2.045339,-0.223276 4.12294,-0.446553 6.05214,-1.197009c1.722731,-0.620212 3.097044,-1.866838 4.045514,-3.355347c0.748452,-0.948924 0.832331,-2.412625 0.038713,-3.355347c-0.980731,-1.265233 -2.058244,-2.48705 -3.400296,-3.404964c-2.645392,-1.339658 -5.716627,-1.414083 -8.613653,-1.004743c-1.890487,0.266691 -3.671287,0.961329 -5.452088,1.587743c-0.8904,0.192266 -1.593687,0.886903 -1.677565,1.767604c-0.309704,1.172201 -0.600052,2.350604 -0.883948,3.535209l-0.567791,-0.037213c-4.774609,-0.241883 -9.568575,0.124042 -14.343185,-0.272893c-0.135496,-0.396936 -0.406487,-1.178403 -0.541983,-1.575339c0.341965,-4.589569 2.187287,-9.706318 6.374749,-12.298804c0.683931,-0.272893 1.251722,-0.744254 1.671113,-1.333456c1.342052,-1.43269 3.309966,-2.313391 5.297235,-2.505657c0.664574,0.055819 1.232365,-0.142649 1.716278,-0.589201c0.903304,-0.582999 2.032435,-0.651223 3.090592,-0.769063c1.864679,-0.124042 3.735809,-0.266691 5.600488,-0.471361m10.362193,33.547268c-2.755079,0.384531 -5.381114,1.339658 -8.091027,1.904051c-0.819426,-0.917914 -3.368035,-0.744254 -3.445461,0.601606c-3.168018,0.403138 -6.568314,1.860636 -7.994245,4.781835c-1.703374,3.572421 0.135496,8.099969 3.671287,9.948201c2.148574,0.862095 4.593948,0.775265 6.755427,-0.024808c3.393844,-0.676031 6.394105,-2.623497 8.72334,-5.042324c1.993722,-1.277637 1.845322,-3.702666 1.922748,-5.736961c0.309704,-2.245168 0.077426,-4.521346 -0.09033,-6.766513c0.20647,-1.203211 -2.090505,-0.682233 -1.451739,0.334914z" fill="#e5e5e5"/>
   <path stroke="null" id="svg_146" d="m366.749475,31.281006c1.658209,-0.124042 3.38094,-0.390734 5.01334,0.074425c0.516174,0.403138 1.116226,0.551989 1.787252,0.434148c2.955096,0.068223 6.090853,0.831084 8.420088,2.642103c0.451652,0.558191 1.058157,0.992339 1.787252,1.172201c4.187461,1.748998 7.065131,5.600515 8.891097,9.495446c1.0388,2.716529 2.406661,5.662536 1.554974,8.602341c-5.058505,-0.601606 -10.162175,0.055819 -15.233585,-0.341117c-0.348417,-0.595404 -0.690383,-1.190807 -1.025896,-1.786211c-0.838783,-1.476105 -1.6324,-2.970816 -2.471183,-4.440718c-0.406487,-0.924116 -1.258174,-1.593945 -2.264713,-1.804817c-0.871044,-0.272893 -1.735635,-0.551989 -2.613131,-0.744254c-2.051792,-0.378329 -4.161653,-0.384531 -6.213444,-0.037213c-5.839218,1.358264 -8.078123,7.293693 -9.058853,12.354623c-0.961374,4.025176 -1.051704,8.261224 0.032261,12.273996c0.903304,3.262315 2.0776,6.692088 4.787514,9.005479c1.793705,1.643562 4.290696,2.195551 6.632836,2.710327c1.148487,0.316308 2.413113,0.167457 3.451914,-0.415542c3.897114,-1.500913 6.878018,-4.76943 7.581305,-8.788404c5.264975,-2.145934 11.084836,-0.570595 16.607898,-1.029552l0.522626,-0.006202c-1.058157,4.143016 -1.935652,8.45349 -4.41974,12.075528c-4.819775,7.703033 -14.633532,11.908071 -23.821429,10.878519c-2.884122,-0.489967 -5.794053,-0.843488 -8.710436,-1.048158c-5.865027,-0.837286 -10.897723,-4.583367 -14.207689,-9.18534c-1.645305,-2.344401 -3.206731,-4.893473 -3.574505,-7.740246c0.051617,-0.638818 -0.135496,-1.203211 -0.561339,-1.680775c-0.561339,-1.538126 -0.845235,-3.156879 -0.935565,-4.775633c0.1484,-4.279463 -0.025809,-8.552724 -0.05807,-12.825985c0.896852,-6.989789 3.890661,-13.991983 9.458888,-18.742807c3.580957,-3.156879 8.123288,-5.495078 13.026941,-5.892014c1.871131,-0.111638 3.748714,-0.229478 5.613392,-0.434148z" fill="#e5e5e5"/>
   <path stroke="null" id="svg_147" d="m469.984272,31.268601c1.567878,-0.161255 3.168018,-0.254287 4.735896,0.062021c2.238905,0.477563 4.51007,0.831084 6.800592,1.060563c6.897375,1.072967 12.710784,5.724557 16.536924,11.170018c1.916296,3.076252 3.671287,6.462609 3.82614,10.109456c-0.038713,0.930318 0.167757,1.84203 0.509722,2.710327l0.141948,0.502372c0.064522,3.485592 0.083878,6.977385 0.200017,10.469179c-0.09033,0.427946 -0.264539,1.277637 -0.348417,1.705583c-0.335513,0.688435 -0.522626,1.43269 -0.464557,2.195551c-0.522626,5.668738 -3.890661,10.791689 -7.923271,14.816865c-3.2648,3.026635 -7.310314,5.544695 -11.833289,6.326163c-2.296974,0.235681 -4.581044,0.576797 -6.819949,1.116382c-2.200192,0.483765 -4.497166,0.415542 -6.697357,0.031011c-2.445374,-0.489967 -4.910105,-0.824882 -7.381288,-1.11018c-5.710175,-1.172201 -10.633184,-4.757026 -14.23995,-9.0675c-1.135583,-1.451296 -2.393757,-2.921199 -2.903479,-4.701207c0.012904,-0.638818 -0.219374,-1.178403 -0.696835,-1.612551c-0.735548,-0.893105 -1.051704,-2.009487 -1.283983,-3.094858c-0.361322,-1.966072 -0.774261,-3.91974 -1.251722,-5.854801c-0.316157,-1.271435 -0.374226,-2.586284 -0.187113,-3.876325c0.554887,-3.417368 0.625861,-6.878151 0.625861,-10.332732c0.987183,-4.347686 2.632487,-8.813213 5.742436,-12.187166c1.561426,-1.488509 3.109948,-2.995624 4.652018,-4.502739c3.509983,-2.964613 8.007149,-4.967898 12.665619,-5.464068c1.864679,-0.130245 3.729357,-0.272893 5.594036,-0.471361m-2.296974,13.359367c-2.406661,0.738052 -4.748801,1.916455 -6.374749,3.814304c-2.348592,2.747539 -3.445461,6.295152 -3.890661,9.774541c-1.258174,2.666912 -1.200105,5.935429 0.122591,8.565128l0.135496,0.49617c-1.064609,0.533382 -0.729096,2.784752 0.580696,2.654507c0.658122,4.806643 4.477809,9.129521 9.407271,10.332732c2.335687,1.029552 4.968175,0.682233 7.38774,0.11784c5.019792,-0.855893 8.787862,-4.905877 10.207341,-9.458233c1.548522,-2.003285 1.438835,-4.583367 1.522713,-6.952577c0.025809,-2.375412 0.187113,-4.850058 -0.8904,-7.058013l-0.225826,-0.49617c1.025896,-0.403138 0.535531,-2.325795 -0.5936,-2.102519c-0.677478,-4.707409 -4.742348,-8.465894 -9.387914,-9.743531c-2.613131,-0.663627 -5.419827,-0.769063 -8.000697,0.055819z" fill="#e5e5e5"/>
   <path stroke="null" id="svg_148" d="m545.436004,31.218984c0.38713,-0.006202 1.161391,-0.012404 1.54207,-0.012404c0.696835,0.192266 1.387218,0.390734 2.090505,0.607808c0.09033,4.707409 0.109687,9.414818 -0.012904,14.122228c-2.638939,0.105436 -5.290783,0.186064 -7.871653,0.744254c-3.238992,0.917914 -6.768331,2.232763 -8.587845,5.14776c-1.354957,2.096317 -1.955009,4.546154 -2.367948,6.958779c-0.774261,4.595771 -0.4452,9.259765 -0.483913,13.892749c-0.032261,6.37578 0.051617,12.745357 -0.038713,19.121137l-0.006452,0.545787c-5.181096,-0.186064 -10.368645,-0.043415 -15.543289,-0.08683l0.064522,-0.589201c0.471009,-3.42357 0.225826,-6.871949 0.270991,-10.307924c-0.019357,-16.11931 0.032261,-32.238621 -0.038713,-48.357931c4.877844,-0.378329 9.768593,-0.297702 14.646437,-0.037213c0.025809,3.268517 -0.38713,6.654875 0.851687,9.793148c0.38713,-0.775265 0.787165,-1.544328 1.193652,-2.313391c0.193565,-0.303904 0.574244,-0.911712 0.767809,-1.215616c0.535531,-0.477563 0.974278,-1.048158 1.232365,-1.717987c1.3356,-2.530465 3.980992,-4.316676 6.748975,-5.197377c1.83887,-0.396936 3.684192,-0.769063 5.542418,-1.097775z" fill="#e5e5e5"/>
   <path stroke="null" id="svg_149" d="m552.223691,32.868748l0.625861,-0.006202c5.794053,0 11.60101,-0.272893 17.382159,0.155053l0.516174,0.031011c1.193652,5.501281 3.17447,10.810295 4.722992,16.224746c1.277531,4.335282 3.058331,8.57133 3.793879,13.030655c-0.070974,0.632616 0.116139,1.190807 0.561339,1.674572c1.587235,3.2189 2.187287,6.778917 3.368035,10.146669c0.4452,1.817221 1.754992,-0.105436 1.496905,-1.097775c0.490365,-3.442177 1.787252,-6.69829 2.722818,-10.041233c0.812974,-2.60489 1.296887,-5.333823 2.542157,-7.796065c0.400035,-0.638818 0.625861,-1.364466 0.625861,-2.114923c1.367861,-6.834736 4.077774,-13.390377 5.600488,-20.206508c5.626296,-0.062021 11.252593,-0.136447 16.878889,-0.024808l0.567791,0.006202c-5.529514,14.140834 -10.394454,28.511146 -15.769115,42.7078c-1.671113,3.91974 -2.58087,8.143384 -4.632661,11.901869c-0.522626,0.713244 -0.929113,1.513317 -0.987183,2.394018c-1.477548,6.456407 -4.135844,12.670932 -7.290958,18.525733c-2.155026,4.223644 -6.974801,6.561843 -11.762315,6.487418c-3.684192,-0.217074 -7.374836,-0.248085 -11.06548,-0.179861c-0.154852,-3.839112 -0.154852,-7.684427 -0.051617,-11.529741c2.200192,-0.111638 4.406835,-0.20467 6.594123,-0.508574l0.50327,-0.080628c1.522713,-0.167457 2.974453,-0.800074 3.780974,-2.121125c0.858139,-1.618753 1.458192,-3.355347 2.251809,-5.005111c0.632313,-1.02335 0.638765,-2.307189 -0.09033,-3.280922c-1.161391,-2.090115 -2.232452,-4.285665 -2.542157,-6.654875c0.032261,-0.638818 -0.167757,-1.190807 -0.612957,-1.655966c-2.316331,-4.341484 -3.613218,-9.110915 -5.439183,-13.650867c-4.748801,-12.447655 -9.484697,-24.901513 -14.291567,-37.330561z" fill="#e5e5e5"/>
   <path stroke="null" id="svg_150" d="m421.347778,135.408401c2.438922,-0.093032 4.877844,-0.124042 7.323218,-0.08683c-0.232278,2.784752 -0.658122,5.600515 -1.851774,8.180597c-0.400035,0.663627 -0.548435,1.426488 -0.432296,2.189348c0.083878,1.277637 -0.258087,2.530465 -0.677478,3.733676c-0.729096,1.972274 -1.0388,4.049984 -1.129131,6.133897c0.225826,-0.186064 0.690383,-0.551989 0.922661,-0.738052c0.774261,-0.589201 1.606592,-1.11018 2.445374,-1.624955c0.987183,-0.533382 1.754992,-1.358264 2.393757,-2.25137c1.793705,-2.189348 3.839044,-4.322878 6.400557,-5.687344c2.903479,0.08683 5.819862,0.136447 8.729792,-0.031011c-3.735809,3.591028 -8.220071,6.400588 -11.865549,10.066041c0.051617,1.63736 0.767809,3.169283 1.367861,4.682601c1.787252,4.192633 3.219635,8.515511 5.142383,12.652325l-0.567791,-0.012404c-2.87767,-0.055819 -5.75534,-0.055819 -8.626558,0.068223c-1.348505,-3.789495 -2.697009,-7.572789 -4.051966,-11.356082c-1.684018,0.775265 -3.129305,1.941264 -4.303601,3.336741c-0.645217,0.49617 -0.729096,1.321052 -0.671026,2.065306c-0.012904,2.0467 -0.529078,4.049984 -1.032348,6.028461l-0.664574,-0.024808c-2.000174,-0.074425 -3.993896,-0.167457 -5.981166,-0.272893c0.348417,-3.125869 0.787165,-6.233131 1.277531,-9.334191c0.180661,-1.085371 0.477461,-2.145934 0.883948,-3.163081c0.393583,-0.862095 0.612957,-1.786211 0.574244,-2.722731c0.025809,-1.370669 0.193565,-2.753741 0.729096,-4.025176c0.348417,-0.688435 0.548435,-1.43269 0.509722,-2.195551c0.083878,-2.238965 0.65167,-4.428314 1.432383,-6.52463c0.38713,-0.93652 0.587148,-1.922657 0.671026,-2.921199l0.103235,-0.607808c0.251635,-0.961329 0.4452,-1.935061 0.529078,-2.921199c0.096783,-0.886903 0.258087,-1.761402 0.419391,-2.635901z" fill="#e5e5e5"/>
   <path stroke="null" id="svg_151" d="m314.861086,145.26357c3.045426,-0.446553 6.129566,-0.682233 9.213706,-0.750457c2.380852,0.694637 4.819775,1.910253 6.11021,4.049984c0.974278,1.897849 0.935565,4.074793 1.174296,6.140099c-2.684105,-0.32251 -6.065044,0.694637 -8.091027,-1.513317c-1.090418,-1.066765 -2.032435,-2.704124 -3.858401,-2.418827c-2.516348,-0.241883 -4.36167,1.631158 -6.045688,3.119666c-0.767809,0.520978 -1.064609,1.395477 -1.213009,2.25137c-0.167757,0.663627 -0.348417,1.333456 -0.535531,2.003285c-0.793617,2.697922 -1.567878,6.016057 0.496817,8.385266c1.406574,1.500913 3.697096,0.942722 5.490801,0.558191c0.774261,-0.452755 1.490452,-0.992339 2.219548,-1.507115c2.3744,-2.195551 5.581131,-2.952209 8.800766,-2.524263l0.742,0.024808c-1.271078,4.391101 -5.039149,7.690629 -9.271775,9.483042c-3.08414,0.421744 -6.194088,0.632616 -9.304036,0.769063c-3.297061,-0.471361 -6.426366,-2.952209 -7.026418,-6.183514c0,-2.406423 0.012904,-4.806643 0,-7.206864c0.012904,-1.277637 0.432296,-2.511859 1.090418,-3.603432c0.541983,-0.855893 0.929113,-1.792413 1.148487,-2.772348c1.1872,-3.969357 4.929462,-6.921566 8.858836,-8.304639z" fill="#e5e5e5"/>
   <path stroke="null" id="svg_152" d="m333.553036,158.697363c1.213009,-6.766513 6.800592,-12.999644 14.027028,-14.085015c2.303426,-0.049617 4.619757,-0.055819 6.929636,-0.024808c3.722905,0.576797 7.161914,3.150677 8.258784,6.679683c0.006452,2.784752 -0.012904,5.581908 -0.103235,8.372862c-1.232365,6.630066 -6.929636,12.602708 -13.994767,13.570239c-2.309879,0.043415 -4.619757,0.043415 -6.923184,0.031011c-3.787427,-0.347319 -7.252244,-3.18789 -8.245879,-6.704492c-0.006452,-2.617295 0.006452,-5.228387 0.051617,-7.83948m12.562384,-7.039406c-2.838957,1.445094 -4.110035,4.539952 -4.832679,7.380523l-0.1484,-0.601606c-0.541983,2.114923 -0.509722,4.32908 0.038713,6.444003l0.051617,-0.570595c0.516174,1.290041 1.7808,2.052902 3.000261,2.673114l-0.625861,0.136447c1.909844,0.471361 3.922922,0.471361 5.839218,0l-0.625861,-0.130245c3.439009,-1.34586 5.394018,-4.62058 6.219896,-7.95732c1.161391,-1.817221 0.883948,-3.994165 0.038713,-5.867206c-2.109861,-2.561476 -6.05214,-3.045241 -8.955619,-1.507115z" fill="#e5e5e5"/>
   <path stroke="null" id="svg_153" d="m385.98986,145.275975l0.509722,0.018606c2.43247,0.099234 4.877844,0.080628 7.316766,-0.049617c-1.071061,4.267059 -1.716278,8.633351 -2.993809,12.850793c-1.012991,2.728933 -1.54207,5.650131 -0.851687,8.521713c3.1164,1.215616 7.155462,1.172201 9.355653,-1.612551c2.993809,-3.987963 2.245357,-9.309382 4.181009,-13.71909c0.38713,-0.855893 0.625861,-1.773806 0.606504,-2.704124c0.045165,-1.14119 0.167757,-2.269976 0.2968,-3.39256c2.484087,0.111638 4.974627,0.105436 7.465166,0l0.664574,-0.018606c-0.374226,0.886903 -0.729096,1.786211 -1.148487,2.66071c-0.400035,0.64502 -0.5936,1.383073 -0.541983,2.139731c-0.858139,7.647214 -3.400296,15.033939 -4.368122,22.674951l-0.554887,-0.006202c-2.071148,-0.043415 -4.142296,-0.08683 -6.206992,-0.124042c0.012904,-1.172201 0.032261,-2.338199 0.051617,-3.497996c-0.561339,0.452755 -1.122678,0.911712 -1.671113,1.376871c-1.561426,1.383073 -3.393844,2.629699 -5.561775,2.852975c-1.858226,0.024808 -3.703548,0.024808 -5.54887,-0.006202c-1.935652,-0.471361 -3.606766,-1.885445 -4.342314,-3.659251c-0.025809,-2.195551 -0.05807,-4.391101 -0.122591,-6.58045c0.038713,-1.544328 0.490365,-3.032837 0.935565,-4.502739c0.554887,-1.730392 0.94847,-3.504198 1.174296,-5.296611c0.341965,-2.66071 0.922661,-5.284206 1.354957,-7.92631z" fill="#e5e5e5"/>
   <path stroke="null" id="svg_154" d="m289.297569,165.457674c2.277618,0.173659 4.56814,0.217074 6.865114,0.229478c0.038713,0.855893 0.070974,1.711785 0.096783,2.580082c-0.032261,0.260489 -0.103235,0.787669 -0.135496,1.05436c-0.4452,1.085371 -0.954922,2.145934 -1.438835,3.2189c-2.264713,0.105436 -4.529427,0.111638 -6.787688,-0.006202c-0.032261,-0.508574 -0.09033,-1.519519 -0.116139,-2.021891c-0.064522,-1.798615 0.806522,-3.442177 1.516261,-5.054728z" fill="#e5e5e5"/>
   <path stroke="null" id="svg_155" d="m366.710762,165.439067c2.600226,0.347319 5.232714,0.285298 7.845845,0.124042c-0.096783,0.303904 -0.290348,0.90551 -0.38713,1.209413c-0.619409,1.854434 -1.129131,3.739878 -1.580783,5.637727c-2.529253,0.186064 -5.064957,0.248085 -7.59421,0.272893c0.425844,-2.449837 0.974278,-4.868664 1.716278,-7.244076z" fill="#e5e5e5"/>
   <path stroke="null" id="svg_156" d="m262.553305,11.545859c2.038887,-0.310106 4.219722,-0.713244 6.155375,0.241883c-2.058244,0.037213 -4.110035,-0.099234 -6.155375,-0.241883z" opacity="0.18" fill="#e5e5e5"/>
   <path stroke="null" id="svg_157" d="m11.692749,12.494784l0.80007,0.006202c0.070974,25.893852 0.116139,51.787704 -0.012904,77.675353c-0.019357,0.427946 -0.05807,1.271435 -0.077426,1.699381c5.187549,0.279095 10.388001,-0.068223 15.57555,0.223276c-1.316244,0.396936 -2.690557,0.564393 -4.06487,0.520978c-4.06487,-0.068223 -8.123288,0.031011 -12.181706,-0.173659c-0.309704,-15.47429 -0.038713,-30.954782 -0.129043,-46.435274c0.070974,-11.170018 -0.129043,-22.346239 0.09033,-33.516257z" opacity="0.18" fill="#e5e5e5"/>
   <path stroke="null" id="svg_158" d="m268.663514,12.376943c1.051704,4.068591 0.316157,8.329447 0.348417,12.478666c-2.632487,0.161255 -5.277879,0.161255 -7.903914,-0.031011c2.413113,-0.508574 4.890748,-0.551989 7.349027,-0.620212c0.09033,-3.944548 -0.141948,-7.895299 0.20647,-11.827443z" opacity="0.18" fill="#e5e5e5"/>
   <path stroke="null" id="svg_159" d="m241.912797,33.532375c0.180661,-3.132071 -0.541983,-6.394386 0.606504,-9.408616c0.019357,3.119666 0.193565,6.245535 -0.025809,9.358999l-0.580696,0.049617z" opacity="0.18" fill="#e5e5e5"/>
   <path stroke="null" id="svg_160" d="m371.762815,31.355431c0.838783,-0.756659 1.432383,-0.607808 1.787252,0.434148c-0.671026,0.11784 -1.271078,-0.031011 -1.787252,-0.434148z" opacity="0.18" fill="#e5e5e5"/>
   <path stroke="null" id="svg_161" d="m268.431236,34.239417l0.645217,-0.043415c-0.103235,3.373953 0.658122,6.878151 -0.483913,10.146669c-0.258087,-3.367751 -0.161304,-6.741705 -0.161304,-10.103254z" opacity="0.18" fill="#e5e5e5"/>
   <path stroke="null" id="svg_162" d="m241.925702,44.200022l0.580696,0.049617c0.35487,15.88363 0.012904,31.792068 0.103235,47.6819c5.174644,0.093032 10.349288,0.093032 15.530385,0.006202c0.083878,-15.896034 -0.225826,-31.79827 0.103235,-47.688102l0.580696,-0.055819c-0.116139,16.0883 0.161304,32.1766 -0.135496,48.258697c-5.542418,0.20467 -11.091288,0.192266 -16.633707,0.006202c-0.264539,-16.082098 -0.019357,-32.170397 -0.129043,-48.258697z" opacity="0.18" fill="#e5e5e5"/>
   <path stroke="null" id="svg_163" d="m407.746594,50.352525c0.045165,-2.220359 -0.35487,-4.558558 0.677478,-6.630066c0.400035,2.80956 0.225826,5.656334 0.2968,8.490703c-0.077426,9.352797 0.103235,18.705594 -0.09033,28.05219c-0.077426,0.855893 -0.135496,1.717987 -0.180661,2.580082c-1.064609,-1.773806 -0.658122,-3.876325 -0.716191,-5.823791c0.05807,-8.89384 0.038713,-17.781479 0.012904,-26.669117z" opacity="0.18" fill="#e5e5e5"/>
   <path stroke="null" id="svg_164" d="m144.091376,52.752746c-0.767809,-0.831084 -0.5936,-1.395477 0.516174,-1.686977c0.096783,0.632616 -0.077426,1.197009 -0.516174,1.686977z" opacity="0.18" fill="#e5e5e5"/>
   <path stroke="null" id="svg_165" d="m485.075908,54.31568c1.129131,-0.223276 1.619496,1.699381 0.5936,2.102519c-0.406487,-0.638818 -0.600052,-1.364466 -0.5936,-2.102519z" opacity="0.18" fill="#e5e5e5"/>
   <path stroke="null" id="svg_166" d="m338.024393,63.38318c0.051617,-2.350604 -0.251635,-4.781835 0.625861,-7.033204c0.032261,4.273261 0.20647,8.546522 0.05807,12.825985c-0.929113,-1.811019 -0.664574,-3.851517 -0.683931,-5.79278z" opacity="0.18" fill="#e5e5e5"/>
   <path stroke="null" id="svg_167" d="m310.015502,64.84688c-0.638765,-1.017148 1.658209,-1.538126 1.451739,-0.334914c-0.361322,0.08683 -1.083965,0.254287 -1.451739,0.334914z" opacity="0.18" fill="#e5e5e5"/>
   <path stroke="null" id="svg_168" d="m118.747233,73.932986c3.871305,-0.099234 7.74261,-0.049617 11.613915,-0.099234c1.574331,0.037213 3.303513,-0.192266 4.664922,0.762861c-5.406922,-0.235681 -10.820297,-0.11784 -16.22722,-0.08683l-0.051617,-0.576797z" opacity="0.18" fill="#e5e5e5"/>
   <path stroke="null" id="svg_169" d="m339.643889,73.951593c0.425844,0.477563 0.612957,1.041956 0.561339,1.680775c-1.135583,-0.272893 -1.316244,-0.831084 -0.561339,-1.680775z" opacity="0.18" fill="#e5e5e5"/>
   <path stroke="null" id="svg_170" d="m347.580064,144.612348c2.142122,-1.035754 4.774609,-1.029552 6.929636,-0.024808c-2.309879,-0.031011 -4.626209,-0.024808 -6.929636,0.024808z" opacity="0.18" fill="#e5e5e5"/>
   <path stroke="null" id="svg_171" d="m417.682943,153.214688c-0.987183,-0.421744 -0.645217,-2.356806 0.509722,-2.195551c0.038713,0.762861 -0.161304,1.507115 -0.509722,2.195551z" opacity="0.18" fill="#e5e5e5"/>
   <path stroke="null" id="svg_172" d="m323.268269,153.18988c2.025983,2.207955 5.406922,1.190807 8.091027,1.513317c-2.600226,0.837286 -5.355305,0.545787 -8.026505,0.390734c-0.019357,-0.477563 -0.051617,-1.426488 -0.064522,-1.904051z" opacity="0.18" fill="#e5e5e5"/>
   <path stroke="null" id="svg_173" d="m341.134341,158.436874l0.1484,0.601606c0.141948,1.7552 0.083878,3.516602 -0.05807,5.271802l-0.051617,0.570595c-0.548435,-2.114923 -0.580696,-4.32908 -0.038713,-6.444003z" opacity="0.18" fill="#e5e5e5"/>
   <path stroke="null" id="svg_174" d="m421.896213,166.729108c-0.05807,-0.744254 0.025809,-1.569136 0.671026,-2.065306c0.851687,0.477563 0.374226,2.257572 -0.671026,2.065306z" opacity="0.18" fill="#e5e5e5"/>
   <path stroke="null" id="svg_175" d="m366.162327,165.377046c2.767983,-0.533382 5.665009,-0.601606 8.394279,0.186064c-2.613131,0.161255 -5.245618,0.223276 -7.845845,-0.124042l-0.548435,-0.062021z" opacity="0.18" fill="#e5e5e5"/>
  </g>
 </g>
</svg>