<svg width="249.99999999999997" height="249.99999999999997" xmlns="http://www.w3.org/2000/svg">
 <g>
  <title>background</title>
  <rect x="-1" y="-1" width="252" height="252" id="canvas_background" fill="none"/>
 </g>

 <g>
  <title>Layer 1</title>
  <g stroke="null" id="svg_176">
   <path stroke="null" fill="#e5e5e5" d="m105.670884,88.110611c0.899503,-0.403372 1.91345,-0.399511 2.881214,-0.31845c-0.959735,0.113869 -1.919471,0.233528 -2.881214,0.31845z" id="svg_1"/>
   <path stroke="null" fill="#e5e5e5" d="m31.598594,88.062359c1.397438,-0.125448 2.8009,-0.007717 4.200348,-0.077199c0.096374,2.094051 0.026102,4.191962 0.038148,6.287945c0.032127,0.71024 -0.178694,1.5054 0.269047,2.13458c-0.148578,0.11001 -0.299163,0.216161 -0.451758,0.32038c-0.152592,-2.858332 0.004017,-5.724382 -0.066257,-8.584646c-1.329173,-0.05404 -2.658347,-0.067549 -3.989527,-0.08106z" id="svg_2"/>
   <path stroke="null" fill="#e5e5e5" d="m153.910635,89.619869c1.718689,-0.158259 3.471511,-0.152468 5.19221,-0.003859c0.036141,1.55944 -0.050197,3.120813 0,4.680253c0.993866,0.06369 1.99376,0.088781 2.991643,0.05597c0.06425,1.119401 0.052201,2.242664 -0.00201,3.363994c-0.999891,0.0193 -1.999781,0.01737 -2.997665,0.0193c0.006021,3.562781 0.054211,7.129425 -0.044173,10.692209c-0.254994,-0.970792 -0.140546,-1.974392 -0.126493,-2.960625c0.024095,-2.62673 -0.024092,-5.251534 0.006025,-7.876335c0.997884,-0.025091 1.997774,-0.042461 2.997668,-0.057899c0.052201,-1.032553 0.050194,-2.067031 -0.004017,-3.099584c-0.997884,-0.005788 -1.995767,0.005791 -2.991643,0.023161c-0.052201,-1.596113 0.06425,-3.196082 -0.06224,-4.790266c-1.53598,-0.144747 -3.079989,-0.08299 -4.619983,-0.06369c-0.186726,1.598043 -0.014053,3.209594 -0.162631,4.811495c-0.863362,-0.003859 -1.724713,0.00965 -2.584058,0.040532c-0.022088,1.032549 -0.014056,2.06317 0.01807,3.095722c0.762968,-0.005791 1.527945,-0.013512 2.29493,0.003859l0.206807,0.015441c-0.869386,0.272131 -1.786956,0.169838 -2.680434,0.125451c-0.042162,-1.119401 -0.078303,-2.240734 -0.010039,-3.360135c0.859344,0.030882 1.718689,0.040532 2.578033,0.003862c0.050197,-1.571022 0.036141,-3.145904 0,-4.718855z" id="svg_3"/>
   <path stroke="null" fill="#e5e5e5" d="m107.327333,94.618576c-0.042165,-0.6562 -0.022088,-1.318192 0.136529,-1.958954c0.020081,0.658133 0.026102,1.316262 0.054211,1.976324l-0.19074,-0.01737z" id="svg_4"/>
   <path stroke="null" fill="#e5e5e5" d="m41.388696,93.925703c0.578252,-0.034737 1.182602,-0.08299 1.72672,0.158262c-0.576241,-0.052111 -1.152483,-0.098431 -1.72672,-0.158262z" id="svg_5"/>
   <path stroke="null" fill="#e5e5e5" d="m61.374482,93.981675c0.172673,-0.295292 0.897492,-0.272131 0.8995,0.113869c-0.305188,0.011582 -0.606358,-0.03667 -0.8995,-0.113869z" id="svg_6"/>
   <path stroke="null" fill="#e5e5e5" d="m118.494795,94.087823c0.554157,-0.216158 1.1565,-0.19107 1.742784,-0.14668c-0.580259,0.06369 -1.162525,0.10808 -1.742784,0.14668z" id="svg_7"/>
   <path stroke="null" fill="#e5e5e5" d="m121.69726,93.933423c0.578252,-0.015438 1.214729,-0.177559 1.744791,0.131242c-0.582266,-0.03667 -1.164532,-0.075272 -1.744791,-0.131242z" id="svg_8"/>
   <path stroke="null" fill="#e5e5e5" d="m139.370042,94.070453c0.540104,-0.279848 1.162525,-0.16405 1.746798,-0.135097c-0.580256,0.06369 -1.164532,0.10036 -1.746798,0.135097z" id="svg_9"/>
   <path stroke="null" fill="#e5e5e5" d="m171.501099,94.078174c0.552146,-0.221949 1.154493,-0.19107 1.740773,-0.14668c-0.580259,0.061761 -1.160515,0.106151 -1.740773,0.14668z" id="svg_10"/>
   <path stroke="null" fill="#e5e5e5" d="m174.71561,93.950793c0.714781,-0.00965 1.477751,-0.03667 2.116236,0.330033c-0.712774,-0.071411 -1.419526,-0.18142 -2.116236,-0.330033z" id="svg_11"/>
   <path stroke="null" fill="#e5e5e5" d="m194.996544,94.257665c0.487896,-0.387931 1.126384,-0.37442 1.72471,-0.341609c-0.578249,0.102289 -1.152483,0.21809 -1.72471,0.341609z" id="svg_12"/>
   <path stroke="null" fill="#e5e5e5" d="m197.201122,93.912194c0.279085,-0.00965 0.558174,-0.01737 0.841274,-0.021229c0.040158,1.61541 0.044173,3.230823 -0.006021,4.846232c-0.879425,0.04632 -1.760854,0.04439 -2.638269,-0.00965c0.803126,-0.1737 1.628336,-0.198791 2.449533,-0.231599c0.038148,-1.464871 0.032127,-2.929743 0.004017,-4.394614c-0.218853,-0.067552 -0.433688,-0.129309 -0.650534,-0.189141z" id="svg_13"/>
   <path stroke="null" fill="#e5e5e5" d="m56.501515,94.506634c0.530065,-0.378279 1.188627,-0.451618 1.831129,-0.45548c-0.602347,0.18335 -1.216736,0.326171 -1.831129,0.45548z" id="svg_14"/>
   <path stroke="null" fill="#e5e5e5" d="m116.998974,94.510495c0.072282,-0.335821 0.250976,-0.397581 0.534079,-0.18335c-0.150585,0.138959 -0.327272,0.20072 -0.534079,0.18335z" id="svg_15"/>
   <path stroke="null" fill="#e5e5e5" d="m186.878948,94.344516c1.638378,0.03667 3.278761,0.032808 4.919146,-0.009653c0.028109,0.876223 0.028109,1.752443 0.01807,2.628663c0.114447,-0.04439 0.343336,-0.131239 0.457783,-0.175629c-0.126493,0.239319 -0.250976,0.478639 -0.371448,0.71989c-0.385498,-0.97658 -0.256998,-2.030361 -0.265029,-3.047473c-1.51791,-0.08106 -3.03983,-0.106148 -4.55774,0.011582c0.022088,5.016071 0.006025,10.032147 0.012046,15.048221c-0.014053,1.069219 0.062243,2.142301 -0.084328,3.207661l-0.028109,0.18335c-0.146571,-0.671641 -0.120469,-1.35872 -0.116451,-2.040011c0.01606,-5.508224 -0.014056,-11.016448 0.01606,-16.526601z" id="svg_16"/>
   <path stroke="null" fill="#e5e5e5" d="m199.028234,94.427506c1.799002,-0.169841 3.612057,0.023158 5.415077,-0.102292l-0.006025,0.150542c-1.799002,-0.133171 -3.606036,-0.048249 -5.409053,-0.048249z" id="svg_17"/>
   <path stroke="null" fill="#e5e5e5" d="m212.512717,94.429435c1.742784,-0.12738 3.505645,-0.079131 5.252443,-0.00772c-1.750815,-0.034741 -3.501631,-0.011579 -5.252443,0.00772z" id="svg_18"/>
   <path stroke="null" fill="#e5e5e5" d="m99.547051,97.911156c0.024092,-1.100101 -0.1285,-2.21757 0.108423,-3.304163c0.098381,1.107822 0.076296,2.219502 0.070272,3.329253l-0.178694,-0.025091z" id="svg_19"/>
   <path stroke="null" fill="#e5e5e5" d="m126.152601,94.929306c0.208811,-0.28371 0.76096,0.05404 0.570217,0.35512c-0.222867,-0.067552 -0.417625,-0.19107 -0.570217,-0.35512z" id="svg_20"/>
   <path stroke="null" fill="#e5e5e5" d="m145.853274,94.915794c0.212831,-0.27406 0.746907,0.07334 0.556167,0.36477c-0.226884,-0.05597 -0.415618,-0.19107 -0.556167,-0.36477z" id="svg_21"/>
   <path stroke="null" fill="#e5e5e5" d="m114.830534,95.705166c-0.224874,-0.275989 0.277078,-0.6755 0.520026,-0.414952c-0.130511,0.183353 -0.307198,0.330033 -0.520026,0.414952z" id="svg_22"/>
   <path stroke="null" fill="#e5e5e5" d="m53.602231,96.438568c-0.222867,-0.335821 0.363416,-0.849203 0.688682,-0.60216c-0.182712,0.245107 -0.421642,0.441969 -0.688682,0.60216z" id="svg_23"/>
   <path stroke="null" fill="#e5e5e5" d="m166.112124,97.179687c0.295149,-0.62146 0.797101,-1.119401 1.447635,-1.401181c-0.479868,0.468992 -0.961743,0.937981 -1.447635,1.401181z" id="svg_24"/>
   <path stroke="null" fill="#e5e5e5" d="m192.512875,96.409615c-0.30117,-0.21037 0.072282,-0.735328 0.383494,-0.534608c-0.080314,0.20844 -0.216846,0.385999 -0.383494,0.534608z" id="svg_25"/>
   <path stroke="null" fill="#e5e5e5" d="m38.790585,98.075206c0.688682,-0.198791 1.417515,-0.177559 2.110214,0.001932c-0.702735,-0.038602 -1.409487,-0.03667 -2.110214,-0.001932z" id="svg_26"/>
   <path stroke="null" fill="#e5e5e5" d="m59.085573,98.065556c0.746907,-0.206508 1.554047,-0.231599 2.294933,0.0193c-0.764978,-0.048249 -1.529956,-0.05597 -2.294933,-0.0193z" id="svg_27"/>
   <path stroke="null" fill="#e5e5e5" d="m79.968851,98.077139c0.684664,-0.204582 1.405469,-0.167912 2.094151,-0.003862c-0.696713,-0.048249 -1.397438,-0.04439 -2.094151,0.003862z" id="svg_28"/>
   <path stroke="null" fill="#e5e5e5" d="m120.149234,97.974846c0.90151,-0.12738 1.857231,-0.104219 2.680434,0.312662c-0.881432,-0.185282 -1.780932,-0.260551 -2.680434,-0.312662z" id="svg_29"/>
   <path stroke="null" fill="#e5e5e5" d="m140.379975,98.063627c0.638485,-0.10808 1.295039,-0.106151 1.933524,0.011579c-0.646516,-0.02702 -1.291025,-0.028949 -1.933524,-0.011579z" id="svg_30"/>
   <path stroke="null" fill="#e5e5e5" d="m172.527092,98.088718c0.803126,-0.25669 1.676523,-0.223881 2.489688,-0.01737c-0.829225,-0.05597 -1.66247,-0.04632 -2.489688,0.01737z" id="svg_31"/>
   <path stroke="null" fill="#e5e5e5" d="m61.956748,98.372428c0.236923,-0.326171 0.909541,0.040529 0.688682,0.397581c-0.23893,-0.11966 -0.469829,-0.250902 -0.688682,-0.397581z" id="svg_32"/>
   <path stroke="null" fill="#e5e5e5" d="m128.798899,98.254697c0.136532,0.463201 0.180705,0.941842 0.17468,1.42241c0.016063,3.690165 0.072282,7.382256 -0.020078,11.07242c-0.321251,-1.484171 -0.190743,-3.006941 -0.216846,-4.510415c0.028109,-2.661471 -0.058226,-5.324874 0.062243,-7.984416z" id="svg_33"/>
   <path stroke="null" fill="#e5e5e5" d="m143.126663,98.306808c0.313219,0.065619 0.578252,0.27406 0.704742,0.561631c-0.303177,0.181417 -0.855327,-0.243181 -0.704742,-0.561631z" id="svg_34"/>
   <path stroke="null" fill="#e5e5e5" d="m83.175333,98.517178c0.534076,0.135101 0.919577,0.49215 1.044063,1.017112c-0.327275,-0.360911 -0.674629,-0.700591 -1.044063,-1.017112z" id="svg_35"/>
   <path stroke="null" fill="#e5e5e5" d="m117.9306,99.018978c0.026102,-0.27406 0.244955,-0.490221 0.522033,-0.550049c0.182709,0.260548 -0.236923,0.71024 -0.522033,0.550049z" id="svg_36"/>
   <path stroke="null" fill="#e5e5e5" d="m123.887785,99.347078c0.246962,0.29336 0.22086,0.74884 -0.012046,1.044132c-0.198772,-0.29143 -0.188733,-0.75656 0.012046,-1.044132z" id="svg_37"/>
   <path stroke="null" fill="#e5e5e5" d="m48.646947,99.557448c0.351367,-0.075269 0.499945,0.5211 0.194758,0.660062c-0.126493,-0.20072 -0.196768,-0.426531 -0.194758,-0.660062z" id="svg_38"/>
   <path stroke="null" fill="#e5e5e5" d="m112.790594,99.368307l0.056219,0.16405c0.042165,0.123521 0.126493,0.366703 0.168659,0.490221c1.485783,0.123521 2.977587,0.00965 4.46337,0.084922l0.194758,0.01737c-1.626329,0.272127 -3.290807,0.088778 -4.931192,0.111939c0.012046,-0.29143 0.028109,-0.580931 0.048187,-0.868502z" id="svg_39"/>
   <path stroke="null" fill="#e5e5e5" d="m144.6004,100.250318c0.104405,0.185282 0.210821,0.370561 0.319241,0.55584c1.578142,0.123521 3.166324,-0.081057 4.740452,0.106151l0.154603,0.01737c-1.706643,0.18335 -3.431356,0.102289 -5.144023,0.05597c-0.026099,-0.24704 -0.048187,-0.490221 -0.070272,-0.735331z" id="svg_40"/>
   <path stroke="null" fill="#e5e5e5" d="m51.263129,105.125503c-0.279085,-1.557511 -0.232906,-3.205732 0.257001,-4.718855c-0.150588,1.569093 -0.250976,3.142045 -0.257001,4.718855z" id="svg_41"/>
   <path stroke="null" fill="#e5e5e5" d="m35.881262,101.379369c-0.335304,-0.129309 -0.162634,-0.744981 0.200779,-0.6562c-0.028109,0.22774 -0.096374,0.449692 -0.200779,0.6562z" id="svg_42"/>
   <path stroke="null" fill="#e5e5e5" d="m210.575176,101.37551c-0.309205,-0.138959 -0.160624,-0.731469 0.194758,-0.65813c0,0.233528 -0.070275,0.459339 -0.194758,0.65813z" id="svg_43"/>
   <path stroke="null" fill="#e5e5e5" d="m56.601906,101.748001c-0.443727,0.11001 -0.511991,-0.837621 -0.058226,-0.827971c0.024092,0.27406 0.054211,0.550049 0.058226,0.827971z" id="svg_44"/>
   <path stroke="null" fill="#e5e5e5" d="m71.780983,106.076992c-0.381484,-1.736999 -0.363413,-3.568573 -0.032124,-5.313292c0.042162,1.771739 0.002007,3.543482 0.032124,5.313292z" id="svg_45"/>
   <path stroke="null" fill="#e5e5e5" d="m183.168507,100.90266c0.393533,-0.015441 0.455776,0.667779 0.15862,0.843412c-0.106416,-0.270201 -0.170666,-0.553911 -0.15862,-0.843412z" id="svg_46"/>
   <path stroke="null" fill="#e5e5e5" d="m43.679611,100.997228c0.608368,1.059573 0.558174,2.310212 0.516009,3.481724c-0.008032,0.426531 -0.1285,0.841479 -0.343336,1.215899c0.259008,-1.55944 0.230899,-3.163271 -0.172673,-4.697623z" id="svg_47"/>
   <path stroke="null" fill="#e5e5e5" d="m164.13041,104.187523c-0.078303,-1.069222 -0.140546,-2.177041 0.194758,-3.215382c0,1.075011 -0.022085,2.15195 -0.194758,3.215382z" id="svg_48"/>
   <path stroke="null" fill="#e5e5e5" d="m49.114766,101.352349c0.254994,1.428201 0.269047,2.935534 -0.04618,4.356015c-0.006021,-1.451363 0.038148,-2.904652 0.04618,-4.356015z" id="svg_49"/>
   <path stroke="null" fill="#e5e5e5" d="m120.73351,101.807829c0.596319,-0.241249 1.238821,-0.339679 1.88333,-0.372491c-0.600336,0.233531 -1.246853,0.303012 -1.88333,0.372491z" id="svg_50"/>
   <path stroke="null" fill="#e5e5e5" d="m56.798674,101.736422c2.407367,-0.133171 4.818752,-0.015441 7.228129,-0.059831c-0.556164,0.096498 -1.124374,0.12738 -1.688569,0.11001c-1.845182,-0.040532 -3.694381,0.03667 -5.53956,-0.050178z" id="svg_51"/>
   <path stroke="null" fill="#e5e5e5" d="m76.975201,105.698714c-0.650534,-1.273801 -0.467822,-2.823592 0,-4.126345c-0.208814,1.364511 -0.192751,2.759905 0,4.126345z" id="svg_52"/>
   <path stroke="null" fill="#e5e5e5" d="m69.182873,101.736422c0.254994,0.93991 0.244952,1.931931 0.126493,2.89307c-0.17468,0.21809 -0.495931,0.169841 -0.7449,0.198791c-4.077872,0.030879 -8.161766,-0.071411 -12.237631,0.04439c0.076299,0.590581 0.154603,1.179232 0.214838,1.771742c-0.248969,-0.613742 -0.375462,-1.260293 -0.463808,-1.910702c4.350936,-0.079131 8.705884,0.075269 13.052802,-0.07334c0.058229,-0.974654 0.092359,-1.949304 0.052204,-2.923955l0,0.000003z" id="svg_53"/>
   <path stroke="null" fill="#e5e5e5" d="m116.912639,102.36174c1.050085,-0.399511 2.202571,-0.467059 3.320923,-0.47478c-1.088233,0.270201 -2.200564,0.426531 -3.320923,0.47478z" id="svg_54"/>
   <path stroke="null" fill="#e5e5e5" d="m85.185153,101.95837c0.357392,0.52882 0.244955,1.179229 0.240937,1.77753c-0.06224,0.92061 -0.058226,1.910702 -0.608368,2.711652c0.37948,-1.464871 0.479868,-2.985712 0.367431,-4.489183z" id="svg_55"/>
   <path stroke="null" fill="#e5e5e5" d="m137.57104,105.727663c-0.337311,-1.24871 -0.309202,-2.566902 -0.010039,-3.819474c0.01807,1.273801 0,2.545673 0.010039,3.819474z" id="svg_56"/>
   <path stroke="null" fill="#e5e5e5" d="m178.193142,101.912051c0.335307,0.687079 0.28511,1.457151 0.277078,2.196341c-0.026099,0.737261 0.008032,1.540141 -0.473843,2.163533c0.248969,-1.437851 0.343336,-2.906581 0.196765,-4.359873z" id="svg_57"/>
   <path stroke="null" fill="#e5e5e5" d="m183.371296,101.902401c0.387508,1.042199 0.28511,2.19055 0.062243,3.257843c-0.036141,-1.086593 -0.042165,-2.173182 -0.062243,-3.257843z" id="svg_58"/>
   <path stroke="null" fill="#e5e5e5" d="m169.370807,104.982682c-0.411603,-0.818321 -0.429674,-1.835429 -0.038148,-2.665333c-0.032127,0.887802 -0.026102,1.779463 0.038148,2.665333z" id="svg_59"/>
   <path stroke="null" fill="#e5e5e5" d="m35.610205,104.949874c-0.351367,-0.766213 -0.299163,-1.669453 0.00201,-2.441454c-0.03012,0.812533 -0.032127,1.626992 -0.00201,2.441454z" id="svg_60"/>
   <path stroke="null" fill="#e5e5e5" d="m191.838253,106.818115c0.012046,-1.441713 -0.090352,-2.893073 0.150585,-4.323203c0.100391,3.425752 0.072282,6.857294 0.014053,10.284978l-0.176687,-0.011582c0.028109,-1.984042 0.002007,-3.966151 0.012049,-5.950192z" id="svg_61"/>
   <path stroke="null" fill="#e5e5e5" d="m207.248228,103.589221c0.34735,0.08106 0.405579,0.25476 0.17468,0.5211c-0.138539,-0.150538 -0.196768,-0.324238 -0.17468,-0.5211z" id="svg_62"/>
   <path stroke="null" fill="#e5e5e5" d="m119.872155,105.160244c0.024095,-0.41881 0.817182,-0.472851 1.072176,-0.187211c-0.35137,0.094569 -0.710766,0.148609 -1.072176,0.187211z" id="svg_63"/>
   <path stroke="null" fill="#e5e5e5" d="m169.41297,105.137082c0.092359,0.266339 0.15661,0.542332 0.180705,0.826041c-0.407586,0.040529 -0.511994,-0.660062 -0.180705,-0.826041z" id="svg_64"/>
   <path stroke="null" fill="#e5e5e5" d="m164.188639,105.393772c0.148578,0.60216 0.277078,1.210111 0.389515,1.821921c-0.347353,-0.550049 -0.405579,-1.19467 -0.389515,-1.821921z" id="svg_65"/>
   <path stroke="null" fill="#e5e5e5" d="m51.347456,105.592562c0.236923,0.727611 0.44172,1.466801 0.562188,2.221432c-0.431681,-0.66585 -0.546125,-1.45136 -0.562188,-2.221432z" id="svg_66"/>
   <path stroke="null" fill="#e5e5e5" d="m183.180556,106.374213c-0.01807,-0.23739 0.040155,-0.468989 0.144561,-0.68322c0.307198,0.11966 0.214838,0.72954 -0.144561,0.68322z" id="svg_67"/>
   <path stroke="null" fill="#e5e5e5" d="m144.658626,106.098224c1.268937,-0.069481 2.541892,-0.021232 3.81284,-0.052111c0.421642,-0.015441 0.851313,0.005791 1.254884,0.142821c-1.718689,0.142818 -3.529737,-0.347403 -5.168115,0.32038c0.024095,-0.104222 0.074289,-0.3088 0.100391,-0.41109z" id="svg_68"/>
   <path stroke="null" fill="#e5e5e5" d="m112.226398,107.161656c-0.305188,-0.177562 -0.242945,-0.860782 0.154603,-0.856923c0,0.29143 -0.058226,0.579002 -0.154603,0.856923z" id="svg_69"/>
   <path stroke="null" fill="#e5e5e5" d="m123.343667,108.167185c0.246962,-0.579002 0.447744,-1.175371 0.598329,-1.785251c-0.024092,0.633039 0.022088,1.38767 -0.598329,1.785251z" id="svg_70"/>
   <path stroke="null" fill="#e5e5e5" d="m208.470986,107.267804c0.060236,-0.260548 0.214835,-0.37442 0.465812,-0.341609c0.080314,0.3088 -0.327272,0.907099 -0.465812,0.341609z" id="svg_71"/>
   <path stroke="null" fill="#e5e5e5" d="m63.15742,108.709517c-0.19074,-0.293363 0.269047,-0.8106 0.596322,-0.669712c-0.054211,0.314592 -0.309205,0.53847 -0.596322,0.669712z" id="svg_72"/>
   <path stroke="null" fill="#e5e5e5" d="m164.977709,108.178764c0.148578,0.135101 0.22086,0.303012 0.216846,0.5018c-0.357392,-0.054037 -0.429674,-0.221949 -0.216846,-0.5018z" id="svg_73"/>
   <path stroke="null" fill="#e5e5e5" d="m41.089532,109.097445c0.224874,-0.14475 0.463804,-0.268269 0.716791,-0.366699c0.196765,0.362841 -0.491917,0.681291 -0.716791,0.366699z" id="svg_74"/>
   <path stroke="null" fill="#e5e5e5" d="m159.650977,108.979715c0.638485,-0.00772 1.280986,0.0193 1.909432,0.138959c-0.640495,-0.001929 -1.282994,-0.015438 -1.909432,-0.138959z" id="svg_75"/>
   <path stroke="null" fill="#e5e5e5" d="m38.605866,109.199734c0.777024,0.042461 1.560072,0.034741 2.337096,-0.023158c-0.748914,0.277919 -1.590188,0.326171 -2.337096,0.023158z" id="svg_76"/>
   <path stroke="null" fill="#e5e5e5" d="m79.970858,109.211317c0.696713,0.030879 1.395431,0.01737 2.094151,-0.02702c-0.674625,0.262478 -1.409487,0.216158 -2.094151,0.02702z" id="svg_77"/>
   <path stroke="null" fill="#e5e5e5" d="m141.124872,109.373437c0.120469,-0.330033 0.801119,-0.330033 1.074183,-0.129313c-0.323258,0.18142 -0.716791,0.22774 -1.074183,0.129313z" id="svg_78"/>
   <path stroke="null" fill="#e5e5e5" d="m161.923822,109.120606l0.190743,-0.001932c0.036141,1.271872 0.036141,2.545673 -0.030116,3.815615c-1.598223,-0.069481 -3.216521,0.1544 -4.79667,-0.129313c1.544009,0.061761 3.092035,0.046323 4.63805,0c0.052204,-1.229411 0.032127,-2.456889 -0.002007,-3.68437z" id="svg_79"/>
   <path stroke="null" fill="#e5e5e5" d="m172.521067,109.178505c0.762971,0.050182 1.531963,0.067549 2.298948,0.03667c-0.752929,0.175629 -1.572118,0.28371 -2.298948,-0.03667z" id="svg_80"/>
   <path stroke="null" fill="#e5e5e5" d="m59.659807,109.560646c0.787066,-0.0193 1.574128,-0.067549 2.355169,-0.179491c-0.702738,0.461271 -1.578142,0.384073 -2.355169,0.179491z" id="svg_81"/>
   <path stroke="null" fill="#e5e5e5" d="m118.526922,109.743995c0.698717,0.015441 1.401452,0.015441 2.10218,-0.00772c-0.672618,0.248972 -1.433579,0.275992 -2.10218,0.00772z" id="svg_82"/>
   <path stroke="null" fill="#e5e5e5" d="m204.973373,110.294048c0.138539,0.14475 0.200782,0.316518 0.190743,0.515308c-0.355385,-0.071411 -0.419635,-0.243178 -0.190743,-0.515308z" id="svg_83"/>
   <path stroke="null" fill="#e5e5e5" d="m84.938191,110.992706c0.052204,-0.065619 0.15862,-0.196858 0.210821,-0.262478c0.060236,0.68515 0.106416,1.372229 0.138539,2.059311c1.59822,0.09264 3.19845,0.003859 4.79667,0.052108c-1.648417,0.198791 -3.316909,0.048252 -4.975365,0.084922c-0.014053,-0.64848 -0.108423,-1.291171 -0.170666,-1.933863z" id="svg_84"/>
   <path stroke="null" fill="#e5e5e5" d="m123.319575,111.419237c0.275071,-0.268269 0.566203,-0.523029 0.861351,-0.773931c0.078306,0.47478 0.148578,0.953422 0.214835,1.433993c-0.124483,-0.335821 -0.232906,-0.673571 -0.337311,-1.01132c-0.248969,0.113869 -0.495931,0.231599 -0.738876,0.351258z" id="svg_85"/>
   <path stroke="null" fill="#e5e5e5" d="m211.285942,112.162288c0.01807,-0.27406 0.144564,-0.523032 0.307195,-0.744981c0.281096,0.20072 0.066257,0.85692 -0.307195,0.744981z" id="svg_86"/>
   <path stroke="null" fill="#e5e5e5" d="m124.727051,112.8513c1.813058,-0.059831 3.632138,0.077199 5.439169,-0.152471c-0.668601,0.349329 -1.447632,0.221949 -2.172454,0.23739c-1.090243,-0.030879 -2.18651,0.077202 -3.266715,-0.084919z" id="svg_87"/>
   <path stroke="null" fill="#e5e5e5" d="m205.955196,112.880249c0.226881,0.303009 0.224874,0.70252 0.028106,1.02097c-0.246959,-0.25669 -0.263022,-0.75849 -0.028106,-1.02097z" id="svg_88"/>
   <path stroke="null" fill="#e5e5e5" d="m38.81468,112.99605c1.61428,0.28371 3.272736,0.304939 4.889027,0.013509c-0.87139,0.463201 -1.897383,0.339679 -2.853104,0.362841c-0.69872,0.015441 -1.409487,-0.05597 -2.035922,-0.376349z" id="svg_89"/>
   <path stroke="null" fill="#e5e5e5" d="m57.079767,112.96131c0.706752,0.094569 1.409487,0.202649 2.106197,0.3474c-0.716788,0.025091 -1.471727,0.0193 -2.106197,-0.3474z" id="svg_90"/>
   <path stroke="null" fill="#e5e5e5" d="m61.278108,113.310639c0.69671,-0.138959 1.399445,-0.243181 2.106197,-0.322309c-0.646516,0.333888 -1.387402,0.38407 -2.106197,0.322309z" id="svg_91"/>
   <path stroke="null" fill="#e5e5e5" d="m77.161927,112.969027c0.455776,0.094572 0.909541,0.200723 1.363307,0.314592c-0.487899,0.048249 -0.967767,-0.02702 -1.363307,-0.314592z" id="svg_92"/>
   <path stroke="null" fill="#e5e5e5" d="m138.390229,113.003768c0.907531,0.06369 1.813058,0.1737 2.710551,0.326171c-0.909541,0.025091 -1.885337,0.11966 -2.710551,-0.326171z" id="svg_93"/>
   <path stroke="null" fill="#e5e5e5" d="m170.529315,112.965168c0.768995,0.088781 1.53598,0.193 2.29694,0.34547c-0.783048,0.06369 -1.596213,0.030879 -2.29694,-0.34547z" id="svg_94"/>
   <path stroke="null" fill="#e5e5e5" d="m174.910367,113.300989c0.69671,-0.167909 1.407477,-0.27406 2.12226,-0.3474c-0.632463,0.387928 -1.405469,0.349329 -2.12226,0.3474z" id="svg_95"/>
   <path stroke="null" fill="#e5e5e5" d="m204.105997,116.118789c0.365424,-0.258619 0.762971,-0.47478 1.176581,-0.660059c-0.250979,0.41109 -0.702735,0.607951 -1.176581,0.660059z" id="svg_96"/>
   <path stroke="null" fill="#e5e5e5" d="m201.702644,116.114931c0.748914,-0.0193 1.497829,-0.021229 2.246743,0.028949c-0.680647,0.094572 -1.367321,0.123521 -2.051986,0.158262c-0.032127,1.196599 -0.032127,2.393202 0.016063,3.587872c1.148469,-0.021232 2.296937,-0.011579 3.443402,0.05597c-1.180595,0.31073 -2.427448,0.057899 -3.634145,0.133171c-0.108423,-1.320121 -0.100391,-2.644104 -0.020078,-3.964225z" id="svg_97"/>
   <path stroke="null" fill="#e5e5e5" d="m45.255747,117.006591c0.254994,-0.272131 0.668604,-0.202649 1.007922,-0.233531c1.108313,-0.007717 2.21462,0.003862 3.322933,0.038602c-0.082321,1.192741 -0.401561,2.350741 -0.648523,3.518391c-0.377469,1.804551 -0.803126,3.599451 -1.180595,5.405934c-0.399554,2.265822 -1.038039,4.485324 -1.447635,6.751146c-0.307195,1.6791 -0.768992,3.32925 -1.048078,5.014141c-0.086335,0.343541 -0.108423,0.754631 -0.41361,0.999741c-1.345237,0.11001 -2.702519,0.025091 -4.05177,0.02702c0.012049,-0.48443 0.034134,-0.96693 0.048187,-1.447501c-1.154493,0.687082 -2.272845,1.515053 -3.646188,1.740861c-1.610269,0.256693 -3.443402,0.28178 -4.802695,-0.716028c-1.218743,-0.791301 -1.821087,-2.173182 -2.070056,-3.520324c-0.341329,-2.335303 0.166648,-4.709203 0.943672,-6.919055c1.200673,-2.395131 3.19845,-4.653233 5.947149,-5.400143c1.427554,-0.326171 3.001682,-0.3281 4.356955,0.260548c0.853323,0.35705 1.417518,1.09431 2.043957,1.721561c0.833242,-2.346879 0.98182,-4.853953 1.638375,-7.241364m-6.539451,8.810457c-2.401346,0.744981 -3.555839,3.263631 -3.881104,5.494712c-0.122479,1.248714 -0.170666,2.858332 1.015954,3.672794c0.756946,0.590581 1.799002,0.63883 2.720586,0.480571c1.234807,-0.303012 2.252768,-1.161862 2.929403,-2.180903c0.837256,-1.198532 1.108313,-2.659541 1.230789,-4.072302c0.036141,-0.957283 -0.086335,-2.030361 -0.843281,-2.730952c-0.760963,-0.882011 -2.100176,-0.939913 -3.172348,-0.663921z" id="svg_98"/>
   <path stroke="null" fill="#e5e5e5" d="m54.208592,116.948693c0.839267,-0.343541 1.869274,-0.258622 2.682442,0.123518c1.017961,0.526891 1.130398,1.854732 0.768992,2.796571c-0.8995,1.642433 -4.029685,1.551723 -4.523606,-0.366699c-0.385501,-0.9843 0.194758,-2.030361 1.072173,-2.55339z" id="svg_99"/>
   <path stroke="null" fill="#e5e5e5" d="m110.144296,118.068093c1.393423,0.05404 2.790861,0.034737 4.186292,0.00965c0.006025,1.476451 -0.821196,2.835171 -0.652541,4.327062c0.783048,-0.011579 1.568104,-0.015441 2.355169,0.001929c-0.04618,1.040273 -0.242948,2.067031 -0.532072,3.070634c-0.8995,-0.00772 -1.801009,-0.009653 -2.69047,0.11966c-0.646519,2.939393 -1.258902,5.884573 -1.933527,8.814316c-0.078303,0.370561 -0.008032,0.86657 0.421642,1.005529c0.654548,0.173703 1.343226,0.125451 2.015845,0.175632c-0.166648,1.0229 -0.387508,2.036149 -0.642499,3.043611c-1.37937,0.148609 -2.774801,0.13703 -4.158186,0.05597c-0.941665,-0.10808 -2.084112,-0.56549 -2.244736,-1.580669c-0.192751,-1.159933 0.218853,-2.296704 0.427663,-3.425755c0.626439,-2.70972 1.210712,-5.431022 1.688572,-8.167765c-0.752929,-0.030879 -1.505861,-0.040529 -2.258792,-0.05597c0.26704,-0.951492 0.355385,-1.958951 0.752932,-2.869911c0.670611,-0.331962 1.471727,-0.1544 2.198556,-0.21037c0.401564,-1.428201 0.562188,-2.912372 1.066151,-4.313554z" id="svg_100"/>
   <path stroke="null" fill="#e5e5e5" d="m68.55242,122.269705c0.766985,-0.27406 1.600227,-0.206511 2.401346,-0.171771c-0.196768,1.152212 -0.503963,2.285122 -0.672618,3.443122c-1.301064,0.088781 -2.714565,-0.071407 -3.873076,0.627251c-1.590188,0.864641 -2.260799,2.642174 -2.630237,4.267234c-0.524037,2.483912 -1.076187,4.963966 -1.584164,7.453666c-0.078306,0.23739 -0.098384,0.66585 -0.467822,0.631109c-1.301064,0.07334 -2.606142,0.021232 -3.907206,-0.003859c0.244952,-2.227223 0.79108,-4.415843 1.303071,-6.598675c0.622421,-3.134321 1.383385,-6.241626 1.953605,-9.385597c1.337202,-0.214232 2.720586,-0.193 4.063816,-0.04632c0.116451,0.870432 -0.389515,1.744722 -0.377469,2.640242c0.114444,-0.021229 0.343336,-0.065619 0.455773,-0.086851c0.706752,-1.279589 1.921478,-2.27933 3.334982,-2.769551z" id="svg_101"/>
   <path stroke="null" fill="#e5e5e5" d="m74.539721,123.761596c2.272845,-1.646292 5.334764,-2.063173 8.071416,-1.46873c1.495822,0.299151 2.786844,1.337491 3.407261,2.67305c0.762968,1.696473 0.536086,3.614892 0.357389,5.404005c-0.116451,0.453551 -0.038148,1.262222 -0.74289,1.200461c-3.678318,0.052111 -7.360647,0 -11.040972,0.01737c-0.1285,1.075011 -0.250976,2.350741 0.618407,3.186432c1.170556,1.161862 3.134197,1.055711 4.523606,0.333891c0.560181,-0.29143 0.903517,-0.882011 1.489797,-1.117472c1.3613,-0.115801 2.736653,-0.05404 4.101967,0.001929c-0.803126,1.949301 -2.612167,3.354344 -4.533645,4.246002c-1.742784,0.802883 -3.722491,0.795163 -5.605821,0.658133c-1.801009,-0.185282 -3.61005,-1.129051 -4.421208,-2.738673c-0.887454,-1.731211 -0.686671,-3.746134 -0.339318,-5.583496c0.570217,-2.59971 1.851203,-5.193632 4.11401,-6.812904m0.91958,5.073973c2.240722,0.04439 4.487465,0.098431 6.72417,-0.038599c-0.020078,-0.804809 0.070275,-1.70612 -0.473843,-2.385482c-0.700728,-0.870429 -1.997777,-1.092381 -3.065932,-0.843412c-1.636368,0.306871 -2.871175,1.735073 -3.184394,3.267493z" id="svg_102"/>
   <path stroke="null" fill="#e5e5e5" d="m94.188193,122.763787c1.807034,-0.772001 3.859019,-0.868502 5.790539,-0.571281c1.66247,0.248969 3.148253,1.329771 3.87508,2.784992c0.465815,0.974651 0.359399,2.08054 0.299166,3.12081c-1.421533,0.055973 -2.845076,0.061761 -4.264598,-0.005788c-0.230899,-0.8299 -0.393533,-1.874032 -1.276972,-2.304421c-1.160515,-0.376352 -2.584054,-0.287571 -3.517691,0.544258c-1.291022,1.040273 -1.871281,2.622875 -2.268828,4.145645c-0.230899,0.972721 -0.319244,1.984042 -0.208814,2.977992c0.118462,0.874291 0.688682,1.8142 1.656446,1.985971c1.447635,0.268272 3.079989,-0.322309 3.840949,-1.56909c0.33129,-0.360911 0.451758,-1.024832 1.003908,-1.115542c1.349251,-0.084919 2.702519,0 4.053777,-0.042458c-0.622421,2.24459 -2.35918,4.116692 -4.465377,5.207144c-1.863252,1.069219 -4.126059,1.161859 -6.230249,0.953418c-2.120253,-0.24704 -4.027678,-1.866311 -4.389084,-3.914043c-0.351367,-2.032291 0.04819,-4.107043 0.652541,-6.058273c0.859344,-2.624804 2.774801,-5.039235 5.449208,-6.139336l0,0.000003z" id="svg_103"/>
   <path stroke="null" fill="#e5e5e5" d="m52.592302,122.539906c1.363307,-0.322309 2.812949,-0.075269 4.210387,-0.11001c-0.333297,2.879561 -1.280986,5.660695 -1.696604,8.530606c-0.556164,2.317933 -0.965757,4.664812 -1.535977,6.978886c-0.072282,0.233528 -0.114447,0.617598 -0.469829,0.578999c-1.299057,0.075272 -2.604135,0.023161 -3.905199,-0.011579c0.172673,-1.717702 0.584273,-3.402593 1.005915,-5.077834c0.341329,-1.580672 0.618407,-3.172924 0.977806,-4.749734c0.52404,-2.03422 0.758953,-4.135992 1.413501,-6.139333z" id="svg_104"/>
   <path stroke="null" fill="#e5e5e5" d="m157.811819,128.067429c-0.289124,-0.20844 -0.250976,-0.899381 0.164641,-0.909031c-0.026102,0.306871 -0.086338,0.60988 -0.164641,0.909031z" id="svg_105"/>
   <path stroke="null" fill="#e5e5e5" d="m157.570882,129.165601c-0.275071,-0.22774 -0.178697,-0.86657 0.208811,-0.909031c-0.026102,0.31073 -0.088342,0.617601 -0.208811,0.909031z" id="svg_106"/>
   <path stroke="null" fill="#e5e5e5" d="m159.675072,129.538092c-0.036141,-0.23739 0.010039,-0.47478 0.134522,-0.681291c0.301173,0.11966 0.212828,0.71024 -0.134522,0.681291z" id="svg_107"/>
   <path stroke="null" fill="#e5e5e5" d="m124.969999,129.404921c0.889461,-0.41109 1.917461,-0.503729 2.867157,-0.233531c-0.959735,0.021232 -1.919471,0.094572 -2.867157,0.233531z" id="svg_108"/>
   <path stroke="null" fill="#e5e5e5" d="m147.262761,129.414571c0.738876,-0.229669 1.525938,-0.14668 2.276863,-0.015441c-0.758953,0.040532 -1.519917,0.04632 -2.276863,0.015441z" id="svg_109"/>
   <path stroke="null" fill="#e5e5e5" d="m152.836455,129.381759c0.766985,-0.129309 1.556055,-0.160188 2.323043,0c-0.775017,0.032811 -1.550033,0.034741 -2.323043,0z" id="svg_110"/>
   <path stroke="null" fill="#e5e5e5" d="m162.897614,129.402991c0.889461,-0.204582 1.81707,-0.125451 2.716572,-0.00965c-0.905524,0.052108 -1.813058,0.03667 -2.716572,0.00965z" id="svg_111"/>
   <path stroke="null" fill="#e5e5e5" d="m204.774601,130.051471c1.999781,-0.74691 4.505536,0.924472 4.298729,3.018524c0.074289,1.771739 -1.774907,3.279072 -3.581941,2.979921c-1.351258,-0.135101 -2.570001,-1.12133 -2.772791,-2.439522c-0.329283,-1.443639 0.604354,-3.064843 2.056003,-3.558923z" id="svg_112"/>
   <path stroke="null" fill="#e5e5e5" d="m154.840254,130.869792c-0.016063,-0.235461 0.044173,-0.46513 0.168656,-0.66585c0.305188,0.12738 0.184719,0.725681 -0.168656,0.66585z" id="svg_113"/>
   <path stroke="null" fill="#e5e5e5" d="m152.555362,131.278953c-0.28712,-0.19107 -0.202792,-0.85885 0.188733,-0.841482c0.006025,0.289501 -0.068268,0.575143 -0.188733,0.841482z" id="svg_114"/>
   <path stroke="null" fill="#e5e5e5" d="m159.112883,132.608723c0.028109,-0.64848 0.124483,-1.29503 0.351367,-1.908772c-0.066257,0.557773 -0.062243,1.117472 -0.06425,1.679103c-0.072282,0.057899 -0.216846,0.171771 -0.287117,0.229669z" id="svg_115"/>
   <path stroke="null" fill="#e5e5e5" d="m160.160961,131.873392c-0.212828,-0.353191 0.379477,-0.914819 0.7449,-0.700591c-0.198772,0.277922 -0.437702,0.534611 -0.7449,0.700591z" id="svg_116"/>
   <path stroke="null" fill="#e5e5e5" d="m139.878019,131.273161c0.281096,0.843412 0.232906,1.762093 -0.032124,2.605501c0.028109,-0.868499 0.034134,-1.738931 0.032124,-2.605501z" id="svg_117"/>
   <path stroke="null" fill="#e5e5e5" d="m121.855877,132.851904c-0.309202,-0.23739 -0.056219,-0.966933 0.357392,-0.862711c-0.068268,0.304939 -0.188733,0.596369 -0.357392,0.862711z" id="svg_118"/>
   <path stroke="null" fill="#e5e5e5" d="m137.482698,131.863742c0.263022,0.58286 0.34936,1.260293 -0.012046,1.825783c0.034131,-0.607951 0.034131,-1.217832 0.012046,-1.825783z" id="svg_119"/>
   <path stroke="null" fill="#e5e5e5" d="m146.317082,133.523546c0.006021,-0.569352 0.112437,-1.132913 0.36542,-1.648224c-0.070272,0.557773 -0.192751,1.109751 -0.36542,1.648224z" id="svg_120"/>
   <path stroke="null" fill="#e5e5e5" d="m124.126715,132.790144c0.04618,-0.266339 0.138539,-0.53847 0.377469,-0.700591c0.257001,0.22002 -0.032124,0.808671 -0.377469,0.700591z" id="svg_121"/>
   <path stroke="null" fill="#e5e5e5" d="m156.560949,133.979023c-0.281093,-0.19107 -0.212828,-0.860779 0.178697,-0.84727c0.012046,0.29143 -0.056219,0.579002 -0.178697,0.84727z" id="svg_122"/>
   <path stroke="null" fill="#e5e5e5" d="m124.114669,136.022896c-0.642502,-0.737261 -0.401564,-1.76981 -0.154603,-2.60936c0.002007,0.73919 -0.196765,1.540141 0.132518,2.238799c0.349357,0.590581 1.132405,0.4825 1.730735,0.544261c-0.558171,0.11966 -1.270948,0.29336 -1.70865,-0.1737z" id="svg_123"/>
   <path stroke="null" fill="#e5e5e5" d="m148.342965,136.049916c-0.214835,-0.89359 -0.050194,-1.802621 0.265032,-2.651821c-0.070275,0.88587 -0.166648,1.767881 -0.265032,2.651821z" id="svg_124"/>
   <path stroke="null" fill="#e5e5e5" d="m130.770574,136.024825c-0.257001,-0.791301 -0.263025,-1.654009 0.016063,-2.439522c-0.014056,0.812533 -0.01807,1.625063 -0.016063,2.439522z" id="svg_125"/>
   <path stroke="null" fill="#e5e5e5" d="m121.516558,136.215895c-0.257001,-0.725678 -0.250979,-1.518912 0,-2.242661c0.004014,0.74691 0,1.493821 0,2.242661z" id="svg_126"/>
   <path stroke="null" fill="#e5e5e5" d="m127.154499,134.976835c0.678643,-0.20072 1.405469,-0.11773 2.098168,-0.034741c-1.001901,-0.133168 -1.999784,0.102292 -2.73866,0.785513c0.198772,-0.260551 0.371445,-0.550052 0.640492,-0.750772z" id="svg_127"/>
   <path stroke="null" fill="#e5e5e5" d="m146.064095,136.972455c-0.273061,-0.64848 -0.325265,-1.39539 -0.038148,-2.047732c0.020078,0.681291 0.03012,1.364511 0.038148,2.047732z" id="svg_128"/>
   <path stroke="null" fill="#e5e5e5" d="m155.565076,137.912368c0.214835,-0.988162 0.36542,-1.995624 0.720805,-2.949042c-0.152595,0.965001 -0.289127,1.931931 -0.39755,2.904652c0.61841,0.032808 1.238824,0.061758 1.861245,0.084919c-0.72683,0.086851 -1.463695,0.075269 -2.184503,-0.040529l0.000003,0z" id="svg_129"/>
   <path stroke="null" fill="#e5e5e5" d="m116.860434,135.679355c0.889461,-0.094569 1.786956,-0.067549 2.670392,0.059831c-0.116451,0.27406 -0.232906,0.54812 -0.349357,0.824109c-0.008032,-0.270198 -0.01807,-0.536541 -0.03012,-0.80288c-0.714781,-0.003859 -1.427554,-0.01737 -2.136313,-0.071411l-0.154603,-0.00965z" id="svg_130"/>
   <path stroke="null" fill="#e5e5e5" d="m197.614733,136.302747c0.606361,-0.362841 1.307089,-0.71989 2.045964,-0.532682c1.321142,0.20844 2.716572,1.291171 2.477642,2.703932c-0.030116,0.702523 -0.728837,1.049923 -1.274962,1.366441c-3.031799,1.638571 -6.107773,3.213452 -9.322283,4.496903c-4.174246,1.862453 -8.487031,3.425755 -12.841981,4.844306c-1.461688,0.339679 -2.84708,0.92061 -4.304753,1.266081c-1.282994,0.303009 -2.5178,0.777789 -3.822879,0.99395c-1.238821,0.216161 -2.419416,0.652342 -3.654223,0.87622c-2.043954,0.380211 -4.065823,0.860782 -6.12584,1.154142c-2.007816,0.441972 -4.065826,0.573211 -6.085688,0.945701c-2.863143,0.326171 -5.732311,0.64655 -8.613524,0.77586c-2.339103,0.29143 -4.704308,0.18335 -7.055459,0.202649c-2.792868,-0.021229 -5.587747,0.050182 -8.378608,-0.040529c-3.375137,-0.285642 -6.776374,-0.386002 -10.121395,-0.934122c-3.059908,-0.339679 -6.105763,-0.773931 -9.125515,-1.347141c-3.487574,-0.744978 -6.997234,-1.41469 -10.42859,-2.375832c-6.591655,-1.78911 -13.060831,-3.997033 -19.321196,-6.672015c-0.271057,-0.133168 -0.516009,-0.306868 -0.760963,-0.47478c0.17468,-0.198791 0.353374,-0.39372 0.532072,-0.588651c5.786522,2.288983 11.715597,4.247934 17.75711,5.817027c11.155416,2.8178 22.682281,4.375311 34.225205,4.263372c3.282778,0.021229 6.565553,-0.05404 9.838292,-0.32038c2.160408,-0.05404 4.28869,-0.45548 6.443077,-0.594443c16.85761,-2.09791 33.333734,-7.393835 47.918499,-15.82601z" id="svg_131"/>
   <path stroke="null" fill="#e5e5e5" d="m134.10756,136.163787c0.473846,-0.028953 0.949697,-0.028953 1.427557,0.001929l0.194758,0.040529c-0.596322,0.14668 -1.222758,0.14668 -1.817073,0l0.194758,-0.042458z" id="svg_132"/>
   <path stroke="null" fill="#e5e5e5" d="m142.933913,137.852537c0.140549,-0.590581 0.299166,-1.1773 0.491917,-1.754372c-0.01807,0.642692 -0.1285,1.279592 -0.271057,1.906843c-0.861351,0.021229 -1.72672,0.021229 -2.584058,-0.067552c0.787066,-0.007717 1.576135,-0.02702 2.363198,-0.084919z" id="svg_133"/>
   <path stroke="null" fill="#e5e5e5" d="m118.691563,137.893066c0.150585,-0.333888 0.309202,-0.663918 0.447741,-1.001668c-0.068264,0.376349 -0.140546,0.752698 -0.216846,1.13098c-0.861351,-0.013512 -1.722703,-0.00965 -2.582047,-0.0193c0.06425,-0.248972 0.130508,-0.496012 0.202789,-0.741122c0.008032,0.15633 0.026102,0.470921 0.036141,0.62918c0.702735,0.03667 1.407477,0.034741 2.112218,0.001932l0.000003,-0.000003z" id="svg_134"/>
   <path stroke="null" fill="#e5e5e5" d="m150.872811,137.225286c0.170666,-0.14475 0.345346,-0.287568 0.520023,-0.42846c-0.006021,0.360911 -0.012046,0.723752 -0.01606,1.088522c0.642499,0.011579 1.287008,0.025088 1.931517,0.038599c-0.694703,0.11773 -1.401455,0.111939 -2.102183,0.086848c-0.112437,-0.26441 -0.22086,-0.526891 -0.333297,-0.78551z" id="svg_135"/>
   <path stroke="null" fill="#e5e5e5" d="m123.703066,138.140109c0.967767,-0.042461 1.935534,-0.10808 2.89527,-0.239322c-0.905524,0.376352 -1.939549,0.517241 -2.89527,0.239322z" id="svg_136"/>
   <path stroke="null" fill="#e5e5e5" d="m161.086566,137.937456c0.893475,-0.038599 1.78896,-0.038599 2.684446,-0.021229c-0.887454,0.148609 -1.796992,0.171771 -2.684446,0.021229z" id="svg_137"/>
   <path stroke="null" fill="#e5e5e5" d="m133.336561,138.111156c0.716788,0.003862 1.435586,0.003862 2.154384,-0.00965c-0.69671,0.23739 -1.459681,0.27406 -2.154384,0.00965z" id="svg_138"/>
   <path stroke="null" fill="#e5e5e5" d="m147.415356,138.111156c0.574234,0.009653 1.148469,0.009653 1.72672,0.001932c-0.550142,0.252828 -1.178588,0.23739 -1.72672,-0.001932z" id="svg_139"/>
   <path stroke="null" fill="#e5e5e5" d="m108.552098,87.792161l0.140546,0.001929c0.636477,0.04439 1.274965,0.086848 1.915457,0.075269l-0.014056,0.18335c-0.10842,1.223623 -0.036138,2.453033 -0.06425,3.680515c-0.764978,0.021229 -1.535977,0.034737 -2.286898,0.193c-0.317237,0.179488 -0.580259,0.440039 -0.779034,0.733399c-0.158617,0.640762 -0.178694,1.302751 -0.136529,1.958954l0.19074,0.017367c0.999894,0.05404 2.001792,0.005791 3.003692,0.02702l0,0.193003c0,1.046061 -0.03012,2.095981 0.050194,3.143971c-1.01194,-0.065619 -2.027894,-0.096501 -3.03983,-0.04632l-0.180705,0.01737c-0.102398,4.944663 -0.006025,9.893188 -0.032124,14.83978c-1.612276,0.02702 -3.222545,0.02702 -4.832811,-0.001929c-0.028109,-4.944663 0.078306,-9.895117 -0.032127,-14.837851l-0.180702,-0.015441c-0.849306,-0.04439 -1.698611,-0.003859 -2.547917,-0.0193c0.006025,-1.109751 0.028109,-2.221432 -0.070275,-3.329253c0.869383,0.034741 1.742784,0.075272 2.614174,0.028953l0.180705,-0.015441c0.068264,-0.968862 0.014056,-1.941581 0.008032,-2.912372c0.232906,-1.655942 1.465705,-3.228893 3.212503,-3.597522c0.961743,-0.084922 1.921478,-0.204582 2.881214,-0.31845z" id="svg_140"/>
   <path stroke="null" fill="#e5e5e5" d="m85.030551,88.073941c1.656449,-0.15633 3.324943,-0.00965 4.987414,-0.09264c0.124483,3.188362 0.01807,6.382514 0.052201,9.572805c0.010039,5.095205 -0.01807,10.192339 0.014056,15.287543c-1.59822,-0.048252 -3.19845,0.040529 -4.79667,-0.052111c-0.032124,-0.687082 -0.078303,-1.374161 -0.138539,-2.059311c-0.052201,0.065619 -0.158617,0.196858 -0.210821,0.262478c-1.483773,1.837362 -4.031689,2.812012 -6.412957,2.290913c-0.453766,-0.113869 -0.907531,-0.22002 -1.363307,-0.314588c-1.529956,-0.3281 -2.718579,-1.449433 -3.636152,-2.611292c-0.929616,-1.262222 -1.495822,-2.757972 -1.744791,-4.280746c-0.030116,-1.76981 0.010039,-3.541552 -0.032124,-5.313292l0.08031,-0.14668c0.136532,-0.152471 0.190743,-0.3281 0.160627,-0.524961c0.206804,-1.547861 1.122367,-2.945184 2.188518,-4.089672c2.007813,-2.092122 5.423106,-2.732884 8.125625,-1.613484c1.088236,0.42074 1.805027,1.349073 2.672403,2.061243c0.128497,-2.790783 0.050194,-5.585425 0.054208,-8.376209m-5.061699,10.003198c-1.640385,0.449692 -2.666378,1.955092 -2.993651,3.495233c-0.467822,1.302754 -0.650534,2.852544 0,4.126345c0.28511,1.55172 1.321142,3.115022 2.995658,3.512603c0.684667,0.189138 1.419526,0.235457 2.094151,-0.02702c1.351261,-0.362841 2.268831,-1.528561 2.752713,-2.736743c0.550142,-0.800951 0.546128,-1.791042 0.608368,-2.711652c0.004017,-0.598301 0.116454,-1.24871 -0.240937,-1.77753c-0.198772,-0.845341 -0.47585,-1.692611 -0.965757,-2.424084c-0.124486,-0.524958 -0.509987,-0.882008 -1.044066,-1.017108c-0.343336,-0.204582 -0.722812,-0.349332 -1.112328,-0.443901c-0.688682,-0.16405 -1.409487,-0.20072 -2.094151,0.003859z" id="svg_141"/>
   <path stroke="null" fill="#e5e5e5" d="m30.944046,88.060429c0.164641,0 0.491914,0.001929 0.654548,0.001929c1.33118,0.013512 2.660354,0.02702 3.989527,0.08106c0.070275,2.860265 -0.086335,5.726314 0.066257,8.584646c0.152595,-0.104219 0.30318,-0.21037 0.451758,-0.32038c1.158511,-1.617342 3.19644,-2.76376 5.282559,-2.481983c0.574237,0.059831 1.150479,0.106151 1.72672,0.158262c1.895379,0.31073 3.513677,1.58646 4.51156,3.130463c0.455773,0.723749 0.927609,1.484171 1.019971,2.343021c-0.00201,0.233531 0.068264,0.459342 0.194758,0.660062c0.178694,0.351258 0.261015,0.743049 0.273061,1.134839c-0.008032,1.451363 -0.052201,2.904652 -0.04618,4.356015c-0.257001,2.358461 -1.385392,4.684112 -3.286792,6.228114c-0.602344,0.49215 -1.303071,0.897452 -2.078088,1.073081c-1.61629,0.29143 -3.274746,0.270201 -4.889027,-0.013512c-1.301064,-0.30108 -2.158401,-1.347141 -3.114122,-2.159671c-0.050194,0.673571 -0.050194,1.351003 -0.004014,2.024573c-1.614283,-0.09071 -3.232581,0.01737 -4.846864,-0.069481c0.006025,-0.133171 0.01807,-0.395649 0.024092,-0.52882c0.086338,-8.067405 -0.048187,-16.136743 0.070275,-24.202219m7.846539,10.014777c-1.339212,0.285642 -2.302962,1.443642 -2.708541,2.647962c-0.363416,-0.088778 -0.536089,0.526891 -0.200782,0.6562c-0.142557,0.362841 -0.226884,0.744981 -0.269047,1.129051c-0.301173,0.772001 -0.353378,1.675241 -0.002007,2.441454c0.188733,1.764019 1.094257,3.690162 2.995658,4.249864c0.746907,0.303009 1.588181,0.25476 2.337096,-0.023161l0.146571,-0.079131c0.224874,0.314592 0.913556,-0.003859 0.716791,-0.366699c1.186617,-0.573211 1.736759,-1.864382 2.045961,-3.035891c0.214838,-0.374423 0.335307,-0.789371 0.343336,-1.215902c0.042165,-1.171512 0.092359,-2.422152 -0.516006,-3.481724c-0.409596,-1.306609 -1.393423,-2.497421 -2.778815,-2.92009c-0.692696,-0.179491 -1.421533,-0.20072 -2.110214,-0.001932z" id="svg_142"/>
   <path stroke="null" fill="#e5e5e5" d="m154.249956,89.602502c1.539994,-0.019303 3.084003,-0.08106 4.61998,0.06369c0.126493,1.594181 0.010039,3.194153 0.062243,4.790263c0.995876,-0.01737 1.99376,-0.028949 2.991643,-0.023161c0.054211,1.032553 0.056219,2.067031 0.004014,3.099584c-0.999891,0.015441 -1.999781,0.032808 -2.997665,0.057899c-0.03012,2.624804 0.01807,5.249605 -0.006025,7.876335c-0.014053,0.986233 -0.1285,1.989833 0.126493,2.960625c0.160624,0.216158 0.363413,0.407228 0.600336,0.551978c0.626439,0.123521 1.268937,0.13703 1.909432,0.138962c0.092359,0 0.273061,0.001929 0.363413,0.001929c0.034134,1.227481 0.054211,2.45496 0.002007,3.68437c-1.546016,0.046323 -3.094042,0.061761 -4.63805,0c-1.560072,-0.125448 -3.144239,-1.217828 -3.194433,-2.823592c0.014053,-0.268269 0.032124,-0.536541 0.056219,-0.80288c0.092359,-3.887023 -0.040155,-7.783696 0.076296,-11.672648c-0.102398,0.011579 -0.307195,0.03667 -0.409593,0.048249c-0.766985,-0.01737 -1.531963,-0.00965 -2.294933,-0.003859c-0.032124,-1.032553 -0.040155,-2.063173 -0.01807,-3.095722c0.859344,-0.030882 1.720699,-0.04439 2.584058,-0.040532c0.148578,-1.601901 -0.024095,-3.213452 0.162634,-4.811495l0,0.000003z" id="svg_143"/>
   <path stroke="null" fill="#e5e5e5" d="m58.332644,94.051153c0.983827,-0.272131 2.041947,-0.231599 3.041837,-0.069478c0.293142,0.077199 0.594315,0.125451 0.899503,0.113869c1.385392,0.0193 2.682438,0.650412 3.754611,1.453292c1.939549,1.48803 2.935425,3.858073 3.154278,6.187585c0.040155,0.974651 0.006025,1.949301 -0.052204,2.923952c-4.346916,0.148609 -8.701866,-0.005791 -13.052799,0.07334c0.088342,0.650409 0.214835,1.296959 0.463804,1.910702c0.287117,0.689008 0.542108,1.439781 1.136423,1.949301c0.564196,0.47478 1.270948,0.75849 1.981714,0.96693c0.777024,0.204582 1.652431,0.28178 2.355166,-0.179491c0.383491,-0.21809 0.752929,-0.461268 1.142444,-0.671638c0.287117,-0.131242 0.542111,-0.35512 0.596322,-0.669712c0.068264,-0.21809 0.136532,-0.434251 0.204797,-0.652342c1.682548,-0.00965 3.367106,-0.04632 5.049654,0.02702l0.168656,0.005791c-0.734858,2.649892 -2.907313,5.064323 -5.792543,5.568055c-0.706752,0.079128 -1.409487,0.18335 -2.106197,0.322309c-0.688682,0.123521 -1.403462,0.12738 -2.092144,-0.001929c-0.69671,-0.14475 -1.399445,-0.252831 -2.106197,-0.3474c-2.507758,-0.629183 -4.642068,-2.694282 -5.170122,-5.147316c-0.120469,-0.754631 -0.325265,-1.493821 -0.562188,-2.221432c-0.022085,-0.115801 -0.06425,-0.351262 -0.084328,-0.467059c0.006025,-1.576811 0.106416,-3.149762 0.257001,-4.718855c0.281093,-1.455222 0.895485,-2.98185 2.082105,-3.968083c0.267036,-0.160188 0.505967,-0.35705 0.688679,-0.60216c0.538093,-0.68322 1.363307,-1.107819 2.210605,-1.329771c0.61439,-0.129309 1.228782,-0.272131 1.831126,-0.45548m0.752929,4.014403c-1.311103,0.41881 -2.262807,1.576811 -2.541892,2.854473c-0.453766,-0.00965 -0.385501,0.937981 0.058226,0.827971l0.196768,-0.011579c1.845182,0.086848 3.694378,0.00965 5.53956,0.050178c0.564196,0.01737 1.132405,-0.013509 1.688572,-0.11001c-0.200782,-1.044132 -0.421642,-2.244593 -1.381378,-2.906581c0.22086,-0.357053 -0.451758,-0.723752 -0.688682,-0.397581c-0.184719,-0.113872 -0.375459,-0.21037 -0.576241,-0.287571c-0.740883,-0.250898 -1.548026,-0.225808 -2.294933,-0.0193z" id="svg_144"/>
   <path stroke="null" fill="#e5e5e5" d="m120.237579,93.941144c0.483882,-0.05404 0.973789,-0.05404 1.459681,-0.00772c0.580259,0.05597 1.162525,0.094572 1.744791,0.131242c0.939658,0.121589 1.953605,0.270198 2.710551,0.864641c0.152592,0.16405 0.34735,0.287568 0.57022,0.35512c1.146462,0.55777 1.937538,1.754372 2.076077,2.970271c-0.120469,2.659541 -0.034131,5.322945 -0.06224,7.984416c0.026102,1.503471 -0.104409,3.026244 0.216842,4.510415c0.232906,0.735328 0.833245,1.28538 1.212722,1.949301c-1.807034,0.229669 -3.626114,0.09264 -5.439169,0.152468l-0.210821,0.005791c-0.044173,-0.260551 -0.086338,-0.51917 -0.120469,-0.777789c-0.066257,-0.480571 -0.136532,-0.959213 -0.214838,-1.433993c-0.295149,0.250902 -0.58628,0.505662 -0.861351,0.773931c-1.485783,1.582602 -3.834924,2.124933 -5.98128,1.964742c-1.37736,0.015441 -2.702516,-0.55777 -3.680322,-1.474521c-1.353268,-1.15993 -1.849199,-3.082214 -1.431572,-4.747805c0.096374,-0.277919 0.154599,-0.56549 0.154599,-0.85692c0.271057,-2.113351 2.413395,-3.690162 4.531638,-3.942992c1.120359,-0.048249 2.23269,-0.204579 3.320926,-0.47478c0.124483,-0.0193 0.375459,-0.059831 0.499945,-0.079131c0.636477,-0.069478 1.282994,-0.138959 1.88333,-0.372491c0.536086,-0.193 0.96375,-0.580931 1.258899,-1.044129c0.232909,-0.295292 0.259008,-0.750772 0.012049,-1.044132c-0.305188,-0.39372 -0.640495,-0.773931 -1.058119,-1.059573c-0.823203,-0.416878 -1.778925,-0.440039 -2.680431,-0.312659c-0.588291,0.08299 -1.142447,0.299151 -1.696604,0.49408c-0.277078,0.059831 -0.495931,0.275992 -0.522033,0.550052c-0.096374,0.36477 -0.186726,0.731469 -0.275068,1.100101l-0.176687,-0.011582c-1.485783,-0.075269 -2.97759,0.038602 -4.463373,-0.084919c-0.042165,-0.123518 -0.126493,-0.366699 -0.168656,-0.490221c0.106413,-1.428201 0.680647,-3.020453 1.983721,-3.827192c0.212828,-0.084919 0.389515,-0.231602 0.520023,-0.414952c0.417625,-0.44583 1.03001,-0.71989 1.648414,-0.779719c0.206807,0.017367 0.383494,-0.04439 0.534079,-0.183353c0.281096,-0.181417 0.632463,-0.202649 0.961743,-0.239319c0.580259,-0.038599 1.162525,-0.08299 1.742784,-0.14668m3.224552,10.439378c-0.857337,0.11966 -1.674519,0.416881 -2.5178,0.59251c-0.254994,-0.285639 -1.048081,-0.231599 -1.072173,0.187211c-0.985838,0.125448 -2.043957,0.578999 -2.487684,1.48803c-0.530062,1.11168 0.042165,2.520582 1.142447,3.095722c0.668601,0.268272 1.429564,0.241252 2.102183,-0.00772c1.056109,-0.21037 1.989743,-0.816388 2.714565,-1.56909c0.620414,-0.397581 0.574234,-1.152212 0.598326,-1.785251c0.096377,-0.698661 0.024095,-1.406972 -0.028109,-2.105631c0.06425,-0.374423 -0.65053,-0.212302 -0.451755,0.104219z" id="svg_145"/>
   <path stroke="null" fill="#e5e5e5" d="m141.116843,93.935356c0.516006,-0.038602 1.052095,-0.121592 1.560072,0.023158c0.160624,0.125451 0.34735,0.171771 0.556164,0.135101c0.919577,0.021229 1.895376,0.258619 2.620198,0.82218c0.140546,0.1737 0.329279,0.3088 0.556164,0.36477c1.303071,0.544261 2.198556,1.742793 2.766766,2.954833c0.323258,0.845341 0.748918,1.762093 0.483885,2.676912c-1.574128,-0.187211 -3.162309,0.01737 -4.740452,-0.106151c-0.10842,-0.185279 -0.214835,-0.370558 -0.319241,-0.55584c-0.261018,-0.459339 -0.507977,-0.924469 -0.768995,-1.381882c-0.12649,-0.287568 -0.391523,-0.496009 -0.704742,-0.561628c-0.271054,-0.084922 -0.540101,-0.171771 -0.813165,-0.231602c-0.638485,-0.11773 -1.295039,-0.11966 -1.933524,-0.011579c-1.817073,0.422669 -2.513786,2.269681 -2.818974,3.844562c-0.299163,1.252572 -0.327272,2.570764 0.010039,3.819474c0.281096,1.015179 0.646516,2.082472 1.4898,2.802363c0.558171,0.51145 1.335195,0.68322 2.064032,0.843412c0.357392,0.098428 0.750925,0.052108 1.074183,-0.129313c1.212719,-0.467059 2.140331,-1.484171 2.35918,-2.734811c1.638378,-0.667779 3.449426,-0.177562 5.168115,-0.32038l0.162634,-0.001929c-0.329283,1.289239 -0.602344,2.630592 -1.375353,3.75771c-1.499839,2.397064 -4.553722,3.705603 -7.412851,3.385223c-0.897492,-0.152468 -1.803016,-0.262481 -2.710551,-0.326171c-1.825101,-0.260548 -3.391198,-1.426269 -4.421208,-2.858332c-0.511991,-0.72954 -0.997884,-1.52277 -1.112328,-2.40864c0.016063,-0.198791 -0.042165,-0.37442 -0.17468,-0.523032c-0.17468,-0.478639 -0.263025,-0.982371 -0.291135,-1.4861c0.04618,-1.3317 -0.008029,-2.661471 -0.01807,-3.991242c0.279089,-2.175112 1.210715,-4.354085 2.943457,-5.832465c1.114338,-0.982371 2.527839,-1.709982 4.053777,-1.833503c0.582266,-0.034737 1.166542,-0.071407 1.746801,-0.135097z" id="svg_146"/>
   <path stroke="null" fill="#e5e5e5" d="m173.241873,93.931494c0.487899,-0.050178 0.985838,-0.079131 1.473737,0.0193c0.69671,0.148612 1.403462,0.258622 2.116236,0.330033c2.146355,0.333888 3.955393,1.781389 5.146027,3.47593c0.596322,0.957283 1.142447,2.011062 1.190634,3.145904c-0.012046,0.289501 0.052204,0.573211 0.15862,0.843412l0.044169,0.15633c0.020081,1.08466 0.026102,2.17125 0.062243,3.257843c-0.028109,0.133168 -0.082321,0.397578 -0.108423,0.530749c-0.104405,0.214232 -0.162631,0.44583 -0.144561,0.68322c-0.162634,1.764022 -1.210712,3.358203 -2.465596,4.610775c-1.015954,0.941839 -2.274856,1.72542 -3.682332,1.968601c-0.714784,0.07334 -1.42555,0.179491 -2.12226,0.3474c-0.684664,0.150542 -1.399448,0.129309 -2.084112,0.00965c-0.76096,-0.152471 -1.527945,-0.25669 -2.29694,-0.34547c-1.776914,-0.36477 -3.308877,-1.480309 -4.431247,-2.821662c-0.353374,-0.451618 -0.744897,-0.909031 -0.903517,-1.462939c0.004017,-0.198791 -0.068264,-0.366703 -0.216842,-0.501803c-0.228891,-0.277919 -0.327272,-0.625318 -0.399554,-0.963068c-0.11244,-0.611813 -0.240937,-1.219761 -0.389519,-1.821921c-0.098381,-0.395652 -0.116451,-0.804812 -0.058226,-1.206252c0.172673,-1.063431 0.194758,-2.140371 0.194758,-3.215382c0.307198,-1.352932 0.819189,-2.742531 1.786956,-3.792454c0.485889,-0.463201 0.967767,-0.932189 1.447635,-1.401181c1.09225,-0.92254 2.491698,-1.545929 3.94134,-1.700329c0.580256,-0.040532 1.160515,-0.084922 1.740773,-0.146683m-0.714781,4.157224c-0.748914,0.229669 -1.477751,0.596372 -1.983721,1.186953c-0.730844,0.854988 -1.072173,1.958951 -1.210712,3.041682c-0.391526,0.8299 -0.373455,1.847012 0.038148,2.66533l0.042162,0.1544c-0.33129,0.165983 -0.226881,0.866573 0.180705,0.826041c0.204797,1.49575 1.393423,2.840962 2.927393,3.215382c0.72683,0.320383 1.546019,0.212302 2.298948,0.03667c1.562079,-0.266339 2.734643,-1.526629 3.176362,-2.943251c0.481875,-0.623389 0.447744,-1.426272 0.473843,-2.163533c0.008032,-0.73919 0.058229,-1.509259 -0.277078,-2.196341l-0.070272,-0.1544c0.319241,-0.125451 0.166648,-0.723749 -0.184719,-0.654271c-0.210821,-1.464871 -1.475744,-2.634451 -2.921369,-3.032032c-0.813168,-0.206511 -1.686565,-0.239319 -2.489691,0.01737z" id="svg_147"/>
   <path stroke="null" fill="#e5e5e5" d="m196.721255,93.916053c0.120469,-0.001929 0.361409,-0.003859 0.479868,-0.003859c0.216846,0.059831 0.431681,0.121589 0.650534,0.189141c0.028109,1.464871 0.034134,2.929743 -0.004017,4.394614c-0.821193,0.032808 -1.646407,0.057899 -2.449533,0.231599c-1.007922,0.285639 -2.106197,0.6948 -2.6724,1.601901c-0.421642,0.652342 -0.608368,1.41469 -0.736868,2.165462c-0.240937,1.430131 -0.138539,2.88149 -0.150585,4.323203c-0.010042,1.984042 0.01606,3.966151 -0.012049,5.950192l-0.002007,0.169841c-1.612276,-0.057899 -3.226556,-0.013509 -4.836825,-0.02702l0.020078,-0.18335c0.146571,-1.065361 0.070275,-2.138442 0.084328,-3.207661c-0.006021,-5.016074 0.010042,-10.032147 -0.012046,-15.048221c1.51791,-0.11773 3.03983,-0.092643 4.55774,-0.011582c0.008032,1.017112 -0.120469,2.070893 0.265032,3.047473c0.120469,-0.241249 0.244952,-0.480571 0.371445,-0.71989c0.060233,-0.094569 0.178694,-0.28371 0.23893,-0.378282c0.166648,-0.148609 0.30318,-0.326168 0.383491,-0.534608c0.415618,-0.787442 1.238821,-1.343282 2.100176,-1.617342c0.572227,-0.123521 1.146462,-0.239319 1.72471,-0.341612z" id="svg_148"/>
   <path stroke="null" fill="#e5e5e5" d="m198.833476,94.429435l0.194758,-0.001929c1.803016,0 3.61005,-0.084922 5.409053,0.048249l0.160624,0.00965c0.371448,1.711911 0.987848,3.363994 1.469723,5.048885c0.397547,1.34907 0.951704,2.667262 1.180595,4.054932c-0.022088,0.196861 0.036138,0.370561 0.174677,0.5211c0.493924,1.001671 0.68065,2.109492 1.048081,3.157483c0.138539,0.56549 0.546125,-0.032808 0.465812,-0.341609c0.152595,-1.071152 0.556167,-2.084402 0.847298,-3.124675c0.252986,-0.8106 0.403572,-1.6598 0.79108,-2.42601c0.124483,-0.198791 0.194758,-0.424601 0.194758,-0.65813c0.425656,-2.126863 1.268937,-4.166874 1.742784,-6.287945c1.750812,-0.0193 3.501628,-0.042461 5.252443,-0.00772l0.176687,0.001929c-1.720699,4.400405 -3.234591,8.872218 -4.9071,13.28999c-0.520023,1.219761 -0.803126,2.534094 -1.44161,3.703673c-0.162631,0.221952 -0.289124,0.470921 -0.307195,0.744981c-0.45979,2.009132 -1.287008,3.942992 -2.268831,5.764913c-0.670608,1.314333 -2.170447,2.041944 -3.660244,2.018782c-1.146465,-0.067549 -2.294933,-0.077199 -3.443402,-0.05597c-0.04819,-1.19467 -0.04819,-2.391273 -0.016063,-3.587872c0.684664,-0.034741 1.371336,-0.06369 2.051986,-0.158262l0.15661,-0.025088c0.473846,-0.052111 0.925605,-0.248972 1.176581,-0.660062c0.26704,-0.503729 0.453766,-1.044132 0.700728,-1.557511c0.196765,-0.31845 0.198772,-0.717961 -0.028109,-1.02097c-0.361409,-0.650412 -0.694706,-1.333633 -0.79108,-2.070893c0.010039,-0.198788 -0.052204,-0.370558 -0.190743,-0.515308c-0.720805,-1.351003 -1.124377,-2.835174 -1.692587,-4.247934c-1.477751,-3.873514 -2.951488,-7.748955 -4.44731,-11.616678z" id="svg_149"/>
   <path stroke="null" fill="#e5e5e5" d="m158.106968,126.338148c0.758953,-0.028949 1.517906,-0.038599 2.27887,-0.02702c-0.072282,0.86657 -0.2048,1.742793 -0.576245,2.545673c-0.124483,0.206511 -0.170663,0.443901 -0.134522,0.681291c0.026099,0.397578 -0.080314,0.787439 -0.210821,1.161859c-0.226884,0.613742 -0.323258,1.260293 -0.351367,1.908772c0.070272,-0.057899 0.214835,-0.171771 0.287117,-0.229669c0.240937,-0.18335 0.499945,-0.34547 0.76096,-0.505662c0.307198,-0.165979 0.546125,-0.422669 0.7449,-0.700591c0.558171,-0.681291 1.194648,-1.345212 1.991753,-1.76981c0.903517,0.02702 1.811048,0.042458 2.716572,-0.00965c-1.162525,1.117468 -2.557955,1.991759 -3.692371,3.132392c0.016063,0.50952 0.23893,0.98623 0.425656,1.457151c0.556164,1.30468 1.001901,2.649892 1.600227,3.937201l-0.176687,-0.003859c-0.895485,-0.01737 -1.790971,-0.01737 -2.684449,0.021229c-0.419632,-1.179229 -0.839264,-2.356532 -1.260906,-3.533832c-0.52404,0.241252 -0.973792,0.604089 -1.339212,1.038341c-0.200782,0.1544 -0.226884,0.41109 -0.208814,0.642692c-0.004014,0.636901 -0.164641,1.26029 -0.321251,1.875961l-0.206804,-0.00772c-0.622421,-0.023158 -1.242838,-0.052111 -1.861245,-0.084919c0.108423,-0.972721 0.244955,-1.939651 0.397547,-2.904652c0.056222,-0.33775 0.148581,-0.667782 0.275071,-0.9843c0.122479,-0.268272 0.190743,-0.555843 0.178697,-0.847274c0.008032,-0.426528 0.060233,-0.85692 0.226881,-1.252569c0.108423,-0.214232 0.170666,-0.44583 0.158617,-0.68322c0.026102,-0.696732 0.202789,-1.378023 0.445737,-2.030361c0.120469,-0.29143 0.182712,-0.598301 0.208811,-0.909031l0.032127,-0.189141c0.078303,-0.299151 0.138539,-0.60216 0.164641,-0.909031c0.030116,-0.275989 0.08031,-0.54812 0.130508,-0.82025z" id="svg_150"/>
   <path stroke="null" fill="#e5e5e5" d="m124.969999,129.404921c0.947686,-0.138959 1.907422,-0.212299 2.867157,-0.233531c0.740883,0.216161 1.499839,0.594443 1.9014,1.260293c0.30318,0.590581 0.291135,1.26801 0.365424,1.910702c-0.835252,-0.10036 -1.887347,0.216158 -2.5178,-0.470921c-0.339321,-0.331962 -0.63246,-0.841482 -1.200673,-0.752702c-0.783048,-0.075269 -1.357283,0.507591 -1.881323,0.970792c-0.23893,0.162121 -0.33129,0.434248 -0.377469,0.700591c-0.052201,0.206508 -0.10842,0.414948 -0.166648,0.623389c-0.246959,0.83955 -0.487899,1.872102 0.154603,2.609363c0.437702,0.467059 1.150479,0.29336 1.70865,0.1737c0.240937,-0.140892 0.463804,-0.3088 0.690689,-0.468992c0.738876,-0.68322 1.736759,-0.918678 2.738657,-0.78551l0.230899,0.00772c-0.395537,1.366441 -1.5681,2.393202 -2.885228,2.950972c-0.959735,0.131242 -1.927503,0.196861 -2.89527,0.239319c-1.025993,-0.14668 -1.999781,-0.918678 -2.186507,-1.92421c0,-0.74884 0.004014,-1.49575 0,-2.242661c0.004014,-0.397581 0.134522,-0.781651 0.339318,-1.121333c0.168659,-0.266339 0.289127,-0.55777 0.357392,-0.862708c0.369438,-1.235202 1.53397,-2.153883 2.756731,-2.584272z" id="svg_151"/>
   <path stroke="null" fill="#e5e5e5" d="m130.786637,133.585303c0.377469,-2.105631 2.116236,-4.045282 4.364986,-4.383032c0.716791,-0.015441 1.437596,-0.01737 2.156394,-0.00772c1.158511,0.179491 2.228673,0.980442 2.570001,2.07861c0.00201,0.86657 -0.004014,1.737002 -0.032124,2.605501c-0.383494,2.063173 -2.156394,3.921763 -4.35495,4.222843c-0.718798,0.013512 -1.437596,0.013512 -2.154384,0.009653c-1.178588,-0.10808 -2.256785,-0.992021 -2.565987,-2.086334c-0.002007,-0.814459 0.002007,-1.626989 0.016063,-2.439522m3.909213,-2.19055c-0.883439,0.449689 -1.278976,1.41276 -1.503853,2.296701l-0.04618,-0.187211c-0.168656,0.658133 -0.158617,1.347141 0.012046,2.005274l0.016063,-0.177562c0.160627,0.40144 0.554157,0.63883 0.933633,0.831833l-0.194758,0.042458c0.594315,0.14668 1.22075,0.14668 1.817073,0l-0.194758,-0.040529c1.070165,-0.41881 1.678533,-1.437851 1.935531,-2.476192c0.361409,-0.56549 0.275071,-1.242922 0.012049,-1.825783c-0.656555,-0.797089 -1.88333,-0.94763 -2.786847,-0.468989z" id="svg_152"/>
   <path stroke="null" fill="#e5e5e5" d="m147.104144,129.408779l0.158617,0.005791c0.756946,0.030879 1.51791,0.025091 2.276863,-0.015441c-0.333297,1.327841 -0.534079,2.686562 -0.931626,3.998965c-0.315226,0.8492 -0.479868,1.758231 -0.265032,2.651821c0.969774,0.378282 2.226666,0.36477 2.91133,-0.5018c0.931626,-1.24099 0.69872,-2.896931 1.301064,-4.269163c0.120469,-0.266339 0.194761,-0.551982 0.188736,-0.841482c0.014053,-0.355117 0.052201,-0.706379 0.092359,-1.055711c0.773006,0.034741 1.548026,0.032811 2.323039,0l0.206807,-0.005788c-0.116454,0.275989 -0.226884,0.55584 -0.357392,0.827971c-0.124483,0.20072 -0.184719,0.430389 -0.168656,0.66585c-0.26704,2.37969 -1.058119,4.678324 -1.35929,7.056085l-0.172673,-0.001929c-0.644509,-0.013512 -1.289018,-0.02702 -1.931517,-0.038599c0.004014,-0.36477 0.010039,-0.727611 0.01606,-1.088522c-0.174677,0.140892 -0.349357,0.28371 -0.520023,0.42846c-0.485889,0.430389 -1.056109,0.818321 -1.730735,0.887802c-0.578252,0.007717 -1.152486,0.007717 -1.72672,-0.001932c-0.602347,-0.14668 -1.12237,-0.586719 -1.351261,-1.138701c-0.008032,-0.68322 -0.01807,-1.366441 -0.038148,-2.047732c0.012046,-0.480568 0.152595,-0.943769 0.291135,-1.401181c0.17267,-0.53847 0.295149,-1.090448 0.36542,-1.648221c0.106416,-0.827971 0.287117,-1.644359 0.421642,-2.466542z" id="svg_153"/>
   <path stroke="null" fill="#e5e5e5" d="m117.015037,135.689004c0.708759,0.05404 1.421533,0.067552 2.136313,0.071411c0.012049,0.266343 0.022088,0.532682 0.03012,0.80288c-0.010039,0.08106 -0.032127,0.24511 -0.042165,0.3281c-0.138539,0.337753 -0.297156,0.667782 -0.447741,1.001671c-0.704745,0.032811 -1.409487,0.034741 -2.112221,-0.001929c-0.010039,-0.158259 -0.028109,-0.472851 -0.036141,-0.62918c-0.020078,-0.559699 0.250976,-1.071152 0.471836,-1.572952z" id="svg_154"/>
   <path stroke="null" fill="#e5e5e5" d="m141.104794,135.683216c0.80915,0.10808 1.628339,0.088781 2.441504,0.038599c-0.03012,0.094569 -0.090352,0.28178 -0.120469,0.376349c-0.192751,0.577072 -0.351367,1.163791 -0.491917,1.754372c-0.787062,0.057899 -1.576132,0.077199 -2.363198,0.084919c0.132518,-0.762348 0.30318,-1.51505 0.534079,-2.25424z" id="svg_155"/>
   <path stroke="null" fill="#e5e5e5" opacity="0.18" d="m108.692647,87.79409c0.634467,-0.096501 1.31311,-0.221949 1.915454,0.075269c-0.640492,0.011579 -1.278976,-0.030879 -1.915454,-0.075269z" id="svg_156"/>
   <path stroke="null" fill="#e5e5e5" opacity="0.18" d="m30.628819,88.089379l0.248969,0.001932c0.022085,8.057755 0.036141,16.115511 -0.004014,24.171337c-0.006025,0.133171 -0.018074,0.395649 -0.024095,0.52882c1.614283,0.086848 3.232581,-0.021229 4.846864,0.069481c-0.409596,0.123518 -0.83726,0.175629 -1.264923,0.162118c-1.264923,-0.021229 -2.527839,0.009653 -3.790755,-0.05404c-0.096374,-4.815351 -0.012046,-9.632637 -0.040155,-14.44992c0.022085,-3.475933 -0.040155,-6.953796 0.028109,-10.429729z" id="svg_157"/>
   <path stroke="null" fill="#e5e5e5" opacity="0.18" d="m110.594045,88.052709c0.327275,1.266081 0.098384,2.591993 0.108423,3.883164c-0.819189,0.050178 -1.642393,0.050178 -2.459571,-0.00965c0.750922,-0.158262 1.521921,-0.171771 2.286898,-0.193c0.028109,-1.227481 -0.044169,-2.456892 0.06425,-3.680515z" id="svg_158"/>
   <path stroke="null" fill="#e5e5e5" opacity="0.18" d="m102.269648,94.635946c0.056219,-0.974654 -0.168659,-1.989833 0.188733,-2.927813c0.006025,0.970789 0.060236,1.94351 -0.008032,2.912372l-0.180702,0.015441z" id="svg_159"/>
   <path stroke="null" fill="#e5e5e5" opacity="0.18" d="m142.676912,93.958514c0.261018,-0.235461 0.445737,-0.189141 0.556167,0.135101c-0.208814,0.03667 -0.39554,-0.00965 -0.556167,-0.135101z" id="svg_160"/>
   <path stroke="null" fill="#e5e5e5" opacity="0.18" d="m110.521766,94.855966l0.200779,-0.013512c-0.032124,1.049923 0.2048,2.140371 -0.150585,3.157483c-0.080314,-1.04799 -0.050194,-2.09791 -0.050194,-3.143971z" id="svg_161"/>
   <path stroke="null" fill="#e5e5e5" opacity="0.18" d="m102.273662,97.955547l0.180705,0.015441c0.11043,4.942734 0.004014,9.893188 0.032124,14.837851c1.610269,0.028949 3.220535,0.028949 4.832811,0.001929c0.026102,-4.946592 -0.070275,-9.895117 0.032124,-14.83978l0.180705,-0.01737c-0.036141,5.006424 0.050194,10.012848 -0.042165,15.017342c-1.724713,0.06369 -3.451434,0.059828 -5.176144,0.001929c-0.082321,-5.004494 -0.006025,-10.010918 -0.040158,-15.017342z" id="svg_162"/>
   <path stroke="null" fill="#e5e5e5" opacity="0.18" d="m153.874494,99.870107c0.014056,-0.690938 -0.11043,-1.418548 0.210821,-2.06317c0.124486,0.874291 0.070275,1.76016 0.092359,2.642171c-0.024092,2.910443 0.032127,5.820886 -0.028109,8.729397c-0.024092,0.266339 -0.042162,0.534611 -0.056219,0.80288c-0.33129,-0.551978 -0.204797,-1.206249 -0.222867,-1.812271c0.01807,-2.767622 0.012046,-5.533315 0.004014,-8.299004l0,-0.000003z" id="svg_163"/>
   <path stroke="null" fill="#e5e5e5" opacity="0.18" d="m71.829173,100.617021c-0.23893,-0.258622 -0.184719,-0.434251 0.160624,-0.524961c0.030116,0.196861 -0.024095,0.372491 -0.160624,0.524961z" id="svg_164"/>
   <path stroke="null" fill="#e5e5e5" opacity="0.18" d="m177.938152,101.10338c0.351367,-0.069481 0.50396,0.52882 0.184719,0.654271c-0.126493,-0.198791 -0.186726,-0.424601 -0.184719,-0.654271z" id="svg_165"/>
   <path stroke="null" fill="#e5e5e5" opacity="0.18" d="m132.178051,103.925042c0.016063,-0.731469 -0.078303,-1.48803 0.194758,-2.18862c0.010039,1.329771 0.06425,2.659541 0.01807,3.991242c-0.289124,-0.563561 -0.206804,-1.198532 -0.212828,-1.802621z" id="svg_166"/>
   <path stroke="null" fill="#e5e5e5" opacity="0.18" d="m123.462128,104.380522c-0.198772,-0.316521 0.516009,-0.478642 0.451758,-0.104219c-0.112437,0.02702 -0.337311,0.079128 -0.451758,0.104219z" id="svg_167"/>
   <path stroke="null" fill="#e5e5e5" opacity="0.18" d="m63.942476,107.207975c1.20469,-0.030882 2.409377,-0.015441 3.614068,-0.030882c0.489907,0.011579 1.028,-0.059828 1.451649,0.23739c-1.682548,-0.07334 -3.367106,-0.03667 -5.049654,-0.02702l-0.016063,-0.179488z" id="svg_168"/>
   <path stroke="null" fill="#e5e5e5" opacity="0.18" d="m132.682013,107.213763c0.132515,0.148612 0.190743,0.324241 0.17468,0.523032c-0.353378,-0.084919 -0.409596,-0.258622 -0.17468,-0.523032z" id="svg_169"/>
   <path stroke="null" fill="#e5e5e5" opacity="0.18" d="m135.151624,129.202271c0.666597,-0.322312 1.485783,-0.32038 2.156394,-0.00772c-0.718798,-0.00965 -1.439603,-0.00772 -2.156394,0.00772z" id="svg_170"/>
   <path stroke="null" fill="#e5e5e5" opacity="0.18" d="m156.966528,131.879183c-0.307195,-0.131242 -0.200779,-0.733402 0.15862,-0.68322c0.012046,0.23739 -0.050197,0.468989 -0.15862,0.68322z" id="svg_171"/>
   <path stroke="null" fill="#e5e5e5" opacity="0.18" d="m127.58618,131.871463c0.630453,0.687079 1.682548,0.370561 2.5178,0.470921c-0.80915,0.260548 -1.666488,0.169838 -2.497723,0.121589c-0.006025,-0.148609 -0.016063,-0.443901 -0.020078,-0.59251z" id="svg_172"/>
   <path stroke="null" fill="#e5e5e5" opacity="0.18" d="m133.145818,133.504243l0.04618,0.187211c0.044173,0.54619 0.026102,1.09431 -0.01807,1.640501l-0.016063,0.177562c-0.170663,-0.658133 -0.180702,-1.347141 -0.012046,-2.005274z" id="svg_173"/>
   <path stroke="null" fill="#e5e5e5" opacity="0.18" d="m158.277631,136.084656c-0.01807,-0.231602 0.008032,-0.488291 0.208814,-0.642692c0.265032,0.148612 0.116451,0.70252 -0.208814,0.642692z" id="svg_174"/>
   <path stroke="null" fill="#e5e5e5" opacity="0.18" d="m140.934131,135.663917c0.861351,-0.165983 1.762861,-0.187211 2.612167,0.057899c-0.813168,0.050182 -1.632354,0.069481 -2.441504,-0.038599l-0.170663,-0.0193z" id="svg_175"/>
  </g>
  <g id="svg_181">
   <rect id="svg_177" height="247" width="7.362724" y="0.8284" x="0.523927" stroke-opacity="null" stroke-width="null" stroke="null" fill="#e5e5e5"/>
   <rect stroke="null" id="svg_178" height="246.956542" width="7.273092" y="1.697957" x="241.653148" stroke-opacity="null" stroke-width="null" fill="#e5e5e5"/>
   <rect stroke="null" transform="rotate(-90 124.0796356201172,245.13943481445312) " id="svg_179" height="246.778801" width="7.362724" y="121.75003" x="120.398268" stroke-opacity="null" stroke-width="null" fill="#e5e5e5"/>
   <rect stroke="null" transform="rotate(-90 125,4.259651184082025) " id="svg_180" height="246.778801" width="7.362724" y="-119.129753" x="121.318632" stroke-opacity="null" stroke-width="null" fill="#e5e5e5"/>
  </g>
 </g>
</svg>