<?xml version="1.0" encoding="utf-8"?>
<!-- Generator: Adobe Illustrator 15.0.0, SVG Export Plug-In . SVG Version: 6.00 Build 0)  -->
<!DOCTYPE svg PUBLIC "-//W3C//DTD SVG 1.1//EN" "http://www.w3.org/Graphics/SVG/1.1/DTD/svg11.dtd">
<svg version="1.1" id="Layer_1" xmlns="http://www.w3.org/2000/svg" xmlns:xlink="http://www.w3.org/1999/xlink" x="0px" y="0px"
	 width="27px" height="20px" viewBox="0 0 27 20" enable-background="new 0 0 27 20" xml:space="preserve">
<path fill="#54575B" d="M19.777,4.938c-0.898-0.977-2.133-1.512-3.478-1.512c-1.004,0-1.922,0.316-2.73,0.941
	c-0.41,0.316-0.777,0.703-1.105,1.152C12.141,5.07,11.77,4.683,11.36,4.367c-0.809-0.625-1.727-0.941-2.73-0.941
	c-1.344,0-2.578,0.539-3.477,1.512c-0.891,0.96-1.38,2.281-1.38,3.707c0,1.469,0.547,2.816,1.723,4.234
	c1.051,1.27,2.566,2.559,4.316,4.051c0.598,0.508,1.277,1.086,1.98,1.703c0.188,0.164,0.426,0.254,0.672,0.254
	s0.484-0.09,0.672-0.254c0.703-0.617,1.383-1.195,1.98-1.703c1.75-1.492,3.262-2.781,4.315-4.051
	c1.176-1.418,1.723-2.762,1.723-4.234C21.156,7.219,20.668,5.898,19.777,4.938z"/>
<text transform="matrix(1 0 0 1 20.0947 6.5996)" fill="#54575B" font-family="'Arial-BoldMT'" font-size="5.6053">+</text>
</svg>
