<svg viewBox="0 0 195 124.62" xmlns="http://www.w3.org/2000/svg"><path d="m164.49 48.21-6.43 6.66h12.86z" fill="#e6332a"/><path d="m116.46 51.46-14.04-14.55-13.62 14.11 3.85 3.96 20.26.02z" fill="#a3195b"/><path d="m102.42 35.34 14.81 15.35 4.9-4.88 10.91-11.17-33.43-34.64-30.09 31.18 18.52 19.05z" fill="#e6007e"/><path d="m142.94 25.89-8.29 8.59 19.67 20.39h2.13l7.24-7.49z" fill="#8678a9"/><path d="m186.52 54.87-14.23-14.74-7 7.25 7.23 7.49z" fill="#e6332a"/><path d="m19.44 40.13-14.23 14.74h9.11l9.67-10.02z" fill="#00998c"/><path d="m133.84 35.32-18.87 19.55h37.75z" fill="#a01881"/><path d="m53.43 16.01-27.83 28.84 9.67 10.02h9.63l23.02-23.84z" fill="#009fe3"/><path d="m24.79 45.68-8.87 9.19h17.75z" fill="#00998c"/><path d="m68.72 31.86-22.21 23.01h44.42z" fill="#014778"/><g fill="#616160" transform="translate(-3.23 -2.07)"><path d="m7.61 71.76a7.13 7.13 0 0 1 6.84-6h3.27c2.91 0 6.13 0 8.47 1.63a6.85 6.85 0 0 1 2.91 6.71c-.35 2.65-1.81 5.38-5 6 3.22.88 5.08 3.44 4.55 7.41a10.41 10.41 0 0 1 -3.22 6.14c-2.92 2.78-6.53 3-10.06 3h-11.24zm9.18 11.12h-4.79l-1.19 8.47h5.38c3.22 0 5.78-.44 6.4-4.41.47-3.66-2.59-4.06-5.8-4.06zm-4.1-4.94h4.23c2.43 0 5.61 0 6.09-3.44.4-2.87-1.5-3.44-5-3.44h-3.01a1.66 1.66 0 0 0 -1.59 1.54z"/><path d="m45.56 94.53a10 10 0 0 1 -6.56 2.65c-4.59 0-7.54-3.09-7.06-7.59a8.88 8.88 0 0 1 7.73-7.5l7.74-1.09c.13-2.25-3.31-3-4.85-3a16.5 16.5 0 0 0 -6.31 1.37h-.62l.71-5.12a26.7 26.7 0 0 1 7-1.15c5.3 0 10.19 2 9.53 7.81l-2.2 15.8h-5.38zm-4.86-2.29a11.23 11.23 0 0 0 5.21-1.59l.71-5.21c-1.94.35-3.89.53-5.92.93a3.45 3.45 0 0 0 -3.08 2.91c-.31 2.16 1.23 2.96 3.08 2.96z"/><path d="m63.51 89.28c-.26 2 1 2.87 2.65 2.87a9.07 9.07 0 0 0 3.49-.93h.88l-.71 4.9a15.33 15.33 0 0 1 -5 1c-5.47 0-7.54-3.09-6.75-8.56l1.41-10.19h-2.54l.66-4.85h2.52l.79-5.43h5.6l-.79 5.43h5.91l-.63 4.86h-5.94z"/><path d="m81.82 75a15.83 15.83 0 0 1 6.93-2c4.68 0 7.68 3.57 7 8.56l-2.14 15.09h-5.61l2-14.56c.35-2.25-.44-4-2.91-4a13.22 13.22 0 0 0 -6 1.81l-2.31 16.75h-5.6l4.54-32.35h5.6z"/><path d="m115.14 78.34h-.75c-1.81-.8-4.86 0-6.76 1.14l-2.42 17.17h-5.61l3.27-23.12h5.43l-.22 1.5a18.12 18.12 0 0 1 7.81-2z"/><path d="m128.15 73c6.53 0 10.32 5.16 9.31 12.49s-6.13 11.6-12.71 11.6-10.41-5.09-9.35-12.4 6.18-11.69 12.75-11.69zm-2.74 19.11c3.18 0 5.65-2.74 6.27-7.06s-1.15-7.05-4.28-7.05-5.65 2.73-6.22 7.06 1.1 7.09 4.23 7.09z"/><path d="m153.87 73c6.53 0 10.33 5.16 9.31 12.49s-6.13 11.6-12.71 11.6-10.41-5.09-9.35-12.4 6.18-11.69 12.75-11.69zm-2.73 19.11c3.17 0 5.64-2.74 6.26-7.06s-1.15-7.05-4.28-7.05-5.65 2.73-6.22 7.06 1.1 7.09 4.24 7.09z"/><path d="m192.43 82.48c.27-1.81.4-4.28-2.07-4.19-1.46 0-2.87 1.24-3.93 2.25l-2.25 16.11h-5.51l2-14.17c.27-1.76.4-4.19-1.94-4.19a7.73 7.73 0 0 0 -4.15 1.85l-2.29 16.51h-5.6l3.22-23.12h5.47l-.18 1.54a7.87 7.87 0 0 1 4.72-2 6.16 6.16 0 0 1 5.43 2.65 10.35 10.35 0 0 1 6.16-2.72c4.85 0 7.28 3.79 6.62 8.69l-2.08 15h-5.6z"/><path d="m11.49 126.38-4.2-12.85-.69 12.85h-3.37l.89-17.19a2.55 2.55 0 0 1 2.45-2.51 2.88 2.88 0 0 1 2.75 2l4.12 12.46 4-12.46a2.57 2.57 0 0 1 2.62-2 2.54 2.54 0 0 1 2.64 2.5l.89 17.17h-3.69l-.56-13.1-4.17 13.1z"/><path d="m43.23 106.6c5.37 0 9.24 4 9.24 10s-3.87 10-9.24 10-9.21-4-9.21-10 3.84-10 9.21-10zm0 16.66c3.26 0 5.37-2.53 5.37-6.62 0-3.67-2.11-6.65-5.37-6.65s-5.34 2.56-5.34 6.65 2.11 6.62 5.34 6.62z"/><path d="m74.72 106.91h3.39v11c0 2.28-.11 4.23-1.47 6a7.6 7.6 0 0 1 -6.15 2.7 7.49 7.49 0 0 1 -6.4-3.12 10.14 10.14 0 0 1 -1.2-5.62v-11h3.76v12.18a5.07 5.07 0 0 0 .72 3 4.29 4.29 0 0 0 3.29 1.22 4 4 0 0 0 3.34-1.42 4.75 4.75 0 0 0 .72-2.73z"/><path d="m95.05 108.32 7.6 11.91v-13.32h3.35v19.47h-3.59l-9-14.1v14.1h-3.34v-17.14a2.41 2.41 0 0 1 2.25-2.56 3.15 3.15 0 0 1 2.73 1.64z"/><path d="m115.35 110.3v-3.39h14.47v3.39h-5.4v16.08h-3.75v-16.08z"/><path d="m142.81 108.41a2.75 2.75 0 0 1 2.58-1.73 2.7 2.7 0 0 1 2.56 1.73l6.82 18h-4l-1.67-4.53-3.81-10.6-5.51 15.13h-3.72z"/><path d="m168.26 126.38h-3.76v-19.47h3.76z"/><path d="m185.48 108.32 7.59 11.91v-13.32h3.39v19.47h-3.58l-9-14.1v14.1h-3.38v-17.14a2.41 2.41 0 0 1 2.25-2.56 3.18 3.18 0 0 1 2.73 1.64z"/></g></svg>