<?xml version="1.0" encoding="utf-8"?>
<!-- Generator: Adobe Illustrator 15.0.0, SVG Export Plug-In . SVG Version: 6.00 Build 0)  -->
<!DOCTYPE svg PUBLIC "-//W3C//DTD SVG 1.1//EN" "http://www.w3.org/Graphics/SVG/1.1/DTD/svg11.dtd">
<svg version="1.1" id="Layer_1" xmlns="http://www.w3.org/2000/svg" xmlns:xlink="http://www.w3.org/1999/xlink" x="0px" y="0px"
	 width="27px" height="20px" viewBox="0 0 27 20" enable-background="new 0 0 27 20" xml:space="preserve">
<g>
	<g>
		<path fill="#54575B" d="M21.637,12.6c-0.107-0.74-0.679-1.322-1.419-1.494c-2.868-0.669-3.59-2.325-3.712-4.157
			c-0.51-0.094-1.414-0.197-2.952-0.197c-1.537,0-2.441,0.103-2.952,0.197c-0.122,1.832-0.843,3.486-3.711,4.157
			c-0.736,0.172-1.312,0.748-1.42,1.494l-0.553,3.834C4.722,17.781,5.715,19,7.093,19h12.914c1.377,0,2.371-1.219,2.175-2.566
			L21.637,12.6L21.637,12.6z M13.559,16.207c-1.556,0-2.812-1.246-2.812-2.783s1.26-2.783,2.812-2.783
			c1.55,0,2.811,1.246,2.811,2.783C16.37,14.956,15.109,16.207,13.559,16.207z M24.637,5.636c-0.027-1.668-4.277-4.452-11.078-4.452
			c-6.801,0-11.054,2.784-11.082,4.452C2.454,7.304,2.5,9.479,5.303,9.117c3.275-0.426,3.074-1.564,3.074-3.2
			c0-1.139,2.666-1.415,5.183-1.415c2.516,0,5.182,0.276,5.182,1.415c0,1.635-0.201,2.778,3.074,3.2
			C24.611,9.479,24.664,7.309,24.637,5.636z"/>
	</g>
</g>
</svg>
