<svg class="payment-icon" alt="American Express" xmlns="http://www.w3.org/2000/svg" xmlns:xlink="http://www.w3.org/1999/xlink" width="55" height="35" viewBox="0 0 55 35"><defs><clipPath id="b"><rect width="55" height="35"></rect></clipPath></defs><g id="a" clip-path="url(#b)"><rect width="55" height="35" fill="#fff"></rect><g fill="#fff" stroke="#dfdfdf" stroke-width="0.5"><rect width="55" height="35" stroke="none"></rect><rect x="0.25" y="0.25" width="54.5" height="34.5" fill="none"></rect></g><g transform="translate(14 4)"><path d="M49.578,31.3l-.492-.657V31.3H47.362V30.152a2.4,2.4,0,0,1-.739.164h-.574V31.3H43.423l-.575-.657-.492.657h-4.35V27.2h4.35l.492.657.492-.657H59.262V13H33V24.079l.985-2.3h1.723l.575,1.313V21.781h2.134l.328.9.328-.9h9.52v.492a1.93,1.93,0,0,1,1.4-.492h3.036l.574,1.313V21.781H55.4l.492.739v-.739H57.7v4.1H55.9l-.492-.739v.739H52.778l-.246-.657h-.739l-.246.657H49.906a2.27,2.27,0,0,1-1.313-.41v.41H45.967l-.657-.657v.657H35.462l-.246-.657h-.739l-.246.657H33V39.262H59.262V30.973a1.76,1.76,0,0,1-.985.328Z" transform="translate(-33 -13)" fill="#006fcf"></path><path d="M63.126,39.387l.328-.657H61.813a.971.971,0,0,0-1.067.985.885.885,0,0,0,.985.9h.739a.246.246,0,0,1,0,.492H60.829v.657h1.559a.971.971,0,0,0,1.067-.985c0-.574-.328-.9-.985-.9h-.657a.246.246,0,1,1,0-.492Zm-4.432.328a.218.218,0,0,1,.246-.246h1.313l.328-.657H58.941a.971.971,0,0,0-1.067.985.885.885,0,0,0,.985.9H59.6a.246.246,0,1,1,0,.492H57.956v.657h1.559a.971.971,0,0,0,1.067-.985c0-.574-.328-.9-.985-.9h-.739C58.777,39.961,58.695,39.8,58.695,39.715Zm-3.611,2.134h2.544v-.657H55.9V40.7h1.723v-.657H55.9v-.492h1.723v-.657H55.084Zm-.082,0L54.017,40.7a.994.994,0,0,0-.246-1.97H52.047v3.119h.821V40.782H53.2l.9,1.067Zm-1.4-1.805h-.821v-.657h.821a.3.3,0,0,1,.328.328C54.017,39.879,53.853,40.044,53.607,40.044Zm-1.97-.246A.991.991,0,0,0,50.57,38.73H48.847v3.119h.821v-.985h.9A1.084,1.084,0,0,0,51.637,39.8Zm-.739,0a.353.353,0,0,1-.328.328h-.9v-.739h.9A.375.375,0,0,1,50.9,39.8Zm-2.134,2.052L47.534,40.29l1.231-1.559H47.78l-.739.985L46.3,38.73h-.9l1.231,1.559L45.4,41.849h.985l.739-.985.739.985Zm-5.991,0h2.544v-.657H43.594V40.7h1.723v-.657H43.594v-.492h1.723v-.657H42.774Z" transform="translate(-37.194 -24.041)" fill="#006fcf"></path><path d="M56.964,32.361V29.242h-.821V31.13l-1.231-1.888h-.985v3.119h.821v-1.97l1.313,1.97Zm-4.021,0h.9l-1.313-3.119h-.985l-1.313,3.119h.821L51.3,31.7h1.4Zm-.492-1.313h-.821l.41-1.067Zm-2.544-1.067h.821v-.739h-.9A1.4,1.4,0,0,0,48.347,30.8v.082a1.4,1.4,0,0,0,1.477,1.559h.082l.328-.657h-.246a.775.775,0,0,1-.821-.821v-.082C49.167,30.309,49.413,29.981,49.906,29.981ZM47.2,32.361h.821V29.324H47.2v3.036Zm-.164,0-.985-1.149a.994.994,0,0,0-.246-1.97H44.079v3.119H44.9V31.294h.328l.9,1.067ZM45.72,30.555H44.9V29.9h.821a.3.3,0,0,1,.328.328C46.049,30.473,45.967,30.555,45.72,30.555Zm-4.6,1.805h2.544V31.7H41.945v-.492h1.723v-.657H41.945v-.492h1.723v-.657H41.125Zm-1.313,0h.739V29.242H39.319l-.657,1.97-.657-1.97H36.775v3.119h.739v-2.3l.821,2.3h.657l.821-2.3Zm-4.021,0h.9L35.38,29.242H34.4L33,32.361h.821l.246-.657h1.4Zm-.575-1.313H34.4l.41-1.067Z" transform="translate(-33 -19.97)" fill="#006fcf"></path></g></g></svg>