<svg class="payment-icon" alt="Maestro" xmlns="http://www.w3.org/2000/svg" xmlns:xlink="http://www.w3.org/1999/xlink" width="55" height="35" viewBox="0 0 55 35"><defs><clipPath id="b"><rect width="55" height="35"></rect></clipPath></defs><g id="a" clip-path="url(#b)"><rect width="55" height="35" fill="#fff"></rect><g fill="#fff" stroke="#dfdfdf" stroke-width="0.5"><rect width="55" height="35" stroke="none"></rect><rect x="0.25" y="0.25" width="54.5" height="34.5" fill="none"></rect></g><g transform="translate(15 9)"><path d="M77.947,44.747l-.257-.257v0Z" transform="translate(-52.365 -31.571)" fill="#f5931e"></path><path d="M56.689,37.56H49.73V25h6.959Z" transform="translate(-40.367 -23.207)" fill="#6a69af"></path><path d="M43.15,30.164A8.672,8.672,0,0,1,46.221,23.7a7.96,7.96,0,1,0-4.864,14.238,6.725,6.725,0,0,0,4.864-1.81A6.912,6.912,0,0,1,43.15,30.164Z" transform="translate(-33.33 -21.869)" fill="#e31e26"></path><path d="M68.884,30.058a7.993,7.993,0,0,1-7.93,7.936,6.76,6.76,0,0,1-4.864-1.781,7.616,7.616,0,0,0,3.071-6.143,8.564,8.564,0,0,0-3.071-6.417,8.744,8.744,0,0,1,4.864-1.793,8.37,8.37,0,0,1,7.93,8.2Z" transform="translate(-43.096 -21.86)" fill="#1694d2"></path></g></g></svg>