<svg class="payment-icon" alt="PayPal" xmlns="http://www.w3.org/2000/svg" xmlns:xlink="http://www.w3.org/1999/xlink" width="55" height="35" viewBox="0 0 55 35"><defs><clipPath id="b"><rect width="55" height="35"></rect></clipPath></defs><g id="a" clip-path="url(#b)"><rect width="55" height="35" fill="#fff"></rect><g fill="#fff" stroke="#dfdfdf" stroke-width="0.5"><rect width="55" height="35" stroke="none"></rect><rect x="0.25" y="0.25" width="54.5" height="34.5" fill="none"></rect></g><g transform="translate(4 12)"><path d="M42.607,30.391H40.038a.331.331,0,0,0-.36.3L38.6,37.265c-.057.12.063.24.24.24H40.1a.331.331,0,0,0,.36-.3l.24-1.8a.377.377,0,0,1,.36-.3h.834a2.653,2.653,0,0,0,2.929-2.449,1.935,1.935,0,0,0-.354-1.673,2.444,2.444,0,0,0-1.855-.6Zm.3,2.449c-.177.959-.834.959-1.553.959h-.36l.24-1.713c0-.12.12-.177.24-.177h.206a1.638,1.638,0,0,1,1.142.234C42.967,32.241,42.967,32.543,42.9,32.84Z" transform="translate(-25.205 -27.879)" fill="#253c7f"></path><path d="M54.705,34.494H53.449c-.12,0-.183.057-.24.177l-.057.36-.063-.12a1.9,1.9,0,0,0-1.5-.537,2.815,2.815,0,0,0-2.746,2.506,2.352,2.352,0,0,0,.474,1.918,1.821,1.821,0,0,0,1.559.657,2.284,2.284,0,0,0,1.673-.731l-.063.36c-.057.12.063.24.24.24h1.079a.337.337,0,0,0,.36-.3l.657-4.242C54.945,34.614,54.825,34.494,54.705,34.494Zm-1.713,2.386a1.359,1.359,0,0,1-1.376,1.2.993.993,0,0,1-.834-.36,1.142,1.142,0,0,1-.183-.9,1.359,1.359,0,0,1,1.376-1.193,1.022,1.022,0,0,1,.839.354,1.011,1.011,0,0,1,.154.9Z" transform="translate(-29.59 -29.59)" fill="#253c7f"></path><path d="M66.363,34.59H65.107a.337.337,0,0,0-.3.177l-1.673,2.512-.714-2.392a.337.337,0,0,0-.36-.24h-1.21a.2.2,0,0,0-.177.3l1.376,4-1.256,1.793a.217.217,0,0,0,.177.36h1.256a.32.32,0,0,0,.3-.177l4.128-5.983C66.66,34.824,66.557,34.59,66.363,34.59Z" transform="translate(-34.671 -29.685)" fill="#253c7f"></path><path d="M74.859,30.4H72.29a.331.331,0,0,0-.36.3l-1.073,6.577c-.063.12.057.24.234.24H72.41a.223.223,0,0,0,.24-.24l.3-1.913a.377.377,0,0,1,.36-.3h.834a2.662,2.662,0,0,0,2.934-2.455,1.924,1.924,0,0,0-.36-1.673A2.854,2.854,0,0,0,74.859,30.4Zm.3,2.449c-.183.959-.839.959-1.559.959h-.36l.24-1.713c0-.12.12-.177.24-.177h.183a1.655,1.655,0,0,1,1.142.234.891.891,0,0,1,.114.7Z" transform="translate(-39.045 -27.883)" fill="#159ad6"></path><path d="M86.958,34.494H85.7c-.12,0-.177.057-.24.177l-.057.36-.063-.12a1.9,1.9,0,0,0-1.5-.537A2.82,2.82,0,0,0,81.1,36.881a2.335,2.335,0,0,0,.5,1.918,1.81,1.81,0,0,0,1.553.657,2.283,2.283,0,0,0,1.656-.731l-.063.36c-.057.12.063.24.24.24h1.079a.337.337,0,0,0,.36-.3l.657-4.242C87.2,34.614,87.077,34.494,86.958,34.494Zm-1.713,2.386a1.359,1.359,0,0,1-1.376,1.2,1,1,0,0,1-.834-.36,1.142,1.142,0,0,1-.183-.9,1.359,1.359,0,0,1,1.376-1.193,1.022,1.022,0,0,1,.794.354,1.228,1.228,0,0,1,.2.9Z" transform="translate(-43.431 -29.59)" fill="#159ad6"></path><path d="M93.072,30.6l-1.085,6.754c-.063.12.057.24.24.24H93.3a.331.331,0,0,0,.36-.3l1.073-6.577c.063-.12-.057-.24-.234-.24H93.3C93.192,30.426,93.129,30.483,93.072,30.6Z" transform="translate(-48.112 -27.914)" fill="#159ad6"></path><path d="M18.072,37.272l.183-1.256H15.68l1.5-9.266a.063.063,0,0,1,.063-.063.057.057,0,0,0,.057-.057h3.528a3.113,3.113,0,0,1,2.392.714,1.37,1.37,0,0,1,.354.719,2.443,2.443,0,0,1,0,.959v.3l.183.12a1.05,1.05,0,0,1,.417.3,2.654,2.654,0,0,1,.36.719,2.352,2.352,0,0,1-.057,1.073,2.426,2.426,0,0,1-.48,1.2,4.566,4.566,0,0,1-.657.776,2.038,2.038,0,0,1-.959.417,6.108,6.108,0,0,1-1.193.183h-.24a.97.97,0,0,0-.514.16.571.571,0,0,0-.234.48l-.063.12-.388,2.255v.063c0,.057,0,.057-.057.057h-.063A11.425,11.425,0,0,1,18.072,37.272Z" transform="translate(-15.376 -26.27)" fill="#253c7f"></path><path d="M25.469,31c0,.057-.057.177-.057.24-.48,2.4-2.1,3.243-4.133,3.243H20.211a.462.462,0,0,0-.48.417l-.537,3.351L19,39.2a.245.245,0,0,0,.24.3h1.873a.531.531,0,0,0,.48-.36v-.063L22,36.8l.057-.12a.451.451,0,0,1,.48-.354h.24a3.239,3.239,0,0,0,3.585-2.815,2.347,2.347,0,0,0-.36-2.09A1.781,1.781,0,0,0,25.469,31Z" transform="translate(-16.796 -28.145)" fill="#159ad6"></path><path d="M25.591,30.575a.36.36,0,0,0-.234-.057c-.063,0-.183-.063-.24-.063a4.441,4.441,0,0,0-.9-.057H21.406c-.057,0-.177,0-.177.057a.411.411,0,0,0-.24.36l-.6,3.705v.12a.508.508,0,0,1,.48-.417h1.079c2.032,0,3.642-.839,4.122-3.226,0-.063.063-.183.063-.24l-.36-.183Z" transform="translate(-17.397 -27.885)" fill="#252e64"></path><path d="M18.74,28.928a.8.8,0,0,1,.24-.36.229.229,0,0,1,.177-.057h2.815c.354,0,.657.057.9.057.057,0,.177.063.24.063s.177.057.234.057.063.063.12.063a1.923,1.923,0,0,1,.36.177,2.124,2.124,0,0,0-.48-2.032,3.545,3.545,0,0,0-2.689-.9H17.125a.457.457,0,0,0-.474.417l-1.5,9.386a.3.3,0,0,0,.3.36h2.215L18.2,32.7Z" transform="translate(-15.148 -25.999)" fill="#253c7f"></path></g></g></svg>