<svg class="payment-icon" alt="Visa" xmlns="http://www.w3.org/2000/svg" xmlns:xlink="http://www.w3.org/1999/xlink" width="55" height="35" viewBox="0 0 55 35"><defs><clipPath id="b"><rect width="55" height="35"></rect></clipPath></defs><g id="a" clip-path="url(#b)"><rect width="55" height="35" fill="#fff"></rect><g fill="#fff" stroke="#dfdfdf" stroke-width="0.5"><rect width="55" height="35" stroke="none"></rect><rect x="0.25" y="0.25" width="54.5" height="34.5" fill="none"></rect></g><g transform="translate(10 12)"><path d="M50.475,26.286c-2.74,0-4.653,1.462-4.653,3.557-.046,1.553,1.37,2.375,2.415,2.923s1.462.868,1.462,1.319c0,.731-.868,1.05-1.713,1.05a5.434,5.434,0,0,1-2.6-.571l-.365-.137-.342,2.4a8.8,8.8,0,0,0,3.1.571c2.855,0,4.79-1.462,4.836-3.694.046-1.233-.731-2.147-2.324-2.923-.959-.5-1.553-.822-1.553-1.319s.5-.913,1.6-.913a4.493,4.493,0,0,1,2.1.411l.274.091.365-2.358a9.072,9.072,0,0,0-2.6-.411Zm-8.564.183L40.2,37.19h2.769L44.68,26.468Zm-4.059,0L35.1,33.77l-.32-1.462a8.33,8.33,0,0,0-3.831-4.516l2.512,9.4h2.963L40.8,26.514l-2.974-.046Zm20.113,0a1.387,1.387,0,0,0-1.462.868L52.387,37.19h2.855s.5-1.324.571-1.644H59.37c.091.365.365,1.6.365,1.6h2.643L60.146,26.423l-2.192.046Zm.183,2.923.183.953s.571,2.558.639,3.106H56.629c.228-.639,1.1-3.014,1.1-3.014a6.143,6.143,0,0,0,.411-1.045Z" transform="translate(-28.124 -26.28)" fill="#2a2b6d"></path><path d="M30.47,26.61H26v.183a9.58,9.58,0,0,1,6.748,5.658l-1-4.927C31.566,26.838,31.11,26.656,30.47,26.61Z" transform="translate(-26 -26.422)" fill="#f4b41a"></path></g></g></svg>