<?xml version="1.0" encoding="utf-8"?>
<!-- Generator: Adobe Illustrator 23.0.1, SVG Export Plug-In . SVG Version: 6.00 Build 0)  -->
<svg version="1.1" id="Layer_1" xmlns="http://www.w3.org/2000/svg" xmlns:xlink="http://www.w3.org/1999/xlink" x="0px" y="0px"
	 viewBox="0 0 285 52" style="enable-background:new 0 0 285 52;" xml:space="preserve">
<style type="text/css">
	.st0{fill:#333E47;stroke:#333E47;stroke-width:1.5;}
	.st1{fill-rule:evenodd;clip-rule:evenodd;fill:#F8991D;}
	.st2{fill-rule:evenodd;clip-rule:evenodd;fill:#FFFFFF;}
</style>
<rect x="1" y="1" class="st0" width="284" height="50.2"/>
<path class="st1" d="M125,36c-6.7,4.9-16.3,7.5-24.6,7.5c-11.6,0-22.1-4.3-30.1-11.5c-0.6-0.6-0.1-1.3,0.7-0.9c8.6,5,19.1,8,30.1,8
	c7.4,0,15.5-1.5,22.9-4.7C125.2,34,126.1,35.2,125,36L125,36z"/>
<path class="st1" d="M127.8,32.9c-0.9-1.1-5.6-0.5-7.8-0.3c-0.6,0.1-0.7-0.5-0.2-0.9c3.8-2.7,10-1.9,10.8-1
	c0.7,0.9-0.2,7.2-3.8,10.1c-0.5,0.5-1.1,0.2-0.8-0.4C126.9,38.4,128.6,33.9,127.8,32.9L127.8,32.9z"/>
<g>
	<path class="st2" d="M120.2,12.8v-2.6c0-0.4,0.3-0.7,0.7-0.7l11.6,0c0.4,0,0.7,0.3,0.7,0.7v2.2c0,0.4-0.3,0.9-0.9,1.6l-6,8.6
		c2.2-0.1,4.6,0.3,6.6,1.4c0.5,0.3,0.6,0.6,0.6,1v2.8c0,0.4-0.4,0.8-0.9,0.6c-3.6-1.9-8.3-2.1-12.3,0c-0.4,0.2-0.8-0.2-0.8-0.6v-2.6
		c0-0.4,0-1.1,0.4-1.8l7-10l-6.1,0C120.5,13.5,120.2,13.2,120.2,12.8L120.2,12.8z"/>
	<path class="st2" d="M77.7,29h-3.5c-0.3,0-0.6-0.3-0.6-0.6l0-18.2c0-0.4,0.3-0.7,0.7-0.7l3.3,0c0.3,0,0.6,0.3,0.6,0.6v2.4h0.1
		c0.9-2.3,2.5-3.4,4.7-3.4c2.2,0,3.6,1.1,4.6,3.4c0.9-2.3,2.8-3.4,4.9-3.4c1.5,0,3.1,0.6,4.1,2c1.1,1.5,0.9,3.8,0.9,5.7l0,11.5
		c0,0.4-0.3,0.7-0.7,0.7h-3.5c-0.4,0-0.6-0.3-0.6-0.7l0-9.6c0-0.8,0.1-2.7-0.1-3.4c-0.3-1.2-1.1-1.6-2.1-1.6c-0.9,0-1.8,0.6-2.1,1.5
		c-0.4,0.9-0.3,2.4-0.3,3.5v9.6c0,0.4-0.3,0.7-0.7,0.7h-3.5c-0.4,0-0.6-0.3-0.6-0.7l0-9.6c0-2,0.3-5-2.2-5c-2.5,0-2.4,2.9-2.4,5
		l0,9.6C78.4,28.7,78.1,29,77.7,29L77.7,29z"/>
	<path class="st2" d="M143.2,12.9c-2.6,0-2.8,3.6-2.8,5.8c0,2.2,0,7,2.7,7c2.7,0,2.9-3.8,2.9-6.2c0-1.5-0.1-3.4-0.5-4.8
		C145.1,13.4,144.3,12.9,143.2,12.9L143.2,12.9z M143.2,9.2c5.3,0,8.1,4.5,8.1,10.3c0,5.5-3.1,10-8.1,10c-5.2,0-8-4.5-8-10.1
		C135.2,13.6,138.1,9.2,143.2,9.2L143.2,9.2z"/>
	<path class="st2" d="M158.1,29h-3.5c-0.4,0-0.6-0.3-0.6-0.7l0-18.2c0-0.3,0.3-0.6,0.7-0.6l3.3,0c0.3,0,0.6,0.2,0.6,0.5v2.8h0.1
		c1-2.5,2.4-3.7,4.8-3.7c1.6,0,3.1,0.6,4.1,2.1c0.9,1.5,0.9,3.9,0.9,5.7v11.4c0,0.3-0.3,0.6-0.7,0.6h-3.6c-0.3,0-0.6-0.3-0.6-0.6
		v-9.9c0-2,0.2-4.9-2.2-4.9c-0.9,0-1.7,0.6-2.1,1.5c-0.5,1.1-0.6,2.2-0.6,3.4v9.8C158.8,28.7,158.5,29,158.1,29L158.1,29z"/>
	<path class="st2" d="M114.5,29c-0.2,0.2-0.6,0.2-0.8,0.1c-1.2-1-1.4-1.4-2-2.4c-1.9,2-3.3,2.6-5.8,2.6c-3,0-5.3-1.8-5.3-5.5
		c0-2.9,1.6-4.8,3.8-5.8c1.9-0.8,4.6-1,6.7-1.2v-0.5c0-0.8,0.1-1.8-0.4-2.6c-0.4-0.7-1.3-0.9-2-0.9c-1.4,0-2.6,0.7-2.8,2.1
		c-0.1,0.3-0.3,0.6-0.6,0.7l-3.4-0.4c-0.3-0.1-0.6-0.3-0.5-0.7c0.8-4.1,4.4-5.4,7.8-5.4h0.3c1.7,0,3.9,0.5,5.2,1.8
		c1.7,1.6,1.6,3.8,1.6,6.1v5.5c0,1.7,0.7,2.4,1.3,3.3c0.2,0.3,0.3,0.7,0,0.9C116.5,27.2,115.2,28.4,114.5,29L114.5,29L114.5,29z
		 M110.9,20.3c0,1.4,0,2.5-0.7,3.8c-0.6,1-1.5,1.6-2.5,1.6c-1.4,0-2.2-1-2.2-2.6c0-3,2.7-3.6,5.3-3.6V20.3L110.9,20.3z"/>
	<path class="st2" d="M68,29c-0.2,0.2-0.6,0.2-0.8,0.1c-1.2-1-1.4-1.4-2-2.4c-1.9,2-3.3,2.6-5.8,2.6c-3,0-5.3-1.8-5.3-5.5
		c0-2.9,1.6-4.8,3.8-5.8c1.9-0.8,4.6-1,6.7-1.2v-0.5c0-0.8,0.1-1.8-0.4-2.6c-0.4-0.7-1.3-0.9-2-0.9c-1.4,0-2.6,0.7-2.8,2.1
		c-0.1,0.3-0.3,0.6-0.6,0.7l-3.4-0.4c-0.3-0.1-0.6-0.3-0.5-0.7c0.8-4.1,4.4-5.4,7.8-5.4h0.3c1.7,0,3.9,0.5,5.2,1.8
		c1.7,1.6,1.6,3.8,1.6,6.1v5.5c0,1.7,0.7,2.4,1.3,3.3c0.2,0.3,0.3,0.7,0,0.9C70,27.2,68.7,28.4,68,29L68,29L68,29z M64.4,20.3
		c0,1.4,0,2.5-0.7,3.8c-0.6,1-1.5,1.6-2.5,1.6c-1.4,0-2.2-1-2.2-2.6c0-3,2.7-3.6,5.3-3.6V20.3L64.4,20.3z"/>
</g>
<g>
	<path class="st1" d="M216.9,35.6c0-0.5,0-0.9,0-1.3c0-0.4,0.2-0.6,0.6-0.6c0.7,0.1,1.8,0.2,2.5,0.1c1-0.2,1.7-0.9,2.1-1.8
		c0.6-1.3,1-2.4,1.2-3.1L216,10.5c-0.1-0.3-0.2-0.9,0.5-0.9h2.6c0.5,0,0.7,0.3,0.8,0.6l5.3,14.8l5.1-14.8c0.1-0.3,0.3-0.6,0.8-0.6
		h2.4c0.6,0,0.6,0.6,0.5,0.9l-7.3,18.8c-0.9,2.5-2.2,6.5-5,7.2c-1.4,0.4-3.2,0.2-4.3-0.2C217,36.1,216.9,35.8,216.9,35.6L216.9,35.6
		z"/>
	<path class="st1" d="M213.5,27.9c0,0.3-0.3,0.6-0.6,0.6h-1.8c-0.4,0-0.7-0.3-0.7-0.6l-0.2-1.2c-0.8,0.7-1.9,1.3-3,1.8
		c-2.1,0.8-4.6,1-6.7-0.3c-1.5-0.9-2.3-2.7-2.3-4.6c0-1.4,0.4-2.9,1.4-3.9c1.3-1.4,3.2-2.1,5.5-2.1c1.4,0,3.4,0.2,4.8,0.6v-2.5
		c0-2.5-1.1-3.6-3.9-3.6c-2.1,0-3.8,0.3-6.1,1c-0.4,0-0.6-0.3-0.6-0.6V11c0-0.3,0.3-0.7,0.6-0.8c1.6-0.7,3.9-1.2,6.4-1.2
		c3.2,0,7,0.7,7,5.7V27.9L213.5,27.9z M210,24.3v-3.8c-1.2-0.3-3.2-0.5-4-0.5c-1.2,0-2.6,0.3-3.3,1.1c-0.5,0.6-0.8,1.4-0.8,2.1
		c0,1,0.3,2,1.2,2.5c0.9,0.6,2.4,0.6,3.8,0.2C208.2,25.5,209.4,24.9,210,24.3L210,24.3z"/>
	<path class="st1" d="M186.7,12.1c4,0,5.1,3.2,5.1,6.8c0,2.4-0.4,4.6-1.7,5.9c-0.9,0.9-2,1.2-3.6,1.2c-1.4,0-3.3-0.7-4.7-1.8V13.8
		C183.3,12.7,185.2,12.1,186.7,12.1L186.7,12.1z M181.2,36.2h-2.4c-0.3,0-0.6-0.3-0.6-0.6c0-8.5,0-16.9,0-25.4
		c0-0.3,0.3-0.6,0.6-0.6h1.9c0.4,0,0.7,0.3,0.7,0.6l0.2,1.3c1.7-1.5,4-2.5,6.1-2.5c6,0,8,4.9,8,10.1c0,5.5-3,9.9-8.1,9.9
		c-2.1,0-4.2-0.8-5.7-2.2v8.8C181.8,35.9,181.6,36.2,181.2,36.2L181.2,36.2z"/>
</g>
</svg>
