<svg width="133" height="60" xmlns="http://www.w3.org/2000/svg">

 <g>
  <title>background</title>
  <rect fill="none" id="canvas_background" height="402" width="582" y="-1" x="-1"/>
 </g>
 <g>
  <title>Layer 1</title>
  <polygon id="svg_1" points="68.953,2.143 48.64,22.361 61.158,34.821 70.835,25.19 80.883,35.188 91.521,24.605 " fill="#EB008B"/>
  <polygon id="svg_2" points="1.083,44.119 0.728,46.659 4.724,46.659 3.007,58.697 5.832,58.697 7.549,46.659 11.608,46.659   11.963,44.119 " fill="#ffffff"/>
  <path id="svg_3" d="m12.464,47.785l-1.548,10.912l2.657,0l1.547,-10.912l-2.656,0zm0.523,-3.666l-0.376,2.603l2.678,0l0.376,-2.603l-2.678,0z" fill="#ffffff"/>
  <path id="svg_5" d="m19.387,55.303c-0.146,0.938 0.461,1.292 1.255,1.292c0.565,0.021 1.13,-0.23 1.654,-0.48l0.334,0l-0.313,2.333c-0.836,0.271 -1.465,0.479 -2.322,0.479c-2.595,0 -3.579,-1.499 -3.201,-4.082l1.61,-11.393l2.658,0l-1.675,11.851z" fill="#ffffff"/>
  <path id="svg_6" d="m26.166,52.096l4.457,0c0.084,-1.375 -0.502,-2.228 -1.841,-2.25c-1.383,0 -2.303,0.999 -2.616,2.25m2.72,4.581c0.941,-0.021 2.029,-0.167 2.992,-0.687l0.334,0l-0.356,2.479c-1.234,0.354 -2.26,0.457 -3.494,0.457c-1.548,0 -3.118,-0.521 -4.143,-1.582c-0.857,-0.896 -1.235,-2.416 -1.151,-3.582c0.125,-1.832 0.628,-3.165 1.799,-4.479c1.046,-1.167 2.553,-1.728 4.143,-1.728c1.987,0 3.537,1.021 4.038,2.853c0.356,1.333 0.188,2.541 -0.042,3.874l-7.176,0c0.043,1.729 1.527,2.438 3.056,2.395" fill="#ffffff"/>
  <path id="svg_7" d="m51.292,49.596l-2.574,9.102l-3.745,0l-2.762,-9.102l-0.334,9.102l-3.181,0l0.711,-12.62c0.105,-1.146 1.318,-2.104 2.49,-2.104c1.255,0 2.322,0.666 2.615,1.665l2.616,8.831l2.448,-8.831c0.335,-1.208 1.424,-1.688 2.552,-1.688c1.297,0.022 2.303,0.916 2.387,2.209l0.731,12.537l-3.557,0l-0.397,-9.101z" fill="#ffffff"/>
  <path id="svg_8" d="m64.952,53.137c-0.021,-1.333 -0.544,-2.958 -2.071,-2.958c-1.57,0 -2.03,1.75 -2.073,2.958c-0.062,1.25 0.398,3.228 1.926,3.228c1.779,-0.001 2.28,-1.811 2.218,-3.228m3.453,0.062c0,3.561 -2.198,5.728 -5.692,5.728c-3.411,0 -5.399,-2.729 -5.356,-5.706c0,-3.332 2.259,-5.645 5.524,-5.645c3.431,0 5.524,2.48 5.524,5.623" fill="#ffffff"/>
  <path id="svg_9" d="m76.918,57.865c-0.753,0.769 -1.968,0.999 -2.532,0.999c-2.615,0 -4.163,-1.603 -4.269,-4.081l0,-6.999l3.348,0l0,7.061c0,0.686 0.378,1.479 1.317,1.479c0.606,0 1.633,-0.333 2.052,-0.604l0,-7.935l3.348,0l0,10.914l-3.264,0l0,-0.834z" fill="#ffffff"/>
  <path id="svg_10" d="m86.269,48.617c0.752,-0.771 1.967,-0.999 2.532,-0.999c2.615,0 4.163,1.603 4.268,4.082l0,6.998l-3.348,0l0,-7.062c0,-0.687 -0.377,-1.479 -1.318,-1.479c-0.608,0 -1.633,0.334 -2.052,0.604l0,7.937l-3.346,0l0,-10.914l3.264,0l0,0.833z" fill="#ffffff"/>
  <path id="svg_11" d="m99.154,50.492l0,4.749c0,0.749 0.647,1.082 1.255,1.082c0.712,0 1.361,-0.313 1.696,-0.479l0.419,0l0,2.624c-0.923,0.25 -1.737,0.458 -2.638,0.458c-0.963,-0.041 -2.156,-0.188 -2.908,-0.813c-0.901,-0.791 -1.171,-1.874 -1.171,-3.02l0,-4.603l-1.131,0l0,-2.708l1.131,0l0,-2.372l3.347,0l0,2.374l2.721,0l0,2.708l-2.721,0z" fill="#ffffff"/>
  <path id="svg_12" d="m107.585,56.448c0.69,0.021 1.359,-0.313 1.986,-0.688l0,-2.082l-1.986,0.354c-0.67,0.125 -1.235,0.416 -1.191,1.292c0.019,0.874 0.584,1.124 1.191,1.124m2.008,1.479c-0.648,0.729 -1.735,1.021 -2.638,1.021c-2.195,0 -3.911,-1.5 -3.911,-3.645c0.042,-1.937 1.401,-3.124 3.369,-3.395c0.963,-0.188 2.155,-0.271 3.158,-0.438c0,-0.75 -1.213,-1.375 -2.3,-1.375c-0.963,0 -2.052,0.291 -2.867,0.667l-0.439,0l0,-2.541c1.193,-0.354 2.344,-0.625 3.599,-0.625c2.763,0 5.273,0.916 5.356,3.852l0,7.249l-3.327,0l0,-0.77z" fill="#ffffff"/>
  <path id="svg_13" d="m115.64,58.698l3.347,0l0,-10.914l-3.347,0l0,10.914zm0,-11.872l3.347,0l0,-2.706l-3.347,0l0,2.706z" fill="#ffffff"/>
  <path id="svg_15" d="m125.075,48.617c0.752,-0.771 1.965,-0.999 2.53,-0.999c2.616,0 4.163,1.603 4.27,4.082l0,6.998l-3.349,0l0,-7.062c0,-0.687 -0.377,-1.479 -1.318,-1.479c-0.607,0 -1.633,0.334 -2.051,0.604l0,7.937l-3.348,0l0,-10.914l3.266,0l0,0.833z" fill="#ffffff"/>
  <polygon id="svg_16" points="98.203,19.027 92.601,24.605 105.885,37.823 107.323,37.823 112.209,32.964 " fill="#8D85CA"/>
  <polygon id="svg_17" points="127.622,37.823 118.012,28.262 113.291,32.964 118.173,37.823 " fill="#FF4338"/>
  <polygon id="svg_18" points="112.75,33.503 108.405,37.823 117.091,37.823 " fill="#FF4338"/>
  <polygon id="svg_19" points="14.829,28.262 5.222,37.823 11.373,37.823 17.903,31.32 " fill="#00B09A"/>
  <polygon id="svg_20" points="92.062,25.143 79.319,37.823 104.804,37.823 " fill="#8C189B"/>
  <polygon id="svg_21" points="37.773,12.626 18.987,31.32 25.52,37.823 32.022,37.823 47.555,22.362 " fill="#00ADEE"/>
  <polygon id="svg_22" points="18.447,31.862 12.456,37.823 24.435,37.823 " fill="#00B09A"/>
  <polygon id="svg_23" points="48.099,22.9 33.104,37.823 63.091,37.823 " fill="#004987"/>
  <polygon id="svg_24" points="70.834,26.389 61.735,35.448 64.134,37.823 78.202,37.823 80.259,35.769 " fill="#B00060"/>
 </g>
</svg>