<svg id="Layer_1" data-name="Layer 1" xmlns="http://www.w3.org/2000/svg" xmlns:xlink="http://www.w3.org/1999/xlink" viewBox="0 0 567.66 234.22">
  <defs>
    <style>
      .cls-1 {
        fill: none;
      }

      .cls-2 {
        clip-path: url(#clip-path);
      }

      .cls-3 {
        clip-path: url(#clip-path-2);
      }

      .cls-4 {
        fill: #27245e;
      }

      .cls-5 {
        fill: #231f20;
      }

      .cls-6 {
        fill: #eb008b;
      }

      .cls-7 {
        fill: #8d85ca;
      }

      .cls-8 {
        fill: #ff4338;
      }

      .cls-9 {
        fill: #00b09a;
      }

      .cls-10 {
        fill: #8c189b;
      }

      .cls-11 {
        fill: #00adee;
      }

      .cls-12 {
        fill: #004987;
      }

      .cls-13 {
        fill: #b00060;
      }
    </style>
    <clipPath id="clip-path" transform="translate(-35.86 -33)">
      <rect class="cls-1" x="-89.89" y="-53" width="1104.89" height="841.6"/>
    </clipPath>
    <clipPath id="clip-path-2" transform="translate(-35.86 -33)">
      <rect class="cls-1" x="-89.89" y="-53" width="1104.89" height="841.6"/>
    </clipPath>
  </defs>
  <title>flooring Mountain</title>
  <g class="cls-2">
    <g class="cls-3">
      <path class="cls-4" d="M53.43,203.55H77.2l-1.46,8.26H54.07a2.71,2.71,0,0,0-2.54,2.1l-1.44,8.2H67.63l-1.45,8.19H48.64L45,251H35.86l6.74-38.27a11.47,11.47,0,0,1,10.83-9.14" transform="translate(-35.86 -33)"/>
      <path class="cls-4" d="M84.13,239.92c-.54,3.05,1.36,4.2,3.93,4.2a12.53,12.53,0,0,0,5.42-1.56h1.08l-1.33,7.59a22.75,22.75,0,0,1-7.52,1.55c-8.4,0-11.4-4.87-9.92-13.27l6.53-37.05h8.6Z" transform="translate(-35.86 -33)"/>
      <path class="cls-4" d="M118.5,214.72c10,0,15.59,7.25,13.61,18.49s-10,18.49-20.13,18.49-15.72-7.24-13.74-18.49,10.17-18.49,20.26-18.49m-5.24,29.33c4.88,0,8.8-4.2,10-10.84s-1.35-10.83-6.15-10.83-8.8,4.2-10,10.83,1.34,10.84,6.14,10.84" transform="translate(-35.86 -33)"/>
      <path class="cls-4" d="M157.51,214.72c10,0,15.59,7.25,13.61,18.49s-10,18.49-20.13,18.49-15.72-7.24-13.74-18.49,10.17-18.49,20.26-18.49m-5.24,29.33c4.88,0,8.81-4.2,10-10.84s-1.34-10.83-6.14-10.83-8.8,4.2-10,10.83,1.34,10.84,6.14,10.84" transform="translate(-35.86 -33)"/>
      <path class="cls-4" d="M200.71,222.85h-1.15c-2.76-1.22-7.46.07-10.47,1.76L184.45,251h-8.6l6.25-35.49h8.33l-.4,2.3a28.78,28.78,0,0,1,12.12-3.05Z" transform="translate(-35.86 -33)"/>
      <path class="cls-4" d="M208.76,251h-8.6l6.26-35.49H215Zm6.94-39H207l1.49-8.46h8.67Z" transform="translate(-35.86 -33)"/>
      <path class="cls-4" d="M255.08,227.93,251,251h-8.6l3.9-22.15c.67-3.39-.47-6.16-4.26-6.16a20,20,0,0,0-9.32,2.91L228.26,251h-8.6l6.26-35.49h8.33l-.4,2.3c3.53-1.62,7.37-3.05,10.89-3.05,7.45,0,11.74,5.29,10.34,13.21" transform="translate(-35.86 -33)"/>
      <path class="cls-4" d="M291,249.2c-2.22,12.6-9.47,17.95-21.4,18a26,26,0,0,1-10-2.24l1.31-7.45H262a23.09,23.09,0,0,0,9,2.1c5.21,0,10.08-3.05,10.88-7.59l.36-2a15,15,0,0,1-7.14,1.69c-4.67,0-9-1.76-11.69-5.48-2.21-3.59-2.41-7.86-1.61-12.4a26.42,26.42,0,0,1,4.74-11.51c4.12-5.35,10.06-7.52,16.3-7.59h5.49a7.17,7.17,0,0,1,7.21,8.67Zm-5.91-26.82h-3a10.91,10.91,0,0,0-7.18,2.3c-2.7,2.23-3.58,6.1-4.19,9.14-.42,2.37-.52,5.29.48,7.25,1.08,2.37,3.24,3.18,5.88,3.18a26.36,26.36,0,0,0,6.37-.81l3.35-19a1.68,1.68,0,0,0-1.67-2.1" transform="translate(-35.86 -33)"/>
      <path class="cls-4" d="M333.63,250.77l-10-31.15-1.66,31.15h-8L316,209.11a6.11,6.11,0,0,1,5.84-6.07,6.9,6.9,0,0,1,6.58,4.85l9.82,30.21,9.5-30.21a6.38,6.38,0,0,1,12.55,1.28l2.13,41.6h-8.77L352.35,219l-10,31.75Z" transform="translate(-35.86 -33)"/>
      <path class="cls-5" d="M362.71,251h-9.27l-1.28-30.56L342.58,251h-9.14l-9.66-30-1.6,30h-8.54l0-.26,2.12-41.67a6.32,6.32,0,0,1,6.09-6.3,7.11,7.11,0,0,1,6.81,5l9.59,29.47,9.26-29.46a6.43,6.43,0,0,1,6.48-5c3.71,0,6.29,2.47,6.56,6.3Zm-8.79-.5h8.26l-2.11-41.33A6.13,6.13,0,0,0,348,208l-9.73,30.95L328.21,208a6.59,6.59,0,0,0-6.33-4.68,5.81,5.81,0,0,0-5.6,5.82l-2.11,41.41h7.53l1.72-32.26,10.39,32.26h8.4l10.33-32.94Z" transform="translate(-35.86 -33)"/>
      <path class="cls-4" d="M387.07,214.7c9.83,0,16.54,7.22,16.54,18.41s-6.64,18.4-16.54,18.4-16.66-7.21-16.66-18.4,6.77-18.41,16.66-18.41M387,243.89c4.78,0,7.9-4.18,7.9-10.78s-3.19-10.79-7.9-10.79-7.9,4.18-7.9,10.79,3.18,10.78,7.9,10.78" transform="translate(-35.86 -33)"/>
      <path class="cls-5" d="M387.07,251.76c-10.11,0-16.91-7.5-16.91-18.65s6.8-18.66,16.91-18.66,16.79,7.5,16.79,18.66S397.11,251.76,387.07,251.76Zm0-36.81c-9.81,0-16.41,7.3-16.41,18.16s6.6,18.15,16.41,18.15,16.29-7.12,16.29-18.15C403.36,222.25,396.82,215,387.07,215ZM387,244.14c-4.95,0-8.15-4.33-8.15-11s3.2-11,8.15-11,8.15,4.33,8.15,11S392,244.14,387,244.14Zm0-21.57c-4.65,0-7.65,4.14-7.65,10.54s3,10.53,7.65,10.53,7.65-4.13,7.65-10.53S391.66,222.57,387,222.57Z" transform="translate(-35.86 -33)"/>
      <path class="cls-4" d="M410.05,238.43v-23h8.43v22.12c-.07,3.37,1.53,6.13,5.25,6.13a16.77,16.77,0,0,0,8.63-2.9V215.44h8.43v35.33h-8.17v-2.22c-3.18,1.61-6.7,3-10.16,3-7.3,0-12.41-5.73-12.41-13.15" transform="translate(-35.86 -33)"/>
      <path class="cls-5" d="M422.46,251.83c-7.34,0-12.66-5.64-12.66-13.4V215.19h8.93v22.37a6.22,6.22,0,0,0,1.49,4.56,4.7,4.7,0,0,0,3.51,1.32,16.55,16.55,0,0,0,8.38-2.78V215.19H441V251h-8.67V249C429.61,250.33,426.06,251.83,422.46,251.83ZM410.3,215.69v22.74c0,7.47,5.11,12.9,12.16,12.9,3.66,0,7.29-1.61,10.05-3l.36-.18v2.38h7.67V215.69h-7.93v25.23l-.11.08a17.1,17.1,0,0,1-8.77,2.94,5.19,5.19,0,0,1-3.87-1.47,6.65,6.65,0,0,1-1.63-4.92V215.69Z" transform="translate(-35.86 -33)"/>
      <path class="cls-4" d="M481.23,227.85v22.92h-8.44v-22c.07-3.38-1.52-6.14-5.24-6.14a16.71,16.71,0,0,0-8.63,2.9v25.28h-8.44V215.44h8.17v2.3c3.19-1.62,6.71-3,10.16-3,7.3,0,12.42,5.26,12.42,13.15" transform="translate(-35.86 -33)"/>
      <path class="cls-5" d="M481.48,251h-8.94V228.73a6.24,6.24,0,0,0-1.49-4.57,4.66,4.66,0,0,0-3.5-1.32,16.49,16.49,0,0,0-8.38,2.78V251h-8.94V215.19h8.67v2.14c2.76-1.38,6.31-2.88,9.91-2.88,7.46,0,12.67,5.51,12.67,13.4Zm-8.44-.5H481V227.85c0-7.71-4.89-12.9-12.17-12.9-3.65,0-7.29,1.61-10.05,3l-.36.18v-2.45h-7.67v34.83h7.94V225.36l.1-.08a17.11,17.11,0,0,1,8.78-2.94,5.15,5.15,0,0,1,3.86,1.47,6.65,6.65,0,0,1,1.63,4.92Z" transform="translate(-35.86 -33)"/>
      <path class="cls-4" d="M498.75,239.51c0,3,2.06,4.38,4.59,4.38a12.05,12.05,0,0,0,5-1.41h1.33V250a21.12,21.12,0,0,1-7.37,1.55c-8.23,0-12-4.72-12-13.08V222.86h-3.79v-7.42h3.79v-8.29h8.43v8.29h8.9v7.42h-8.9Z" transform="translate(-35.86 -33)"/>
      <path class="cls-5" d="M502.34,251.76c-8.14,0-12.27-4.48-12.27-13.33V223.11h-3.79v-7.92h3.79V206.9H499v8.29h8.9v7.92H499v16.4c0,2.59,1.62,4.13,4.34,4.13a10.3,10.3,0,0,0,4.46-1.19l.58-.22H510v7.91l-.17.06A21.67,21.67,0,0,1,502.34,251.76Zm-15.56-29.15h3.79v15.82c0,8.52,4,12.83,11.77,12.83a20.42,20.42,0,0,0,7.12-1.48v-7.05h-1l-.43.18a10.82,10.82,0,0,1-4.67,1.23c-3,0-4.83-1.77-4.83-4.63v-16.9h8.9v-6.92h-8.9V207.4h-7.93v8.29h-3.79Z" transform="translate(-35.86 -33)"/>
      <path class="cls-4" d="M535.34,247.53a13,13,0,0,1-9.36,4.05c-6.91,0-12-4.72-12.22-11.6-.14-6.47,4.65-10.72,10-11.46l11.42-1.68c-.27-3.44-5.58-4.65-7.91-4.65a22.46,22.46,0,0,0-9.23,2.09h-.93v-7.82a36.87,36.87,0,0,1,10.3-1.76c8,0,15.74,3,16,11.93v24.14h-8.1ZM527.5,244A14.8,14.8,0,0,0,535,241.6v-7.95c-2.86.54-5.78.8-8.7,1.41-2.33.47-4,1.76-4,4.45,0,3.3,2.45,4.52,5.24,4.52" transform="translate(-35.86 -33)"/>
      <path class="cls-5" d="M526,251.83c-7.14,0-12.27-4.87-12.47-11.84s5.21-11,10.24-11.71l11.18-1.65c-.48-3.2-5.72-4.19-7.63-4.19a22.31,22.31,0,0,0-9.12,2.06l-.11,0h-1.18v-8.26l.19-.05a37.32,37.32,0,0,1,10.36-1.77c4.77,0,15.92,1.19,16.25,12.18V251h-8.6v-2.88A13.32,13.32,0,0,1,526,251.83Zm1.32-29.89c2.44,0,7.87,1.22,8.15,4.88l0,.23-11.65,1.72c-4.82.67-10,4.46-9.81,11.21s5.11,11.35,12,11.35a12.76,12.76,0,0,0,9.18-4l.43-.46v3.62h7.6V226.63c-.31-10.54-11.12-11.68-15.75-11.68a37.07,37.07,0,0,0-10.05,1.69V224H518A22.68,22.68,0,0,1,527.3,221.94Zm.2,22.34c-3.49,0-5.49-1.74-5.49-4.77,0-2.51,1.47-4.13,4.25-4.69,1.6-.34,3.23-.57,4.8-.8,1.28-.18,2.61-.38,3.9-.62l.3-.06v8.4l-.12.07A15.17,15.17,0,0,1,527.5,244.28ZM534.76,234c-1.21.22-2.44.39-3.63.57-1.56.22-3.18.46-4.77.79-2.56.51-3.85,1.93-3.85,4.2,0,3.85,3.49,4.27,5,4.27a14.59,14.59,0,0,0,7.26-2.32Z" transform="translate(-35.86 -33)"/>
      <path class="cls-4" d="M561.9,212h-8.5v-8.43h8.5Zm-.07,38.76H553.4V215.44h8.43Z" transform="translate(-35.86 -33)"/>
      <path class="cls-5" d="M562.08,251h-8.93V215.19h8.93Zm-8.43-.5h7.93V215.69h-7.93Zm8.5-38.26h-9v-8.93h9Zm-8.5-.5h8v-7.93h-8Z" transform="translate(-35.86 -33)"/>
      <path class="cls-4" d="M603.26,227.85v22.92h-8.43v-22c.07-3.38-1.53-6.14-5.25-6.14a16.74,16.74,0,0,0-8.63,2.9v25.28h-8.43V215.44h8.17v2.3c3.18-1.62,6.7-3,10.16-3,7.3,0,12.41,5.26,12.41,13.15" transform="translate(-35.86 -33)"/>
      <path class="cls-5" d="M603.51,251h-8.93V228.73a6.24,6.24,0,0,0-1.49-4.57,4.7,4.7,0,0,0-3.51-1.32,16.55,16.55,0,0,0-8.38,2.78V251h-8.93V215.19h8.67v2.14c2.76-1.38,6.31-2.88,9.91-2.88,7.45,0,12.66,5.51,12.66,13.4Zm-8.43-.5H603V227.85c0-7.71-4.89-12.9-12.16-12.9-3.66,0-7.29,1.61-10.05,3l-.36.18v-2.45h-7.67v34.83h7.93V225.36l.11-.08a17.1,17.1,0,0,1,8.77-2.94,5.19,5.19,0,0,1,3.87,1.47,6.65,6.65,0,0,1,1.63,4.92Z" transform="translate(-35.86 -33)"/>
    </g>
    <g>
      <polygon class="cls-6" points="299.23 0 210.98 87.83 265.36 141.96 307.4 100.12 351.05 143.55 397.26 97.58 299.23 0"/>
      <polygon class="cls-7" points="426.29 73.35 401.96 97.58 459.66 155 465.91 155 487.14 133.89 426.29 73.35"/>
      <polygon class="cls-8" points="554.09 155 512.35 113.47 491.84 133.89 513.04 155 554.09 155"/>
      <polygon class="cls-8" points="489.49 136.23 470.61 155 508.35 155 489.49 136.23"/>
      <polygon class="cls-9" points="64.1 113.47 22.37 155 49.09 155 77.45 126.75 64.1 113.47"/>
      <polygon class="cls-10" points="399.62 99.92 344.26 155 454.97 155 399.62 99.92"/>
      <polygon class="cls-11" points="163.77 45.54 82.16 126.75 110.55 155 138.79 155 206.27 87.83 163.77 45.54"/>
      <polygon class="cls-9" points="79.82 129.1 53.79 155 105.83 155 79.82 129.1"/>
      <polygon class="cls-12" points="208.63 90.17 143.49 155 273.76 155 208.63 90.17"/>
      <polygon class="cls-13" points="307.4 105.33 267.87 144.68 278.29 155 339.4 155 348.34 146.08 307.4 105.33"/>
    </g>
  </g>
</svg>
