<svg width="39" height="39" xmlns="http://www.w3.org/2000/svg">
 <g>
  <title>background</title>
  <rect x="-1" y="-1" width="41" height="41" id="canvas_background" fill="none"/>
 </g>

 <g>
  <title>Layer 1</title>
  <g stroke="null" id="svg_1">
   <path stroke="null" d="m1.795095,10.011816l17.385761,8.368619c0.201687,0.097047 0.436713,0.097047 0.638399,0l17.385761,-8.368729c0.555766,-0.267265 0.555766,-1.058607 0,-1.325982l-17.385981,-8.368399c-0.201577,-0.097047 -0.436603,-0.097047 -0.638289,0l-17.385651,8.368509c-0.555766,0.267375 -0.555766,1.058607 0,1.325982z" fill="#ffffff" id="svg_2"/>
   <path stroke="null" d="m1.795095,20.162716l17.385761,8.368729c0.201687,0.097047 0.436713,0.097047 0.638399,0l17.385761,-8.368619c0.555766,-0.267265 0.555766,-1.058607 0,-1.326202l-3.66799,-1.765336l-11.650181,5.607394c-0.740068,0.35606 -1.565519,0.544213 -2.38679,0.544213s-1.646502,-0.188153 -2.38789,-0.544763l-11.64886,-5.607284l-3.66832,1.765666c-0.555656,0.267705 -0.555656,1.058937 0.00011,1.326202z" fill="#ffffff" id="svg_3"/>
   <path stroke="null" d="m37.205016,28.987743l-3.66799,-1.765666l-11.650181,5.607724c-0.740068,0.35606 -1.565519,0.544213 -2.38679,0.544213s-1.646502,-0.188153 -2.38789,-0.544763l-11.64886,-5.607174l-3.66832,1.765776c-0.555766,0.267595 -0.555766,1.058607 0,1.326202l17.385761,8.368619c0.201687,0.097047 0.436713,0.097047 0.638399,0l17.385761,-8.368619c0.555876,-0.267705 0.555876,-1.058827 0.00011,-1.326312z" fill="#ffffff" id="svg_4"/>
  </g>
 </g>
</svg>