<?xml version="1.0" encoding="utf-8"?>
<!-- Generator: Adobe Illustrator 23.0.1, SVG Export Plug-In . SVG Version: 6.00 Build 0)  -->
<svg version="1.1" id="Layer_1" xmlns="http://www.w3.org/2000/svg" xmlns:xlink="http://www.w3.org/1999/xlink" x="0px" y="0px"
	 viewBox="0 0 285 52" style="enable-background:new 0 0 285 52;" xml:space="preserve">
<style type="text/css">
	.st0{fill:#FFC439;stroke:#FFC439;stroke-width:1.5;}
	.st1{fill:#179BD7;}
	.st2{fill:#253B80;}
	.st3{fill:#222D65;}
</style>
<rect x="1" y="1" class="st0" width="284" height="50.2"/>
<path class="st1" d="M180.7,19.6c-0.9-1.1-2.6-1.7-4.8-1.7h-6.6c-0.5,0-0.8,0.3-0.9,0.8l-2.7,17c-0.1,0.3,0.2,0.6,0.5,0.6h3.4
	c0.3,0,0.6-0.2,0.6-0.5L171,31c0.1-0.4,0.5-0.8,0.9-0.8h2.1c4.4,0,6.9-2.1,7.6-6.3C181.9,22.1,181.6,20.7,180.7,19.6z M176.7,24.2
	c-0.4,2.4-2.2,2.4-3.9,2.4h-1l0.7-4.5c0-0.3,0.3-0.5,0.5-0.5h0.5c1.2,0,2.3,0,2.9,0.7C176.7,22.7,176.8,23.3,176.7,24.2z"/>
<path class="st1" d="M195.8,24.1h-3.2c-0.3,0-0.5,0.2-0.5,0.5l-0.1,0.9l-0.2-0.3c-0.7-1-2.2-1.3-3.8-1.3c-3.5,0-6.5,2.7-7.1,6.4
	c-0.3,1.9,0.1,3.6,1.2,4.9c1,1.1,2.4,1.6,4,1.6c2.8,0,4.4-1.8,4.4-1.8l-0.1,0.9c-0.1,0.3,0.2,0.6,0.5,0.6h2.9c0.5,0,0.8-0.3,0.9-0.8
	l1.7-10.9C196.4,24.4,196.1,24.1,195.8,24.1z M191.3,30.3c-0.3,1.8-1.8,3-3.6,3c-0.9,0-1.7-0.3-2.1-0.9c-0.5-0.6-0.6-1.4-0.5-2.2
	c0.3-1.8,1.8-3.1,3.6-3.1c0.9,0,1.6,0.3,2.1,0.9C191.3,28.6,191.5,29.4,191.3,30.3z"/>
<path class="st1" d="M203.1,17.9h-3.1c-0.3,0-0.5,0.2-0.5,0.5l-2.7,17.4c-0.1,0.3,0.2,0.6,0.5,0.6h2.7c0.5,0,0.8-0.3,0.9-0.8l2.7-17
	C203.7,18.2,203.5,17.9,203.1,17.9z"/>
<path class="st2" d="M133.3,19.6c-0.9-1.1-2.6-1.7-4.8-1.7h-6.6c-0.5,0-0.8,0.3-0.9,0.8l-2.7,17c-0.1,0.3,0.2,0.6,0.5,0.6h3.2
	c0.5,0,0.8-0.3,0.9-0.8l0.7-4.6c0.1-0.4,0.5-0.8,0.9-0.8h2.1c4.4,0,6.9-2.1,7.6-6.3C134.5,22.1,134.2,20.7,133.3,19.6z M129.3,24.2
	c-0.4,2.4-2.2,2.4-3.9,2.4h-1l0.7-4.5c0-0.3,0.3-0.5,0.5-0.5h0.5c1.2,0,2.3,0,2.9,0.7C129.3,22.7,129.4,23.3,129.3,24.2z"/>
<path class="st2" d="M148.4,24.1h-3.2c-0.3,0-0.5,0.2-0.5,0.5l-0.1,0.9l-0.2-0.3c-0.7-1-2.2-1.3-3.8-1.3c-3.5,0-6.5,2.7-7.1,6.4
	c-0.3,1.9,0.1,3.6,1.2,4.9c1,1.1,2.4,1.6,4,1.6c2.8,0,4.4-1.8,4.4-1.8l-0.1,0.9c-0.1,0.3,0.2,0.6,0.5,0.6h2.9c0.5,0,0.8-0.3,0.9-0.8
	l1.7-10.9C149,24.4,148.7,24.1,148.4,24.1z M143.9,30.3c-0.3,1.8-1.7,3-3.6,3c-0.9,0-1.7-0.3-2.1-0.9c-0.5-0.6-0.6-1.4-0.5-2.2
	c0.3-1.8,1.8-3.1,3.6-3.1c0.9,0,1.6,0.3,2.1,0.9C143.9,28.6,144.1,29.4,143.9,30.3z"/>
<path class="st2" d="M165.3,24.1h-3.2c-0.3,0-0.6,0.2-0.8,0.4l-4.4,6.5l-1.9-6.2c-0.1-0.4-0.5-0.7-0.9-0.7H151
	c-0.4,0-0.6,0.4-0.5,0.7l3.5,10.3l-3.3,4.7c-0.3,0.4,0,0.9,0.5,0.9h3.2c0.3,0,0.6-0.1,0.8-0.4L165.8,25
	C166,24.6,165.8,24.1,165.3,24.1z"/>
<path class="st1" d="M107.3,19.8c-0.4-0.4-0.8-0.7-1.3-1l0,0c0,0.2-0.1,0.4-0.1,0.5c0,0.2-0.1,0.3-0.1,0.5c-1.2,5.1-4.4,7.3-8.6,7.7
	c-0.3,0-0.6,0.1-0.9,0.1c-0.3,0-0.6,0-1,0h-2.7c-0.6,0-1.2,0.5-1.3,1.1l-1.2,7.7l-0.2,1l-0.4,2.5c-0.1,0.4,0.3,0.8,0.7,0.8H95
	c0.6,0,1-0.4,1.1-1l0-0.2l0.9-5.7l0.1-0.3c0.1-0.6,0.6-1,1.1-1H99c4.6,0,8.2-1.9,9.2-7.3C108.7,23,108.5,21.2,107.3,19.8z"/>
<path class="st2" d="M91.4,28.8l0-0.3l1.5-9.6c0.1-0.4,0.3-0.7,0.6-0.9c0.2-0.1,0.3-0.1,0.5-0.1h7.1c0.8,0,1.6,0.1,2.4,0.2
	c0.2,0,0.4,0.1,0.6,0.1c0.2,0,0.4,0.1,0.6,0.1c0.1,0,0.1,0,0.2,0.1c0,0,0,0,0.1,0c0,0,0,0,0,0c0.3,0.1,0.7,0.2,0.9,0.4c0,0,0,0,0,0
	c0.4-2.3,0-3.8-1.2-5.2c-1.4-1.5-3.8-2.2-7-2.2h-9.1c-0.6,0-1.2,0.5-1.3,1.1l-3.8,24.1c-0.1,0.5,0.3,0.9,0.8,0.9H90l0.2-1L91.4,28.8
	z"/>
<path class="st3" d="M106,18.8c-0.3-0.2-0.6-0.3-0.9-0.4c0,0,0,0,0,0c0,0,0,0-0.1,0c-0.1,0-0.1,0-0.2-0.1c-0.2-0.1-0.4-0.1-0.6-0.1
	c-0.2,0-0.4-0.1-0.6-0.1c-0.7-0.1-1.5-0.2-2.4-0.2h-7.1c-0.2,0-0.3,0-0.5,0.1c-0.3,0.2-0.6,0.5-0.6,0.9l-1.5,9.6l0,0.3
	c0.1-0.6,0.6-1.1,1.3-1.1h2.7c0.3,0,0.7,0,1,0c0.3,0,0.6,0,0.9-0.1c4.2-0.5,7.5-2.6,8.6-7.7c0-0.2,0.1-0.3,0.1-0.5
	C105.9,19.2,106,19,106,18.8C106,18.8,106,18.8,106,18.8z"/>
</svg>
