<?xml version="1.0" encoding="utf-8"?>
<!-- Generator: Adobe Illustrator 16.0.0, SVG Export Plug-In . SVG Version: 6.00 Build 0)  -->
<!DOCTYPE svg PUBLIC "-//W3C//DTD SVG 1.1//EN" "http://www.w3.org/Graphics/SVG/1.1/DTD/svg11.dtd">
<svg version="1.1" id="Layer_1" xmlns="http://www.w3.org/2000/svg" xmlns:xlink="http://www.w3.org/1999/xlink" x="0px" y="0px"
	 width="640px" height="134.5px" viewBox="0 0 640 134.5" enable-background="new 0 0 640 134.5" xml:space="preserve">
<path fill="#4A4A4A" d="M82.256,37.896l-2.126-4.645c-0.165-0.354-0.59-0.513-0.944-0.352l-1.02,0.471l-0.946,0.427
	c-0.103,0.053-0.212,0.089-0.323,0.118l0,0c-0.785,0-1.57-0.4-1.95-1.101c-0.473-0.856-0.9-1.733-1.309-2.616
	c-0.404-0.893-0.788-1.79-1.124-2.705c-0.278-0.744-0.068-1.602,0.44-2.192V25.3c0.091-0.062,0.188-0.117,0.291-0.159l1.965-0.899
	c0.36-0.166,0.518-0.59,0.353-0.95l-2.122-4.648c-0.168-0.354-0.586-0.504-0.944-0.346c-0.754,0.345-1.513,0.696-2.266,1.042
	l-0.001-0.001c-0.012,0.007-0.023,0.012-0.036,0.018c-0.003,0.002-0.007,0.004-0.01,0.005l0,0c-1.371,0.698-2.183,3.293-1.92,5.94
	c0.113,1.157,0.399,2.272,0.722,3.347c0.327,1.07,0.733,2.121,1.195,3.138c0.462,1.012,0.985,2.008,1.579,2.953
	c0.607,0.951,1.263,1.895,2.064,2.729c1.851,1.951,4.383,3.034,5.799,2.407l-0.002-0.002c0.758-0.351,1.517-0.693,2.273-1.042
	C82.258,38.671,82.418,38.255,82.256,37.896z"/>
<path fill="#4A4A4A" d="M27.897,32.381l-3.122-3.122c0.647-0.976,1.025-2.147,1.025-3.408c0-3.41-2.765-6.174-6.174-6.174
	c-3.41,0-6.174,2.764-6.174,6.174c0,3.41,2.764,6.175,6.174,6.175c1.029,0,1.999-0.253,2.852-0.698l3.236,3.235
	c0.603,0.604,1.581,0.604,2.183,0C28.5,33.962,28.5,32.986,27.897,32.381z M14.996,25.852c0-2.554,2.077-4.63,4.631-4.63
	c2.554,0,4.631,2.076,4.631,4.63s-2.077,4.63-4.631,4.63C17.073,30.482,14.996,28.405,14.996,25.852z"/>
<path fill="#4A4A4A" d="M126.807,20.25c0.788-1.864,2.586-3.168,4.676-3.168c2.815,0,4.843,2.41,5.098,5.281
	c0,0,0.14,0.712-0.163,1.996c-0.413,1.748-1.382,3.301-2.69,4.485l-6.92,6.174l-6.803-6.174c-1.308-1.184-2.276-2.737-2.689-4.485
	c-0.303-1.283-0.166-1.996-0.166-1.996c0.255-2.873,2.285-5.281,5.1-5.281C124.339,17.082,126.021,18.386,126.807,20.25
	L126.807,20.25z"/>
<g>
	<circle fill="#4A4A4A" cx="174.458" cy="21.3" r="5.583"/>
	<path fill="#4A4A4A" d="M179.063,28.313c-3.562,0-2.438,0.875-4.605,0.875s-1.333-0.875-4.645-0.875s-5.313,7.125-5.313,7.125
		h19.875C184.375,35.438,182.625,28.313,179.063,28.313z"/>
</g>
<g>
	<circle fill="#FFFFFF" cx="521.458" cy="67.348" r="5.583"/>
	<path fill="#FFFFFF" d="M526.063,74.361c-3.562,0-2.438,0.875-4.604,0.875s-1.333-0.875-4.646-0.875
		c-3.312,0-5.313,7.125-5.313,7.125h19.875C531.375,81.486,529.625,74.361,526.063,74.361z"/>
</g>
<path fill="#4A4A4A" d="M222.811,24.563l3.655-6.08l-1.339-0.805L221,24.563h-10.563v2l1.874-0.063l4.376,10.938h11.625
	l4.438-11.313l1.75,0.028v-1.59H222.811z M219.563,34.438h-2V28.5h2V34.438z M223.469,34.438h-2V28.5h2V34.438z M224.542,26.563
	h-4.167v-1.208h-0.813v-0.479h5.969v0.5h-0.989V26.563L224.542,26.563z M227.531,34.438h-2V28.5h2V34.438z"/>
<polygon fill="#4A4A4A" points="283.384,27.216 281.888,25.72 277.27,30.337 272.653,25.719 271.156,27.215 277.263,33.323 
	277.27,33.315 277.277,33.323 "/>
<polygon fill="#FFFFFF" points="554.364,75.379 552.867,73.883 548.25,78.5 543.633,73.882 542.137,75.378 548.242,81.486 
	548.25,81.479 548.258,81.486 "/>
<g>
	<rect x="314.438" y="16.542" fill="#29275B" width="14.063" height="10.938"/>
	<path fill="#29275B" d="M338.438,25.313c0-2.563-1.75-5.813-4.375-5.813s-4.563,0-4.563,0l-0.063,9.063h-15v2.75h3.584
		c-0.088,0.256-0.146,0.526-0.146,0.813c0,1.381,1.119,2.5,2.5,2.5c1.38,0,2.5-1.119,2.5-2.5c0-0.286-0.059-0.557-0.146-0.813h7.355
		c-0.088,0.256-0.146,0.526-0.146,0.813c0,1.381,1.119,2.5,2.5,2.5s2.5-1.119,2.5-2.5c0-0.286-0.059-0.557-0.146-0.813h3.646
		C338.438,31.313,338.438,27.875,338.438,25.313z M320.333,33.417c-0.587,0-1.063-0.476-1.063-1.063s0.476-1.063,1.063-1.063
		c0.586,0,1.063,0.476,1.063,1.063S320.92,33.417,320.333,33.417z M332.438,33.417c-0.586,0-1.063-0.476-1.063-1.063
		s0.477-1.063,1.063-1.063s1.063,0.476,1.063,1.063S333.023,33.417,332.438,33.417z M331.375,24.375v-2.75c0,0,1.25,0,2.375,0
		s2.438,1.563,2.438,2.75C334.375,24.375,331.375,24.375,331.375,24.375z"/>
</g>
<polygon fill="#29275B" points="363.375,23.375 374.625,16.813 385.688,23.375 374.531,30.125 "/>
<polygon fill="#29275B" points="374.188,34.591 385.906,27.649 385.143,26.358 374.148,32.87 363.156,26.358 362.393,27.649 
	374.109,34.591 374.131,34.625 374.148,34.614 374.168,34.625 "/>
<polygon fill="#29275B" points="374.188,39.966 385.906,33.024 385.143,31.733 374.148,38.245 363.156,31.733 362.393,33.024 
	374.109,39.966 374.131,40 374.148,39.989 374.168,40 "/>
<path fill="#29275B" d="M438.625,16.571h-20.063c-0.559,0-1,0.448-1,1V37.25c0,0.552,0.441,1,1,1h20.063c0.553,0,1-0.448,1-1V17.571
	C439.625,17.019,439.178,16.571,438.625,16.571z M432.837,33.446l-4.243-2.23l-4.243,2.23l0.813-4.724l-3.432-3.345l4.737-0.689
	l2.121-4.298l2.121,4.298l4.743,0.689l-3.432,3.345L432.837,33.446z"/>
<path fill="#00814D" d="M536.035,15.587h-21.883c-0.604,0-1.097,0.488-1.097,1.091v21.464c0,0.603,0.488,1.091,1.097,1.091h21.883
	c0.603,0,1.091-0.488,1.091-1.091V16.678C537.126,16.076,536.638,15.587,536.035,15.587z M529.722,33.994l-4.628-2.433l-4.628,2.433
	l0.884-5.152l-3.737-3.649l5.174-0.752l2.313-4.688l2.313,4.688l5.174,0.752l-3.743,3.649L529.722,33.994z"/>
<rect x="467.5" y="13.667" fill="#29275B" width="1.5" height="23.833"/>
<path fill="#29275B" d="M487.921,27.289c0,0-3.096,1.78-5.646,1.78c-2.56,0-3.404-2.79-5.649-2.79c-2.244,0-4.954,1.61-4.954,1.61
	V15.277c0,0,2.788-1.61,4.722-1.61c1.938,0,4.263,2.79,6.192,2.79s4.72-1.18,4.72-1.18l-3.479,6.904L487.921,27.289z"/>
<path fill="#FFFFFF" d="M498.334,61.765h-11.417c-0.553,0-1,0.448-1,1v21.652c0,0.552,0.447,1,1,1h11.417c0.553,0,1-0.448,1-1
	V62.765C499.334,62.213,498.887,61.765,498.334,61.765z M490.417,63.583h4.084V64.5h-4.084V63.583z M493.501,83.583h-2.084v-2.099
	h2.084V83.583z M497.501,80.5h-10V66.333h10V80.5z"/>
<polygon fill="#4A4A4A" points="549.063,104.163 543.895,104.163 548.475,113.706 543.895,123.249 549.063,123.249 553.643,113.706 
	"/>
<polygon fill="#4A4A4A" points="526.5,104.163 531.668,104.163 527.09,113.706 531.668,123.249 526.5,123.249 521.922,113.706 "/>
<g>
	<rect x="154.948" y="63.565" fill="#FFFFFF" width="40" height="24"/>
	<g>
		<polygon fill="#FBB231" points="181.22,84.941 181.703,84.928 182.181,84.895 182.65,84.833 183.115,84.75 183.566,84.646 
			184.012,84.52 184.449,84.37 184.876,84.203 185.293,84.014 185.698,83.809 186.09,83.581 186.473,83.337 186.839,83.076 
			187.195,82.796 187.537,82.502 187.862,82.189 188.173,81.863 188.469,81.521 188.747,81.167 189.01,80.801 189.254,80.417 
			189.481,80.025 189.687,79.621 189.875,79.203 190.045,78.777 190.193,78.339 190.32,77.895 190.424,77.441 190.506,76.975 
			190.566,76.509 190.6,76.031 190.614,75.547 190.6,75.064 190.566,74.592 190.506,74.122 190.424,73.665 190.32,73.213 
			190.193,72.77 190.045,72.334 189.875,71.909 189.687,71.496 189.481,71.09 189.254,70.702 189.01,70.318 188.747,69.953 
			188.469,69.602 188.173,69.259 187.862,68.934 187.537,68.624 187.195,68.329 186.839,68.052 186.473,67.788 186.09,67.545 
			185.698,67.321 185.293,67.116 184.876,66.926 184.449,66.757 184.012,66.609 183.566,66.482 183.115,66.378 182.65,66.296 
			182.181,66.235 181.703,66.201 181.22,66.189 180.738,66.201 180.262,66.235 179.792,66.296 179.333,66.378 178.878,66.482 
			178.434,66.609 178,66.757 177.573,66.926 177.158,67.116 176.756,67.321 176.364,67.545 175.986,67.788 175.619,68.052 
			175.264,68.329 174.926,68.624 174.599,68.934 174.291,69.259 173.996,69.602 173.717,69.953 173.458,70.318 173.214,70.702 
			172.989,71.09 172.782,71.496 172.595,71.909 172.428,72.334 172.282,72.77 172.155,73.213 172.051,73.665 171.967,74.122 
			171.908,74.592 171.874,75.064 171.86,75.547 171.874,76.031 171.908,76.509 171.967,76.975 172.051,77.441 172.155,77.895 
			172.282,78.339 172.428,78.777 172.595,79.203 172.782,79.621 172.989,80.025 173.214,80.417 173.458,80.801 173.717,81.167 
			173.996,81.521 174.291,81.863 174.599,82.189 174.926,82.502 175.264,82.796 175.619,83.076 175.986,83.337 176.364,83.581 
			176.756,83.809 177.158,84.014 177.573,84.203 178,84.37 178.434,84.52 178.878,84.646 179.333,84.75 179.792,84.833 
			180.262,84.895 180.738,84.928 		"/>
		<path fill="#EC1C2E" d="M174.458,82.042l-0.445-0.513h1.878l0.009-0.01l0.278-0.354l0.18-0.256h-2.823l-0.32-0.511h3.475
			l0.217-0.377l0.125-0.242h-4.167l-0.238-0.51h4.643l0.033-0.068l0.168-0.428l0.042-0.127h-5.125l-0.159-0.508h5.443l0.069-0.248
			l0.087-0.373h-1.687l0.094-0.512h1.687l0.006-0.033l0.061-0.468l0.009-0.119h-1.646l0.095-0.512h1.583l0.007-0.331l-0.013-0.48
			l-0.034-0.475l-0.036-0.286h-6.01l0.098-0.51h5.831l-0.023-0.132l-0.105-0.452l-0.01-0.035h-5.566l0.158-0.509h5.256l-0.109-0.334
			l-0.115-0.289h-4.807l0.222-0.51h4.363l-0.018-0.04l-0.209-0.405l-0.101-0.174h-3.701l0.299-0.51h3.091l-0.058-0.088l-0.259-0.365
			l-0.133-0.17h-2.195l0.431-0.508h1.338l-0.012-0.019l-0.312-0.323l-0.325-0.312l-0.338-0.296l-0.354-0.276l-0.367-0.264
			l-0.381-0.243l-0.392-0.224l-0.402-0.206l-0.414-0.19l-0.427-0.168l-0.432-0.148l-0.446-0.127l-0.453-0.104l-0.462-0.082
			l-0.468-0.061l-0.478-0.034l-0.481-0.012l-0.483,0.012l-0.478,0.034l-0.469,0.061l-0.465,0.082l-0.452,0.104l-0.446,0.127
			l-0.437,0.148l-0.427,0.168l-0.417,0.19l-0.406,0.206l-0.392,0.224l-0.383,0.243l-0.367,0.264l-0.354,0.276l-0.342,0.296
			l-0.326,0.312l-0.313,0.323l-0.294,0.343l-0.278,0.354l-0.263,0.365l-0.243,0.383l-0.228,0.39l-0.206,0.405l-0.19,0.412
			l-0.167,0.427l-0.149,0.437l-0.125,0.442l-0.105,0.452l-0.083,0.457l-0.06,0.47l-0.036,0.474l-0.012,0.481l0.012,0.483
			l0.036,0.479l0.06,0.467l0.083,0.467l0.105,0.453l0.125,0.443l0.149,0.438l0.167,0.427l0.19,0.418l0.206,0.403l0.228,0.394
			l0.243,0.384l0.263,0.365l0.278,0.354l0.294,0.342l0.313,0.326l0.326,0.313l0.342,0.294l0.354,0.277l0.367,0.264l0.383,0.243
			l0.392,0.229l0.406,0.204l0.417,0.188l0.427,0.167l0.437,0.147l0.446,0.127l0.452,0.104l0.465,0.083l0.469,0.063l0.478,0.032
			l0.483,0.015l0.481-0.015l0.478-0.032l0.468-0.063l0.462-0.083l0.453-0.104l0.446-0.127l0.432-0.147l0.427-0.167l0.414-0.188
			l0.402-0.204l0.392-0.229l0.381-0.243l0.367-0.264l0.354-0.277l0.338-0.294l0.325-0.313l0.138-0.146L174.458,82.042
			L174.458,82.042z M171.796,76.391l-0.03-0.513h0.683v0.513H171.796z"/>
		<polygon fill="#FFFFFF" points="170.491,75.264 170.446,75.259 170.403,75.252 170.361,75.246 170.321,75.241 170.282,75.232 
			170.241,75.229 170.2,75.221 170.156,75.215 170.111,75.208 170.062,75.207 170.004,75.202 169.944,75.198 169.878,75.198 
			169.805,75.202 169.723,75.208 169.631,75.215 169.568,75.225 169.508,75.232 169.453,75.252 169.407,75.271 169.362,75.293 
			169.321,75.318 169.289,75.352 169.261,75.379 169.242,75.415 169.226,75.45 169.22,75.488 169.22,75.525 169.229,75.566 
			169.242,75.607 169.267,75.646 169.299,75.689 169.362,75.749 169.438,75.796 169.526,75.837 169.621,75.874 169.723,75.902 
			169.827,75.938 169.931,75.977 170.032,76.018 170.128,76.073 170.216,76.139 170.295,76.218 170.361,76.316 170.412,76.436 
			170.443,76.579 170.457,76.749 170.443,76.948 170.421,77.096 170.384,77.227 170.333,77.348 170.27,77.45 170.197,77.542 
			170.115,77.622 170.026,77.691 169.928,77.751 169.827,77.799 169.723,77.838 169.615,77.871 169.504,77.896 169.397,77.916 
			169.293,77.924 169.188,77.932 169.09,77.936 168.954,77.936 168.828,77.932 168.716,77.932 168.612,77.928 168.518,77.924 
			168.433,77.918 168.356,77.914 168.283,77.902 168.217,77.896 168.157,77.884 168.097,77.875 168.043,77.859 167.99,77.846 
			167.939,77.829 167.888,77.809 167.834,77.79 167.977,77.09 168.005,77.096 168.04,77.107 168.083,77.12 168.138,77.132 
			168.195,77.145 168.258,77.158 168.328,77.171 168.404,77.184 168.483,77.198 168.564,77.21 168.65,77.218 168.74,77.23 
			168.832,77.232 168.922,77.234 169.014,77.234 169.105,77.232 169.197,77.214 169.271,77.188 169.328,77.152 169.372,77.107 
			169.403,77.064 169.428,77.014 169.444,76.962 169.458,76.916 169.464,76.825 169.434,76.745 169.381,76.684 169.301,76.629 
			169.207,76.582 169.096,76.534 168.973,76.488 168.85,76.439 168.723,76.381 168.604,76.316 168.492,76.232 168.391,76.134 
			168.313,76.016 168.254,75.874 168.227,75.702 168.229,75.5 168.246,75.377 168.268,75.259 168.3,75.15 168.337,75.049 
			168.388,74.955 168.444,74.873 168.511,74.793 168.59,74.725 168.682,74.664 168.783,74.613 168.897,74.566 169.023,74.531 
			169.167,74.503 169.321,74.48 169.492,74.469 169.678,74.464 169.795,74.464 169.904,74.469 170.001,74.473 170.09,74.475 
			170.168,74.48 170.241,74.488 170.305,74.494 170.361,74.501 170.416,74.506 170.459,74.516 170.5,74.523 170.539,74.527 
			170.571,74.536 170.598,74.538 170.627,74.544 170.653,74.548 		"/>
		<polygon fill="#FFFFFF" points="171.241,73.768 172.117,73.768 171.987,74.531 172.515,74.531 172.402,75.246 171.844,75.23 
			171.541,76.996 171.539,77.059 171.553,77.111 171.586,77.152 171.626,77.188 171.685,77.21 171.746,77.23 171.817,77.244 
			171.893,77.249 171.962,77.245 172.026,77.238 172.082,77.23 172.133,77.217 172.173,77.204 172.202,77.193 172.222,77.188 
			172.227,77.184 172.117,77.773 172.095,77.79 172.073,77.802 172.051,77.816 172.028,77.829 172.006,77.836 171.98,77.846 
			171.953,77.855 171.924,77.865 171.893,77.875 171.86,77.881 171.823,77.887 171.785,77.895 171.744,77.9 171.696,77.906 
			171.646,77.914 171.591,77.918 171.352,77.918 171.225,77.911 171.114,77.896 171.013,77.877 170.927,77.855 170.854,77.829 
			170.795,77.795 170.742,77.757 170.7,77.717 170.668,77.672 170.646,77.62 170.63,77.564 170.622,77.504 170.617,77.438 
			170.617,77.368 170.627,77.296 170.636,77.217 		"/>
		<polygon fill="#FFFFFF" points="173.214,76.439 173.206,76.493 173.202,76.549 173.209,76.609 173.219,76.668 173.244,76.73 
			173.269,76.787 173.303,76.846 173.341,76.902 173.385,76.955 173.433,77 173.483,77.048 173.54,77.086 173.598,77.121 
			173.659,77.15 173.723,77.171 173.787,77.184 173.869,77.198 173.949,77.206 174.031,77.217 174.112,77.223 174.195,77.227 
			174.281,77.227 174.363,77.223 174.448,77.217 174.534,77.204 174.619,77.188 174.707,77.169 174.793,77.141 174.88,77.107 
			174.974,77.068 175.061,77.018 175.153,76.962 175.026,77.741 174.976,77.766 174.926,77.792 174.875,77.813 174.828,77.83 
			174.781,77.846 174.73,77.863 174.679,77.875 174.625,77.884 174.568,77.895 174.504,77.9 174.439,77.906 174.366,77.914 
			174.283,77.916 174.197,77.916 174.1,77.918 173.996,77.918 173.842,77.916 173.683,77.9 173.525,77.877 173.367,77.838 
			173.21,77.792 173.062,77.732 172.92,77.654 172.787,77.561 172.664,77.454 172.557,77.325 172.465,77.18 172.389,77.01 
			172.335,76.825 172.3,76.613 172.291,76.377 172.307,76.12 172.319,76.018 172.339,75.902 172.364,75.779 172.398,75.645 
			172.445,75.509 172.502,75.373 172.575,75.232 172.664,75.1 172.766,74.975 172.889,74.854 173.027,74.746 173.185,74.65 
			173.369,74.574 173.574,74.516 173.803,74.477 174.059,74.464 174.183,74.469 174.312,74.48 174.441,74.503 174.571,74.536 
			174.698,74.583 174.821,74.639 174.936,74.715 175.04,74.805 175.133,74.911 175.213,75.037 175.277,75.184 175.32,75.352 
			175.346,75.54 175.35,75.756 175.327,75.997 175.279,76.262 175.264,76.455 172.958,76.455 173.104,75.831 174.488,75.831 
			174.496,75.752 174.492,75.676 174.486,75.607 174.474,75.544 174.452,75.484 174.428,75.43 174.397,75.382 174.366,75.338 
			174.328,75.3 174.287,75.27 174.239,75.241 174.192,75.215 174.141,75.195 174.09,75.184 174.038,75.173 173.979,75.168 
			173.919,75.171 173.863,75.182 173.809,75.193 173.756,75.211 173.701,75.236 173.654,75.266 173.607,75.3 173.564,75.338 
			173.525,75.382 173.487,75.43 173.453,75.48 173.423,75.535 173.394,75.591 173.373,75.654 173.354,75.718 173.341,75.783 		"/>
		<polygon fill="#FFFFFF" points="180.758,74.721 180.716,74.699 180.676,74.682 180.63,74.659 180.584,74.635 180.537,74.617 
			180.482,74.6 180.429,74.579 180.373,74.561 180.312,74.544 180.25,74.531 180.185,74.52 180.119,74.51 180.045,74.503 
			179.972,74.497 179.897,74.497 179.819,74.497 179.739,74.497 179.658,74.503 179.572,74.514 179.483,74.527 179.395,74.555 
			179.306,74.588 179.217,74.633 179.129,74.689 179.044,74.76 178.96,74.842 178.882,74.941 178.806,75.061 178.737,75.198 
			178.669,75.357 178.61,75.535 178.558,75.736 178.541,75.852 178.529,75.962 178.521,76.073 178.524,76.18 178.534,76.288 
			178.557,76.389 178.585,76.482 178.619,76.579 178.667,76.664 178.724,76.745 178.79,76.818 178.866,76.885 178.952,76.941 
			179.049,76.988 179.156,77.029 179.277,77.059 179.319,77.068 179.367,77.078 179.422,77.084 179.486,77.09 179.555,77.096 
			179.629,77.096 179.708,77.096 179.788,77.09 179.87,77.082 179.952,77.064 180.031,77.042 180.109,77.018 180.19,76.982 
			180.262,76.941 180.328,76.891 180.391,76.834 180.249,77.68 180.23,77.693 180.211,77.713 180.185,77.734 180.157,77.755 
			180.122,77.779 180.079,77.802 180.027,77.825 179.971,77.842 179.897,77.865 179.815,77.881 179.72,77.895 179.61,77.906 
			179.486,77.914 179.344,77.916 179.183,77.914 179.006,77.902 178.861,77.887 178.715,77.855 178.57,77.809 178.422,77.745 
			178.285,77.67 178.152,77.574 178.025,77.461 177.908,77.337 177.803,77.193 177.715,77.036 177.64,76.859 177.583,76.667 
			177.544,76.455 177.532,76.23 177.539,75.982 177.573,75.721 177.597,75.591 177.626,75.464 177.658,75.342 177.691,75.225 
			177.725,75.113 177.765,75.003 177.806,74.898 177.851,74.8 177.9,74.703 177.947,74.611 178,74.523 178.057,74.441 
			178.114,74.361 178.178,74.284 178.242,74.215 178.307,74.148 178.379,74.086 178.452,74.025 178.529,73.973 178.606,73.921 
			178.692,73.875 178.777,73.834 178.866,73.794 178.959,73.76 179.057,73.729 179.154,73.703 179.254,73.682 179.362,73.663 
			179.471,73.646 179.583,73.633 179.699,73.628 179.819,73.624 179.92,73.628 180.018,73.633 180.113,73.643 180.208,73.656 
			180.296,73.669 180.381,73.688 180.463,73.703 180.54,73.723 180.612,73.741 180.676,73.76 180.736,73.779 180.788,73.797 
			180.831,73.813 180.869,73.827 180.897,73.839 180.916,73.846 		"/>
		<g>
			<path fill="#FFFFFF" d="M188.401,73.782l-0.223,1.243l-0.021-0.037l-0.023-0.039l-0.029-0.042l-0.029-0.042l-0.039-0.041
				l-0.042-0.042l-0.048-0.04l-0.05-0.039l-0.057-0.034l-0.063-0.037l-0.064-0.026l-0.072-0.023l-0.076-0.021l-0.082-0.019
				l-0.089-0.008l-0.091-0.005l-0.131,0.007l-0.126,0.021l-0.126,0.028l-0.126,0.043l-0.119,0.056l-0.122,0.067l-0.117,0.078
				l-0.111,0.092l-0.104,0.104l-0.098,0.115l-0.097,0.127l-0.082,0.143l-0.077,0.15l-0.067,0.162l-0.057,0.178l-0.046,0.185
				l-0.03,0.161l-0.017,0.162l-0.001,0.164l0.008,0.16l0.026,0.162l0.034,0.152l0.051,0.146l0.064,0.144l0.074,0.136l0.089,0.115
				l0.102,0.105l0.113,0.093l0.126,0.071l0.141,0.056l0.15,0.034l0.166,0.014h0.062l0.064-0.003l0.06-0.007l0.063-0.01l0.063-0.012
				l0.06-0.016l0.061-0.018l0.06-0.021l0.06-0.027l0.059-0.027l0.057-0.035l0.057-0.04l0.056-0.045l0.055-0.052l0.056-0.06
				l0.051-0.063v0.033l-0.065,0.352h0.877l0.715-4.139h-0.863V73.782L188.401,73.782z M187.963,76.082l-0.011,0.091l-0.014,0.089
				l-0.017,0.086l-0.022,0.086l-0.025,0.082l-0.032,0.08l-0.035,0.073l-0.04,0.074l-0.045,0.067l-0.048,0.063l-0.053,0.059
				l-0.06,0.055l-0.063,0.048l-0.067,0.038l-0.072,0.035l-0.077,0.021l-0.082,0.019l-0.088,0.006l-0.126-0.021l-0.105-0.066
				L186.8,76.96l-0.064-0.13l-0.04-0.148l-0.021-0.154l-0.009-0.149l0.017-0.142l0.019-0.092l0.025-0.09l0.025-0.087l0.031-0.085
				l0.036-0.084l0.04-0.074l0.045-0.074l0.048-0.067l0.052-0.062l0.055-0.054l0.064-0.05l0.062-0.042l0.073-0.03l0.071-0.025
				l0.081-0.014l0.085-0.007l0.067,0.007l0.06,0.02l0.057,0.023l0.056,0.037l0.046,0.045l0.04,0.051l0.039,0.062l0.032,0.063
				l0.022,0.074l0.025,0.074l0.012,0.08l0.01,0.082l0.003,0.089L187.963,76.082L187.963,76.082z"/>
			<polygon fill="#FBB231" points="187.951,75.826 187.939,75.746 187.914,75.671 187.891,75.596 187.859,75.535 187.82,75.475 
				187.78,75.424 187.734,75.379 187.678,75.342 187.622,75.316 187.562,75.3 187.495,75.293 187.41,75.3 187.329,75.313 
				187.257,75.338 187.184,75.37 187.123,75.412 187.058,75.462 187.003,75.516 186.952,75.575 186.904,75.645 186.859,75.718 
				186.819,75.792 186.783,75.876 186.751,75.962 186.726,76.048 186.701,76.139 186.682,76.23 186.666,76.37 186.674,76.521 
				186.695,76.675 186.735,76.825 186.799,76.955 186.88,77.059 186.986,77.128 187.112,77.152 187.2,77.146 187.282,77.128 
				187.359,77.107 187.431,77.072 187.499,77.034 187.562,76.986 187.622,76.932 187.674,76.875 187.722,76.811 187.767,76.743 
				187.807,76.668 187.842,76.594 187.875,76.514 187.9,76.432 187.922,76.348 187.939,76.262 187.953,76.172 187.963,76.082 
				187.963,75.997 187.96,75.908 			"/>
		</g>
		<g>
			<path fill="#FFFFFF" d="M168.009,75.193l-0.032-0.104l-0.048-0.095l-0.063-0.086l-0.07-0.075l-0.079-0.067l-0.088-0.062
				l-0.096-0.058l-0.094-0.041l-0.098-0.039l-0.101-0.026l-0.099-0.021l-0.095-0.018l-0.089-0.006l-0.111-0.003l-0.11-0.004h-0.105
				h-0.1h-0.099l-0.095,0.004l-0.091,0.003l-0.089,0.006l-0.086,0.01l-0.082,0.012l-0.083,0.014l-0.075,0.014l-0.077,0.018
				l-0.075,0.021l-0.07,0.025l-0.069,0.029l-0.226,0.76l0.036-0.018l0.043-0.021l0.057-0.021l0.07-0.018l0.075-0.018l0.083-0.019
				l0.091-0.017l0.095-0.014l0.098-0.013l0.101-0.008l0.102-0.011l0.104-0.006l0.101-0.005h0.098l0.095,0.005l0.089,0.004
				l0.082,0.004l0.076,0.021l0.066,0.028l0.06,0.041l0.051,0.047l0.039,0.057l0.028,0.063l0.013,0.07l-0.006,0.06l-0.017,0.067
				l-0.018,0.056l-0.007,0.022h-0.01l-0.032-0.003l-0.044-0.005l-0.057-0.004h-0.07l-0.069-0.002l-0.077-0.004h-0.072h-0.035
				l-0.045,0.004l-0.046,0.002l-0.051,0.004l-0.05,0.008l-0.058,0.004l-0.054,0.006l-0.053,0.004l-0.054,0.009l-0.048,0.005
				l-0.044,0.003l-0.038,0.006l-0.035,0.003l-0.022,0.004l-0.016,0.004h-0.006l-0.111,0.02l-0.107,0.027l-0.104,0.035l-0.102,0.043
				l-0.095,0.051l-0.092,0.061l-0.089,0.066l-0.079,0.07l-0.075,0.08l-0.066,0.088l-0.057,0.092l-0.051,0.103l-0.041,0.106
				l-0.032,0.109l-0.019,0.119L164.804,77v0.07l0.006,0.068l0.01,0.07l0.012,0.074l0.02,0.066l0.025,0.069l0.032,0.069l0.038,0.066
				l0.044,0.063l0.051,0.061l0.063,0.061l0.069,0.051l0.079,0.048l0.089,0.039l0.101,0.033l0.112,0.024l0.085,0.017l0.088,0.01
				l0.091-0.004l0.092-0.006l0.096-0.017l0.091-0.018l0.093-0.021l0.091-0.026l0.085-0.031l0.083-0.038l0.08-0.035l0.076-0.046
				l0.066-0.047l0.059-0.046l0.05-0.052l0.045-0.054l-0.013,0.051l-0.013,0.089l-0.016,0.116l-0.022,0.129h0.797l0.126-0.7
				l0.32-1.67l0.018-0.127V75.3L168.009,75.193z M166.911,76.475l-0.019,0.103l-0.022,0.104l-0.025,0.09l-0.011,0.035l-0.015,0.035
				l-0.02,0.035l-0.021,0.039l-0.026,0.039l-0.031,0.033l-0.039,0.037l-0.041,0.033l-0.047,0.033l-0.054,0.026l-0.06,0.028
				l-0.063,0.021l-0.073,0.021l-0.083,0.014l-0.085,0.011l-0.095,0.003l-0.051-0.003l-0.051-0.011l-0.054-0.021l-0.047-0.031
				l-0.041-0.045l-0.032-0.063l-0.015-0.085l0.002-0.105l0.01-0.053l0.019-0.051l0.022-0.044l0.031-0.041l0.035-0.039l0.039-0.038
				l0.041-0.029l0.045-0.031l0.041-0.023l0.045-0.021l0.041-0.021l0.041-0.021l0.034-0.018l0.036-0.013l0.025-0.011l0.022-0.008
				l0.035-0.01l0.038-0.009l0.045-0.011l0.047-0.008l0.05-0.006l0.051-0.008l0.054-0.005l0.051-0.005h0.047h0.046l0.042,0.005
				l0.034,0.005l0.032,0.008l0.019,0.01l0.012,0.018l0.003,0.016L166.911,76.475z"/>
			<polygon fill="#EC1C2E" points="166.911,76.359 166.893,76.35 166.86,76.343 166.826,76.338 166.784,76.333 166.737,76.333 
				166.69,76.333 166.639,76.338 166.585,76.343 166.534,76.35 166.484,76.355 166.437,76.363 166.392,76.373 166.354,76.381 
				166.319,76.391 166.297,76.398 166.272,76.407 166.236,76.419 166.202,76.436 166.162,76.455 166.121,76.477 166.076,76.5 
				166.036,76.523 165.991,76.555 165.95,76.586 165.911,76.625 165.876,76.664 165.845,76.705 165.822,76.749 165.804,76.799 
				165.794,76.85 165.792,76.958 165.807,77.042 165.839,77.107 165.879,77.152 165.927,77.184 165.98,77.204 166.031,77.214 
				166.082,77.217 166.177,77.214 166.262,77.204 166.345,77.191 166.418,77.171 166.48,77.15 166.541,77.121 166.595,77.094 
				166.642,77.059 166.683,77.027 166.722,76.988 166.752,76.955 166.778,76.916 166.8,76.876 166.819,76.841 166.834,76.805 
				166.845,76.77 166.87,76.68 166.893,76.575 166.911,76.475 166.927,76.391 166.923,76.375 			"/>
		</g>
		<polygon fill="#FFFFFF" points="161.034,77.918 160.174,77.918 160.892,73.768 162.387,73.768 162.531,76.23 163.564,73.768 
			165.127,73.768 164.394,77.918 163.533,77.918 164.077,74.816 164.042,74.816 162.755,77.918 161.783,77.918 161.777,77.79 
			161.755,77.445 161.727,76.955 161.695,76.391 161.664,75.826 161.635,75.33 161.612,74.968 161.606,74.816 161.597,74.816 
			161.578,74.816 161.559,74.816 161.559,74.816 		"/>
		<g>
			<path fill="#FFFFFF" d="M183.712,75.193l-0.035-0.104l-0.047-0.095l-0.064-0.086l-0.072-0.075l-0.079-0.067l-0.089-0.062
				l-0.095-0.058l-0.098-0.041l-0.099-0.039l-0.102-0.026l-0.099-0.021l-0.094-0.018l-0.089-0.006l-0.108-0.003l-0.106-0.004h-0.102
				h-0.099h-0.098l-0.091,0.004l-0.091,0.003l-0.089,0.006l-0.086,0.01l-0.082,0.012l-0.08,0.014l-0.077,0.014l-0.076,0.018
				l-0.073,0.021l-0.073,0.025l-0.07,0.029l-0.22,0.76l0.034-0.018l0.044-0.021l0.057-0.021l0.071-0.018l0.073-0.018l0.084-0.019
				l0.09-0.017l0.096-0.014l0.099-0.013l0.102-0.008l0.102-0.011l0.104-0.006l0.102-0.005h0.098l0.096,0.005l0.088,0.004
				l0.076,0.004l0.07,0.021l0.064,0.028l0.06,0.041l0.047,0.047l0.039,0.057l0.025,0.063l0.013,0.07l-0.005,0.06l-0.01,0.067
				l-0.011,0.056l-0.005,0.022h-0.012l-0.03-0.003l-0.051-0.005l-0.061-0.004h-0.069l-0.072-0.002l-0.075-0.004h-0.076h-0.036
				l-0.043,0.004l-0.044,0.002l-0.051,0.004l-0.055,0.008l-0.053,0.004l-0.059,0.006l-0.053,0.004l-0.051,0.009l-0.047,0.005
				L181.75,75.8l-0.039,0.007l-0.033,0.002l-0.022,0.004l-0.017,0.004h-0.006l-0.106,0.02l-0.105,0.027l-0.103,0.035l-0.099,0.043
				l-0.099,0.053l-0.091,0.059l-0.085,0.067l-0.084,0.069l-0.073,0.08l-0.065,0.088l-0.06,0.094l-0.047,0.101l-0.043,0.108
				l-0.029,0.107l-0.018,0.119l-0.007,0.121v0.071l0.007,0.067l0.01,0.07l0.013,0.074l0.017,0.066l0.024,0.07l0.028,0.068
				l0.037,0.066l0.046,0.063l0.049,0.061l0.061,0.061l0.07,0.051l0.082,0.051l0.089,0.036l0.101,0.033l0.114,0.024l0.086,0.017
				l0.085,0.013l0.089-0.007l0.091-0.006l0.089-0.017l0.089-0.014l0.088-0.022l0.088-0.026l0.077-0.029l0.078-0.037l0.076-0.039
				l0.067-0.041l0.063-0.043l0.057-0.047l0.047-0.047l0.042-0.049l-0.007,0.038v0.085l-0.004,0.114l-0.006,0.129h0.795l0.129-0.701
				l0.332-1.67l0.017-0.127V75.3L183.712,75.193z M182.615,76.469l-0.012,0.092l-0.017,0.09l-0.013,0.092l-0.01,0.031l-0.012,0.037
				l-0.017,0.039l-0.021,0.039l-0.029,0.039l-0.035,0.038l-0.038,0.042l-0.044,0.034l-0.051,0.039l-0.056,0.03l-0.061,0.029
				l-0.07,0.022l-0.073,0.021l-0.082,0.018l-0.088,0.011l-0.095,0.003l-0.055-0.003l-0.053-0.011l-0.055-0.021l-0.048-0.031
				l-0.037-0.045l-0.026-0.063l-0.014-0.085l0.002-0.105l0.01-0.057l0.019-0.051l0.022-0.049l0.028-0.043l0.034-0.041l0.035-0.033
				l0.042-0.035l0.04-0.027l0.042-0.029l0.043-0.021l0.038-0.021l0.043-0.02l0.034-0.011l0.033-0.013l0.022-0.008l0.024-0.004
				l0.03-0.008l0.042-0.01l0.04-0.006l0.047-0.012l0.048-0.008l0.051-0.006l0.051-0.006l0.052-0.008l0.046-0.004h0.048l0.042,0.004
				l0.034,0.005l0.03,0.009l0.024,0.01l0.012,0.019l0.007,0.02L182.615,76.469z"/>
			<polygon fill="#FBB231" points="182.603,76.355 182.579,76.348 182.548,76.338 182.514,76.333 182.472,76.331 182.424,76.331 
				182.378,76.333 182.327,76.341 182.276,76.348 182.225,76.354 182.177,76.359 182.13,76.37 182.09,76.375 182.048,76.385 
				182.018,76.391 181.994,76.395 181.971,76.402 181.938,76.415 181.904,76.425 181.861,76.445 181.823,76.463 181.78,76.486 
				181.738,76.514 181.698,76.543 181.656,76.579 181.621,76.613 181.586,76.654 181.558,76.698 181.536,76.745 181.517,76.795 
				181.507,76.85 181.505,76.958 181.519,77.042 181.545,77.107 181.583,77.152 181.63,77.184 181.685,77.204 181.738,77.214 
				181.792,77.217 181.887,77.214 181.975,77.204 182.057,77.188 182.13,77.167 182.201,77.141 182.261,77.111 182.317,77.082 
				182.368,77.042 182.412,77.008 182.45,76.966 182.485,76.928 182.514,76.889 182.536,76.85 182.552,76.811 182.564,76.773 
				182.574,76.74 182.586,76.65 182.603,76.561 182.615,76.469 182.622,76.391 182.615,76.373 			"/>
		</g>
		<g>
			<path fill="none" d="M189.905,77.359l-0.031-0.063l-0.042-0.053l-0.051-0.046l-0.06-0.031l-0.068-0.021l-0.073-0.009
				l-0.073,0.009l-0.069,0.021l-0.059,0.031l-0.051,0.046l-0.043,0.053l-0.03,0.063l-0.021,0.066l-0.004,0.061v0.019l0.004,0.076
				l0.021,0.069l0.03,0.06l0.043,0.056l0.051,0.043l0.059,0.034l0.069,0.022l0.073,0.006l0.073-0.006l0.068-0.022l0.06-0.034
				l0.051-0.043l0.042-0.056l0.031-0.06l0.021-0.069l0.005-0.076l-0.003-0.019l-0.002-0.061L189.905,77.359z M189.75,77.438
				l-0.008,0.023l-0.008,0.018l-0.007,0.008l-0.007,0.011l-0.015,0.015l-0.02,0.006l-0.021,0.008h-0.023l0.095,0.158h-0.063
				l-0.094-0.158h-0.08v0.158h-0.078V77.49V77.3h0.175l0.036,0.002l0.036,0.007l0.025,0.01l0.022,0.017l0.014,0.021l0.013,0.019
				l0.008,0.022l0.003,0.021L189.75,77.438z"/>
			<polygon fill="none" points="189.58,77.488 189.596,77.486 189.608,77.482 189.63,77.479 189.649,77.475 189.666,77.466 
				189.677,77.458 189.683,77.448 189.69,77.432 189.69,77.41 189.687,77.395 189.682,77.38 189.67,77.375 189.661,77.368 
				189.644,77.365 189.63,77.363 189.614,77.363 189.596,77.363 189.5,77.363 189.5,77.486 189.5,77.488 			"/>
			<polygon fill="#FFFFFF" points="189.233,77.428 189.254,77.359 189.285,77.296 189.328,77.244 189.378,77.198 189.437,77.167 
				189.506,77.145 189.58,77.137 189.653,77.145 189.721,77.167 189.781,77.198 189.832,77.244 189.874,77.296 189.905,77.359 
				189.925,77.428 189.927,77.486 190.022,77.486 190.015,77.414 189.991,77.329 189.947,77.251 189.892,77.184 189.827,77.132 
				189.75,77.094 189.668,77.068 189.58,77.059 189.491,77.068 189.41,77.094 189.332,77.132 189.266,77.184 189.212,77.251 
				189.168,77.329 189.143,77.414 189.136,77.486 189.229,77.486 			"/>
			<polygon fill="#FFFFFF" points="189.743,77.365 189.73,77.348 189.716,77.329 189.694,77.314 189.668,77.305 189.632,77.298 
				189.596,77.296 189.421,77.296 189.421,77.486 189.5,77.486 189.5,77.363 189.596,77.363 189.614,77.363 189.63,77.363 
				189.644,77.365 189.661,77.368 189.67,77.375 189.682,77.38 189.687,77.395 189.69,77.41 189.69,77.432 189.683,77.448 
				189.677,77.458 189.666,77.466 189.649,77.475 189.63,77.479 189.608,77.482 189.596,77.486 189.728,77.486 189.735,77.479 
				189.743,77.461 189.75,77.438 189.753,77.41 189.75,77.389 			"/>
			<polygon fill="#FFFFFF" points="190.022,77.486 189.927,77.486 189.93,77.504 189.925,77.581 189.905,77.65 189.874,77.709 
				189.832,77.764 189.781,77.809 189.721,77.842 189.653,77.865 189.58,77.871 189.506,77.865 189.437,77.842 189.378,77.809 
				189.328,77.764 189.285,77.709 189.254,77.65 189.233,77.581 189.229,77.504 189.229,77.486 189.136,77.486 189.132,77.504 
				189.143,77.596 189.168,77.68 189.212,77.757 189.266,77.82 189.332,77.875 189.41,77.916 189.491,77.939 189.58,77.95 
				189.668,77.939 189.75,77.916 189.827,77.875 189.892,77.82 189.947,77.757 189.991,77.68 190.015,77.596 190.025,77.504 			"/>
			<polygon fill="#FFFFFF" points="189.58,77.488 189.5,77.488 189.5,77.486 189.421,77.486 189.421,77.68 189.5,77.68 
				189.5,77.521 189.58,77.521 189.673,77.68 189.737,77.68 189.642,77.521 189.666,77.521 189.687,77.514 189.707,77.508 
				189.721,77.495 189.728,77.486 189.596,77.486 			"/>
		</g>
		<polygon fill="#FFFFFF" points="183.624,77.918 184.516,77.918 184.516,77.918 184.834,76.12 184.847,76.049 184.868,75.98 
			184.885,75.911 184.911,75.842 184.941,75.771 184.98,75.706 185.021,75.643 185.072,75.583 185.128,75.527 185.193,75.477 
			185.264,75.43 185.346,75.391 185.439,75.359 185.539,75.334 185.65,75.316 185.774,75.311 185.82,75.311 185.843,75.311 
			185.854,75.311 185.854,75.311 185.996,74.497 185.907,74.503 185.821,74.514 185.743,74.527 185.667,74.55 185.598,74.576 
			185.531,74.607 185.466,74.643 185.407,74.682 185.35,74.725 185.295,74.77 185.247,74.818 185.195,74.869 185.149,74.924 
			185.101,74.984 185.052,75.041 185.008,75.104 185.103,74.531 184.215,74.531 		"/>
		<polygon fill="#FFFFFF" points="175.248,77.918 176.14,77.918 176.157,77.918 176.46,76.12 176.472,76.049 176.487,75.982 
			176.503,75.916 176.525,75.854 176.551,75.792 176.583,75.73 176.62,75.673 176.666,75.62 176.716,75.573 176.773,75.525 
			176.842,75.488 176.917,75.452 177.007,75.424 177.105,75.398 177.212,75.382 177.335,75.373 177.345,75.373 177.358,75.377 
			177.375,75.379 177.388,75.379 177.405,75.382 177.417,75.385 177.427,75.389 177.43,75.389 177.434,75.377 177.444,75.338 
			177.457,75.279 177.472,75.211 177.495,75.129 177.515,75.041 177.544,74.951 177.573,74.865 177.597,74.805 177.63,74.745 
			177.661,74.684 177.692,74.63 177.721,74.583 177.743,74.544 177.759,74.523 177.765,74.514 177.763,74.514 177.75,74.51 
			177.734,74.506 177.712,74.503 177.691,74.503 177.665,74.501 177.643,74.497 177.62,74.497 177.522,74.503 177.434,74.514 
			177.35,74.527 177.276,74.548 177.203,74.574 177.136,74.605 177.076,74.635 177.02,74.674 176.965,74.715 176.914,74.764 
			176.867,74.811 176.82,74.865 176.773,74.917 176.729,74.977 176.681,75.041 176.632,75.104 176.747,74.531 175.839,74.531 		"/>
	</g>
</g>
<rect x="205.25" y="62" fill="#FFFFFF" width="40" height="24"/>
<g>
	<path fill="#009DDD" d="M225.25,80.875c1.871-1.689,3.051-4.143,3.051-6.866c0-2.723-1.18-5.176-3.051-6.884
		c-1.635-1.489-3.814-2.397-6.212-2.397c-5.121,0-9.28,4.161-9.28,9.28c0,5.123,4.159,9.264,9.28,9.264
		C221.436,83.271,223.615,82.365,225.25,80.875L225.25,80.875z"/>
	<path fill="#009DDD" d="M225.25,80.875c1.871-1.689,3.051-4.143,3.051-6.866c0-2.723-1.18-5.176-3.051-6.884V80.875L225.25,80.875z
		"/>
	<path fill="#ED1C2E" d="M231.48,64.728c-2.396,0-4.576,0.908-6.23,2.397c-0.326,0.309-0.636,0.637-0.925,0.98h1.87
		c0.254,0.309,0.49,0.651,0.709,0.979h-3.287c-0.2,0.327-0.382,0.652-0.545,0.979h4.36c0.146,0.326,0.291,0.654,0.397,0.98h-5.139
		c-0.11,0.328-0.201,0.656-0.273,0.999h5.685c0.129,0.619,0.199,1.291,0.199,1.962c0,1.018-0.162,2.018-0.473,2.943h-5.139
		c0.109,0.326,0.236,0.652,0.381,0.979h4.36c-0.162,0.323-0.326,0.673-0.525,0.979h-3.288c0.218,0.346,0.455,0.673,0.708,0.98h1.871
		c-0.293,0.342-0.6,0.672-0.945,0.979c1.654,1.49,3.834,2.396,6.23,2.396c5.121,0,9.263-4.143,9.263-9.264
		C240.742,68.889,236.602,64.728,231.48,64.728L231.48,64.728z"/>
	<polygon fill="#003473" points="217.586,76.589 216.423,76.589 217.114,72.975 215.533,76.589 214.552,76.589 214.353,72.992 
		213.59,76.589 212.536,76.589 213.426,71.884 215.261,71.884 215.278,74.79 216.55,71.884 218.493,71.884 	"/>
	<path fill="#003473" d="M230.48,76.533c-0.326,0.091-0.563,0.127-0.836,0.127c-0.58,0-0.906-0.29-0.906-0.836
		c0-0.108,0.018-0.235,0.035-0.344l0.072-0.383l0.055-0.289l0.527-2.928h1.143l-0.161,0.872h0.579l-0.145,0.927h-0.6l-0.309,1.598
		c0,0.072-0.02,0.127-0.02,0.162c0,0.199,0.129,0.271,0.398,0.271c0.127,0,0.235,0,0.31-0.034L230.48,76.533L230.48,76.533z"/>
	<path fill="#003473" d="M225.904,73.973c0,0.473,0.271,0.817,0.871,1.055c0.49,0.199,0.563,0.256,0.563,0.437
		c0,0.235-0.219,0.349-0.673,0.349c-0.361,0-0.671-0.058-1.053-0.166l-0.163,0.893h0.054l0.218,0.035
		c0.071,0.021,0.163,0.035,0.307,0.035c0.273,0.021,0.492,0.039,0.637,0.039c1.234,0,1.798-0.399,1.798-1.271
		c0-0.525-0.233-0.836-0.817-1.072c-0.489-0.182-0.543-0.234-0.543-0.418c0-0.199,0.201-0.309,0.563-0.309
		c0.237,0,0.546,0.02,0.854,0.054l0.164-0.872c-0.312-0.055-0.766-0.091-1.037-0.091C226.34,72.665,225.887,73.264,225.904,73.973
		L225.904,73.973z"/>
	<path fill="#003473" d="M221.327,76.589h-0.962l0.019-0.399c-0.291,0.312-0.691,0.455-1.216,0.455c-0.618,0-1.054-0.42-1.054-1.037
		c0-0.926,0.744-1.472,2.034-1.472c0.127,0,0.291,0,0.473,0.021c0.037-0.128,0.037-0.181,0.037-0.236
		c0-0.255-0.199-0.362-0.745-0.362c-0.327,0-0.69,0.053-0.945,0.108l-0.163,0.056l-0.109,0.02l0.163-0.854
		c0.583-0.162,0.963-0.219,1.381-0.219c0.999,0,1.525,0.396,1.525,1.125c0,0.2-0.018,0.327-0.109,0.766l-0.236,1.34l-0.037,0.254
		l-0.036,0.199l-0.02,0.127V76.589L221.327,76.589z M220.546,74.881c-0.127-0.02-0.182-0.02-0.273-0.02
		c-0.653,0-0.981,0.199-0.981,0.58c0,0.238,0.163,0.381,0.418,0.381C220.184,75.824,220.528,75.443,220.546,74.881L220.546,74.881z"
		/>
	<path fill="#003473" d="M225.105,76.497c-0.382,0.108-0.763,0.163-1.181,0.163c-1.29,0-1.962-0.6-1.962-1.725
		c0-1.312,0.854-2.271,2.017-2.271c0.961,0,1.562,0.544,1.562,1.38c0,0.291-0.036,0.563-0.145,0.942h-2.288
		c-0.019,0.07-0.019,0.092-0.019,0.127c0,0.438,0.345,0.674,1.017,0.674c0.418,0,0.781-0.073,1.198-0.255L225.105,76.497
		L225.105,76.497z M224.56,74.227c0-0.091,0-0.145,0-0.199c0-0.309-0.199-0.488-0.544-0.488c-0.363,0-0.635,0.234-0.744,0.688
		H224.56L224.56,74.227z"/>
	<path fill="#003473" d="M237.419,74.844c-0.165,1.272-1.053,1.836-2.233,1.836c-1.307,0-1.836-0.781-1.836-1.763
		c0-1.344,0.893-2.271,2.271-2.271c1.197,0,1.835,0.763,1.835,1.726C237.456,74.607,237.456,74.626,237.419,74.844L237.419,74.844z
		 M236.256,74.391c0-0.396-0.162-0.779-0.635-0.779c-0.582,0-0.963,0.707-0.963,1.31c0,0.522,0.254,0.872,0.673,0.872
		c0.254,0,0.778-0.348,0.89-0.943C236.238,74.718,236.256,74.555,236.256,74.391L236.256,74.391z"/>
	<path fill="#FFFFFF" d="M237.546,76.006c0-0.163,0.146-0.29,0.31-0.29s0.291,0.127,0.291,0.29c0,0.164-0.127,0.311-0.291,0.311
		S237.546,76.17,237.546,76.006L237.546,76.006z M237.854,76.243c0.127,0,0.22-0.108,0.22-0.237c0-0.127-0.093-0.217-0.22-0.217
		s-0.234,0.09-0.234,0.217C237.619,76.135,237.729,76.243,237.854,76.243L237.854,76.243z M237.818,76.135h-0.072v-0.257h0.107
		c0.037,0,0.055,0,0.074,0.021c0.018,0.021,0.036,0.037,0.036,0.059c0,0.036-0.019,0.07-0.057,0.07l0.057,0.107h-0.073l-0.037-0.093
		h-0.035V76.135L237.818,76.135z M237.818,75.988h0.035c0,0,0.02,0,0.037,0c0,0,0-0.021,0-0.035v-0.02c-0.019,0-0.037,0-0.054,0
		h-0.021v0.055H237.818z"/>
	<polygon fill="#FFFFFF" points="217.876,76.316 216.714,76.316 217.404,72.701 215.824,76.316 214.77,76.316 214.588,72.721 
		213.898,76.316 212.846,76.316 213.734,71.611 215.551,71.611 215.641,74.518 216.913,71.611 218.784,71.611 	"/>
	<path fill="#FFFFFF" d="M230.771,76.262c-0.328,0.09-0.563,0.127-0.836,0.127c-0.58,0-0.908-0.291-0.908-0.834
		c0-0.111,0.021-0.22,0.037-0.347l0.07-0.381l0.057-0.291l0.529-2.925h1.141l-0.162,0.871h0.6l-0.164,0.927h-0.601l-0.289,1.598
		c-0.019,0.072-0.036,0.13-0.036,0.163c0,0.202,0.127,0.292,0.4,0.292c0.125,0,0.234-0.021,0.307-0.037L230.771,76.262
		L230.771,76.262z"/>
	<path fill="#003473" d="M233.73,73.592l-0.019-0.127l0.22-0.6c-0.054,0-0.072,0-0.092-0.018c-0.055,0-0.091-0.021-0.091-0.021
		c-0.037,0-0.073,0-0.108,0c-0.382,0-0.654,0.164-1.019,0.616l0.127-0.688h-1.198l-0.707,3.833h1.143
		c0.166-0.895,0.236-1.381,0.328-1.799c0.145-0.688,0.654-0.999,1.033-0.928c0.037,0,0.074,0,0.131,0.021l0.069,0.036L233.73,73.592
		L233.73,73.592z"/>
	<path fill="#FFFFFF" d="M234.133,72.52c-0.092-0.037-0.109-0.037-0.129-0.037c-0.056-0.019-0.091-0.019-0.091-0.033
		c-0.034,0-0.072,0-0.127,0c-0.382,0-0.655,0.16-1,0.615l0.106-0.582h-1.053l-0.708,3.834h1.162
		c0.418-2.344,0.582-2.762,1.146-2.762c0.037,0,0.092,0.021,0.146,0.021l0.127,0.034L234.133,72.52L234.133,72.52z"/>
	<path fill="#FFFFFF" d="M226.193,73.701c0,0.473,0.272,0.816,0.893,1.053c0.471,0.2,0.544,0.254,0.544,0.438
		c0,0.234-0.218,0.347-0.672,0.347c-0.347,0-0.673-0.058-1.054-0.162l-0.146,0.894h0.054l0.199,0.055
		c0.073,0,0.182,0.019,0.309,0.019c0.272,0.037,0.492,0.037,0.654,0.037c1.217,0,1.799-0.399,1.799-1.271
		c0-0.526-0.235-0.836-0.836-1.072c-0.489-0.182-0.543-0.236-0.543-0.417c0-0.2,0.197-0.31,0.58-0.31
		c0.219,0,0.545,0.019,0.836,0.055l0.162-0.871c-0.309-0.055-0.763-0.074-1.017-0.074C226.648,72.41,226.193,72.992,226.193,73.701
		L226.193,73.701z"/>
	<path fill="#FFFFFF" d="M221.618,76.316h-0.945l0.018-0.4c-0.291,0.309-0.69,0.454-1.216,0.454c-0.619,0-1.054-0.417-1.054-1.035
		c0-0.927,0.745-1.472,2.034-1.472c0.126,0,0.291,0,0.472,0.021c0.037-0.127,0.037-0.182,0.037-0.237c0-0.254-0.2-0.344-0.745-0.344
		c-0.327,0-0.69,0.037-0.945,0.092l-0.163,0.056l-0.109,0.018l0.164-0.854c0.581-0.146,0.943-0.199,1.38-0.199
		c0.998,0,1.508,0.382,1.508,1.106c0,0.201-0.019,0.346-0.091,0.764l-0.236,1.359l-0.036,0.234l-0.037,0.201l-0.019,0.128
		L221.618,76.316L221.618,76.316z M220.783,74.607c-0.127-0.021-0.181-0.021-0.255-0.021c-0.654,0-0.981,0.199-0.981,0.579
		c0,0.234,0.146,0.396,0.399,0.396C220.419,75.57,220.764,75.17,220.783,74.607L220.783,74.607z"/>
	<path fill="#FFFFFF" d="M225.414,76.225c-0.399,0.108-0.781,0.164-1.18,0.164c-1.29,0-1.961-0.6-1.961-1.725
		c0-1.309,0.853-2.271,2.016-2.271c0.945,0,1.543,0.545,1.543,1.381c0,0.291-0.037,0.563-0.126,0.943h-2.308
		c0,0.072,0,0.092,0,0.127c0,0.438,0.328,0.672,0.999,0.672c0.418,0,0.799-0.072,1.199-0.231L225.414,76.225L225.414,76.225z
		 M224.796,73.954c0-0.072,0-0.146,0-0.199c0-0.308-0.2-0.489-0.544-0.489c-0.363,0-0.618,0.254-0.727,0.689L224.796,73.954
		L224.796,73.954z"/>
	<path fill="#FFFFFF" d="M237.729,74.572c-0.183,1.271-1.071,1.835-2.254,1.835c-1.289,0-1.813-0.782-1.813-1.763
		c0-1.347,0.89-2.271,2.269-2.271c1.2,0,1.836,0.764,1.836,1.727C237.766,74.337,237.766,74.355,237.729,74.572L237.729,74.572z
		 M236.529,74.082c0-0.4-0.163-0.764-0.637-0.764c-0.58,0-0.943,0.688-0.943,1.308c0,0.511,0.255,0.854,0.654,0.854
		c0.256,0,0.799-0.348,0.891-0.926C236.529,74.408,236.529,74.245,236.529,74.082L236.529,74.082z"/>
</g>
<rect x="254.566" y="65.382" fill="#FFFFFF" width="40" height="24"/>
<g>
	<polygon fill="#00589F" points="270.222,81.762 271.711,73.025 274.092,73.025 272.603,81.762 	"/>
	<path fill="#00589F" d="M281.238,73.241c-0.473-0.179-1.211-0.367-2.134-0.367c-2.354,0-4.011,1.185-4.024,2.883
		c-0.014,1.255,1.182,1.955,2.086,2.372c0.928,0.43,1.238,0.701,1.233,1.082c-0.006,0.587-0.739,0.854-1.425,0.854
		c-0.952,0-1.459-0.133-2.239-0.459l-0.307-0.141l-0.335,1.957c0.557,0.243,1.584,0.454,2.653,0.465
		c2.502,0,4.125-1.171,4.146-2.982c0.009-0.991-0.626-1.75-1.999-2.375c-0.832-0.401-1.345-0.672-1.336-1.08
		c0-0.362,0.432-0.754,1.362-0.754c0.777-0.012,1.342,0.158,1.78,0.338l0.214,0.101L281.238,73.241z"/>
	<g>
		<path fill="#00589F" d="M287.343,73.034h-1.842c-0.568,0-0.996,0.155-1.246,0.725l-3.535,8.005h2.5c0,0,0.408-1.074,0.5-1.313
			c0.272,0,2.703,0.005,3.05,0.005c0.071,0.305,0.29,1.31,0.29,1.31h2.209L287.343,73.034L287.343,73.034L287.343,73.034z
			 M284.406,78.664c0.197-0.505,0.949-2.441,0.949-2.441c-0.014,0.023,0.195-0.507,0.314-0.834l0.162,0.754
			c0,0,0.455,2.086,0.551,2.521H284.406z"/>
	</g>
	<path fill="#00589F" d="M268.225,73.031l-2.33,5.957l-0.249-1.209c-0.434-1.396-1.786-2.907-3.297-3.664l2.131,7.638L267,81.75
		l3.748-8.719H268.225z"/>
	<path fill="#F9A51A" d="M263.732,73.027h-3.839l-0.03,0.182c2.987,0.725,4.963,2.471,5.783,4.57l-0.834-4.014
		C264.667,73.211,264.25,73.046,263.732,73.027z"/>
</g>
<rect x="309.75" y="63" fill="#FFFFFF" width="40" height="24"/>
<path fill="none" d="M332.471,80.066h-0.1c-0.059,0-0.111,0.043-0.12,0.103l-0.153,0.974h0.221c0.387,0,0.781,0,0.861-0.521
	c0.028-0.183,0.006-0.315-0.07-0.405C332.98,80.066,332.732,80.066,332.471,80.066z"/>
<path fill="none" d="M335.8,81.277c-0.394,0-0.716,0.277-0.778,0.673c-0.033,0.19,0.006,0.364,0.108,0.485
	c0.104,0.123,0.265,0.188,0.468,0.188c0.402,0,0.717-0.266,0.783-0.664c0.033-0.191-0.009-0.368-0.115-0.491
	C336.158,81.343,335.999,81.277,335.8,81.277z"/>
<path fill="none" d="M325.445,81.277c-0.396,0-0.717,0.277-0.779,0.673c-0.033,0.19,0.005,0.364,0.107,0.485
	c0.104,0.123,0.267,0.188,0.469,0.188c0.402,0,0.718-0.266,0.783-0.664c0.033-0.191-0.008-0.368-0.117-0.491
	C325.802,81.343,325.643,81.277,325.445,81.277z"/>
<path fill="none" d="M322.115,80.066h-0.1c-0.063,0-0.111,0.043-0.121,0.103l-0.152,0.974h0.219c0.385,0,0.783,0,0.863-0.521
	c0.029-0.183,0.005-0.315-0.071-0.405C322.625,80.066,322.377,80.066,322.115,80.066z"/>
<path fill="#009BDE" d="M334.07,79.634c-0.207-0.243-0.573-0.372-1.057-0.372h-1.453c-0.103,0-0.188,0.073-0.199,0.172l-0.586,3.728
	c-0.012,0.069,0.045,0.139,0.119,0.139h0.744c0.066,0,0.129-0.052,0.139-0.118l0.168-1.056c0.016-0.101,0.1-0.171,0.199-0.171h0.459
	c0.957,0,1.508-0.463,1.647-1.38C334.32,80.171,334.259,79.855,334.07,79.634z M333.18,80.622c-0.08,0.521-0.479,0.521-0.861,0.521
	h-0.221l0.153-0.974c0.009-0.06,0.062-0.103,0.12-0.103h0.1c0.262,0,0.51,0,0.639,0.147
	C333.186,80.307,333.208,80.439,333.18,80.622z"/>
<path fill="#002F87" d="M323.713,79.634c-0.205-0.243-0.57-0.372-1.056-0.372h-1.452c-0.1,0-0.184,0.073-0.2,0.172l-0.586,3.728
	c-0.013,0.069,0.045,0.139,0.119,0.139h0.692c0.1,0,0.185-0.067,0.199-0.171l0.155-1.003c0.021-0.101,0.104-0.171,0.198-0.171h0.46
	c0.956,0,1.509-0.463,1.647-1.38C323.964,80.171,323.902,79.855,323.713,79.634z M322.824,80.622
	c-0.08,0.521-0.479,0.521-0.863,0.521h-0.219l0.152-0.974c0.01-0.06,0.062-0.103,0.121-0.103h0.1c0.262,0,0.51,0,0.638,0.147
	C322.829,80.307,322.854,80.439,322.824,80.622z"/>
<path fill="#002F87" d="M326.995,80.605H326.3c-0.059,0-0.11,0.043-0.118,0.102l-0.031,0.195l-0.049-0.07
	c-0.146-0.219-0.481-0.291-0.82-0.291c-0.768,0-1.426,0.581-1.553,1.396c-0.063,0.408,0.027,0.797,0.258,1.066
	c0.218,0.248,0.521,0.354,0.877,0.354c0.619,0,0.966-0.396,0.966-0.396l-0.03,0.193c-0.012,0.072,0.046,0.14,0.119,0.14h0.626
	c0.104,0,0.188-0.069,0.194-0.17l0.381-2.38C327.127,80.671,327.068,80.605,326.995,80.605z M325.242,82.623
	c-0.202,0-0.363-0.064-0.469-0.188c-0.104-0.121-0.145-0.295-0.107-0.485c0.063-0.396,0.383-0.673,0.779-0.673
	c0.197,0,0.354,0.063,0.463,0.188c0.109,0.123,0.15,0.303,0.117,0.491C325.96,82.357,325.645,82.623,325.242,82.623z"/>
<path fill="#009BDE" d="M337.352,80.605h-0.69c-0.063,0-0.11,0.043-0.121,0.102l-0.029,0.195l-0.049-0.07
	c-0.146-0.219-0.481-0.291-0.817-0.291c-0.771,0-1.429,0.581-1.556,1.396c-0.063,0.408,0.022,0.797,0.261,1.066
	c0.215,0.248,0.516,0.354,0.873,0.354c0.618,0,0.967-0.396,0.967-0.396l-0.031,0.193c-0.012,0.072,0.045,0.14,0.119,0.14h0.627
	c0.099,0,0.184-0.069,0.199-0.17l0.375-2.38C337.482,80.671,337.424,80.605,337.352,80.605z M335.598,82.623
	c-0.203,0-0.363-0.064-0.468-0.188c-0.103-0.121-0.142-0.295-0.108-0.485c0.063-0.396,0.389-0.673,0.778-0.673
	c0.199,0,0.358,0.063,0.466,0.188c0.106,0.123,0.148,0.303,0.115,0.491C336.314,82.357,336,82.623,335.598,82.623z"/>
<path fill="#002F87" d="M330.798,80.797c0.056-0.08-0.002-0.191-0.1-0.191H330c-0.066,0-0.13,0.033-0.168,0.088l-0.964,1.424
	l-0.408-1.365c-0.024-0.085-0.104-0.146-0.192-0.146h-0.687c-0.084,0-0.144,0.082-0.115,0.16l0.771,2.26l-0.725,1.021
	c-0.058,0.082,0,0.191,0.1,0.191h0.697c0.065,0,0.129-0.031,0.166-0.088L330.798,80.797z"/>
<path fill="#009BDE" d="M338.962,79.262h-0.672c-0.06,0-0.108,0.045-0.12,0.104l-0.596,3.791c-0.012,0.071,0.046,0.139,0.119,0.139
	h0.6c0.1,0,0.186-0.069,0.199-0.17l0.589-3.724C339.093,79.328,339.036,79.262,338.962,79.262z"/>
<path fill="none" d="M355.303,86.066h-0.1c-0.061,0-0.111,0.043-0.121,0.103l-0.152,0.974h0.219c0.389,0,0.783,0,0.863-0.521
	c0.029-0.183,0.006-0.315-0.07-0.405C355.813,86.066,355.564,86.066,355.303,86.066z"/>
<g>
	<path fill="#009BDE" d="M330.021,72.516h-1.104c-0.264,0-0.479,0.188-0.521,0.447v0.002v0.001v0.001v0.001v0.001v-0.001
		l-0.563,3.567l-0.16,1.01c-0.024,0.174,0.104,0.326,0.278,0.326h1.947c0.229,0,0.43-0.168,0.463-0.396l0.021-0.099l0.368-2.328
		l0.021-0.129c0.035-0.228,0.229-0.396,0.463-0.396h0.291c1.889,0,3.365-0.77,3.799-2.983c0.181-0.927,0.087-1.699-0.393-2.243
		c-0.146-0.168-0.324-0.302-0.533-0.414c-0.01,0.073-0.023,0.145-0.039,0.221C333.869,71.641,332.18,72.516,330.021,72.516z"/>
	<path fill="#022169" d="M333.887,68.68c-0.076-0.021-0.154-0.041-0.234-0.061c-0.075-0.018-0.158-0.033-0.248-0.046
		c-0.295-0.048-0.615-0.071-0.967-0.071h-2.936c-0.072,0-0.143,0.018-0.203,0.046c-0.135,0.066-0.236,0.195-0.26,0.351l-0.624,3.955
		l-0.019,0.109c0.047-0.26,0.263-0.447,0.521-0.447h1.104c2.154,0,3.848-0.875,4.34-3.41c0.015-0.076,0.029-0.146,0.039-0.221
		c-0.123-0.066-0.26-0.123-0.404-0.172C333.96,68.701,333.924,68.689,333.887,68.68z"/>
	<path fill="#002F87" d="M326.766,66.277l-1.561,9.887c-0.03,0.193,0.121,0.371,0.318,0.371h2.311l0.563-3.567v-0.001v-0.001v-0.001
		v-0.001l0.021-0.11l0.624-3.955c0.021-0.153,0.125-0.282,0.26-0.351c0.063-0.028,0.134-0.046,0.203-0.046h2.938
		c0.348,0,0.672,0.023,0.967,0.071c0.086,0.013,0.169,0.028,0.248,0.046c0.08,0.02,0.158,0.038,0.234,0.061
		c0.033,0.01,0.069,0.021,0.105,0.033c0.146,0.049,0.277,0.105,0.4,0.172c0.104-0.67,0.056-1.183-0.166-1.633
		c-0.088-0.18-0.192-0.354-0.342-0.519c-0.14-0.159-0.308-0.295-0.5-0.41c-0.578-0.344-1.387-0.497-2.354-0.497h-3.742
		C327.029,65.826,326.807,66.017,326.766,66.277z"/>
</g>
<rect x="405.25" y="63.5" fill="#FFFFFF" width="40" height="24"/>
<g>
	<polygon fill="#0078A8" points="431.326,76.943 434.539,76.943 434.539,77.807 432.311,77.807 432.311,78.559 434.479,78.559 
		434.479,79.318 432.311,79.318 432.311,80.109 434.539,80.109 434.539,80.951 431.326,80.951 	"/>
	<path fill="#0078A8" d="M440.75,78.505c1.207,0.063,1.309,0.665,1.309,1.31c0,0.752-0.611,1.153-1.26,1.153h-2.063v-0.858h1.605
		c0.275,0,0.68,0,0.68-0.383c0-0.187-0.065-0.301-0.356-0.332c-0.129-0.019-0.606-0.045-0.687-0.045
		c-1.088-0.031-1.344-0.572-1.344-1.231c0-0.75,0.527-1.161,1.17-1.161h2.066v0.855h-1.512c-0.348,0.002-0.719-0.041-0.719,0.35
		c0,0.247,0.188,0.296,0.416,0.314C440.143,78.479,440.68,78.505,440.75,78.505z"/>
	<path fill="#0078A8" d="M437.049,78.505c1.209,0.063,1.313,0.665,1.313,1.31c0,0.752-0.614,1.153-1.262,1.153h-2.063v-0.858h1.604
		c0.273,0,0.687,0,0.687-0.383c0-0.187-0.072-0.301-0.363-0.332c-0.131-0.019-0.606-0.045-0.681-0.045
		c-1.093-0.031-1.347-0.572-1.347-1.231c0-0.75,0.524-1.161,1.173-1.161h2.063v0.855h-1.512c-0.344,0.002-0.717-0.041-0.717,0.35
		c0,0.247,0.186,0.296,0.418,0.314C436.439,78.479,436.977,78.505,437.049,78.505z"/>
	<g>
		<polygon fill="none" points="422.843,80.573 422.843,77.337 421.432,78.902 		"/>
		<path fill="none" d="M425.064,77.814h-1.23v0.959h1.225c0.403,0,0.551-0.232,0.551-0.5
			C425.605,78.076,425.475,77.814,425.064,77.814z"/>
		<polygon fill="none" points="416.818,77.807 416.818,78.559 418.986,78.559 418.986,79.318 416.818,79.318 416.818,80.109 
			419.085,80.109 420.166,78.902 419.21,77.813 		"/>
		<path fill="#0078A8" d="M425.391,76.954h-3.445l-1.127,1.239l-1.092-1.25h-3.877v4.008h3.75l1.184-1.324l1.148,1.332h1.891V79.6
			h1.318c0.514,0,1.438-0.018,1.438-1.422C426.578,77.177,425.873,76.954,425.391,76.954z M419.085,80.109h-2.267v-0.791h2.168
			v-0.76h-2.168v-0.752l2.392,0.006l0.956,1.09L419.085,80.109z M422.843,80.573l-1.413-1.671l1.413-1.565V80.573z M425.059,78.773
			h-1.225v-0.959h1.23c0.406,0,0.541,0.262,0.541,0.457C425.605,78.541,425.462,78.773,425.059,78.773z"/>
	</g>
	<g>
		<path fill="none" d="M429.295,77.814h-1.229v0.901h1.225c0.402,0,0.545-0.179,0.545-0.444
			C429.836,78.076,429.707,77.814,429.295,77.814z"/>
		<path fill="#0078A8" d="M430.141,79.135c0.535-0.268,0.684-0.623,0.684-1.109c0-0.854-0.694-1.067-1.184-1.067h-2.557v4.005h0.984
			v-1.414h1.287c0.338,0,0.473,0.34,0.479,0.684l0.026,0.73h0.957l-0.036-0.822C430.783,79.493,430.605,79.188,430.141,79.135z
			 M429.291,78.721h-1.225v-0.906h1.229c0.412,0,0.541,0.266,0.541,0.459C429.836,78.541,429.693,78.721,429.291,78.721z"/>
	</g>
	<rect x="427.477" y="70.032" fill="#0078A8" width="0.982" height="4.009"/>
	<polygon fill="#0078A8" points="419.43,70.036 422.643,70.036 422.643,70.898 420.412,70.898 420.412,71.65 422.58,71.65 
		422.58,72.409 420.412,72.409 420.412,73.199 422.643,73.199 422.643,74.041 419.43,74.041 	"/>
	<g>
		<path fill="none" d="M425.438,70.895h-1.229v0.907h1.226c0.402,0,0.549-0.179,0.549-0.446
			C425.98,71.159,425.848,70.895,425.438,70.895z"/>
		<path fill="#0078A8" d="M426.283,72.217c0.537-0.267,0.68-0.626,0.68-1.107c0-0.856-0.697-1.07-1.18-1.07h-2.561v4.005h0.982
			V72.63h1.287c0.34,0,0.475,0.341,0.48,0.683l0.024,0.73h0.957l-0.035-0.822C426.926,72.574,426.748,72.271,426.283,72.217z
			 M425.434,71.803h-1.226v-0.908h1.229c0.41,0,0.541,0.267,0.541,0.461C425.98,71.624,425.836,71.803,425.434,71.803z"/>
	</g>
	<g>
		<polygon fill="none" points="410.234,72.283 411.432,72.283 410.82,70.883 		"/>
		<path fill="#0078A8" d="M417.161,70.036l-1.207,2.687l-1.202-2.687h-1.542v3.854l-1.715-3.854h-1.302l-1.752,4.005h1.033
			l0.387-0.895h1.964l0.389,0.895h1.979v-2.973l1.313,2.973h0.896l1.346-2.923v2.923h0.984v-4.005H417.161L417.161,70.036z
			 M410.234,72.283l0.586-1.4l0.607,1.4H410.234z"/>
	</g>
	<g>
		<polygon fill="none" points="432.566,72.285 433.77,72.285 433.152,70.885 		"/>
		<path fill="#0078A8" d="M438.605,70.035v2.771l-1.656-2.771h-1.455v3.761l-1.674-3.76h-1.305l-1.354,3.103
			c0,0-0.572,0-0.631-0.015c-0.236-0.049-0.607-0.217-0.609-0.922v-0.291c0-0.938,0.509-1.007,1.162-1.007h0.604v-0.869h-1.281
			c-0.449,0-1.421,0.341-1.451,1.986c-0.024,1.105,0.459,2.021,1.549,2.021h1.298l0.389-0.896h1.961l0.389,0.896h1.941v-2.933
			l1.768,2.933h1.342v-4.007H438.605z M432.566,72.285l0.586-1.4l0.611,1.4H432.566z"/>
	</g>
</g>
<rect x="353.125" y="67.5" fill="#FFFFFF" width="39.875" height="24"/>
<g>
	<path fill="#FCAF17" d="M376.816,82.193c-1.844,1.361-4.518,2.084-6.813,2.084c-3.224,0-6.126-1.19-8.323-3.176
		c-0.172-0.153-0.019-0.367,0.189-0.246c2.371,1.377,5.301,2.209,8.326,2.209c2.043,0,4.287-0.426,6.354-1.301
		C376.859,81.632,377.12,81.971,376.816,82.193"/>
	<path fill="#FCAF17" d="M377.582,81.318c-0.236-0.301-1.557-0.146-2.15-0.069c-0.18,0.021-0.207-0.136-0.047-0.249
		c1.055-0.741,2.782-0.527,2.984-0.279c0.203,0.25-0.055,1.981-1.041,2.813c-0.152,0.128-0.297,0.059-0.23-0.109
		C377.32,82.863,377.818,81.622,377.582,81.318"/>
	<path fill="#231F20" d="M375.473,75.766v-0.72c0.002-0.108,0.084-0.183,0.182-0.183h3.229c0.104,0,0.187,0.074,0.187,0.182v0.617
		c0,0.104-0.088,0.238-0.24,0.453l-1.671,2.387c0.616-0.016,1.272,0.078,1.84,0.395c0.126,0.072,0.16,0.181,0.17,0.283v0.771
		c0,0.104-0.112,0.229-0.233,0.161c-0.994-0.521-2.313-0.575-3.408,0.011c-0.112,0.06-0.229-0.063-0.229-0.169v-0.729
		c0-0.115,0.002-0.314,0.12-0.494l1.938-2.776h-1.687C375.557,75.947,375.475,75.873,375.473,75.766"/>
	<path fill="#231F20" d="M363.707,80.262h-0.982c-0.093-0.007-0.168-0.076-0.175-0.166v-5.037c0-0.101,0.085-0.182,0.19-0.182h0.914
		c0.096,0.005,0.172,0.077,0.178,0.17v0.658h0.018c0.238-0.637,0.688-0.934,1.293-0.934c0.613,0,0.998,0.297,1.273,0.934
		c0.238-0.637,0.779-0.934,1.355-0.934c0.412,0,0.857,0.17,1.137,0.551c0.313,0.425,0.248,1.039,0.248,1.578l-0.002,3.182
		c0,0.1-0.084,0.18-0.188,0.18h-0.979c-0.1-0.006-0.176-0.084-0.176-0.18v-2.673c0-0.211,0.021-0.741-0.024-0.943
		c-0.074-0.339-0.294-0.435-0.577-0.435c-0.238,0-0.48,0.16-0.587,0.414c-0.104,0.255-0.095,0.678-0.095,0.964v2.671
		c0,0.1-0.084,0.182-0.188,0.182h-0.98c-0.1-0.008-0.176-0.085-0.176-0.182l-0.002-2.671c0-0.562,0.092-1.388-0.604-1.388
		c-0.705,0-0.68,0.806-0.68,1.388v2.671C363.896,80.182,363.813,80.262,363.707,80.262"/>
	<g>
		<path fill="none" d="M381.854,75.799c-0.725,0-0.77,0.986-0.77,1.6c0,0.617-0.009,1.934,0.762,1.934
			c0.76,0,0.795-1.063,0.795-1.707c0-0.424-0.018-0.936-0.146-1.336C382.385,75.936,382.166,75.799,381.854,75.799z"/>
		<path fill="#231F20" d="M381.846,74.77c-1.421,0-2.207,1.223-2.207,2.789c0,1.561,0.775,2.813,2.207,2.813
			c1.373,0,2.243-1.223,2.243-2.76C384.089,76.021,383.302,74.77,381.846,74.77z M381.846,79.329c-0.771,0-0.762-1.313-0.762-1.931
			c0-0.613,0.045-1.603,0.77-1.603c0.313,0,0.531,0.14,0.646,0.487c0.13,0.4,0.146,0.91,0.146,1.336
			C382.641,78.27,382.605,79.329,381.846,79.329z"/>
	</g>
	<path fill="#231F20" d="M385.979,80.262h-0.978c-0.101-0.007-0.175-0.085-0.175-0.182l-0.002-5.038
		c0.009-0.093,0.089-0.165,0.188-0.165h0.91c0.085,0.005,0.156,0.063,0.176,0.141v0.771h0.021c0.271-0.688,0.656-1.018,1.337-1.018
		c0.438,0,0.871,0.16,1.146,0.594c0.256,0.402,0.256,1.08,0.256,1.568v3.17c-0.012,0.088-0.092,0.154-0.188,0.154h-0.982
		c-0.096-0.006-0.166-0.07-0.178-0.154v-2.735c0-0.552,0.063-1.356-0.613-1.356c-0.236,0-0.457,0.158-0.564,0.402
		c-0.139,0.309-0.156,0.613-0.156,0.954v2.712C386.168,80.182,386.082,80.262,385.979,80.262"/>
	<g>
		<path fill="none" d="M371.441,78.631c0,0.426,0.222,0.712,0.599,0.712c0.274,0,0.522-0.171,0.679-0.446
			c0.192-0.34,0.186-0.658,0.186-1.041v-0.211C372.191,77.645,371.441,77.795,371.441,78.631z"/>
		<path fill="#231F20" d="M374.65,79.338c-0.186-0.248-0.371-0.449-0.371-0.91v-1.529c0-0.646,0.046-1.239-0.432-1.688
			c-0.381-0.359-1-0.488-1.479-0.488c-0.935,0-1.976,0.352-2.194,1.504c-0.023,0.121,0.066,0.188,0.146,0.203l0.949,0.104
			c0.09-0.005,0.15-0.093,0.17-0.181c0.084-0.396,0.416-0.59,0.791-0.59c0.201,0,0.432,0.072,0.551,0.256
			c0.138,0.201,0.121,0.478,0.121,0.711v0.129c-0.57,0.063-1.314,0.104-1.848,0.34c-0.615,0.266-1.05,0.807-1.05,1.604
			c0,1.02,0.646,1.529,1.474,1.529c0.693,0,1.08-0.166,1.619-0.715c0.178,0.259,0.231,0.384,0.563,0.654
			c0.072,0.041,0.167,0.035,0.23-0.021l0.004,0.003c0.19-0.174,0.553-0.483,0.752-0.651
			C374.727,79.533,374.712,79.428,374.65,79.338z M372.902,77.855c0,0.383,0.009,0.701-0.188,1.039
			c-0.153,0.275-0.399,0.445-0.679,0.445c-0.376,0-0.602-0.285-0.602-0.712c0-0.836,0.75-0.985,1.461-0.985v0.213H372.902z"/>
	</g>
	<path fill="none" d="M358.577,78.631c0,0.426,0.221,0.712,0.598,0.712c0.276,0,0.523-0.171,0.679-0.446
		c0.193-0.34,0.188-0.658,0.188-1.041v-0.211C359.327,77.645,358.577,77.795,358.577,78.631z"/>
	<path fill="#231F20" d="M361.785,79.338c-0.18-0.248-0.371-0.449-0.371-0.91v-1.529c0-0.646,0.046-1.239-0.432-1.688
		c-0.375-0.361-1-0.488-1.479-0.488c-0.935,0-1.978,0.352-2.194,1.504c-0.021,0.121,0.066,0.188,0.147,0.203l0.95,0.104
		c0.089-0.007,0.152-0.093,0.17-0.181c0.082-0.396,0.415-0.59,0.788-0.59c0.2,0,0.433,0.072,0.551,0.254
		c0.142,0.203,0.121,0.479,0.121,0.713v0.127c-0.57,0.063-1.313,0.105-1.847,0.342c-0.614,0.266-1.047,0.808-1.047,1.604
		c0,1.02,0.645,1.529,1.469,1.529c0.699,0,1.08-0.165,1.617-0.715c0.181,0.259,0.234,0.384,0.563,0.654
		c0.073,0.041,0.167,0.035,0.23-0.021l0.002,0.003c0.195-0.175,0.553-0.483,0.752-0.651
		C361.861,79.533,361.848,79.428,361.785,79.338z M360.037,77.855c0,0.383,0.009,0.701-0.186,1.039
		c-0.154,0.275-0.401,0.445-0.683,0.445c-0.376,0-0.599-0.285-0.599-0.712c0-0.836,0.75-0.985,1.461-0.985L360.037,77.855
		L360.037,77.855z"/>
</g>
<g>
	<g>
		<path fill="#4A4A4A" d="M506.582,109.221c-0.102-0.072-0.223-0.109-0.363-0.109h-1.033c-0.139,0-0.262,0.037-0.361,0.109
			c-0.104,0.071-0.154,0.157-0.154,0.256v3.875c-0.027-0.041-0.061-0.078-0.104-0.106l-5.736-4.06
			c-0.104-0.072-0.188-0.097-0.258-0.074c-0.069,0.023-0.104,0.084-0.104,0.186v4.059c-0.024-0.041-0.062-0.078-0.104-0.108
			l-5.734-4.058c-0.104-0.072-0.188-0.099-0.258-0.074c-0.07,0.023-0.105,0.084-0.105,0.184v8.41c0,0.1,0.035,0.16,0.105,0.184
			c0.068,0.023,0.156-0.002,0.258-0.074l5.734-4.057c0.043-0.033,0.078-0.07,0.104-0.107v4.057c0,0.102,0.035,0.16,0.104,0.186
			c0.068,0.021,0.154-0.002,0.258-0.074l5.736-4.057c0.043-0.035,0.076-0.072,0.104-0.109v3.873c0,0.101,0.051,0.186,0.154,0.26
			c0.102,0.07,0.225,0.107,0.361,0.107h1.033c0.143,0,0.264-0.037,0.363-0.107c0.104-0.074,0.154-0.159,0.154-0.26v-8.045
			C506.736,109.378,506.686,109.292,506.582,109.221L506.582,109.221z"/>
	</g>
</g>
<g id="Logo_on_black">
	<g>
		<g>
			<path fill="#231F20" d="M33.467,68.385c0,0.141-0.008,0.269-0.024,0.364c-0.016,0.109-0.04,0.189-0.071,0.252
				c-0.036,0.063-0.075,0.112-0.123,0.144c-0.051,0.031-0.107,0.046-0.167,0.046h-4.091v12.616c0,0.063-0.016,0.11-0.047,0.158
				c-0.028,0.047-0.083,0.079-0.155,0.11c-0.075,0.016-0.173,0.047-0.3,0.064c-0.123,0.016-0.277,0.031-0.463,0.031
				c-0.182,0-0.336-0.016-0.463-0.031c-0.13-0.018-0.229-0.049-0.305-0.064c-0.075-0.031-0.126-0.063-0.158-0.11
				c-0.028-0.048-0.043-0.095-0.043-0.158V69.19h-4.096c-0.059,0-0.11-0.015-0.162-0.046c-0.047-0.031-0.087-0.08-0.115-0.144
				c-0.032-0.063-0.056-0.143-0.075-0.252c-0.02-0.096-0.028-0.224-0.028-0.364c0-0.144,0.008-0.27,0.028-0.381
				c0.02-0.11,0.043-0.198,0.075-0.269c0.027-0.063,0.067-0.11,0.115-0.142c0.052-0.032,0.103-0.048,0.162-0.048h10.122
				c0.06,0,0.115,0.016,0.167,0.048c0.048,0.032,0.087,0.079,0.123,0.142c0.031,0.071,0.055,0.159,0.071,0.269
				C33.459,68.115,33.467,68.241,33.467,68.385z"/>
			<path fill="#231F20" d="M45.881,81.807c0,0.063-0.008,0.11-0.036,0.158c-0.02,0.047-0.067,0.079-0.143,0.11
				c-0.075,0.031-0.182,0.047-0.316,0.064c-0.135,0.016-0.313,0.031-0.539,0.031c-0.198,0-0.356-0.016-0.479-0.031
				c-0.123-0.018-0.222-0.033-0.297-0.064s-0.135-0.079-0.174-0.142c-0.043-0.063-0.079-0.135-0.111-0.229l-1.333-3.428
				c-0.159-0.396-0.325-0.751-0.491-1.075c-0.17-0.325-0.368-0.603-0.602-0.84c-0.233-0.237-0.506-0.428-0.823-0.554
				c-0.313-0.126-0.692-0.198-1.132-0.198h-1.293v6.197c0,0.063-0.016,0.11-0.052,0.158c-0.036,0.047-0.087,0.079-0.158,0.11
				c-0.071,0.016-0.167,0.047-0.293,0.064c-0.123,0.016-0.276,0.031-0.466,0.031c-0.186,0-0.341-0.016-0.463-0.031
				c-0.126-0.018-0.226-0.049-0.301-0.064c-0.075-0.031-0.126-0.063-0.158-0.11c-0.027-0.048-0.043-0.095-0.043-0.158V68.336
				c0-0.292,0.075-0.498,0.229-0.617c0.154-0.111,0.317-0.174,0.49-0.174h3.091c0.368,0,0.673,0.016,0.918,0.032
				c0.242,0.016,0.463,0.04,0.657,0.063c0.562,0.095,1.057,0.253,1.492,0.458c0.427,0.206,0.792,0.476,1.084,0.8
				c0.292,0.324,0.51,0.688,0.657,1.107c0.146,0.42,0.218,0.879,0.218,1.378c0,0.483-0.063,0.926-0.198,1.306
				c-0.131,0.388-0.317,0.729-0.566,1.028c-0.245,0.294-0.542,0.555-0.886,0.769c-0.345,0.221-0.732,0.402-1.16,0.553
				c0.241,0.104,0.458,0.238,0.653,0.396c0.194,0.166,0.376,0.356,0.546,0.577c0.167,0.23,0.325,0.491,0.479,0.775
				c0.146,0.294,0.297,0.626,0.447,0.998l1.305,3.196c0.104,0.27,0.171,0.46,0.202,0.571C45.865,81.664,45.881,81.742,45.881,81.807
				z M42.968,71.582c0-0.571-0.126-1.045-0.38-1.441c-0.257-0.396-0.685-0.681-1.282-0.855c-0.19-0.046-0.4-0.077-0.637-0.109
				c-0.237-0.017-0.546-0.031-0.926-0.031h-1.634v4.906H40c0.51,0,0.95-0.063,1.322-0.189c0.372-0.128,0.68-0.294,0.926-0.515
				c0.249-0.223,0.431-0.483,0.546-0.784C42.913,72.263,42.968,71.938,42.968,71.582z"/>
			<path fill="#231F20" d="M58.84,76.646c0,0.87-0.123,1.646-0.38,2.326c-0.253,0.689-0.618,1.268-1.092,1.742
				c-0.471,0.466-1.045,0.822-1.725,1.067c-0.677,0.246-1.449,0.373-2.312,0.373c-0.792,0-1.511-0.119-2.16-0.349
				s-1.207-0.57-1.67-1.013c-0.466-0.443-0.823-1.006-1.072-1.678c-0.253-0.665-0.38-1.44-0.38-2.328V67.9
				c0-0.055,0.016-0.102,0.047-0.149c0.028-0.048,0.08-0.079,0.15-0.111c0.076-0.023,0.171-0.047,0.293-0.063
				c0.115-0.016,0.269-0.032,0.463-0.032c0.178,0,0.328,0.016,0.455,0.032c0.123,0.016,0.222,0.04,0.292,0.063
				c0.067,0.032,0.119,0.063,0.15,0.111c0.028,0.048,0.044,0.095,0.044,0.149v8.658c0,0.665,0.079,1.243,0.241,1.733
				c0.162,0.499,0.399,0.91,0.704,1.235c0.305,0.333,0.673,0.585,1.108,0.744c0.427,0.166,0.914,0.253,1.457,0.253
				c0.55,0,1.044-0.079,1.476-0.245c0.431-0.167,0.795-0.403,1.096-0.736c0.301-0.316,0.526-0.728,0.685-1.202
				c0.163-0.476,0.237-1.038,0.237-1.679V67.9c0-0.055,0.017-0.102,0.048-0.149c0.028-0.048,0.079-0.079,0.154-0.111
				c0.072-0.023,0.17-0.047,0.293-0.063s0.277-0.032,0.459-0.032c0.178,0,0.325,0.016,0.447,0.032s0.217,0.04,0.289,0.063
				c0.071,0.032,0.123,0.063,0.154,0.111c0.036,0.048,0.048,0.095,0.048,0.149V76.646z"/>
			<path fill="#231F20" d="M69.754,77.968c0,0.673-0.127,1.259-0.372,1.781s-0.585,0.957-1.017,1.321
				c-0.435,0.356-0.95,0.634-1.535,0.815c-0.594,0.182-1.223,0.276-1.907,0.276c-0.475,0-0.914-0.04-1.318-0.118
				c-0.407-0.079-0.767-0.183-1.088-0.302c-0.316-0.11-0.585-0.236-0.799-0.362c-0.217-0.128-0.364-0.223-0.451-0.317
				c-0.083-0.087-0.146-0.197-0.187-0.332c-0.04-0.135-0.059-0.316-0.059-0.546c0-0.159,0.003-0.293,0.019-0.396
				c0.016-0.103,0.036-0.197,0.067-0.261c0.028-0.064,0.067-0.111,0.107-0.135c0.043-0.023,0.099-0.04,0.154-0.04
				c0.103,0,0.25,0.063,0.435,0.19c0.186,0.127,0.423,0.253,0.721,0.396c0.289,0.157,0.645,0.292,1.057,0.411
				c0.412,0.135,0.89,0.197,1.428,0.197c0.412,0,0.788-0.056,1.128-0.166s0.633-0.27,0.878-0.459
				c0.241-0.206,0.431-0.46,0.566-0.743c0.126-0.294,0.194-0.626,0.194-0.998c0-0.403-0.091-0.751-0.273-1.029
				c-0.182-0.292-0.423-0.537-0.724-0.76c-0.3-0.214-0.641-0.411-1.025-0.585c-0.383-0.182-0.779-0.364-1.179-0.555
				c-0.403-0.182-0.795-0.396-1.175-0.616c-0.38-0.223-0.72-0.492-1.017-0.8c-0.301-0.309-0.546-0.673-0.732-1.084
				c-0.186-0.411-0.281-0.903-0.281-1.488c0-0.586,0.111-1.116,0.325-1.582c0.213-0.46,0.515-0.856,0.898-1.172
				c0.384-0.31,0.843-0.555,1.374-0.712c0.53-0.167,1.104-0.254,1.717-0.254c0.313,0,0.629,0.032,0.95,0.087
				c0.316,0.055,0.617,0.126,0.898,0.213c0.281,0.095,0.53,0.198,0.752,0.309c0.218,0.119,0.364,0.206,0.431,0.276
				c0.071,0.072,0.115,0.128,0.139,0.167c0.023,0.04,0.04,0.087,0.055,0.151c0.012,0.063,0.024,0.141,0.032,0.229
				c0.008,0.086,0.012,0.197,0.012,0.34c0,0.126-0.008,0.245-0.016,0.348c-0.012,0.104-0.028,0.189-0.051,0.253
				c-0.02,0.08-0.051,0.126-0.091,0.159c-0.043,0.031-0.087,0.047-0.138,0.047c-0.083,0-0.206-0.047-0.38-0.157
				c-0.17-0.095-0.38-0.207-0.629-0.342c-0.249-0.126-0.545-0.245-0.882-0.348c-0.34-0.103-0.724-0.165-1.147-0.165
				c-0.396,0-0.74,0.063-1.033,0.165c-0.289,0.103-0.534,0.245-0.72,0.42c-0.194,0.175-0.333,0.38-0.431,0.625
				c-0.095,0.245-0.143,0.499-0.143,0.767c0,0.397,0.091,0.737,0.277,1.022c0.182,0.284,0.423,0.537,0.728,0.751
				c0.305,0.222,0.649,0.427,1.037,0.609c0.388,0.182,0.783,0.372,1.183,0.555c0.404,0.182,0.795,0.387,1.187,0.609
				c0.388,0.229,0.732,0.49,1.037,0.791c0.301,0.309,0.546,0.665,0.732,1.076C69.659,76.916,69.754,77.406,69.754,77.968z"/>
			<path fill="#231F20" d="M81.764,68.385c0,0.141-0.008,0.261-0.024,0.364c-0.016,0.109-0.032,0.189-0.071,0.252
				c-0.031,0.063-0.071,0.112-0.118,0.144c-0.048,0.031-0.111,0.046-0.167,0.046h-4.092v12.592c0,0.057-0.008,0.111-0.04,0.151
				c-0.031,0.047-0.087,0.087-0.158,0.11c-0.071,0.031-0.174,0.047-0.293,0.063c-0.126,0.024-0.285,0.033-0.475,0.033
				c-0.174,0-0.333-0.009-0.459-0.033c-0.126-0.016-0.222-0.031-0.301-0.063c-0.072-0.023-0.127-0.063-0.158-0.11
				c-0.032-0.04-0.047-0.095-0.047-0.151V69.19h-4.08c-0.06,0-0.115-0.015-0.163-0.046c-0.051-0.031-0.09-0.08-0.118-0.144
				c-0.028-0.063-0.055-0.143-0.075-0.252c-0.016-0.104-0.027-0.224-0.027-0.364c0-0.144,0.011-0.27,0.027-0.381
				c0.02-0.11,0.047-0.198,0.075-0.269c0.028-0.063,0.067-0.11,0.118-0.142c0.048-0.032,0.103-0.048,0.163-0.048h10.103
				c0.056,0,0.119,0.016,0.167,0.048c0.047,0.032,0.087,0.079,0.118,0.142c0.04,0.071,0.056,0.159,0.071,0.269
				C81.755,68.115,81.764,68.241,81.764,68.385z"/>
			<path fill="#929497" d="M93.002,71.811c0,0.729-0.119,1.386-0.356,1.972c-0.246,0.585-0.586,1.075-1.029,1.486
				c-0.443,0.413-0.997,0.737-1.646,0.967c-0.649,0.222-1.425,0.332-2.327,0.332h-1.646v5.239c0,0.063-0.016,0.11-0.048,0.158
				c-0.039,0.047-0.095,0.079-0.158,0.11c-0.071,0.016-0.174,0.047-0.301,0.064c-0.119,0.016-0.269,0.031-0.459,0.031
				s-0.348-0.016-0.467-0.031c-0.126-0.018-0.229-0.049-0.3-0.064c-0.071-0.031-0.127-0.063-0.158-0.11
				c-0.024-0.048-0.04-0.095-0.04-0.158V68.385c0-0.301,0.079-0.516,0.237-0.65c0.158-0.126,0.333-0.19,0.522-0.19h3.118
				c0.316,0,0.617,0.016,0.902,0.048c0.285,0.016,0.633,0.079,1.021,0.166c0.396,0.087,0.8,0.245,1.211,0.482
				c0.403,0.238,0.751,0.522,1.036,0.872c0.285,0.347,0.499,0.742,0.657,1.201C92.931,70.759,93.002,71.265,93.002,71.811z
				 M90.968,71.962c0-0.587-0.111-1.077-0.333-1.473c-0.221-0.404-0.49-0.696-0.823-0.895c-0.325-0.197-0.665-0.324-1.013-0.372
				c-0.349-0.047-0.681-0.078-1.014-0.078h-1.788v5.84h1.741c0.586,0,1.077-0.08,1.457-0.229c0.388-0.15,0.712-0.356,0.973-0.626
				c0.261-0.268,0.467-0.585,0.594-0.949C90.905,72.808,90.968,72.404,90.968,71.962z"/>
			<path fill="#929497" d="M97.584,81.799c0,0.056-0.016,0.11-0.047,0.15c-0.032,0.047-0.08,0.079-0.159,0.11
				c-0.079,0.024-0.174,0.047-0.301,0.063c-0.119,0.018-0.269,0.033-0.459,0.033c-0.174,0-0.333-0.016-0.459-0.033
				c-0.126-0.016-0.229-0.038-0.301-0.063c-0.079-0.031-0.126-0.063-0.158-0.11c-0.032-0.04-0.047-0.095-0.047-0.15v-13.89
				c0-0.063,0.016-0.11,0.047-0.158c0.04-0.048,0.095-0.079,0.174-0.111c0.079-0.023,0.174-0.047,0.3-0.063
				c0.127-0.016,0.27-0.032,0.443-0.032c0.19,0,0.34,0.016,0.459,0.032c0.127,0.016,0.222,0.04,0.301,0.063
				c0.079,0.032,0.126,0.063,0.159,0.111c0.031,0.048,0.047,0.095,0.047,0.158V81.799z"/>
			<path fill="#929497" d="M108.696,81.324c0,0.15,0,0.276-0.016,0.371c-0.016,0.111-0.047,0.19-0.079,0.27
				c-0.032,0.063-0.072,0.119-0.119,0.15c-0.047,0.04-0.103,0.056-0.182,0.056h-6.426c-0.174,0-0.333-0.064-0.49-0.175
				c-0.151-0.119-0.229-0.324-0.229-0.616V67.909c0-0.063,0.016-0.11,0.047-0.158c0.023-0.048,0.079-0.079,0.15-0.111
				c0.079-0.023,0.182-0.047,0.308-0.063c0.127-0.016,0.277-0.032,0.467-0.032c0.182,0,0.333,0.016,0.459,0.032
				c0.127,0.016,0.222,0.04,0.301,0.063c0.079,0.032,0.126,0.063,0.158,0.111s0.048,0.095,0.048,0.158v12.583h5.207
				c0.079,0,0.135,0.017,0.182,0.048s0.087,0.08,0.119,0.143c0.031,0.071,0.063,0.158,0.079,0.262
				C108.696,81.047,108.696,81.174,108.696,81.324z"/>
			<path fill="#929497" d="M121.873,74.676c0,1.147-0.134,2.177-0.403,3.095c-0.27,0.926-0.681,1.71-1.211,2.358
				c-0.538,0.641-1.21,1.14-2.018,1.487c-0.807,0.349-1.757,0.515-2.833,0.515c-1.069,0-1.995-0.158-2.77-0.475
				c-0.776-0.316-1.424-0.784-1.931-1.385c-0.507-0.602-0.887-1.361-1.124-2.256c-0.253-0.895-0.38-1.932-0.38-3.094
				c0-1.124,0.143-2.138,0.412-3.048s0.673-1.686,1.21-2.326c0.546-0.642,1.211-1.132,2.026-1.481
				c0.815-0.347,1.757-0.521,2.841-0.521c1.037,0,1.947,0.158,2.722,0.476c0.776,0.315,1.417,0.774,1.932,1.377
				c0.514,0.602,0.902,1.345,1.147,2.231C121.746,72.515,121.873,73.528,121.873,74.676z M119.886,74.811
				c0-0.808-0.079-1.552-0.221-2.248c-0.143-0.68-0.38-1.282-0.712-1.789c-0.333-0.505-0.776-0.9-1.33-1.188
				c-0.554-0.283-1.234-0.427-2.058-0.427c-0.807,0-1.495,0.159-2.05,0.459c-0.553,0.31-1.005,0.713-1.353,1.227
				c-0.348,0.515-0.594,1.108-0.744,1.789c-0.142,0.688-0.221,1.4-0.221,2.153c0,0.83,0.071,1.599,0.206,2.303
				c0.143,0.696,0.38,1.298,0.696,1.805c0.333,0.506,0.776,0.901,1.322,1.187c0.546,0.285,1.243,0.42,2.082,0.42
				c0.815,0,1.512-0.15,2.074-0.459c0.554-0.31,1.013-0.721,1.353-1.242c0.34-0.523,0.585-1.124,0.736-1.813
				C119.808,76.298,119.886,75.57,119.886,74.811z"/>
			<path fill="#929497" d="M133.167,68.385c0,0.141-0.008,0.269-0.023,0.364c-0.008,0.109-0.04,0.189-0.072,0.252
				c-0.032,0.063-0.079,0.112-0.126,0.144s-0.095,0.046-0.158,0.046h-4.099v12.616c0,0.063-0.017,0.11-0.048,0.158
				c-0.024,0.047-0.079,0.079-0.15,0.11c-0.071,0.016-0.174,0.047-0.301,0.064c-0.119,0.016-0.277,0.031-0.467,0.031
				c-0.173,0-0.333-0.016-0.458-0.031c-0.127-0.018-0.229-0.049-0.301-0.064c-0.079-0.031-0.126-0.063-0.158-0.11
				c-0.032-0.048-0.048-0.095-0.048-0.158V69.19h-4.099c-0.047,0-0.111-0.015-0.159-0.046c-0.048-0.031-0.087-0.08-0.111-0.144
				c-0.032-0.063-0.063-0.143-0.079-0.252c-0.016-0.096-0.031-0.224-0.031-0.364c0-0.144,0.016-0.27,0.031-0.381
				c0.016-0.11,0.047-0.198,0.079-0.269c0.023-0.063,0.063-0.11,0.111-0.142c0.047-0.032,0.111-0.048,0.159-0.048h10.13
				c0.063,0,0.111,0.016,0.158,0.048c0.047,0.032,0.095,0.079,0.126,0.142c0.032,0.071,0.056,0.159,0.072,0.269
				C133.159,68.115,133.167,68.241,133.167,68.385z"/>
		</g>
		<g>
			<path fill="#F9A220" d="M3.5,67.553v6.45c0,0,4.883,2.319,7.36,6.474c0,0,1.092-9.172,7.233-12.924H3.5z"/>
			
				<linearGradient id="SVGID_1_" gradientUnits="userSpaceOnUse" x1="3096.0391" y1="-10163.5938" x2="3096.0391" y2="-9894.5313" gradientTransform="matrix(0.031 0 0 -0.031 -85.1883 -232.9274)">
				<stop  offset="0" style="stop-color:#E37A27"/>
				<stop  offset="0.4725" style="stop-color:#F9A220"/>
			</linearGradient>
			<path fill="url(#SVGID_1_)" d="M3.5,79.313v2.857h6.561C10.061,82.171,7.56,79.512,3.5,79.313z M11.822,82.171h6.272v-8.342
				C14.544,74.794,11.822,82.171,11.822,82.171z"/>
			
				<linearGradient id="SVGID_2_" gradientUnits="userSpaceOnUse" x1="3095.1484" y1="-9875.5342" x2="3095.1484" y2="-9695.1553" gradientTransform="matrix(0.031 0 0 -0.031 -85.1883 -232.9274)">
				<stop  offset="0" style="stop-color:#FFFFFF"/>
				<stop  offset="1" style="stop-color:#F9A220"/>
			</linearGradient>
			<path opacity="0.5" fill="url(#SVGID_2_)" enable-background="new    " d="M3.599,67.648h14.34c0,0-2.354,0.832-4.891,5.5
				c0,0-5.548,0.569-9.438-1.124L3.599,67.648z"/>
			<g>
				
					<linearGradient id="SVGID_3_" gradientUnits="userSpaceOnUse" x1="3096.0391" y1="-9694.0264" x2="3096.0391" y2="-10161.9785" gradientTransform="matrix(0.031 0 0 -0.031 -85.1883 -232.9274)">
					<stop  offset="0" style="stop-color:#4A484A"/>
					<stop  offset="1" style="stop-color:#000000"/>
				</linearGradient>
				<path fill="url(#SVGID_3_)" d="M10.86,80.477c-2.477-4.154-7.36-6.474-7.36-6.474v5.311c4.052,0.198,6.561,2.857,6.561,2.857
					h1.761c0,0,2.723-7.377,6.272-8.342v-6.276l-0.02,0.008C11.953,71.32,10.86,80.477,10.86,80.477z"/>
			</g>
		</g>
	</g>
</g>
<g id="Stars">
</g>
</svg>
