<svg width="83" height="35" viewBox="0 0 83 35" fill="none" xmlns="http://www.w3.org/2000/svg">
<path d="M39.147 0H39.4237V35H39.147V0ZM19.864 27.0354V9.14961H17.3188L17.7891 8.12992H20.9153V27.0354H19.864ZM22.3816 27.0354L29.2704 19.6496C30.8196 17.9409 31.8433 16.7559 32.3413 15.9016C32.8392 15.0197 33.1159 14.1102 33.1159 13.1457C33.1159 11.9055 32.6456 10.8307 31.7049 9.92126C30.792 9.03937 29.6577 8.59842 28.3297 8.59842C26.9188 8.59842 25.7568 9.06693 24.8162 10.0039C23.9862 10.8583 23.4882 11.9606 23.2946 13.4213H22.2986C22.4093 11.7677 22.9902 10.4724 24.0692 9.37008C25.2312 8.18504 26.6421 7.63386 28.3851 7.63386C30.1003 7.63386 31.4283 8.15748 32.4796 9.25984C33.5309 10.3622 34.0565 11.6299 34.0565 13.0906C34.0565 14.1378 33.8075 15.1299 33.3096 16.0394C32.7839 16.9764 31.7603 18.2992 30.2387 19.9528L24.5672 26.0709H34.3609V27.0354H22.3816ZM3.8732 8.10236H2.48992L9.87667 24.3346L10.5683 22.8465L3.8732 8.10236ZM8.85304 8.10236H7.49742L12.3666 18.7953L13.0306 17.2795L8.85304 8.10236ZM6.36312 8.10236H5.0075L11.1216 21.5787L11.8133 20.063L6.36312 8.10236ZM0 8.10236L8.57638 27.2559L9.32336 25.6024L1.35562 8.10236H0ZM12.1453 8.10236H10.7896L10.4023 8.95669L11.0663 10.4724L12.1453 8.10236ZM14.6352 8.10236H13.2519L11.6473 11.7126L12.3389 13.2283L14.6352 8.10236ZM12.8922 14.5236L13.5839 16.0394L17.1251 8.10236H15.7695L12.8922 14.5236ZM46.4508 11.8504H48.4704C49.3004 11.8504 49.743 11.5197 49.743 10.6654C49.743 9.83858 49.3004 9.48032 48.4704 9.48032H46.4508V11.8504ZM44.5972 8.0748H49.1344C50.656 8.0748 51.5966 9.12205 51.5966 10.3898C51.5966 11.3819 51.2093 12.0984 50.2687 12.4843V12.5118C51.1816 12.7323 51.4306 13.6417 51.486 14.4685C51.5136 14.9921 51.5136 15.9843 51.8456 16.4528H49.992C49.7707 15.9291 49.7984 15.1024 49.6877 14.4409C49.5494 13.5591 49.2174 13.1732 48.2767 13.1732H46.4508V16.4528H44.5972V8.0748ZM57.0191 12.7598C56.8808 11.9055 56.4935 11.4921 55.6912 11.4921C54.6399 11.4921 54.3079 12.2913 54.2802 12.7598H57.0191ZM54.2802 13.8071C54.3355 14.8543 54.8612 15.3504 55.7742 15.3504C56.4381 15.3504 56.9914 14.937 57.1021 14.5787H58.5684C58.0981 16.0118 57.1021 16.6181 55.7188 16.6181C53.8099 16.6181 52.6203 15.2953 52.6203 13.4213C52.6203 11.6024 53.8652 10.2244 55.7188 10.2244C57.7937 10.2244 58.8174 11.9331 58.6791 13.8071H54.2802ZM61.8053 10.3898H63.0502V11.5197H61.8053V14.5236C61.8053 15.0748 61.9436 15.2126 62.5246 15.2126C62.7183 15.2126 62.8566 15.2126 63.0502 15.1575V16.4803C62.7736 16.5354 62.4139 16.5354 62.0543 16.5354C61.0306 16.5354 60.1177 16.2874 60.1177 15.0748V11.5197H59.1217V10.3898H60.1177V8.57087H61.8053V10.3898ZM67.6151 13.4764C67.3384 13.7244 66.7298 13.7244 66.2041 13.8346C65.6785 13.9449 65.2358 14.1102 65.2358 14.7165C65.2358 15.3504 65.7062 15.4882 66.2318 15.4882C67.5321 15.4882 67.5874 14.4685 67.5874 14.0827V13.4764H67.6151ZM63.7696 12.2362C63.8526 10.6929 65.2635 10.2244 66.6191 10.2244C67.8364 10.2244 69.3027 10.5 69.3027 11.9331V15.1024C69.3027 15.6535 69.358 16.2047 69.524 16.4528H67.8088C67.7534 16.2598 67.6981 16.0669 67.6981 15.874C67.1724 16.4252 66.3701 16.6457 65.6508 16.6457C64.5165 16.6457 63.5759 16.0669 63.5759 14.8268C63.5759 13.4488 64.6272 13.1181 65.6508 12.9803C66.6745 12.815 67.6428 12.8701 67.6428 12.1811C67.6428 11.4921 67.1448 11.3819 66.5638 11.3819C65.9275 11.3819 65.5402 11.6575 65.4848 12.2913H63.7696V12.2362ZM70.6583 10.3898H72.3183V16.4528H70.6583V10.3898ZM72.2906 9.45275H70.6307V8.0748H72.2906V9.45275ZM73.6739 8.0748H75.3615V16.4528H73.6739V8.0748ZM44.6249 18.6024H49.9643V19.2913H45.4272V22.3228H49.4664V23.0118H45.4272V27.0079H44.6249V18.6024ZM50.822 20.9449H51.569V27.0079H50.822V20.9449ZM50.822 18.6024H51.569V19.7874H50.822V18.6024ZM52.9799 20.9449H53.7269V21.9921H53.7546C54.0035 21.248 54.8059 20.752 55.6912 20.752C57.4064 20.752 57.9321 21.6614 57.9321 23.0945V27.0079H57.1851V23.2323C57.1851 22.185 56.8531 21.3858 55.6358 21.3858C54.4462 21.3858 53.7546 22.2953 53.7269 23.4528V27.0079H52.9799V20.9449ZM63.2162 23.6732H63.1886C63.1056 23.8661 62.7736 23.9213 62.5523 23.9488C61.2796 24.1693 59.7027 24.1693 59.7027 25.3543C59.7027 26.0984 60.3667 26.5394 61.0583 26.5394C62.1926 26.5394 63.1886 25.8228 63.1886 24.6378V23.6732H63.2162ZM59.26 22.8189C59.343 21.3858 60.3113 20.7795 61.7223 20.7795C62.8013 20.7795 63.9632 21.1102 63.9632 22.7362V25.9331C63.9632 26.2087 64.1015 26.374 64.4059 26.374C64.4889 26.374 64.5719 26.3465 64.6272 26.3189V26.9528C64.4612 26.9803 64.3505 27.0079 64.1292 27.0079C63.3822 27.0079 63.2716 26.5945 63.2716 25.9606H63.2439C62.7183 26.7323 62.1926 27.2008 61.003 27.2008C59.8687 27.2008 58.9834 26.6496 58.9834 25.437C58.9834 23.7283 60.6157 23.6732 62.2479 23.4803C62.8566 23.3976 63.2162 23.315 63.2162 22.6811C63.2162 21.689 62.4969 21.4134 61.6116 21.4134C60.6987 21.4134 60.007 21.8268 59.9793 22.8465H59.26V22.8189ZM65.4295 20.9449H66.1488V21.9921H66.1765C66.4531 21.248 67.2554 20.752 68.1407 20.752C69.856 20.752 70.3817 21.6614 70.3817 23.0945V27.0079H69.6347V23.2323C69.6347 22.185 69.3027 21.3858 68.0854 21.3858C66.8958 21.3858 66.2041 22.2953 66.1765 23.4528V27.0079H65.4572V20.9449H65.4295ZM76.0531 22.8465C75.8595 21.937 75.3062 21.3858 74.3379 21.3858C72.8993 21.3858 72.2076 22.6811 72.2076 23.9488C72.2076 25.2441 72.9269 26.5394 74.3379 26.5394C75.2508 26.5394 76.0255 25.8228 76.1085 24.8031H76.8554C76.6618 26.2638 75.6935 27.1457 74.3379 27.1457C72.4566 27.1457 71.4606 25.685 71.4606 23.9213C71.4606 22.185 72.4843 20.7244 74.3379 20.7244C75.6382 20.7244 76.6341 21.4134 76.8001 22.8189H76.0531V22.8465ZM82.2503 23.5354C82.2226 22.4331 81.531 21.3858 80.3137 21.3858C79.0964 21.3858 78.4324 22.4606 78.2941 23.5354H82.2503ZM78.2941 24.1693C78.2941 25.2717 78.875 26.5669 80.3137 26.5669C81.3926 26.5669 82.0013 25.9331 82.2226 25.0236H82.9696C82.6653 26.4016 81.8629 27.2008 80.3137 27.2008C78.3771 27.2008 77.5471 25.7126 77.5471 23.9764C77.5471 22.4055 78.3771 20.7795 80.3137 20.7795C82.2779 20.7795 83.0526 22.4882 82.9972 24.1693H78.2941Z" fill="#071A44"/>
</svg>
